<svg width="45" height="50" viewBox="0 0 45 50" fill="none" xmlns="http://www.w3.org/2000/svg">
<path fill-rule="evenodd" clip-rule="evenodd" d="M36.5213 24.0235H43.749C44.2884 24.0235 44.7256 24.4606 44.7256 25V44.9221C44.7256 47.7221 42.4476 50 39.6476 50H39.6468H39.6463H5.07826C2.27826 50 0.00032714 47.7221 0.00032714 44.9221V1.00232C-0.00641115 0.741092 0.0909524 0.478104 0.291734 0.28074C0.674058 -0.0948461 1.28705 -0.092893 1.66605 0.286111L4.43236 3.05252L7.19877 0.286111C7.58022 -0.0952367 8.19858 -0.0952367 8.57993 0.286111L11.3461 3.05252L14.1125 0.286111C14.4939 -0.0952367 15.1123 -0.0952367 15.4936 0.286111L18.2601 3.05252L21.0265 0.286111C21.408 -0.0952367 22.0263 -0.0952367 22.4077 0.286111L25.1738 3.05252L27.9402 0.286111C28.3216 -0.0952367 28.94 -0.0952367 29.3214 0.286111L32.0877 3.05242L34.8542 0.286014C35.1334 0.00691179 35.5534 -0.0768773 35.9184 0.0743923C36.2833 0.225564 36.5213 0.581717 36.5213 0.976639V24.0235ZM1.95336 44.922C1.95336 46.645 3.35512 48.0469 5.07826 48.0469H35.6499C34.9744 47.1845 34.5701 46.0999 34.5701 44.922V25.0265L34.5694 25.0153V25.0153C34.5691 25.0102 34.5687 25.0051 34.5687 25V3.33416L32.7788 5.12401C32.3975 5.50535 31.7792 5.50535 31.3977 5.12401L28.6313 2.3576L25.8649 5.12401C25.4835 5.50535 24.8651 5.50535 24.4838 5.12401L21.7173 2.3576L18.9509 5.12401C18.5696 5.50535 17.9512 5.50535 17.5699 5.12401L14.8034 2.3576L12.037 5.12401C11.6555 5.50535 11.0372 5.50535 10.6558 5.12401L7.8894 2.3576L5.12299 5.12401C4.74154 5.50535 4.12318 5.50535 3.74183 5.12401L1.95336 3.33553V44.922ZM39.6475 48.0469C41.3706 48.0469 42.7724 46.645 42.7724 44.922V25.9766H36.5226V44.922C36.5226 46.645 37.9245 48.0469 39.6475 48.0469ZM21.7085 16.8151H23.3123C23.5533 16.8151 23.7486 17.0102 23.7485 17.2509C23.7485 17.4915 23.5532 17.6866 23.3122 17.6866H21.7085V19.9716C21.7085 20.8775 21.2993 20.9996 20.8998 20.9996C20.7526 20.9996 20.6199 20.9789 20.5065 20.9381C20.3962 20.8986 20.2901 20.8337 20.1912 20.7453C20.0814 20.6474 19.9772 20.5303 19.8818 20.3974C19.776 20.2494 19.67 20.0985 19.5672 19.9489L18.09 17.6866H15.3602V20.1253C15.3602 20.4306 15.2954 20.657 15.1673 20.7978C15.0422 20.9353 14.8913 20.9993 14.6921 20.9993C14.4857 20.9993 14.3336 20.9356 14.2137 20.7984C14.0876 20.6544 14.024 20.4279 14.024 20.1253V17.6866H12.4362C12.1952 17.6866 12 17.4918 12 17.2511C12 17.0104 12.1952 16.8154 12.4362 16.8154H14.024V15.2759H12.4362C12.1952 15.2759 12 15.081 12 14.8403C12 14.5995 12.1952 14.4045 12.4361 14.4045H14.024V12.5691C14.024 12.2826 14.0539 12.0607 14.1105 11.9158C14.175 11.7634 14.2806 11.6414 14.4333 11.5426C14.5877 11.4428 14.7489 11.3942 14.9265 11.3942C15.0657 11.3942 15.1834 11.4154 15.2759 11.4576C15.3741 11.5025 15.4579 11.5608 15.5315 11.6362C15.6147 11.7214 15.7027 11.8354 15.7929 11.9755C15.8932 12.1311 15.9964 12.2931 16.1062 12.4661L17.3889 14.4046H20.4056V12.2686C20.4056 11.956 20.4666 11.7267 20.5868 11.5871C20.7002 11.4554 20.8464 11.3941 21.0472 11.3941C21.2577 11.3941 21.4096 11.4558 21.5252 11.5884C21.6468 11.7278 21.7085 11.9566 21.7085 12.2684V14.4044H23.3123C23.5533 14.4044 23.7486 14.5994 23.7486 14.8401C23.7486 15.0809 23.5533 15.2758 23.3123 15.2758H21.7085V16.8151ZM20.4107 16.8155V15.2761H17.9707L18.9892 16.8155H20.4107ZM15.3618 13.5076L15.9479 14.405H15.3618V13.5076ZM15.3618 15.2761V16.8155H17.5225L16.5171 15.2761H15.3618ZM20.4104 18.9639L19.5656 17.6868H20.4104V18.9639ZM27.987 16H26.0129C25.4534 16 24.9999 16.4477 24.9999 17C24.9999 17.5523 25.4534 18 26.0129 18H27.987C28.5465 18 28.9999 17.5523 28.9999 17C28.9999 16.4477 28.5465 16 27.987 16ZM8.01295 16H9.98712C10.5466 16 11 16.4477 11 17C11 17.5523 10.5466 18 9.98712 18H8.01295C7.45352 18 7.00004 17.5523 7.00004 17C7.00004 16.4477 7.45352 16 8.01295 16ZM28.5644 26.3679H13.0934C12.5541 26.3679 12.1168 26.8051 12.1168 27.3445C12.1168 27.8839 12.5541 28.3211 13.0934 28.3211H28.5644C29.1038 28.3211 29.541 27.8839 29.541 27.3445C29.5409 26.8051 29.1038 26.3679 28.5644 26.3679ZM7.956 26.3679C8.21283 26.3679 8.46478 26.4724 8.64643 26.6541C8.82807 26.8357 8.93256 27.0877 8.93256 27.3445C8.93256 27.6013 8.82807 27.8533 8.64643 28.0349C8.46478 28.2166 8.21283 28.3211 7.956 28.3211C7.69916 28.3211 7.44721 28.2166 7.26557 28.0349C7.08392 27.8533 6.97943 27.6013 6.97943 27.3445C6.97943 27.0877 7.08392 26.8357 7.26557 26.6541C7.44721 26.4724 7.69916 26.3679 7.956 26.3679ZM28.5644 32.8127H13.0934C12.5541 32.8127 12.1168 33.25 12.1168 33.7893C12.1168 34.3287 12.5541 34.7659 13.0934 34.7659H28.5644C29.1038 34.7659 29.541 34.3287 29.541 33.7893C29.5409 33.25 29.1038 32.8127 28.5644 32.8127ZM7.956 32.8127C8.21283 32.8127 8.46478 32.9172 8.64643 33.0989C8.82807 33.2805 8.93256 33.5325 8.93256 33.7893C8.93256 34.0461 8.82807 34.2981 8.64643 34.4797C8.46478 34.6614 8.21283 34.7659 7.956 34.7659C7.69916 34.7659 7.44721 34.6614 7.26557 34.4797C7.08392 34.2981 6.97943 34.0461 6.97943 33.7893C6.97943 33.5325 7.08392 33.2805 7.26557 33.0989C7.44721 32.9172 7.69916 32.8127 7.956 32.8127ZM28.5644 39.2581H13.0934C12.5541 39.2581 12.1168 39.6953 12.1168 40.2346C12.1168 40.774 12.5541 41.2112 13.0934 41.2112H28.5644C29.1038 41.2112 29.541 40.774 29.541 40.2346C29.541 39.6953 29.1038 39.2581 28.5644 39.2581ZM7.956 39.2581C8.21283 39.2581 8.46478 39.3626 8.64643 39.5442C8.82807 39.7258 8.93256 39.9778 8.93256 40.2346C8.93256 40.4915 8.82807 40.7434 8.64643 40.9251C8.46478 41.1067 8.21283 41.2112 7.956 41.2112C7.69916 41.2112 7.44721 41.1067 7.26557 40.9251C7.08392 40.7434 6.97943 40.4915 6.97943 40.2346C6.97943 39.9778 7.08392 39.7258 7.26557 39.5442C7.44721 39.3626 7.69916 39.2581 7.956 39.2581Z" fill="#343434"/>
</svg>
