<svg width="55" height="50" viewBox="0 0 55 50" fill="none" xmlns="http://www.w3.org/2000/svg">
<rect width="55" height="49.9074" rx="2" fill="#4097BB"/>
<mask id="mask0" mask-type="alpha" maskUnits="userSpaceOnUse" x="0" y="0" width="55" height="50">
<rect width="55" height="49.9074" rx="2" fill="white"/>
</mask>
<g mask="url(#mask0)">
<path d="M35.7246 10H20.5879C19.4195 10 18.4688 10.9633 18.4688 12.1472V37.8528C18.4688 39.0368 19.4195 40 20.5879 40H32.7278C32.9972 40 33.2156 39.7787 33.2156 39.5058C33.2156 39.2328 32.9972 39.0115 32.7278 39.0115H20.5879C19.9574 39.0115 19.4443 38.4917 19.4443 37.8528V12.1472C19.4443 11.5083 19.9574 10.9885 20.5879 10.9885H35.7246C36.3551 10.9885 36.8682 11.5083 36.8682 12.1472V37.8527C36.8682 38.4916 36.3551 39.0115 35.7246 39.0115H34.5814C34.312 39.0115 34.0936 39.2328 34.0936 39.5057C34.0936 39.7787 34.312 39.9999 34.5814 39.9999H35.7246C36.893 39.9999 37.8438 39.0367 37.8438 37.8528V12.1472C37.8438 10.9633 36.8931 10 35.7246 10Z" fill="white"/>
<path d="M35.4652 14.375H20.8473C20.5692 14.375 20.3438 14.5969 20.3438 14.8705V16.851C20.3438 17.1247 20.5692 17.3465 20.8473 17.3465C21.1254 17.3465 21.3508 17.1246 21.3508 16.851V15.366H34.9617V34.0091H21.3508V18.6346C21.3508 18.3609 21.1254 18.1391 20.8473 18.1391C20.5692 18.1391 20.3438 18.361 20.3438 18.6346V34.5045C20.3438 34.7782 20.5693 35 20.8473 35H35.4652C35.7433 35 35.9688 34.7782 35.9688 34.5045V14.8705C35.9688 14.5969 35.7433 14.375 35.4652 14.375Z" fill="white"/>
<path d="M30.4953 11.875H25.1922C24.9307 11.875 24.7188 12.1549 24.7188 12.5C24.7188 12.8452 24.9308 13.125 25.1922 13.125H30.4953C30.7568 13.125 30.9688 12.8451 30.9688 12.5C30.9688 12.1549 30.7567 11.875 30.4953 11.875Z" fill="white"/>
<path d="M33.3499 24.672L30.9178 21.77C30.7393 21.5572 30.4246 21.5314 30.2148 21.7124C30.005 21.8934 29.9795 22.2128 30.158 22.4258L31.8911 24.4938H30.6535C30.378 24.4938 30.1548 24.7204 30.1548 24.9999V30.2377H26.1576V24.9999C26.1576 24.7204 25.9343 24.4939 25.6589 24.4939H24.4213L28.1562 20.0373L29.1998 21.2825C29.3782 21.4955 29.693 21.5212 29.9029 21.3402C30.1127 21.1591 30.1382 20.8398 29.9597 20.6268L28.5361 18.9282C28.4414 18.8152 28.3025 18.75 28.1562 18.75C28.01 18.75 27.8711 18.8152 27.7763 18.9282L22.9625 24.6721C22.8366 24.8225 22.8082 25.0332 22.8898 25.2123C22.9714 25.3914 23.1481 25.5061 23.3426 25.5061H25.1603V30.7439C25.1603 31.0234 25.3836 31.25 25.659 31.25H30.6536C30.9291 31.25 31.1524 31.0234 31.1523 30.7439V25.506H32.97C33.1645 25.506 33.3411 25.3914 33.4227 25.2123C33.5043 25.0332 33.4758 24.8223 33.3499 24.672Z" fill="white"/>
<path d="M27.8438 38.125C28.1889 38.125 28.4688 37.8452 28.4688 37.5C28.4688 37.1548 28.1889 36.875 27.8438 36.875C27.4986 36.875 27.2188 37.1548 27.2188 37.5C27.2188 37.8452 27.4986 38.125 27.8438 38.125Z" fill="white"/>
</g>
</svg>
