<svg width="110" height="126" viewBox="0 0 110 126" fill="none" xmlns="http://www.w3.org/2000/svg">
<path d="M56.1911 47.6595H18.3104C15.0604 47.6595 12.4258 50.2942 12.4258 53.5442V119.625C12.4258 122.875 15.0604 125.51 18.3104 125.51H56.1911C59.4411 125.51 62.0757 122.875 62.0757 119.625V53.5442C62.0757 50.2942 59.4411 47.6595 56.1911 47.6595Z" fill="#575756"/>
<path d="M29.0273 87.501H22.1847C21.5347 87.501 21.0078 88.0279 21.0078 88.6779V92.4539C21.0078 93.1039 21.5347 93.6308 22.1847 93.6308H29.0273C29.6773 93.6308 30.2042 93.1039 30.2042 92.4539V88.6779C30.2042 88.0279 29.6773 87.501 29.0273 87.501Z" fill="#B1B1B1"/>
<path d="M29.0273 96.0828H22.1847C21.5347 96.0828 21.0078 96.6097 21.0078 97.2597V101.036C21.0078 101.686 21.5347 102.213 22.1847 102.213H29.0273C29.6773 102.213 30.2042 101.686 30.2042 101.036V97.2597C30.2042 96.6097 29.6773 96.0828 29.0273 96.0828Z" fill="#B1B1B1"/>
<path d="M29.0273 104.665H22.1847C21.5347 104.665 21.0078 105.192 21.0078 105.842V109.618C21.0078 110.268 21.5347 110.795 22.1847 110.795H29.0273C29.6773 110.795 30.2042 110.268 30.2042 109.618V105.842C30.2042 105.192 29.6773 104.665 29.0273 104.665Z" fill="#B1B1B1"/>
<path d="M29.0273 113.247H22.1847C21.5347 113.247 21.0078 113.774 21.0078 114.424V118.199C21.0078 118.849 21.5347 119.376 22.1847 119.376H29.0273C29.6773 119.376 30.2042 118.849 30.2042 118.199V114.424C30.2042 113.774 29.6773 113.247 29.0273 113.247Z" fill="#F15C4F"/>
<path d="M40.6695 87.501H33.8302C33.1803 87.501 32.6533 88.0279 32.6533 88.6779V92.4539C32.6533 93.1039 33.1803 93.6308 33.8302 93.6308H40.6695C41.3195 93.6308 41.8464 93.1039 41.8464 92.4539V88.6779C41.8464 88.0279 41.3195 87.501 40.6695 87.501Z" fill="#B1B1B1"/>
<path d="M40.6695 96.0828H33.8302C33.1803 96.0828 32.6533 96.6097 32.6533 97.2597V101.036C32.6533 101.686 33.1803 102.213 33.8302 102.213H40.6695C41.3195 102.213 41.8464 101.686 41.8464 101.036V97.2597C41.8464 96.6097 41.3195 96.0828 40.6695 96.0828Z" fill="#B1B1B1"/>
<path d="M40.6695 104.665H33.8302C33.1803 104.665 32.6533 105.192 32.6533 105.842V109.618C32.6533 110.268 33.1803 110.795 33.8302 110.795H40.6695C41.3195 110.795 41.8464 110.268 41.8464 109.618V105.842C41.8464 105.192 41.3195 104.665 40.6695 104.665Z" fill="#B1B1B1"/>
<path d="M40.6695 113.247H33.8302C33.1803 113.247 32.6533 113.774 32.6533 114.424V118.199C32.6533 118.849 33.1803 119.376 33.8302 119.376H40.6695C41.3195 119.376 41.8464 118.849 41.8464 118.199V114.424C41.8464 113.774 41.3195 113.247 40.6695 113.247Z" fill="#FED667"/>
<path d="M52.3202 87.501H45.4777C44.8277 87.501 44.3008 88.0279 44.3008 88.6779V92.4539C44.3008 93.1039 44.8277 93.6308 45.4777 93.6308H52.3202C52.9702 93.6308 53.4972 93.1039 53.4972 92.4539V88.6779C53.4972 88.0279 52.9702 87.501 52.3202 87.501Z" fill="#B1B1B1"/>
<path d="M52.3202 96.0828H45.4777C44.8277 96.0828 44.3008 96.6097 44.3008 97.2597V101.036C44.3008 101.686 44.8277 102.213 45.4777 102.213H52.3202C52.9702 102.213 53.4972 101.686 53.4972 101.036V97.2597C53.4972 96.6097 52.9702 96.0828 52.3202 96.0828Z" fill="#B1B1B1"/>
<path d="M52.3202 104.665H45.4777C44.8277 104.665 44.3008 105.192 44.3008 105.842V109.618C44.3008 110.268 44.8277 110.795 45.4777 110.795H52.3202C52.9702 110.795 53.4972 110.268 53.4972 109.618V105.842C53.4972 105.192 52.9702 104.665 52.3202 104.665Z" fill="#B1B1B1"/>
<path d="M52.3202 113.247H45.4777C44.8277 113.247 44.3008 113.774 44.3008 114.424V118.199C44.3008 118.849 44.8277 119.376 45.4777 119.376H52.3202C52.9702 119.376 53.4972 118.849 53.4972 118.199V114.424C53.4972 113.774 52.9702 113.247 52.3202 113.247Z" fill="#6BD863"/>
<path d="M53.008 49.7023H21.499V51.7455H53.008V49.7023Z" fill="#3C3C3B"/>
<path d="M53.0079 53.7885H21.499C19.874 53.7885 18.5566 55.1058 18.5566 56.7308V78.432C18.5566 80.057 19.874 81.3743 21.499 81.3743H53.0079C54.6329 81.3743 55.9502 80.057 55.9502 78.432V56.7308C55.9502 55.1058 54.6329 53.7885 53.0079 53.7885Z" fill="#6BD863"/>
<path d="M44.1645 61.2824L33.0244 72.4225L34.4692 73.8673L45.6093 62.7272L44.1645 61.2824Z" fill="white"/>
<path d="M35.9074 72.4267L30.3366 66.856L28.8916 68.301L33.0174 72.4267H35.9074Z" fill="white"/>
<path d="M0 0V38.7078C0 40.2685 0.619987 41.7653 1.72357 42.8689C2.82715 43.9725 4.32393 44.5925 5.88463 44.5925H27.4191V0H0Z" fill="url(#paint0_linear)"/>
<path d="M37.25 44.5929V23.1401H17.6542C16.0935 23.1401 14.5967 23.7601 13.4931 24.8637C12.3895 25.9673 11.7695 27.4641 11.7695 29.0248V44.5929H37.25Z" fill="#D9D9D9"/>
<path d="M12.7884 44.5929H5.88379C7.44449 44.5929 8.94127 43.9729 10.0449 42.8693C11.1484 41.7657 11.7684 40.269 11.7684 38.7083H12.7884V44.5929Z" fill="#D9D9D9"/>
<path d="M23.5371 23.1401V50.7227H50.9562V29.0248C50.9562 27.4641 50.3362 25.9673 49.2327 24.8637C48.1291 23.7601 46.6323 23.1401 45.0716 23.1401H23.5371Z" fill="white"/>
<path d="M24.558 23.1401H17.6533C19.214 23.1401 20.7108 23.7601 21.8144 24.8637C22.918 25.9673 23.538 27.4641 23.538 29.0248H24.558V23.1401Z" fill="white"/>
<path d="M47.8941 30.2891H26.6016V31.3091H47.8941V30.2891Z" fill="#D9D9D9"/>
<path d="M47.8941 34.3757H26.6016V35.3957H47.8941V34.3757Z" fill="#D9D9D9"/>
<path d="M47.8941 38.4631H26.6016V39.4831H47.8941V38.4631Z" fill="#D9D9D9"/>
<path d="M47.8941 42.5486H26.6016V43.5686H47.8941V42.5486Z" fill="#D9D9D9"/>
<path d="M12.4266 61.0333C12.571 60.2735 12.9408 59.5747 13.4876 59.0278C14.0345 58.4809 14.7333 58.1112 15.4931 57.9667C14.7344 57.8223 14.0365 57.4534 13.4897 56.9078C12.943 56.3623 12.5726 55.6652 12.4266 54.9067C12.2813 55.6653 11.9117 56.3628 11.3655 56.909C10.8194 57.4551 10.1219 57.8247 9.36328 57.97C10.1219 58.1153 10.8194 58.4849 11.3655 59.0311C11.9117 59.5772 12.2813 60.2747 12.4266 61.0333Z" fill="white"/>
<path d="M7.98002 55.335C8.96946 55.335 9.77156 54.5329 9.77156 53.5435C9.77156 52.5541 8.96946 51.752 7.98002 51.752C6.99058 51.752 6.18848 52.5541 6.18848 53.5435C6.18848 54.5329 6.99058 55.335 7.98002 55.335Z" fill="white"/>
<path d="M88.0509 83.081H87.0276C87.0276 81.8643 86.7879 80.6595 86.3223 79.5354C85.8567 78.4113 85.1743 77.39 84.3139 76.5296C83.4536 75.6693 82.4322 74.9868 81.3081 74.5212C80.1841 74.0556 78.9793 73.816 77.7626 73.816C76.5459 73.816 75.3411 74.0556 74.217 74.5212C73.0929 74.9868 72.0715 75.6693 71.2112 76.5296C70.3509 77.39 69.6684 78.4113 69.2028 79.5354C68.7372 80.6595 68.4975 81.8643 68.4975 83.081H67.4775C67.5256 80.3845 68.6305 77.8148 70.5544 75.9249C72.4783 74.035 75.0673 72.9761 77.7642 72.9761C80.4611 72.9761 83.0501 74.035 84.974 75.9249C86.8979 77.8148 88.0028 80.3845 88.0509 83.081Z" fill="white"/>
<path d="M83.9657 83.0813H82.9424C82.9424 81.7079 82.3968 80.3907 81.4256 79.4195C80.4545 78.4484 79.1373 77.9028 77.7639 77.9028C76.3905 77.9028 75.0733 78.4484 74.1022 79.4195C73.131 80.3907 72.5854 81.7079 72.5854 83.0813H71.5654C71.6614 81.502 72.3564 80.0189 73.5086 78.9346C74.6608 77.8503 76.1834 77.2466 77.7655 77.2466C79.3477 77.2466 80.8703 77.8503 82.0225 78.9346C83.1747 80.0189 83.8697 81.502 83.9657 83.0813Z" fill="white"/>
<path d="M79.8834 83.0812H78.8601C78.8601 82.7916 78.7451 82.5139 78.5403 82.3091C78.3355 82.1044 78.0578 81.9893 77.7682 81.9893C77.4786 81.9893 77.2008 82.1044 76.9961 82.3091C76.7913 82.5139 76.6763 82.7916 76.6763 83.0812H75.6562C75.6777 82.5351 75.9098 82.0184 76.3038 81.6396C76.6979 81.2608 77.2232 81.0492 77.7698 81.0492C78.3164 81.0492 78.8418 81.2608 79.2358 81.6396C79.6298 82.0184 79.8619 82.5351 79.8834 83.0812Z" fill="white"/>
<path d="M93.4616 85.6638H56.4374C54.8124 85.6638 53.4951 86.9811 53.4951 88.6061V109.693C53.4951 111.318 54.8124 112.635 56.4374 112.635H93.4616C95.0866 112.635 96.4039 111.318 96.4039 109.693V88.6061C96.4039 86.9811 95.0866 85.6638 93.4616 85.6638Z" fill="#3C3C3B"/>
<path d="M82.8182 105.214H75.8057V107.793H82.8182V105.214Z" fill="#B1B1B1"/>
<path d="M91.5506 105.214H84.5381V107.793H91.5506V105.214Z" fill="#B1B1B1"/>
<path d="M65.3592 105.214H58.3467V107.793H65.3592V105.214Z" fill="#B1B1B1"/>
<path d="M74.0906 105.214H67.0781V107.793H74.0906V105.214Z" fill="#B1B1B1"/>
<path d="M89.2098 95.3212C89.2098 95.2067 89.2553 95.097 89.3362 95.0161C89.4172 94.9351 89.5269 94.8897 89.6414 94.8897H91.5473V93.1275H89.6414C89.5269 93.1275 89.4172 93.0821 89.3362 93.0011C89.2553 92.9202 89.2098 92.8104 89.2098 92.696C89.2098 92.5815 89.2553 92.4718 89.3362 92.3909C89.4172 92.3099 89.5269 92.2645 89.6414 92.2645H91.5473V91.5223C91.5478 91.3868 91.5215 91.2526 91.4699 91.1272C91.4183 91.0019 91.3425 90.888 91.2469 90.792C91.1512 90.6961 91.0375 90.6199 90.9124 90.568C90.7872 90.516 90.653 90.4893 90.5175 90.4893H85.5679C85.4324 90.4893 85.2982 90.516 85.1731 90.568C85.0479 90.6199 84.9342 90.6961 84.8386 90.792C84.7429 90.888 84.6671 91.0019 84.6155 91.1272C84.564 91.2526 84.5377 91.3868 84.5381 91.5223V92.2514H86.4441C86.5006 92.2514 86.5565 92.2626 86.6087 92.2843C86.6609 92.306 86.7082 92.3379 86.7481 92.378C86.7879 92.4181 86.8193 92.4657 86.8407 92.518C86.862 92.5704 86.8728 92.6264 86.8723 92.6829C86.8728 92.7394 86.862 92.7955 86.8407 92.8478C86.8193 92.9002 86.7879 92.9478 86.7481 92.9879C86.7082 93.028 86.6609 93.0598 86.6087 93.0816C86.5565 93.1033 86.5006 93.1145 86.4441 93.1145H84.5381V94.8766H86.4441C86.5006 94.8766 86.5565 94.8878 86.6087 94.9095C86.6609 94.9312 86.7082 94.9631 86.7481 95.0032C86.7879 95.0433 86.8193 95.0909 86.8407 95.1432C86.862 95.1956 86.8728 95.2516 86.8723 95.3081C86.8723 95.4217 86.8272 95.5306 86.7469 95.611C86.6666 95.6913 86.5576 95.7364 86.4441 95.7364H84.5381V96.4687C84.5381 96.7421 84.6465 97.0044 84.8395 97.198C85.0325 97.3917 85.2945 97.5009 85.5679 97.5018H90.5175C90.791 97.5009 91.0529 97.3917 91.2459 97.198C91.439 97.0044 91.5473 96.7421 91.5473 96.4687V95.7364H89.6414C89.5297 95.7365 89.4224 95.6933 89.3419 95.6158C89.2614 95.5384 89.2141 95.4328 89.2098 95.3212Z" fill="#FED667"/>
<path d="M74.0881 90.5024H58.3467V93.0819H74.0881V90.5024Z" fill="white"/>
<path d="M98.9795 109.435V108.415C101.437 108.415 103.793 107.438 105.531 105.701C107.268 103.963 108.245 101.607 108.245 99.1495C108.245 96.6923 107.268 94.3357 105.531 92.5981C103.793 90.8606 101.437 89.8845 98.9795 89.8845V88.8612C101.676 88.9093 104.246 90.0142 106.136 91.9381C108.025 93.862 109.084 96.451 109.084 99.1479C109.084 101.845 108.025 104.434 106.136 106.358C104.246 108.282 101.676 109.386 98.9795 109.435Z" fill="white"/>
<path d="M98.9795 105.348V104.328C100.353 104.328 101.67 103.783 102.641 102.812C103.612 101.84 104.158 100.523 104.158 99.1499C104.158 97.7765 103.612 96.4593 102.641 95.4881C101.67 94.517 100.353 93.9714 98.9795 93.9714V92.9481C100.559 93.0441 102.042 93.7391 103.126 94.8913C104.21 96.0435 104.814 97.5661 104.814 99.1482C104.814 100.73 104.21 102.253 103.126 103.405C102.042 104.557 100.559 105.252 98.9795 105.348Z" fill="white"/>
<path d="M98.9795 101.262V100.242C99.2691 100.242 99.5468 100.127 99.7516 99.9217C99.9564 99.717 100.071 99.4392 100.071 99.1496C100.071 98.86 99.9564 98.5823 99.7516 98.3775C99.5468 98.1727 99.2691 98.0577 98.9795 98.0577V97.0344C99.5257 97.0559 100.042 97.288 100.421 97.682C100.8 98.076 101.012 98.6014 101.012 99.148C101.012 99.6946 100.8 100.22 100.421 100.614C100.042 101.008 99.5257 101.24 98.9795 101.262Z" fill="white"/>
<defs>
<linearGradient id="paint0_linear" x1="13.7096" y1="0" x2="13.7096" y2="44.5925" gradientUnits="userSpaceOnUse">
<stop stop-color="#F5F5F5"/>
<stop offset="0.0001" stop-color="#F5F5F5" stop-opacity="0"/>
<stop offset="1" stop-color="#F5F5F5"/>
</linearGradient>
</defs>
</svg>
