<svg xmlns="http://www.w3.org/2000/svg" width="85" height="28" fill="none" viewBox="0 0 85 28"><path fill="#00383E" d="M81.6667 0H2.91667C1.30584 0 0 1.30584 0 2.91667V25.0833C0 26.6942 1.30584 28 2.91667 28H81.6667C83.2775 28 84.5833 26.6942 84.5833 25.0833V2.91667C84.5833 1.30584 83.2775 0 81.6667 0Z"/><path fill="#fff" d="M33.7804 9.99263C33.2049 9.99263 32.7207 9.80596 32.3279 9.43263C31.9352 9.05929 31.7388 8.57318 31.7388 7.97429C31.7388 7.3754 31.9352 6.89124 32.3279 6.52179C32.7207 6.14846 33.2049 5.96179 33.7804 5.96179C34.4493 5.96179 34.9724 6.23207 35.3496 6.77263L34.7896 7.08763C34.6807 6.93596 34.5368 6.81151 34.3579 6.71429C34.1829 6.61707 33.9904 6.56846 33.7804 6.56846C33.3954 6.56846 33.0746 6.70068 32.8179 6.96513C32.5652 7.22957 32.4388 7.56596 32.4388 7.97429C32.4388 8.38263 32.5652 8.72096 32.8179 8.98929C33.0746 9.25374 33.3954 9.38596 33.7804 9.38596C33.9632 9.38596 34.1363 9.35096 34.2996 9.28096C34.4668 9.21096 34.601 9.12929 34.7021 9.03596V8.42929H33.5413V7.82846H35.3846V9.28679C34.9607 9.75735 34.426 9.99263 33.7804 9.99263Z"/><path fill="#fff" d="M37.3784 9.98679C36.9506 9.98679 36.5968 9.85068 36.3168 9.57846C36.0406 9.30235 35.9026 8.94457 35.9026 8.50513C35.9026 8.0929 36.0368 7.74485 36.3051 7.46096C36.5773 7.17318 36.9195 7.02929 37.3318 7.02929C37.7479 7.02929 38.0823 7.17318 38.3351 7.46096C38.5918 7.74874 38.7201 8.11624 38.7201 8.56346V8.70929H36.5443C36.5676 8.93096 36.659 9.11568 36.8184 9.26346C36.9779 9.41124 37.1859 9.48513 37.4426 9.48513C37.5865 9.48513 37.7304 9.4579 37.8743 9.40346C38.022 9.34901 38.1445 9.27318 38.2418 9.17596L38.5218 9.57846C38.2379 9.85068 37.8568 9.98679 37.3784 9.98679ZM38.1251 8.27763C38.1173 8.08318 38.0454 7.91013 37.9093 7.75846C37.777 7.60679 37.5845 7.53096 37.3318 7.53096C37.0906 7.53096 36.902 7.60679 36.7659 7.75846C36.6298 7.90624 36.554 8.07929 36.5384 8.27763H38.1251Z"/><path fill="#fff" d="M40.1705 9.98679C39.9333 9.98679 39.7524 9.92457 39.628 9.80013C39.5074 9.67568 39.4472 9.49679 39.4472 9.26346V7.63596H38.9805V7.09929H39.4472V6.32929H40.0597V7.09929H40.6313V7.63596H40.0597V9.11179C40.0597 9.2129 40.083 9.29457 40.1297 9.35679C40.1763 9.41513 40.2424 9.44429 40.328 9.44429C40.4524 9.44429 40.5438 9.41124 40.6022 9.34513L40.748 9.80596C40.6197 9.92651 40.4272 9.98679 40.1705 9.98679Z"/><path fill="#fff" d="M42.989 6.75513C42.8879 6.75513 42.7984 6.71818 42.7207 6.64429C42.6468 6.5704 42.6098 6.48096 42.6098 6.37596C42.6098 6.27096 42.6468 6.18151 42.7207 6.10763C42.7984 6.03374 42.8879 5.99679 42.989 5.99679C43.094 5.99679 43.1834 6.03374 43.2573 6.10763C43.3312 6.18151 43.3682 6.27096 43.3682 6.37596C43.3682 6.48096 43.3312 6.5704 43.2573 6.64429C43.1834 6.71818 43.094 6.75513 42.989 6.75513ZM43.2982 9.91679H42.6857V7.09929H43.2982V9.91679Z"/><path fill="#fff" d="M44.9386 9.98679C44.7013 9.98679 44.5205 9.92457 44.3961 9.80013C44.2755 9.67568 44.2152 9.49679 44.2152 9.26346V7.63596H43.7486V7.09929H44.2152V6.32929H44.8277V7.09929H45.3994V7.63596H44.8277V9.11179C44.8277 9.2129 44.8511 9.29457 44.8977 9.35679C44.9444 9.41513 45.0105 9.44429 45.0961 9.44429C45.2205 9.44429 45.3119 9.41124 45.3702 9.34513L45.5161 9.80596C45.3877 9.92651 45.1952 9.98679 44.9386 9.98679Z"/><path fill="#fff" d="M48.7254 9.98679C48.2898 9.98679 47.9398 9.84485 47.6754 9.56096C47.4109 9.27318 47.2787 8.92124 47.2787 8.50513C47.2787 8.08901 47.4109 7.73901 47.6754 7.45513C47.9398 7.17124 48.2898 7.02929 48.7254 7.02929C49.1648 7.02929 49.5168 7.17124 49.7812 7.45513C50.0457 7.73901 50.1779 8.08901 50.1779 8.50513C50.1779 8.92513 50.0457 9.27707 49.7812 9.56096C49.5168 9.84485 49.1648 9.98679 48.7254 9.98679ZM48.7254 9.44429C48.9782 9.44429 49.1765 9.35485 49.3204 9.17596C49.4682 8.99318 49.5421 8.76957 49.5421 8.50513C49.5421 8.24457 49.4682 8.02485 49.3204 7.84596C49.1765 7.66318 48.9782 7.57179 48.7254 7.57179C48.4765 7.57179 48.2782 7.66318 48.1304 7.84596C47.9865 8.02485 47.9146 8.24457 47.9146 8.50513C47.9146 8.76957 47.9865 8.99318 48.1304 9.17596C48.2782 9.35485 48.4765 9.44429 48.7254 9.44429Z"/><path fill="#fff" d="M53.3118 9.91679H52.6993V8.15513C52.6993 7.76624 52.5107 7.57179 52.1335 7.57179C51.9857 7.57179 51.8476 7.60874 51.7193 7.68263C51.591 7.75651 51.4879 7.84596 51.4101 7.95096V9.91679H50.7976V7.09929H51.4101V7.48429C51.5151 7.35985 51.6551 7.2529 51.8301 7.16346C52.0051 7.07401 52.1957 7.02929 52.4018 7.02929C52.7013 7.02929 52.9268 7.10707 53.0785 7.26263C53.234 7.41818 53.3118 7.64179 53.3118 7.93346V9.91679Z"/><path fill="#fff" d="M33.0027 19.8333H32.228V13.608H34.7294C35.3329 13.608 35.8089 13.7884 36.1574 14.1493C36.5058 14.5102 36.68 14.9551 36.68 15.484C36.68 16.0129 36.5027 16.4578 36.148 16.8186C35.7996 17.1795 35.3267 17.36 34.7294 17.36H33.0027V19.8333ZM34.636 16.6693C35.0031 16.6693 35.3018 16.5604 35.532 16.3426C35.7622 16.1186 35.8774 15.8324 35.8774 15.484C35.8774 15.1355 35.7622 14.8524 35.532 14.6346C35.3018 14.4106 35.0031 14.2986 34.636 14.2986H33.0027V16.6693H34.636Z"/><path fill="#fff" d="M38.3779 19.8333H37.6779V13.608H38.3779V19.8333Z"/><path fill="#fff" d="M43.2929 19.8333H42.5929V19.32C42.2134 19.7369 41.7156 19.9453 41.0996 19.9453C40.6827 19.9453 40.3156 19.8115 39.9982 19.544C39.6809 19.2764 39.5222 18.9124 39.5222 18.452C39.5222 17.9791 39.6778 17.6151 39.9889 17.36C40.3062 17.0986 40.6765 16.968 41.0996 16.968C41.7405 16.968 42.2382 17.1733 42.5929 17.584V16.772C42.5929 16.4733 42.4871 16.24 42.2756 16.072C42.064 15.904 41.7902 15.82 41.4542 15.82C40.9254 15.82 40.4649 16.0284 40.0729 16.4453L39.7462 15.96C40.2254 15.4622 40.8258 15.2133 41.5476 15.2133C42.064 15.2133 42.484 15.3378 42.8076 15.5866C43.1311 15.8355 43.2929 16.2182 43.2929 16.7346V19.8333ZM41.3516 19.4413C41.9116 19.4413 42.3254 19.2546 42.5929 18.8813V18.032C42.3254 17.6586 41.9116 17.472 41.3516 17.472C41.028 17.472 40.7605 17.5653 40.5489 17.752C40.3436 17.9324 40.2409 18.1689 40.2409 18.4613C40.2409 18.7475 40.3436 18.984 40.5489 19.1706C40.7605 19.3511 41.028 19.4413 41.3516 19.4413Z"/><path fill="#fff" d="M44.4441 21.5973L44.5561 20.9626C44.6681 21.0124 44.7957 21.0373 44.9388 21.0373C45.1006 21.0373 45.2343 21.0031 45.3401 20.9346C45.4459 20.8662 45.5361 20.7418 45.6108 20.5613L45.9095 19.88L44.0241 15.3253H44.7801L46.2828 19.0213L47.7761 15.3253H48.5415L46.2828 20.748C46.0339 21.3453 45.5921 21.6502 44.9575 21.6626C44.7708 21.6626 44.5997 21.6409 44.4441 21.5973Z"/><path fill="#fff" d="M53.7219 19.9453C52.7139 19.9453 51.9174 19.6155 51.3326 18.956L51.7899 18.368C52.3188 18.9591 52.9721 19.2546 53.7499 19.2546C54.2539 19.2546 54.6241 19.1489 54.8606 18.9373C55.097 18.7195 55.2152 18.4675 55.2152 18.1813C55.2152 17.9635 55.1468 17.78 55.0099 17.6306C54.873 17.4813 54.6957 17.3662 54.4779 17.2853C54.2663 17.1982 54.0268 17.1204 53.7592 17.052C53.4979 16.9835 53.2366 16.9089 52.9752 16.828C52.7139 16.7409 52.4743 16.6382 52.2566 16.52C52.045 16.4018 51.8708 16.2338 51.7339 16.016C51.597 15.7982 51.5286 15.54 51.5286 15.2413C51.5286 14.7311 51.7308 14.3173 52.1352 14C52.5397 13.6764 53.0499 13.5146 53.6659 13.5146C54.593 13.5146 55.3303 13.804 55.8779 14.3826L55.4112 14.952C54.957 14.4542 54.3566 14.2053 53.6099 14.2053C53.2366 14.2053 52.9286 14.2986 52.6859 14.4853C52.4494 14.6658 52.3312 14.9022 52.3312 15.1946C52.3312 15.4124 52.4214 15.5929 52.6019 15.736C52.7886 15.8791 53.0157 15.9849 53.2832 16.0533C53.557 16.1218 53.8526 16.2089 54.1699 16.3146C54.4934 16.4142 54.789 16.5231 55.0566 16.6413C55.3303 16.7533 55.5574 16.9369 55.7379 17.192C55.9246 17.4471 56.0179 17.7551 56.0179 18.116C56.0179 18.6262 55.8281 19.0586 55.4486 19.4133C55.0752 19.768 54.4997 19.9453 53.7219 19.9453Z"/><path fill="#fff" d="M58.1304 19.9453C57.8006 19.9453 57.5517 19.8551 57.3837 19.6746C57.2157 19.4942 57.1317 19.2329 57.1317 18.8906V15.9413H56.385V15.3253H57.1317V14.0933H57.8317V15.3253H58.7464V15.9413H57.8317V18.7413C57.8317 18.9155 57.869 19.0555 57.9437 19.1613C58.0246 19.2671 58.1397 19.32 58.289 19.32C58.4944 19.32 58.653 19.2578 58.765 19.1333L58.9704 19.656C58.765 19.8489 58.485 19.9453 58.1304 19.9453Z"/><path fill="#fff" d="M63.3192 19.264C62.9147 19.7182 62.3765 19.9453 61.7045 19.9453C61.0325 19.9453 60.4912 19.7182 60.0805 19.264C59.6761 18.8098 59.4738 18.2466 59.4738 17.5746C59.4738 16.9026 59.6761 16.3426 60.0805 15.8946C60.4912 15.4404 61.0325 15.2133 61.7045 15.2133C62.3765 15.2133 62.9147 15.4404 63.3192 15.8946C63.7298 16.3426 63.9352 16.9026 63.9352 17.5746C63.9352 18.2466 63.7298 18.8098 63.3192 19.264ZM60.6032 18.816C60.877 19.152 61.2441 19.32 61.7045 19.32C62.165 19.32 62.529 19.152 62.7965 18.816C63.0641 18.4738 63.1978 18.06 63.1978 17.5746C63.1978 17.0893 63.0641 16.6786 62.7965 16.3426C62.529 16.0066 62.165 15.8386 61.7045 15.8386C61.2441 15.8386 60.877 16.0098 60.6032 16.352C60.3356 16.688 60.2018 17.0955 60.2018 17.5746C60.2018 18.06 60.3356 18.4738 60.6032 18.816Z"/><path fill="#fff" d="M65.7763 19.8333H65.0763V15.3253H65.7763V16.0533C66.1932 15.5058 66.6941 15.232 67.279 15.232V15.9506C67.1919 15.932 67.0985 15.9226 66.999 15.9226C66.7874 15.9226 66.5572 15.9973 66.3083 16.1466C66.0594 16.296 65.8821 16.4609 65.7763 16.6413V19.8333Z"/><path fill="#fff" d="M70.1917 19.9453C69.5197 19.9453 68.9691 19.7275 68.5397 19.292C68.1104 18.8502 67.8957 18.2778 67.8957 17.5746C67.8957 16.9151 68.1073 16.3582 68.5304 15.904C68.9535 15.4435 69.4824 15.2133 70.1171 15.2133C70.7828 15.2133 71.3086 15.4435 71.6944 15.904C72.0864 16.3582 72.2824 16.9338 72.2824 17.6306V17.808H68.6331C68.6642 18.2498 68.8259 18.62 69.1184 18.9186C69.4108 19.2173 69.7904 19.3666 70.2571 19.3666C70.8171 19.3666 71.2806 19.1769 71.6477 18.7973L71.9837 19.2546C71.5233 19.7151 70.9259 19.9453 70.1917 19.9453ZM71.5917 17.2946C71.5855 16.9089 71.4548 16.5635 71.1997 16.2586C70.9446 15.9475 70.5806 15.792 70.1077 15.792C69.6597 15.792 69.3051 15.9444 69.0437 16.2493C68.7886 16.5542 68.6517 16.9026 68.6331 17.2946H71.5917Z"/><path fill="#fff" fill-rule="evenodd" d="M15.9654 14.4315L17.8653 16.3322L10.2657 20.1314L15.9654 14.4315ZM9.70097 8.16638L15.3465 13.8132L9.35373 19.8064C9.34034 19.7569 9.3335 19.7057 9.3335 19.6541V8.70847C9.3335 8.46256 9.48566 8.25219 9.70097 8.16638ZM18.1996 12.1975L21.1233 13.6595C21.4115 13.8036 21.5283 14.154 21.3842 14.4422C21.3278 14.5551 21.2362 14.6466 21.1233 14.703L18.6902 15.9192L16.5837 13.8132L18.1996 12.1975ZM11.738 8.96645L17.3742 11.7851L15.9654 13.1943L11.738 8.96645Z" clip-rule="evenodd"/></svg>