<svg width="145" height="48" viewBox="0 0 145 48" fill="none" xmlns="http://www.w3.org/2000/svg">
<rect width="145" height="48" rx="5" fill="white"/>
<path d="M57.19 16H54.71V9.33H57.19C58.2233 9.33 59.0633 9.64 59.71 10.26C60.3567 10.88 60.68 11.6833 60.68 12.67C60.68 13.65 60.3567 14.45 59.71 15.07C59.07 15.69 58.23 16 57.19 16ZM57.19 14.97C57.89 14.97 58.4467 14.75 58.86 14.31C59.2733 13.87 59.48 13.3233 59.48 12.67C59.48 11.9967 59.2767 11.4433 58.87 11.01C58.47 10.5767 57.91 10.36 57.19 10.36H55.88V14.97H57.19ZM63.9596 16.12C63.2129 16.12 62.6129 15.8767 62.1596 15.39C61.7063 14.8967 61.4796 14.2933 61.4796 13.58C61.4796 12.8667 61.7063 12.2667 62.1596 11.78C62.6129 11.2933 63.2129 11.05 63.9596 11.05C64.7129 11.05 65.3163 11.2933 65.7696 11.78C66.2229 12.2667 66.4496 12.8667 66.4496 13.58C66.4496 14.3 66.2229 14.9033 65.7696 15.39C65.3163 15.8767 64.7129 16.12 63.9596 16.12ZM63.9596 15.19C64.3929 15.19 64.7329 15.0367 64.9796 14.73C65.2329 14.4167 65.3596 14.0333 65.3596 13.58C65.3596 13.1333 65.2329 12.7567 64.9796 12.45C64.7329 12.1367 64.3929 11.98 63.9596 11.98C63.5329 11.98 63.1929 12.1367 62.9396 12.45C62.6929 12.7567 62.5696 13.1333 62.5696 13.58C62.5696 14.0333 62.6929 14.4167 62.9396 14.73C63.1929 15.0367 63.5329 15.19 63.9596 15.19ZM72.822 16H71.722L70.602 12.46L69.482 16H68.382L66.882 11.17H67.972L68.992 14.68L70.142 11.17H71.062L72.212 14.68L73.232 11.17H74.322L72.822 16ZM79.3611 16H78.3111V12.98C78.3111 12.3133 77.9878 11.98 77.3411 11.98C77.0878 11.98 76.8511 12.0433 76.6311 12.17C76.4111 12.2967 76.2344 12.45 76.1011 12.63V16H75.0511V11.17H76.1011V11.83C76.2811 11.6167 76.5211 11.4333 76.8211 11.28C77.1211 11.1267 77.4478 11.05 77.8011 11.05C78.3144 11.05 78.7011 11.1833 78.9611 11.45C79.2278 11.7167 79.3611 12.1 79.3611 12.6V16ZM81.7749 16H80.7249V9.33H81.7749V16ZM85.317 16.12C84.5704 16.12 83.9704 15.8767 83.517 15.39C83.0637 14.8967 82.837 14.2933 82.837 13.58C82.837 12.8667 83.0637 12.2667 83.517 11.78C83.9704 11.2933 84.5704 11.05 85.317 11.05C86.0704 11.05 86.6737 11.2933 87.127 11.78C87.5804 12.2667 87.807 12.8667 87.807 13.58C87.807 14.3 87.5804 14.9033 87.127 15.39C86.6737 15.8767 86.0704 16.12 85.317 16.12ZM85.317 15.19C85.7504 15.19 86.0904 15.0367 86.337 14.73C86.5904 14.4167 86.717 14.0333 86.717 13.58C86.717 13.1333 86.5904 12.7567 86.337 12.45C86.0904 12.1367 85.7504 11.98 85.317 11.98C84.8904 11.98 84.5504 12.1367 84.297 12.45C84.0504 12.7567 83.927 13.1333 83.927 13.58C83.927 14.0333 84.0504 14.4167 84.297 14.73C84.5504 15.0367 84.8904 15.19 85.317 15.19ZM92.8695 16H91.8195V15.48C91.4461 15.9067 90.9261 16.12 90.2595 16.12C89.8195 16.12 89.4295 15.98 89.0895 15.7C88.7495 15.4133 88.5795 15.02 88.5795 14.52C88.5795 14.0067 88.7461 13.6167 89.0795 13.35C89.4195 13.0833 89.8128 12.95 90.2595 12.95C90.9461 12.95 91.4661 13.1567 91.8195 13.57V12.85C91.8195 12.57 91.7161 12.35 91.5095 12.19C91.3028 12.03 91.0295 11.95 90.6895 11.95C90.1495 11.95 89.6728 12.1533 89.2595 12.56L88.8295 11.83C89.3761 11.31 90.0528 11.05 90.8595 11.05C91.4528 11.05 91.9361 11.19 92.3095 11.47C92.6828 11.75 92.8695 12.1933 92.8695 12.8V16ZM90.6695 15.4C91.1961 15.4 91.5795 15.2333 91.8195 14.9V14.17C91.5795 13.8367 91.1961 13.67 90.6695 13.67C90.3695 13.67 90.1228 13.75 89.9295 13.91C89.7361 14.07 89.6395 14.28 89.6395 14.54C89.6395 14.8 89.7361 15.01 89.9295 15.17C90.1228 15.3233 90.3695 15.4 90.6695 15.4ZM98.6808 16H97.6308V15.34C97.2308 15.86 96.7141 16.12 96.0808 16.12C95.4474 16.12 94.9308 15.8933 94.5308 15.44C94.1308 14.9867 93.9308 14.37 93.9308 13.59C93.9308 12.8167 94.1308 12.2 94.5308 11.74C94.9308 11.28 95.4474 11.05 96.0808 11.05C96.7141 11.05 97.2308 11.3133 97.6308 11.84V9.33H98.6808V16ZM96.3808 15.19C96.6274 15.19 96.8674 15.13 97.1008 15.01C97.3341 14.89 97.5108 14.7367 97.6308 14.55V12.63C97.5108 12.4433 97.3341 12.29 97.1008 12.17C96.8674 12.0433 96.6274 11.98 96.3808 11.98C95.9674 11.98 95.6374 12.13 95.3908 12.43C95.1441 12.73 95.0208 13.1167 95.0208 13.59C95.0208 14.0633 95.1441 14.45 95.3908 14.75C95.6374 15.0433 95.9674 15.19 96.3808 15.19ZM104.79 16.12C104.043 16.12 103.443 15.8767 102.99 15.39C102.536 14.8967 102.31 14.2933 102.31 13.58C102.31 12.8667 102.536 12.2667 102.99 11.78C103.443 11.2933 104.043 11.05 104.79 11.05C105.543 11.05 106.146 11.2933 106.6 11.78C107.053 12.2667 107.28 12.8667 107.28 13.58C107.28 14.3 107.053 14.9033 106.6 15.39C106.146 15.8767 105.543 16.12 104.79 16.12ZM104.79 15.19C105.223 15.19 105.563 15.0367 105.81 14.73C106.063 14.4167 106.19 14.0333 106.19 13.58C106.19 13.1333 106.063 12.7567 105.81 12.45C105.563 12.1367 105.223 11.98 104.79 11.98C104.363 11.98 104.023 12.1367 103.77 12.45C103.523 12.7567 103.4 13.1333 103.4 13.58C103.4 14.0333 103.523 14.4167 103.77 14.73C104.023 15.0367 104.363 15.19 104.79 15.19ZM112.652 16H111.602V12.98C111.602 12.3133 111.279 11.98 110.632 11.98C110.379 11.98 110.142 12.0433 109.922 12.17C109.702 12.2967 109.525 12.45 109.392 12.63V16H108.342V11.17H109.392V11.83C109.572 11.6167 109.812 11.4333 110.112 11.28C110.412 11.1267 110.739 11.05 111.092 11.05C111.605 11.05 111.992 11.1833 112.252 11.45C112.519 11.7167 112.652 12.1 112.652 12.6V16ZM118.034 16.12C117.628 16.12 117.318 16.0133 117.104 15.8C116.898 15.5867 116.794 15.28 116.794 14.88V12.09H115.994V11.17H116.794V9.85H117.844V11.17H118.824V12.09H117.844V14.62C117.844 14.7933 117.884 14.9333 117.964 15.04C118.044 15.14 118.158 15.19 118.304 15.19C118.518 15.19 118.674 15.1333 118.774 15.02L119.024 15.81C118.804 16.0167 118.474 16.12 118.034 16.12ZM124.098 16H123.048V12.96C123.048 12.6067 122.961 12.3567 122.788 12.21C122.621 12.0567 122.381 11.98 122.068 11.98C121.821 11.98 121.588 12.0433 121.368 12.17C121.148 12.2967 120.968 12.45 120.828 12.63V16H119.778V9.33H120.828V11.83C121.008 11.6167 121.248 11.4333 121.548 11.28C121.854 11.1267 122.184 11.05 122.538 11.05C123.578 11.05 124.098 11.56 124.098 12.58V16ZM127.691 16.12C126.958 16.12 126.351 15.8867 125.871 15.42C125.398 14.9467 125.161 14.3333 125.161 13.58C125.161 12.8733 125.391 12.2767 125.851 11.79C126.318 11.2967 126.905 11.05 127.611 11.05C128.325 11.05 128.898 11.2967 129.331 11.79C129.771 12.2833 129.991 12.9133 129.991 13.68V13.93H126.261C126.301 14.31 126.458 14.6267 126.731 14.88C127.005 15.1333 127.361 15.26 127.801 15.26C128.048 15.26 128.295 15.2133 128.541 15.12C128.795 15.0267 129.005 14.8967 129.171 14.73L129.651 15.42C129.165 15.8867 128.511 16.12 127.691 16.12ZM128.971 13.19C128.958 12.8567 128.835 12.56 128.601 12.3C128.375 12.04 128.045 11.91 127.611 11.91C127.198 11.91 126.875 12.04 126.641 12.3C126.408 12.5533 126.278 12.85 126.251 13.19H128.971Z" fill="#022A69"/>
<path d="M65.008 34H62.416L61.76 32.192H57.184L56.512 34H53.92L58.048 23.328H60.896L65.008 34ZM61.136 30.192L59.472 25.6L57.808 30.192H61.136ZM70.3615 34.192C69.3908 34.192 68.5962 33.7973 67.9775 33.008V36.944H65.9455V26.272H67.9775V27.248C68.5855 26.4693 69.3802 26.08 70.3615 26.08C71.3748 26.08 72.1962 26.4427 72.8255 27.168C73.4655 27.8827 73.7855 28.8693 73.7855 30.128C73.7855 31.3867 73.4655 32.3787 72.8255 33.104C72.1962 33.8293 71.3748 34.192 70.3615 34.192ZM69.7215 32.384C70.3082 32.384 70.7775 32.176 71.1295 31.76C71.4922 31.344 71.6735 30.8 71.6735 30.128C71.6735 29.4667 71.4922 28.928 71.1295 28.512C70.7775 28.096 70.3082 27.888 69.7215 27.888C69.3908 27.888 69.0602 27.9733 68.7295 28.144C68.3988 28.3147 68.1482 28.5227 67.9775 28.768V31.504C68.1482 31.7493 68.3988 31.9573 68.7295 32.128C69.0708 32.2987 69.4015 32.384 69.7215 32.384ZM79.6896 34.192C78.719 34.192 77.9243 33.7973 77.3056 33.008V36.944H75.2736V26.272H77.3056V27.248C77.9136 26.4693 78.7083 26.08 79.6896 26.08C80.703 26.08 81.5243 26.4427 82.1536 27.168C82.7936 27.8827 83.1136 28.8693 83.1136 30.128C83.1136 31.3867 82.7936 32.3787 82.1536 33.104C81.5243 33.8293 80.703 34.192 79.6896 34.192ZM79.0496 32.384C79.6363 32.384 80.1056 32.176 80.4576 31.76C80.8203 31.344 81.0016 30.8 81.0016 30.128C81.0016 29.4667 80.8203 28.928 80.4576 28.512C80.1056 28.096 79.6363 27.888 79.0496 27.888C78.719 27.888 78.3883 27.9733 78.0576 28.144C77.727 28.3147 77.4763 28.5227 77.3056 28.768V31.504C77.4763 31.7493 77.727 31.9573 78.0576 32.128C78.399 32.2987 78.7296 32.384 79.0496 32.384ZM92.5355 34.192C90.6368 34.192 89.1328 33.6267 88.0235 32.496L89.2555 30.768C90.1728 31.728 91.3035 32.208 92.6475 32.208C93.2342 32.208 93.6875 32.096 94.0075 31.872C94.3382 31.6373 94.5035 31.3547 94.5035 31.024C94.5035 30.736 94.3488 30.496 94.0395 30.304C93.7408 30.112 93.3622 29.9733 92.9035 29.888C92.4555 29.8027 91.9648 29.68 91.4315 29.52C90.8982 29.36 90.4022 29.1787 89.9435 28.976C89.4955 28.7733 89.1168 28.4533 88.8075 28.016C88.5088 27.5787 88.3595 27.0453 88.3595 26.416C88.3595 25.4987 88.7275 24.7307 89.4635 24.112C90.1995 23.4827 91.1808 23.168 92.4075 23.168C94.1035 23.168 95.4902 23.664 96.5675 24.656L95.3035 26.32C94.4608 25.5413 93.4262 25.152 92.1995 25.152C91.7195 25.152 91.3462 25.248 91.0795 25.44C90.8128 25.632 90.6795 25.8933 90.6795 26.224C90.6795 26.48 90.8288 26.6987 91.1275 26.88C91.4368 27.0507 91.8155 27.1787 92.2635 27.264C92.7222 27.3493 93.2128 27.4773 93.7355 27.648C94.2688 27.808 94.7595 27.9947 95.2075 28.208C95.6662 28.4107 96.0448 28.736 96.3435 29.184C96.6528 29.6213 96.8075 30.1493 96.8075 30.768C96.8075 31.792 96.4395 32.6187 95.7035 33.248C94.9782 33.8773 93.9222 34.192 92.5355 34.192ZM100.663 34.192C99.9478 34.192 99.4038 34.0107 99.0305 33.648C98.6572 33.2853 98.4705 32.7627 98.4705 32.08V28.048H97.1905V26.272H98.4705V24.16H100.519V26.272H102.087V28.048H100.519V31.536C100.519 31.7813 100.583 31.984 100.711 32.144C100.839 32.304 101.009 32.384 101.223 32.384C101.543 32.384 101.777 32.3093 101.927 32.16L102.359 33.696C101.985 34.0267 101.42 34.192 100.663 34.192ZM110.037 33.024C109.29 33.8027 108.298 34.192 107.061 34.192C105.823 34.192 104.831 33.8027 104.085 33.024C103.349 32.2347 102.981 31.2693 102.981 30.128C102.981 28.9867 103.349 28.0267 104.085 27.248C104.831 26.4693 105.823 26.08 107.061 26.08C108.298 26.08 109.29 26.4693 110.037 27.248C110.783 28.0267 111.157 28.9867 111.157 30.128C111.157 31.2693 110.783 32.2347 110.037 33.024ZM105.621 31.744C105.973 32.1707 106.453 32.384 107.061 32.384C107.669 32.384 108.149 32.1707 108.501 31.744C108.863 31.3067 109.045 30.768 109.045 30.128C109.045 29.4987 108.863 28.9707 108.501 28.544C108.149 28.1067 107.669 27.888 107.061 27.888C106.453 27.888 105.973 28.1067 105.621 28.544C105.269 28.9707 105.093 29.4987 105.093 30.128C105.093 30.768 105.269 31.3067 105.621 31.744ZM114.696 34H112.664V26.272H114.696V27.328C114.984 26.9653 115.352 26.6667 115.8 26.432C116.248 26.1973 116.702 26.08 117.16 26.08V28.064C117.022 28.032 116.835 28.016 116.6 28.016C116.259 28.016 115.896 28.1013 115.512 28.272C115.128 28.4427 114.856 28.6507 114.696 28.896V34ZM122.062 34.192C120.867 34.192 119.881 33.8187 119.102 33.072C118.323 32.3253 117.934 31.344 117.934 30.128C117.934 28.9867 118.307 28.0267 119.054 27.248C119.811 26.4693 120.771 26.08 121.934 26.08C123.086 26.08 124.019 26.4747 124.734 27.264C125.449 28.0427 125.806 29.0667 125.806 30.336V30.784H120.062C120.126 31.296 120.355 31.7227 120.75 32.064C121.145 32.4053 121.657 32.576 122.286 32.576C122.627 32.576 122.995 32.5067 123.39 32.368C123.795 32.2293 124.115 32.0427 124.35 31.808L125.246 33.12C124.467 33.8347 123.406 34.192 122.062 34.192ZM123.838 29.408C123.806 28.9707 123.63 28.576 123.31 28.224C123.001 27.872 122.542 27.696 121.934 27.696C121.358 27.696 120.91 27.872 120.59 28.224C120.27 28.5653 120.083 28.96 120.03 29.408H123.838Z" fill="#022A69"/>
<path fill-rule="evenodd" clip-rule="evenodd" d="M27.0161 13.8793C27.9166 12.8245 29.4233 12.0513 30.6794 12.0002C30.7825 11.9961 30.874 12.0734 30.8855 12.1774C31.0311 13.5054 30.5496 14.988 29.5974 16.1432C28.6926 17.2372 27.3677 17.9166 26.1396 17.9166C26.0534 17.9166 25.9668 17.9132 25.8821 17.9066C25.7883 17.8994 25.7124 17.8274 25.7001 17.7342C25.5031 16.2441 26.2507 14.7659 27.0161 13.8793ZM18.5485 33.1904C16.2765 29.9097 14.9703 24.4991 17.0249 20.9338C18.1054 19.0546 20.0653 17.868 22.1394 17.8374C22.16 17.837 22.1809 17.8368 22.2022 17.8368C23.0943 17.8368 23.9369 18.1711 24.6803 18.4662L24.6809 18.4665C25.2366 18.6869 25.7165 18.8773 26.0863 18.8773C26.4155 18.8773 26.8929 18.6891 27.4456 18.4711C28.2462 18.1555 29.2428 17.7625 30.2831 17.7625C30.4163 17.7625 30.549 17.769 30.6775 17.7818C31.5633 17.8199 33.7633 18.1365 35.1986 20.237C35.2289 20.2813 35.2401 20.3362 35.2294 20.3888C35.2187 20.4416 35.1872 20.4877 35.1421 20.5168L35.1226 20.5289C34.7056 20.7869 32.626 22.2104 32.6527 24.8986C32.6815 28.2072 35.4179 29.4212 35.7299 29.5488L35.7445 29.555C35.837 29.5974 35.8825 29.7028 35.8503 29.7993L35.8434 29.8209C35.6739 30.3638 35.1716 31.7846 34.1703 33.248L34.1701 33.2482C33.2105 34.6497 32.1229 36.2382 30.3515 36.2711C29.5258 36.2866 28.9663 36.0446 28.4236 35.8098L28.419 35.8078L28.4187 35.8077C27.8668 35.5688 27.296 35.3218 26.4017 35.3218C25.4614 35.3218 24.862 35.5772 24.2824 35.8242L24.2817 35.8245C23.7657 36.0442 23.2319 36.2716 22.4933 36.301C22.4629 36.3022 22.4331 36.3028 22.4035 36.3028C20.8308 36.3028 19.6826 34.8305 18.5485 33.1904Z" fill="#022A69"/>
</svg>
