<svg width="163" height="48" viewBox="0 0 163 48" fill="none" xmlns="http://www.w3.org/2000/svg">
<path d="M157.379 0H5.62069C2.51647 0 0 2.23858 0 5V43C0 45.7614 2.51647 48 5.62069 48H157.379C160.484 48 163 45.7614 163 43V5C163 2.23858 160.484 0 157.379 0Z" fill="#00373D"/>
<path d="M65.19 17H62.71V10.33H65.19C66.2233 10.33 67.0633 10.64 67.71 11.26C68.3567 11.88 68.68 12.6833 68.68 13.67C68.68 14.65 68.3567 15.45 67.71 16.07C67.07 16.69 66.23 17 65.19 17ZM65.19 15.97C65.89 15.97 66.4467 15.75 66.86 15.31C67.2733 14.87 67.48 14.3233 67.48 13.67C67.48 12.9967 67.2767 12.4433 66.87 12.01C66.47 11.5767 65.91 11.36 65.19 11.36H63.88V15.97H65.19ZM71.9596 17.12C71.2129 17.12 70.6129 16.8767 70.1596 16.39C69.7063 15.8967 69.4796 15.2933 69.4796 14.58C69.4796 13.8667 69.7063 13.2667 70.1596 12.78C70.6129 12.2933 71.2129 12.05 71.9596 12.05C72.7129 12.05 73.3163 12.2933 73.7696 12.78C74.2229 13.2667 74.4496 13.8667 74.4496 14.58C74.4496 15.3 74.2229 15.9033 73.7696 16.39C73.3163 16.8767 72.7129 17.12 71.9596 17.12ZM71.9596 16.19C72.3929 16.19 72.7329 16.0367 72.9796 15.73C73.2329 15.4167 73.3596 15.0333 73.3596 14.58C73.3596 14.1333 73.2329 13.7567 72.9796 13.45C72.7329 13.1367 72.3929 12.98 71.9596 12.98C71.5329 12.98 71.1929 13.1367 70.9396 13.45C70.6929 13.7567 70.5696 14.1333 70.5696 14.58C70.5696 15.0333 70.6929 15.4167 70.9396 15.73C71.1929 16.0367 71.5329 16.19 71.9596 16.19ZM80.822 17H79.722L78.602 13.46L77.482 17H76.382L74.882 12.17H75.972L76.992 15.68L78.142 12.17H79.062L80.212 15.68L81.232 12.17H82.322L80.822 17ZM87.3611 17H86.3111V13.98C86.3111 13.3133 85.9878 12.98 85.3411 12.98C85.0878 12.98 84.8511 13.0433 84.6311 13.17C84.4111 13.2967 84.2344 13.45 84.1011 13.63V17H83.0511V12.17H84.1011V12.83C84.2811 12.6167 84.5211 12.4333 84.8211 12.28C85.1211 12.1267 85.4478 12.05 85.8011 12.05C86.3144 12.05 86.7011 12.1833 86.9611 12.45C87.2278 12.7167 87.3611 13.1 87.3611 13.6V17ZM89.7749 17H88.7249V10.33H89.7749V17ZM93.317 17.12C92.5704 17.12 91.9704 16.8767 91.517 16.39C91.0637 15.8967 90.837 15.2933 90.837 14.58C90.837 13.8667 91.0637 13.2667 91.517 12.78C91.9704 12.2933 92.5704 12.05 93.317 12.05C94.0704 12.05 94.6737 12.2933 95.127 12.78C95.5804 13.2667 95.807 13.8667 95.807 14.58C95.807 15.3 95.5804 15.9033 95.127 16.39C94.6737 16.8767 94.0704 17.12 93.317 17.12ZM93.317 16.19C93.7504 16.19 94.0904 16.0367 94.337 15.73C94.5904 15.4167 94.717 15.0333 94.717 14.58C94.717 14.1333 94.5904 13.7567 94.337 13.45C94.0904 13.1367 93.7504 12.98 93.317 12.98C92.8904 12.98 92.5504 13.1367 92.297 13.45C92.0504 13.7567 91.927 14.1333 91.927 14.58C91.927 15.0333 92.0504 15.4167 92.297 15.73C92.5504 16.0367 92.8904 16.19 93.317 16.19ZM100.869 17H99.8195V16.48C99.4461 16.9067 98.9261 17.12 98.2595 17.12C97.8195 17.12 97.4295 16.98 97.0895 16.7C96.7495 16.4133 96.5795 16.02 96.5795 15.52C96.5795 15.0067 96.7461 14.6167 97.0795 14.35C97.4195 14.0833 97.8128 13.95 98.2595 13.95C98.9461 13.95 99.4661 14.1567 99.8195 14.57V13.85C99.8195 13.57 99.7161 13.35 99.5095 13.19C99.3028 13.03 99.0295 12.95 98.6895 12.95C98.1495 12.95 97.6728 13.1533 97.2595 13.56L96.8295 12.83C97.3761 12.31 98.0528 12.05 98.8595 12.05C99.4528 12.05 99.9361 12.19 100.309 12.47C100.683 12.75 100.869 13.1933 100.869 13.8V17ZM98.6695 16.4C99.1961 16.4 99.5795 16.2333 99.8195 15.9V15.17C99.5795 14.8367 99.1961 14.67 98.6695 14.67C98.3695 14.67 98.1228 14.75 97.9295 14.91C97.7361 15.07 97.6395 15.28 97.6395 15.54C97.6395 15.8 97.7361 16.01 97.9295 16.17C98.1228 16.3233 98.3695 16.4 98.6695 16.4ZM106.681 17H105.631V16.34C105.231 16.86 104.714 17.12 104.081 17.12C103.447 17.12 102.931 16.8933 102.531 16.44C102.131 15.9867 101.931 15.37 101.931 14.59C101.931 13.8167 102.131 13.2 102.531 12.74C102.931 12.28 103.447 12.05 104.081 12.05C104.714 12.05 105.231 12.3133 105.631 12.84V10.33H106.681V17ZM104.381 16.19C104.627 16.19 104.867 16.13 105.101 16.01C105.334 15.89 105.511 15.7367 105.631 15.55V13.63C105.511 13.4433 105.334 13.29 105.101 13.17C104.867 13.0433 104.627 12.98 104.381 12.98C103.967 12.98 103.637 13.13 103.391 13.43C103.144 13.73 103.021 14.1167 103.021 14.59C103.021 15.0633 103.144 15.45 103.391 15.75C103.637 16.0433 103.967 16.19 104.381 16.19ZM112.79 17.12C112.043 17.12 111.443 16.8767 110.99 16.39C110.536 15.8967 110.31 15.2933 110.31 14.58C110.31 13.8667 110.536 13.2667 110.99 12.78C111.443 12.2933 112.043 12.05 112.79 12.05C113.543 12.05 114.146 12.2933 114.6 12.78C115.053 13.2667 115.28 13.8667 115.28 14.58C115.28 15.3 115.053 15.9033 114.6 16.39C114.146 16.8767 113.543 17.12 112.79 17.12ZM112.79 16.19C113.223 16.19 113.563 16.0367 113.81 15.73C114.063 15.4167 114.19 15.0333 114.19 14.58C114.19 14.1333 114.063 13.7567 113.81 13.45C113.563 13.1367 113.223 12.98 112.79 12.98C112.363 12.98 112.023 13.1367 111.77 13.45C111.523 13.7567 111.4 14.1333 111.4 14.58C111.4 15.0333 111.523 15.4167 111.77 15.73C112.023 16.0367 112.363 16.19 112.79 16.19ZM120.652 17H119.602V13.98C119.602 13.3133 119.279 12.98 118.632 12.98C118.379 12.98 118.142 13.0433 117.922 13.17C117.702 13.2967 117.525 13.45 117.392 13.63V17H116.342V12.17H117.392V12.83C117.572 12.6167 117.812 12.4333 118.112 12.28C118.412 12.1267 118.739 12.05 119.092 12.05C119.605 12.05 119.992 12.1833 120.252 12.45C120.519 12.7167 120.652 13.1 120.652 13.6V17ZM126.034 17.12C125.628 17.12 125.318 17.0133 125.104 16.8C124.898 16.5867 124.794 16.28 124.794 15.88V13.09H123.994V12.17H124.794V10.85H125.844V12.17H126.824V13.09H125.844V15.62C125.844 15.7933 125.884 15.9333 125.964 16.04C126.044 16.14 126.158 16.19 126.304 16.19C126.518 16.19 126.674 16.1333 126.774 16.02L127.024 16.81C126.804 17.0167 126.474 17.12 126.034 17.12ZM132.098 17H131.048V13.96C131.048 13.6067 130.961 13.3567 130.788 13.21C130.621 13.0567 130.381 12.98 130.068 12.98C129.821 12.98 129.588 13.0433 129.368 13.17C129.148 13.2967 128.968 13.45 128.828 13.63V17H127.778V10.33H128.828V12.83C129.008 12.6167 129.248 12.4333 129.548 12.28C129.854 12.1267 130.184 12.05 130.538 12.05C131.578 12.05 132.098 12.56 132.098 13.58V17ZM135.691 17.12C134.958 17.12 134.351 16.8867 133.871 16.42C133.398 15.9467 133.161 15.3333 133.161 14.58C133.161 13.8733 133.391 13.2767 133.851 12.79C134.318 12.2967 134.905 12.05 135.611 12.05C136.325 12.05 136.898 12.2967 137.331 12.79C137.771 13.2833 137.991 13.9133 137.991 14.68V14.93H134.261C134.301 15.31 134.458 15.6267 134.731 15.88C135.005 16.1333 135.361 16.26 135.801 16.26C136.048 16.26 136.295 16.2133 136.541 16.12C136.795 16.0267 137.005 15.8967 137.171 15.73L137.651 16.42C137.165 16.8867 136.511 17.12 135.691 17.12ZM136.971 14.19C136.958 13.8567 136.835 13.56 136.601 13.3C136.375 13.04 136.045 12.91 135.611 12.91C135.198 12.91 134.875 13.04 134.641 13.3C134.408 13.5533 134.278 13.85 134.251 14.19H136.971Z" fill="white"/>
<path d="M72.384 34H70.864L69.92 31.632H64.608L63.664 34H62.144L66.432 23.328H68.08L72.384 34ZM69.52 30.448L67.264 24.704L64.992 30.448H69.52ZM77.5393 34.192C76.4513 34.192 75.5819 33.7387 74.9313 32.832V36.944H73.7313V26.272H74.9313V27.424C75.2193 27.0187 75.5926 26.6933 76.0513 26.448C76.5099 26.2027 77.0059 26.08 77.5393 26.08C78.5633 26.08 79.3899 26.448 80.0193 27.184C80.6593 27.9093 80.9792 28.8907 80.9792 30.128C80.9792 31.3653 80.6593 32.352 80.0193 33.088C79.3899 33.824 78.5633 34.192 77.5393 34.192ZM77.2352 33.12C77.9926 33.12 78.5953 32.8427 79.0433 32.288C79.4913 31.7227 79.7153 31.0027 79.7153 30.128C79.7153 29.2533 79.4913 28.5387 79.0433 27.984C78.5953 27.4293 77.9926 27.152 77.2352 27.152C76.7766 27.152 76.3286 27.2747 75.8913 27.52C75.4646 27.7547 75.1446 28.0427 74.9313 28.384V31.872C75.1446 32.224 75.4646 32.5227 75.8913 32.768C76.3286 33.0027 76.7766 33.12 77.2352 33.12ZM86.6955 34.192C85.6075 34.192 84.7382 33.7387 84.0875 32.832V36.944H82.8875V26.272H84.0875V27.424C84.3755 27.0187 84.7488 26.6933 85.2075 26.448C85.6662 26.2027 86.1622 26.08 86.6955 26.08C87.7195 26.08 88.5462 26.448 89.1755 27.184C89.8155 27.9093 90.1355 28.8907 90.1355 30.128C90.1355 31.3653 89.8155 32.352 89.1755 33.088C88.5462 33.824 87.7195 34.192 86.6955 34.192ZM86.3915 33.12C87.1488 33.12 87.7515 32.8427 88.1995 32.288C88.6475 31.7227 88.8715 31.0027 88.8715 30.128C88.8715 29.2533 88.6475 28.5387 88.1995 27.984C87.7515 27.4293 87.1488 27.152 86.3915 27.152C85.9328 27.152 85.4848 27.2747 85.0475 27.52C84.6208 27.7547 84.3008 28.0427 84.0875 28.384V31.872C84.3008 32.224 84.6208 32.5227 85.0475 32.768C85.4848 33.0027 85.9328 33.12 86.3915 33.12ZM99.6727 34.192C97.9447 34.192 96.5794 33.6267 95.5768 32.496L96.3608 31.488C97.2674 32.5013 98.3874 33.008 99.7208 33.008C100.585 33.008 101.219 32.8267 101.625 32.464C102.03 32.0907 102.233 31.6587 102.233 31.168C102.233 30.7947 102.115 30.48 101.881 30.224C101.646 29.968 101.342 29.7707 100.969 29.632C100.606 29.4827 100.195 29.3493 99.7368 29.232C99.2888 29.1147 98.8408 28.9867 98.3928 28.848C97.9448 28.6987 97.5341 28.5227 97.1608 28.32C96.7981 28.1173 96.4994 27.8293 96.2648 27.456C96.0301 27.0827 95.9128 26.64 95.9128 26.128C95.9128 25.2533 96.2594 24.544 96.9528 24C97.6461 23.4453 98.5208 23.168 99.5768 23.168C101.166 23.168 102.43 23.664 103.369 24.656L102.569 25.632C101.79 24.7787 100.761 24.352 99.4808 24.352C98.8408 24.352 98.3128 24.512 97.8968 24.832C97.4914 25.1413 97.2888 25.5467 97.2888 26.048C97.2888 26.4213 97.4434 26.7307 97.7528 26.976C98.0728 27.2213 98.4621 27.4027 98.9208 27.52C99.3901 27.6373 99.8968 27.7867 100.441 27.968C100.995 28.1387 101.502 28.3253 101.961 28.528C102.43 28.72 102.819 29.0347 103.129 29.472C103.449 29.9093 103.609 30.4373 103.609 31.056C103.609 31.9307 103.283 32.672 102.633 33.28C101.993 33.888 101.006 34.192 99.6727 34.192ZM107.23 34.192C106.665 34.192 106.238 34.0373 105.95 33.728C105.662 33.4187 105.518 32.9707 105.518 32.384V27.328H104.238V26.272H105.518V24.16H106.718V26.272H108.286V27.328H106.718V32.128C106.718 32.4267 106.782 32.6667 106.91 32.848C107.049 33.0293 107.246 33.12 107.502 33.12C107.854 33.12 108.126 33.0133 108.318 32.8L108.67 33.696C108.318 34.0267 107.838 34.192 107.23 34.192ZM116.125 33.024C115.432 33.8027 114.509 34.192 113.357 34.192C112.205 34.192 111.277 33.8027 110.573 33.024C109.88 32.2453 109.533 31.28 109.533 30.128C109.533 28.976 109.88 28.016 110.573 27.248C111.277 26.4693 112.205 26.08 113.357 26.08C114.509 26.08 115.432 26.4693 116.125 27.248C116.829 28.016 117.181 28.976 117.181 30.128C117.181 31.28 116.829 32.2453 116.125 33.024ZM111.469 32.256C111.939 32.832 112.568 33.12 113.357 33.12C114.147 33.12 114.771 32.832 115.229 32.256C115.688 31.6693 115.917 30.96 115.917 30.128C115.917 29.296 115.688 28.592 115.229 28.016C114.771 27.44 114.147 27.152 113.357 27.152C112.568 27.152 111.939 27.4453 111.469 28.032C111.011 28.608 110.781 29.3067 110.781 30.128C110.781 30.96 111.011 31.6693 111.469 32.256ZM120.338 34H119.138V26.272H120.338V27.52C121.052 26.5813 121.911 26.112 122.914 26.112V27.344C122.764 27.312 122.604 27.296 122.434 27.296C122.071 27.296 121.676 27.424 121.25 27.68C120.823 27.936 120.519 28.2187 120.338 28.528V34ZM127.907 34.192C126.755 34.192 125.811 33.8187 125.075 33.072C124.339 32.3147 123.971 31.3333 123.971 30.128C123.971 28.9973 124.333 28.0427 125.059 27.264C125.784 26.4747 126.691 26.08 127.779 26.08C128.92 26.08 129.821 26.4747 130.483 27.264C131.155 28.0427 131.491 29.0293 131.491 30.224V30.528H125.235C125.288 31.2853 125.565 31.92 126.067 32.432C126.568 32.944 127.219 33.2 128.019 33.2C128.979 33.2 129.773 32.8747 130.403 32.224L130.979 33.008C130.189 33.7973 129.165 34.192 127.907 34.192ZM130.307 29.648C130.296 28.9867 130.072 28.3947 129.635 27.872C129.197 27.3387 128.573 27.072 127.763 27.072C126.995 27.072 126.387 27.3333 125.939 27.856C125.501 28.3787 125.267 28.976 125.235 29.648H130.307Z" fill="white"/>
<path fill-rule="evenodd" clip-rule="evenodd" d="M38.2831 17.7625C38.4163 17.7625 38.549 17.769 38.6775 17.7818C39.5633 17.8199 41.7633 18.1365 43.1986 20.237C43.2289 20.2813 43.2401 20.3362 43.2294 20.3888C43.2187 20.4416 43.1872 20.4877 43.1421 20.5168L43.1226 20.5289C42.7056 20.7869 40.626 22.2104 40.6527 24.8986C40.6815 28.2072 43.4179 29.4212 43.7299 29.5488C43.7325 29.5499 43.7419 29.5538 43.7445 29.555C43.837 29.5974 43.8825 29.7028 43.8503 29.7993L43.8434 29.8209C43.6739 30.3638 43.1716 31.7846 42.1703 33.248C41.2107 34.6495 40.123 36.2382 38.3515 36.2711C37.5235 36.2867 36.9631 36.0432 36.419 35.8078C35.867 35.5689 35.2962 35.3218 34.4017 35.3218C33.4614 35.3218 32.862 35.5772 32.2824 35.8242C31.7661 36.0441 31.2322 36.2715 30.4933 36.301C30.4629 36.3022 30.4331 36.3028 30.4035 36.3028C28.8308 36.3028 27.6826 34.8305 26.5485 33.1904C24.2765 29.9097 22.9703 24.4991 25.0249 20.9338C26.1054 19.0546 28.0652 17.868 30.1394 17.8374C30.16 17.837 30.1809 17.8368 30.2022 17.8368C31.0943 17.8368 31.9369 18.1711 32.6803 18.4662C33.2362 18.6868 33.7163 18.8773 34.0863 18.8773C34.4155 18.8773 34.8929 18.6891 35.4456 18.4711C36.2462 18.1555 37.2428 17.7625 38.2831 17.7625ZM38.6794 12.0002C38.7825 11.9961 38.874 12.0734 38.8855 12.1774C39.0311 13.5054 38.5496 14.988 37.5974 16.1432C36.6926 17.2372 35.3677 17.9166 34.1396 17.9166C34.0534 17.9166 33.9668 17.9132 33.8821 17.9066C33.7883 17.8994 33.7124 17.8274 33.7001 17.7342C33.5031 16.2441 34.2507 14.7659 35.0161 13.8793C35.9166 12.8245 37.4233 12.0513 38.6794 12.0002Z" fill="white"/>
</svg>
