<svg width="16" height="11" viewBox="0 0 16 11" fill="none" xmlns="http://www.w3.org/2000/svg">
<path d="M0.244937 5.38862H14.3533L9.87098 9.87098C9.773 9.96896 9.773 10.1159 9.87098 10.2139C9.96896 10.3119 10.1159 10.3119 10.2139 10.2139L15.1126 5.31514C15.1371 5.29065 15.1616 5.26616 15.1616 5.24166C15.1861 5.19267 15.1861 5.11919 15.1616 5.04571C15.1371 5.02122 15.1371 4.99672 15.1126 4.97223L10.2139 0.0734811C10.1649 0.0244936 10.1159 0 10.0424 0C9.96896 0 9.91997 0.0244936 9.87098 0.0734811C9.773 0.171456 9.773 0.318419 9.87098 0.416394L14.3533 4.89875H0.244937C0.097975 4.89875 0 4.99672 0 5.14369C0 5.29065 0.097975 5.38862 0.244937 5.38862Z" fill="white"/>
</svg>
