<svg width="55" height="55" viewBox="0 0 55 55" fill="none" xmlns="http://www.w3.org/2000/svg">
<path opacity="0.65" fill-rule="evenodd" clip-rule="evenodd" d="M27.4992 1.76607e-08C12.3118 1.76607e-08 0 12.3121 0 27.4999C0 42.6877 12.3118 54.9998 27.4992 54.9998C33.7745 55.0246 39.8652 52.8779 44.7382 48.9239C53.826 41.6117 57.312 29.3614 53.4354 18.3599C49.5589 7.35836 39.1635 -0.000416264 27.4992 1.76607e-08ZM27.4986 9.63018C31.1123 9.63017 34.3702 11.8071 35.7531 15.1458C37.136 18.4845 36.3716 22.3275 33.8163 24.8829C31.2611 27.4382 27.4181 28.2026 24.0795 26.8197C20.7409 25.4368 18.564 22.1788 18.564 18.565C18.564 13.6304 22.5642 9.63019 27.4986 9.63018ZM42.4388 46.0677C43.3956 45.2971 44.2918 44.4542 45.1195 43.5463C45.5133 43.1143 45.8845 42.6662 46.2431 42.21C44.7785 36.1514 36.9436 31.5209 27.4993 31.5209C18.0488 31.5209 10.2178 36.1521 8.75498 42.2112C9.11376 42.6671 9.48502 43.1148 9.87897 43.5463C18.3548 52.8712 32.6285 53.9765 42.4388 46.0677Z" fill="#E5E5E5"/>
</svg>
