<svg width="40" height="40" viewBox="0 0 40 40" fill="none" xmlns="http://www.w3.org/2000/svg">
<g opacity="0.8">
<path fill-rule="evenodd" clip-rule="evenodd" d="M20 40C31.0457 40 40 31.0457 40 20C40 8.9543 31.0457 0 20 0C8.9543 0 0 8.9543 0 20C0 31.0457 8.9543 40 20 40Z" fill="#DDE0E8"/>
<g opacity="0.34">
<path fill-rule="evenodd" clip-rule="evenodd" d="M27.3415 23.9379C26.7756 23.9379 26.2763 24.2224 25.9783 24.656C26.1566 24.7653 26.33 24.8758 26.496 24.9881C27.0258 25.3465 27.3295 25.7866 27.3262 26.3745C27.3246 26.6644 27.3304 26.9543 27.3297 27.2442C27.3337 27.2442 27.3376 27.2445 27.3416 27.2445C28.2547 27.2445 28.9949 26.5043 28.9949 25.5912C28.9948 24.6781 28.2546 23.9379 27.3415 23.9379Z" fill="black"/>
<path fill-rule="evenodd" clip-rule="evenodd" d="M31.8927 23.2541C31.881 23.228 31.8701 23.2025 31.857 23.1781C31.6365 22.77 31.2742 22.5619 30.806 22.5577C30.3426 22.5537 29.8799 22.5691 29.4081 22.5691C29.4078 22.568 29.408 22.5782 29.408 22.5782H29.1174V22.3769C29.1174 21.8231 28.7127 21.37 28.1668 21.3378C28.16 21.3376 28.1672 21.3376 28.1601 21.3376C27.8724 21.3366 27.5913 21.3361 27.3034 21.3361C27.0319 21.3361 26.7641 21.3366 26.4926 21.3378C26.4516 21.338 26.4127 21.3401 26.3725 21.3443C26.3721 21.3443 26.3761 21.3445 26.3755 21.3445C25.8639 21.4104 25.4733 21.8475 25.4733 22.3768V22.5781H25.2714C25.2711 22.5781 25.2711 22.568 25.2709 22.569C24.8188 22.569 24.3732 22.5622 23.9271 22.5629C23.476 22.5639 23.1088 22.751 22.8879 23.0651C23.7873 23.4753 24.702 23.9174 25.5287 24.391C25.5312 24.3871 25.5334 24.3823 25.5359 24.3785C25.9224 23.7898 26.5901 23.3959 27.3395 23.3959C28.0723 23.3957 28.7275 23.7702 29.1187 24.3352C29.3579 24.68 29.4983 25.0955 29.4983 25.5399C29.4983 26.7304 28.5309 27.6997 27.3432 27.7001C27.3347 27.7001 27.3264 27.6995 27.318 27.6994C27.273 28.1421 26.9885 28.4491 26.53 28.5448C26.8028 28.5449 27.0755 28.5452 27.3483 28.5452C28.5039 28.5452 29.6593 28.5446 30.8147 28.5436C31.2597 28.543 31.6453 28.2989 31.8547 27.9387C31.9159 27.8065 31.9457 27.6592 31.9457 27.5042V23.5945C31.9457 23.4753 31.9297 23.3607 31.8927 23.2541Z" fill="black"/>
<path fill-rule="evenodd" clip-rule="evenodd" d="M26.1148 25.2169C25.9488 25.1046 25.7754 24.9941 25.597 24.8848C25.4503 24.795 25.3005 24.7061 25.1473 24.6183C24.3206 24.1446 23.4059 23.7011 22.5065 23.2908C21.9191 23.0228 21.3384 22.7688 20.7938 22.5299C20.609 22.4488 20.531 22.3548 20.5402 22.173C20.5568 21.8462 20.5358 21.5118 20.5489 21.1847C20.5549 21.0341 20.6045 20.892 20.6343 20.7288C20.6261 20.7288 20.6178 20.7288 20.6096 20.7288C20.6386 20.7288 20.6649 20.6551 20.6856 20.61C20.6862 20.6088 20.6867 20.6107 20.6873 20.6096C20.9037 20.147 21.1749 19.7133 21.4283 19.265C21.4731 19.1858 21.5401 19.1178 21.5951 19.0431C22.1331 18.3135 22.3946 17.5146 22.3301 16.6379C22.321 16.5149 22.294 16.3732 22.2171 16.2781C22.0022 16.0127 22.0699 15.733 22.1138 15.4506C22.2074 14.8483 22.2496 14.247 22.0908 13.6473C21.896 12.9123 21.4755 12.361 20.6102 12.16C20.5318 12.1418 20.4477 12.0624 20.409 11.9928C19.9289 11.1287 18.9257 10.671 17.8394 10.6886C16.7738 10.671 15.7534 11.1287 15.2733 11.9928C15.2346 12.0624 15.1523 12.1418 15.0739 12.1601C14.2086 12.361 13.7889 12.9123 13.5942 13.6474C13.4353 14.247 13.478 14.8483 13.5716 15.4507C13.6154 15.7331 13.6835 16.0129 13.4685 16.2783C13.3916 16.3734 13.3647 16.5154 13.3556 16.6383C13.291 17.515 13.5526 18.3143 14.0906 19.0439C14.1457 19.1186 14.2127 19.1875 14.2575 19.2666C14.511 19.7149 14.7822 20.1501 14.9986 20.6127C14.9991 20.6139 14.9997 20.6089 15.0002 20.6101C15.0209 20.6552 15.0472 20.7289 15.0763 20.7289C15.0589 20.7289 15.0414 20.7289 15.0241 20.7289C15.0539 20.8921 15.1034 21.0342 15.1095 21.1847C15.1226 21.5118 15.1016 21.843 15.1182 22.1698C15.1274 22.3516 15.0494 22.4473 14.8646 22.5284C13.1438 23.2833 11.0633 24.1883 9.54363 25.2161C9.01387 25.5744 8.7101 26.015 8.71342 26.603C8.71576 27.0166 8.70379 27.4307 8.71706 27.844C8.73588 28.4299 9.15311 28.8036 9.82874 28.8061C12.3034 28.8151 15.2493 28.811 17.7239 28.8076C17.7584 28.8076 17.8356 28.802 17.8356 28.7922C17.8356 28.802 17.9062 28.8076 17.9407 28.8076C20.4154 28.811 23.358 28.8152 25.8327 28.8061C25.9457 28.8057 26.0506 28.7941 26.1484 28.7736C26.6068 28.6779 26.8914 28.3709 26.9364 27.9282C26.9392 27.9006 26.9418 27.8729 26.9427 27.8441C26.9467 27.7205 26.9479 27.5967 26.9482 27.4729C26.9489 27.1831 26.9431 26.8931 26.9447 26.6032C26.9483 26.0153 26.6445 25.5752 26.1148 25.2169Z" fill="black"/>
</g>
</g>
</svg>
