<svg width="30" height="30" viewBox="0 0 30 30" fill="none" xmlns="http://www.w3.org/2000/svg">
<path d="M23.6876 18.5839L27.1638 22.0727C27.8033 22.7059 28.1388 23.4593 28.1388 24.2445C28.1388 25.0233 27.8096 25.7831 27.1827 26.4352C26.9105 26.7202 26.6319 26.9924 26.3596 27.252C25.9607 27.6383 25.5808 27.9992 25.2516 28.3981C25.2452 28.4107 25.2326 28.4171 25.2262 28.4297C24.2638 29.4745 23.0355 30 21.5729 30C21.4462 30 21.3069 29.9937 21.174 29.9873C19.0022 29.848 17.0584 29.0312 15.6021 28.3411C11.7904 26.4986 8.45356 23.8836 5.68027 20.5721C3.39452 17.8241 1.86225 15.2598 0.836513 12.4928C0.41862 11.3658 -0.125907 9.64356 0.026054 7.7947C0.127361 6.64866 0.589577 5.66091 1.40004 4.85046L3.55281 2.67868C3.55915 2.67235 3.55915 2.67235 3.56548 2.66602C4.19865 2.05817 4.94579 1.73526 5.71826 1.73526C6.49073 1.73526 7.2252 2.05817 7.83938 2.66602C8.25094 3.04592 8.64984 3.45115 9.02974 3.84371C9.21969 4.04633 9.42231 4.24894 9.61859 4.44523L11.3471 6.17378C12.6768 7.50344 12.6768 9.22567 11.3471 10.5553C11.1699 10.7326 10.9926 10.9162 10.8153 11.0935C10.3467 11.5684 9.86553 12.0623 9.34633 12.5371C9.73256 13.3919 10.2644 14.234 11.0559 15.2345C12.6895 17.2416 14.3927 18.7929 16.2669 19.9832C16.4505 20.0972 16.6658 20.2048 16.8937 20.3188C17.052 20.4011 17.2166 20.4834 17.3813 20.5721L19.3821 18.5776C20.0216 17.9381 20.7687 17.6025 21.5475 17.6025C22.3327 17.6025 23.0735 17.9444 23.6876 18.5839ZM25.9544 25.2512C26.6002 24.5801 26.6002 23.9152 25.9481 23.2694L22.4593 19.7806C22.453 19.7743 22.453 19.7743 22.4466 19.768C22.2503 19.5527 21.9274 19.3057 21.5349 19.3057C21.136 19.3057 20.7941 19.5653 20.5788 19.7806L18.4133 21.9461C18.3057 22.0537 17.9764 22.383 17.4509 22.383C17.242 22.383 17.0394 22.3323 16.8241 22.2247C16.7987 22.212 16.7734 22.193 16.7481 22.1803C16.5645 22.0664 16.3492 21.9587 16.1213 21.8448C15.868 21.7181 15.6021 21.5852 15.3425 21.4205C13.31 20.1352 11.4675 18.4573 9.7199 16.3045L9.71357 16.2982C8.75115 15.0762 8.11798 14.0504 7.66843 12.9614C7.66209 12.9424 7.65576 12.9234 7.64943 12.9044C7.53546 12.5435 7.43415 12.0116 7.97868 11.4671C7.98501 11.4544 7.99767 11.4481 8.01034 11.4354C8.5612 10.9416 9.06773 10.435 9.59959 9.8905C9.78321 9.71321 9.96051 9.52959 10.1441 9.34597C10.8153 8.67481 10.8153 8.0543 10.1441 7.38314L8.41557 5.65458C8.21295 5.44564 8.01034 5.24302 7.81406 5.04041C7.42782 4.64151 7.06058 4.26794 6.67435 3.90703C6.66801 3.9007 6.66168 3.89437 6.65535 3.88804C6.45273 3.68542 6.12982 3.44482 5.73092 3.44482C5.40801 3.44482 5.07876 3.60311 4.7685 3.89437L2.60939 6.05348C2.08386 6.57901 1.79893 7.19319 1.73561 7.934C1.64064 9.0927 1.85592 10.3211 2.44477 11.8976C3.40085 14.481 4.84448 16.887 7.00359 19.4894C9.61859 22.6109 12.7655 25.0739 16.3492 26.8088C17.6599 27.4357 19.4074 28.1701 21.2879 28.2904C21.3829 28.2968 21.4842 28.2968 21.5792 28.2968C22.5669 28.2968 23.3204 27.9739 23.9599 27.29C24.3525 26.8278 24.7704 26.4163 25.1819 26.0237C25.4542 25.7578 25.7075 25.5172 25.9544 25.2512C25.9481 25.2576 25.9481 25.2512 25.9544 25.2512ZM16.1909 7.1362C15.7224 7.06022 15.4184 6.61067 15.5007 6.14846C15.5831 5.68624 16.0199 5.37599 16.4885 5.45197C18.4956 5.79388 20.3255 6.74364 21.7755 8.1936C23.2254 9.64356 24.1752 11.4734 24.5171 13.4806C24.5931 13.9491 24.2828 14.3923 23.8143 14.4683C23.7636 14.4747 23.7193 14.481 23.6686 14.481C23.2571 14.481 22.8962 14.1897 22.8265 13.7718C22.5416 12.1129 21.7628 10.606 20.5598 9.40295C19.3568 8.19993 17.8498 7.4148 16.1909 7.1362ZM29.9434 13.2336C30.0257 13.6959 29.7091 14.1391 29.2469 14.2087C29.1962 14.2151 29.1519 14.2214 29.1013 14.2214C28.6897 14.2214 28.3288 13.9301 28.2591 13.5122C27.7589 10.5617 26.366 7.87068 24.2258 5.73056C22.0857 3.59678 19.3948 2.19747 16.4442 1.69727C15.9756 1.61495 15.6654 1.17807 15.7414 0.709519C15.8237 0.247305 16.2606 -0.0692806 16.7228 0.0130316C20.0279 0.576554 23.0355 2.13415 25.4289 4.52754C27.8222 6.92093 29.3799 9.92849 29.9434 13.2336Z" fill="#599773"/>
</svg>
