<svg width="51" height="52" viewBox="0 0 51 52" fill="none" xmlns="http://www.w3.org/2000/svg">
<path fill-rule="evenodd" clip-rule="evenodd" d="M21.0034 45.529C20.9362 45.9999 21.0156 46.4855 21.2257 46.9029L23.161 50.3427C23.406 50.7779 23.252 51.3297 22.8165 51.5748C22.6764 51.6538 22.5239 51.6913 22.3737 51.6913C22.0577 51.6913 21.7509 51.5254 21.5847 51.2302L19.639 47.7742C19.6334 47.7639 19.6279 47.7538 19.6225 47.7432C19.2322 46.9818 19.0898 46.1297 19.211 45.2788L21.2712 30.2497C21.35 29.6951 21.2753 29.1363 21.0556 28.6297L19.8045 25.7436C19.3098 26.2186 18.6443 26.512 17.9113 26.512H15.9969C15.4973 26.512 15.0923 26.107 15.0923 25.6074C15.0923 25.1078 15.4973 24.7028 15.9969 24.7028H17.9113C18.4352 24.7028 18.8614 24.2585 18.8614 23.7124V23.3903V23.3862V2.79932C18.8614 2.25346 18.4352 1.80918 17.9113 1.80918H5.66547C5.14159 1.80918 4.7154 2.25346 4.7154 2.79932V23.7124C4.7154 24.2585 5.14159 24.7028 5.66547 24.7028H6.43231V23.6377C6.43231 21.7326 7.94736 20.1829 9.80952 20.1829C11.6717 20.1829 13.1867 21.7326 13.1867 23.6377V30.197C13.1867 31.327 13.3839 32.4355 13.7721 33.4915L14.7796 36.2309C14.952 36.6997 14.7116 37.2197 14.2428 37.3921C13.7734 37.565 13.2539 37.3241 13.0816 36.8553L12.0741 34.1159C11.612 32.8591 11.3776 31.5407 11.3776 30.197V23.6377C11.3776 22.7303 10.6741 21.9921 9.80952 21.9921C8.945 21.9921 8.24148 22.7303 8.24148 23.6377V29.3136C8.24148 31.4823 7.52298 33.615 6.21882 35.3188L5.47034 36.2965C4.35795 37.7495 3.74542 39.5703 3.74542 41.424V42.9912C3.74542 44.0625 4.16515 45.1101 4.89735 45.865L7.11954 48.157C7.52014 48.57 7.86311 49.0383 8.13862 49.5482L8.59091 50.3365C8.83929 50.7699 8.68939 51.3228 8.25596 51.5711C8.11407 51.6526 7.95951 51.6911 7.80702 51.6911C7.49326 51.6911 7.18854 51.5277 7.02132 51.2362L6.55817 50.428C6.35038 50.0439 6.1064 49.7103 5.82106 49.4162L3.59888 47.1242C2.52681 46.0185 1.9365 44.5508 1.9365 42.991V41.4237C1.9365 39.6241 2.41464 37.849 3.29829 36.3061C3.01787 36.2376 2.74365 36.1334 2.48339 35.9882L2.39965 35.9414C2.1138 35.7817 1.9365 35.4795 1.9365 35.1518V32.971C1.9365 32.2202 1.9931 31.4629 2.10449 30.7201L3.03157 24.5464C3.00107 24.4477 2.97729 24.3459 2.95765 24.2427C2.84264 24.2536 2.72763 24.2608 2.61262 24.2608C1.97914 24.2608 1.35214 24.0977 0.784312 23.7783C0.401025 23.5627 0.127839 23.19 0.0347955 22.7558C-0.0590233 22.318 0.0389304 21.8613 0.303846 21.5026L2.90674 17.9796V2.79932C2.90674 1.25583 4.14447 0 5.66599 0H17.9118C19.4333 0 20.6711 1.25583 20.6711 2.79932V23.1921L22.7162 27.9099C23.0687 28.7233 23.1889 29.6188 23.0636 30.4996L21.0034 45.529ZM2.90699 21.0239L1.94348 22.3281C2.25181 22.4441 2.5816 22.4739 2.90699 22.4232V21.0239ZM6.43282 26.5117H5.66599C5.28787 26.5117 4.92759 26.4339 4.59935 26.2938L3.89429 30.9886C3.79608 31.6428 3.74619 32.3096 3.74619 32.971V34.5548C4.02403 34.6171 4.31402 34.5892 4.58281 34.4804L4.78285 34.2191C5.84691 32.8291 6.43282 31.0869 6.43282 29.3136V26.5117ZM28.9821 21.394C29.4124 21.8241 29.9774 22.0389 30.5424 22.0389C31.1074 22.0389 31.6726 21.8239 32.1029 21.3938L34.0173 19.4799C34.818 20.0266 35.7492 20.3029 36.682 20.3029C37.8934 20.3029 39.1047 19.8418 40.0269 18.9199L40.9025 18.0442C42.0415 16.9057 43.8952 16.9055 45.0342 18.0442C45.3877 18.3975 45.9605 18.3973 46.3135 18.0442C46.6668 17.6909 46.6668 17.1182 46.3135 16.7649C44.4692 14.9208 41.468 14.9211 39.6237 16.7649L38.7481 17.6405C37.6091 18.779 35.7554 18.7793 34.6164 17.6405L32.3787 15.4036C32.4333 15.225 32.463 15.0358 32.463 14.8394C32.463 13.7748 31.5997 12.9118 30.5347 12.9118C29.4698 12.9118 28.6063 13.7748 28.6063 14.8394C28.6063 15.904 29.4696 16.7669 30.5347 16.7669C30.7311 16.7669 30.9205 16.7372 31.0991 16.6827L32.6777 18.2611L30.8239 20.1144C30.6685 20.2693 30.4163 20.2695 30.2638 20.117L25.2216 15.0369C25.1472 14.9619 25.1063 14.8627 25.1063 14.7572V2.20539C25.1069 1.98674 25.2852 1.80892 25.5041 1.80892H35.5794C35.7983 1.80892 35.9769 1.98699 35.9772 2.2059L35.9911 14.7836C35.9911 14.8882 35.9487 14.9908 35.8748 15.0648C35.5215 15.4181 35.5213 15.9908 35.8746 16.3441C36.2279 16.6977 36.8006 16.6979 37.1539 16.3444C37.5654 15.9332 37.8011 15.3635 37.8003 14.7815L37.7864 2.20384C37.7848 0.988587 36.7949 0 35.5794 0H25.5041C24.2901 0 23.3003 0.987295 23.2972 2.20332V14.7572C23.2972 15.3436 23.5246 15.8954 23.9376 16.3113L28.9821 21.394ZM6.62087 17.5217V5.07019C6.62087 4.5706 7.02587 4.1656 7.52546 4.1656C8.02505 4.1656 8.43005 4.5706 8.43005 5.07019V17.5217C8.43005 18.0213 8.02505 18.4263 7.52546 18.4263C7.02587 18.4263 6.62087 18.0213 6.62087 17.5217ZM15.1472 21.9129V17.2843C15.1472 16.7847 15.5522 16.3797 16.0518 16.3797C16.5513 16.3797 16.9563 16.7847 16.9563 17.2843V21.9129C16.9563 22.4125 16.5513 22.8175 16.0518 22.8175C15.5522 22.8175 15.1472 22.4125 15.1472 21.9129ZM40.8738 46.0995C40.8738 45.5999 40.4688 45.1949 39.9692 45.1949H23.7285C23.2289 45.1949 22.8239 45.5999 22.8239 46.0995C22.8239 46.5991 23.2289 47.0041 23.7285 47.0041H39.9692C40.4688 47.0041 40.8738 46.5991 40.8738 46.0995ZM43.616 47.0041C43.1164 47.0041 42.7114 46.5991 42.7114 46.0995C42.7114 45.5999 43.1164 45.1949 43.616 45.1949H48.8249C49.3245 45.1949 49.7295 45.5999 49.7295 46.0995C49.7295 46.5991 49.3245 47.0041 48.8249 47.0041H43.616ZM48.8248 49.8817H34.875C34.3754 49.8817 33.9704 50.2867 33.9704 50.7862C33.9704 51.2858 34.3754 51.6908 34.875 51.6908H48.8248C49.3244 51.6908 49.7294 51.2858 49.7294 50.7862C49.7294 50.2867 49.3244 49.8817 48.8248 49.8817ZM26.0203 49.8817H31.2292C31.7288 49.8817 32.1338 50.2867 32.1338 50.7862C32.1338 51.2858 31.7288 51.6908 31.2292 51.6908H26.0203C25.5207 51.6908 25.1157 51.2858 25.1157 50.7862C25.1157 50.2867 25.5207 49.8817 26.0203 49.8817ZM16.9569 6.46093C16.9569 5.19528 15.9272 4.1656 14.6616 4.1656H13.6123C12.3466 4.1656 11.3169 5.19528 11.3169 6.46093V8.15742C11.3169 9.42307 12.3466 10.4528 13.6123 10.4528H14.6616C15.9272 10.4528 16.9569 9.42307 16.9569 8.15742V6.46093ZM15.1477 8.15742C15.1477 8.42544 14.9296 8.64358 14.6616 8.64358H13.6123C13.3442 8.64358 13.1261 8.42544 13.1261 8.15742V6.46093C13.1261 6.19266 13.3442 5.97478 13.6123 5.97478H14.6616C14.9299 5.97478 15.1477 6.19292 15.1477 6.46093V8.15742ZM39.8442 21.5705C40.166 21.5705 40.4272 21.8317 40.4272 22.1535V29.1996L41.764 27.8628C41.9913 27.6351 42.361 27.6351 42.5883 27.8628C42.816 28.0904 42.816 28.4594 42.5883 28.6871L40.2567 31.0188C40.2295 31.0459 40.1995 31.0704 40.1675 31.0916C40.1578 31.0981 40.1475 31.1033 40.1371 31.1085C40.1339 31.1101 40.1306 31.1118 40.1273 31.1135C40.1256 31.1144 40.1239 31.1152 40.1223 31.1161L40.1065 31.1249C40.0936 31.1322 40.0808 31.1395 40.0669 31.1453C40.0528 31.1511 40.0382 31.1551 40.0235 31.1592L40.0077 31.1636C40.0022 31.1653 39.9968 31.1671 39.9914 31.1689L39.9912 31.1689C39.9803 31.1726 39.9693 31.1762 39.9579 31.1785C39.9206 31.1858 39.8824 31.1899 39.8442 31.1899C39.806 31.1899 39.7678 31.1858 39.7299 31.1785C39.7185 31.1762 39.7075 31.1726 39.6966 31.1689C39.6923 31.1675 39.688 31.1661 39.6837 31.1648C39.6825 31.1644 39.6813 31.164 39.6801 31.1636L39.6643 31.1592C39.6496 31.1551 39.635 31.1511 39.6209 31.1453C39.6057 31.1388 39.5914 31.1307 39.577 31.1226L39.5655 31.1161L39.5508 31.1085C39.5405 31.1033 39.5302 31.0982 39.5203 31.0916C39.4883 31.0701 39.4583 31.0459 39.4311 31.0188L37.0995 28.6871C36.8718 28.4594 36.8718 28.0904 37.0995 27.8628C37.3268 27.6351 37.6965 27.6351 37.9238 27.8628L39.2612 29.1996V22.1535C39.2612 21.8317 39.5224 21.5705 39.8442 21.5705ZM48.491 25.0685H47.6165C47.2947 25.0685 47.0336 24.8073 47.0336 24.4855C47.0336 24.1637 47.2947 23.9025 47.6165 23.9025H48.491C48.8125 23.9025 49.074 23.641 49.074 23.3195C49.074 22.998 48.8125 22.7365 48.491 22.7365H46.492C45.8693 22.7365 45.2834 22.9791 44.843 23.4195L43.3648 24.8977C43.1374 25.1253 42.7678 25.1253 42.5405 24.8977C42.3128 24.67 42.3128 24.301 42.5405 24.0733L44.0186 22.5952C44.6794 21.9343 45.5577 21.5706 46.492 21.5706H48.491C49.4556 21.5706 50.24 22.355 50.24 23.3195C50.24 24.2841 49.4553 25.0685 48.491 25.0685ZM45.8674 32.6474C45.8674 32.9692 45.6062 33.2304 45.2844 33.2304H34.2076C33.8857 33.2304 33.6246 32.9692 33.6246 32.6474C33.6246 32.3256 33.8857 32.0644 34.2076 32.0644H45.2844C45.6062 32.0644 45.8674 32.3256 45.8674 32.6474ZM38.0949 25.6514H31.1981C30.6303 25.6514 30.0957 25.9286 29.7689 26.3927C29.4415 26.857 29.3602 27.4537 29.5511 27.9889L32.1539 35.2763C32.402 35.9703 33.0637 36.4367 33.8008 36.4367H40.5781C40.7702 36.4367 40.9439 36.5268 41.0547 36.6839C41.1655 36.841 41.192 37.0349 41.1273 37.2159L40.8151 38.0904C40.7323 38.3218 40.5116 38.4772 40.2659 38.4772H35.7786C35.2105 38.4772 34.6759 38.7544 34.3491 39.2187C34.0218 39.6831 33.9405 40.2798 34.1317 40.8147L34.5482 41.9807C34.796 42.6744 35.458 43.1411 36.1952 43.1411H43.2966C44.0338 43.1411 44.6955 42.6747 44.9435 41.9807L49.9406 27.9889C50.1315 27.4537 50.0505 26.857 49.7232 26.3927C49.3961 25.9286 48.8615 25.6514 48.2937 25.6514H41.5928C41.271 25.6514 41.0098 25.9126 41.0098 26.2344C41.0098 26.5562 41.271 26.8174 41.5928 26.8174H48.2937C48.4858 26.8174 48.6595 26.9075 48.7703 27.0646C48.881 27.2217 48.9076 27.4155 48.8428 27.5966L43.8458 41.5883C43.763 41.8197 43.5423 41.9751 43.2966 41.9751H36.1949C35.9495 41.9751 35.7288 41.8197 35.646 41.5883L35.2295 40.4223C35.165 40.2413 35.1913 40.0475 35.302 39.8903C35.4128 39.7332 35.5865 39.6432 35.7786 39.6432H40.2659H43.5353C43.8571 39.6432 44.1183 39.382 44.1183 39.0602C44.1183 38.7384 43.8571 38.4772 43.5353 38.4772H41.9149L42.2253 37.6082C42.362 37.2252 42.3568 36.8116 42.2245 36.4367H44.7013C45.0231 36.4367 45.2843 36.1755 45.2843 35.8537C45.2843 35.5319 45.0231 35.2707 44.7013 35.2707H40.5781H33.8008C33.5551 35.2707 33.3342 35.1154 33.2517 34.8839L30.6489 27.5966C30.5842 27.4155 30.6107 27.2217 30.7215 27.0646C30.8323 26.9075 31.006 26.8174 31.1981 26.8174H38.0949C38.4167 26.8174 38.6778 26.5562 38.6778 26.2344C38.6778 25.9126 38.4167 25.6514 38.0949 25.6514ZM33.3332 30.0239C33.0113 30.0239 32.7502 29.7628 32.7502 29.4409C32.7502 29.1191 33.0113 28.858 33.3332 28.858H36.0545C36.3764 28.858 36.6375 29.1191 36.6375 29.4409C36.6375 29.7628 36.3764 30.0239 36.0545 30.0239H33.3332ZM43.6333 28.858C43.3115 28.858 43.0503 29.1191 43.0503 29.4409C43.0503 29.7628 43.3115 30.0239 43.6333 30.0239H46.1588C46.4806 30.0239 46.7418 29.7628 46.7418 29.4409C46.7418 29.1191 46.4806 28.858 46.1588 28.858H43.6333Z" fill="#343434"/>
</svg>
