<svg width="30" height="26" viewBox="0 0 30 26" fill="none" xmlns="http://www.w3.org/2000/svg">
<path fill-rule="evenodd" clip-rule="evenodd" d="M13.3143 6.67422H11.5721V4.20824H9.1061V2.46598H11.5721V0H13.3143V2.46598H15.7803V4.20824H13.3143V6.67422ZM4.48744 4.11488C4.27837 4.28321 4.13297 4.51782 4.07526 4.77995L1.52807 16.3237C1.46126 16.629 1.51823 16.9483 1.6865 17.2117C1.85477 17.4751 2.12061 17.661 2.42574 17.7287L3.04839 17.8662V19.4032L2.10221 19.1944C1.40819 19.0411 0.803472 18.6184 0.421053 18.0193C0.0386354 17.4201 -0.0901727 16.6937 0.062956 15.9996L2.60934 4.45643C2.76255 3.76231 3.18519 3.15746 3.78432 2.77493C4.38344 2.39241 5.10998 2.26352 5.80412 2.41664L7.57909 2.80798V4.34519L5.48167 3.88229C5.39743 3.86366 5.31143 3.85422 5.22515 3.85414C4.95674 3.85457 4.69651 3.94655 4.48744 4.11488ZM26.6269 7.42461C26.2692 7.07414 25.8199 6.83167 25.3307 6.72503L17.0134 4.88975V6.42697L21.5352 7.42461H26.6269ZM6.90818 8.81847H26.904C27.6147 8.81925 28.296 9.1019 28.7985 9.6044C29.301 10.1069 29.5837 10.7882 29.5844 11.4989V23.3195C29.5837 24.0301 29.301 24.7114 28.7985 25.2139C28.296 25.7165 27.6147 25.9991 26.904 25.9999H6.90818C6.19751 25.9992 5.51615 25.7165 5.01363 25.214C4.51111 24.7115 4.22848 24.0301 4.22777 23.3195V11.4989C4.22848 10.7882 4.51111 10.1068 5.01363 9.60433C5.51615 9.1018 6.19751 8.81918 6.90818 8.81847ZM26.904 10.3195H6.90818H6.90791C6.59517 10.3196 6.29526 10.4439 6.07414 10.665C5.85302 10.8862 5.7288 11.1861 5.7288 11.4989V19.4061H28.0834V11.4989C28.083 11.1862 27.9587 10.8864 27.7376 10.6653C27.5165 10.4442 27.2167 10.3199 26.904 10.3195ZM6.90818 24.4989H26.904C27.2167 24.4985 27.5165 24.3741 27.7376 24.153C27.9587 23.9319 28.083 23.6322 28.0834 23.3195V22.5154H5.7288V23.3195C5.7288 23.6323 5.85306 23.9322 6.07423 24.1534C6.29541 24.3746 6.59539 24.4989 6.90818 24.4989Z" fill="#818F90"/>
</svg>
