<svg xmlns="http://www.w3.org/2000/svg" width="23" height="23" fill="none" viewBox="0 0 23 23"><path fill="#2F6DD2" d="M21.083 0H1.91664C0.858655 0 0 0.858655 0 1.91664V21.083C0 22.141 0.858655 22.9997 1.91664 22.9997H21.083C22.141 22.9997 22.9997 22.141 22.9997 21.083V1.91664C22.9997 0.858655 22.141 0 21.083 0Z"/><path fill="#fff" d="M13.2888 8.82907H16.4652C16.6882 8.82907 16.8665 8.66779 16.8665 8.47425V5.71102C16.8665 5.51749 16.6882 5.36696 16.4652 5.36696H13.2888C10.4355 5.36696 8.11721 7.37756 8.11721 9.86125V11.5923H6.53454C6.31163 11.5923 6.1333 11.7428 6.1333 11.9364V14.6996C6.1333 14.8931 6.31163 15.0437 6.53454 15.0437H8.11721V23.0001H12.0962V15.0437H16.4652C16.6882 15.0437 16.8665 14.8931 16.8665 14.6996V11.9364C16.8665 11.7428 16.6882 11.5923 16.4652 11.5923H12.0962V9.86125C12.0962 9.2914 12.6312 8.82907 13.2888 8.82907Z"/></svg>