<svg width="40" height="40" viewBox="0 0 40 40" fill="none" xmlns="http://www.w3.org/2000/svg">
<path d="M20 7.40545e-05C16.0444 7.20303e-05 12.1776 1.17305 8.8886 3.37067C5.59962 5.56829 3.03617 8.69186 1.52242 12.3464C0.00866836 16.0009 -0.3874 20.0222 0.3843 23.9018C1.156 27.7814 3.06081 31.3451 5.85785 34.1421C9.60857 37.8929 14.6956 40 20 40C25.3043 40 30.3914 37.8929 34.1421 34.1422C37.8928 30.3914 40 25.3044 40 20C40 14.6957 37.8928 9.60864 34.1421 5.85792C32.2893 3.99493 30.0853 2.51794 27.6578 1.51244C25.2303 0.506941 22.6275 -0.00709934 20 7.40545e-05ZM20 37.9747C10.0887 37.9747 2.02532 29.9113 2.02532 20C2.02532 10.0888 10.0887 2.02539 20 2.02539C29.9113 2.02539 37.9746 10.0888 37.9746 20C37.9746 29.9113 29.9113 37.9747 20 37.9747Z" fill="#0B9D47"/>
<path d="M26.9825 14.7566C26.9833 13.6725 26.7042 12.6065 26.1724 11.6618C25.6406 10.7172 24.874 9.92567 23.9468 9.36397C23.0196 8.80226 21.9631 8.48933 20.8795 8.45544C19.7959 8.42155 18.7219 8.66786 17.7614 9.17053C16.8009 9.6732 15.9863 10.4152 15.3965 11.3248C14.8067 12.2345 14.4616 13.2809 14.3946 14.3629C14.3276 15.4449 14.541 16.526 15.014 17.5014C15.4871 18.4769 16.2038 19.3137 17.095 19.9311C15.4993 20.5727 14.0527 21.5358 12.8451 22.7605C10.586 25.023 9.28613 27.8584 9.28613 30.5798V31.5435H11.1427V30.5798C11.1427 28.348 12.2468 25.9894 14.16 24.0734C16.0728 22.1578 18.4546 21.0793 20.6826 21.0793H21.6068V20.9882C23.1003 20.7648 24.4642 20.013 25.4506 18.8696C26.437 17.7261 26.9806 16.2667 26.9825 14.7566ZM20.6826 10.3186C21.5603 10.3186 22.4184 10.5789 23.1482 11.0666C23.878 11.5542 24.4468 12.2473 24.7827 13.0583C25.1186 13.8692 25.2065 14.7616 25.0353 15.6225C24.864 16.4833 24.4414 17.2741 23.8207 17.8948C23.2 18.5155 22.4092 18.9381 21.5483 19.1094C20.6875 19.2806 19.7951 19.1927 18.9842 18.8568C18.1732 18.5209 17.4801 17.9521 16.9925 17.2222C16.5048 16.4924 16.2445 15.6343 16.2445 14.7566C16.2459 13.58 16.7139 12.4519 17.5459 11.6199C18.3779 10.7879 19.5059 10.3199 20.6826 10.3186Z" fill="#0B9D47"/>
<path d="M30.7122 24.9999L27.1767 25.0024V21.3325H25.3202V25.0038L21.7461 25.0063L21.7474 26.8683L25.3202 26.8657V30.6152H27.1767V26.8644L30.7136 26.8619L30.7122 24.9999Z" fill="#0B9D47"/>
</svg>
