<svg width="102" height="102" viewBox="0 0 102 102" fill="none" xmlns="http://www.w3.org/2000/svg">
<path fill-rule="evenodd" clip-rule="evenodd" d="M82.4904 68.0423C92.0624 50.7739 85.8233 29.0155 68.5549 19.4435C51.2866 9.87152 29.5282 16.1106 19.9562 33.379C10.3842 50.6474 16.6233 72.4058 33.8916 81.9778C51.16 91.5498 72.9184 85.3106 82.4904 68.0423Z" fill="#ECF0F6"/>
<path fill-rule="evenodd" clip-rule="evenodd" d="M82.4904 68.0423C92.0624 50.7739 85.8233 29.0155 68.5549 19.4435C51.2866 9.87152 29.5282 16.1106 19.9562 33.379C10.3842 50.6474 16.6233 72.4058 33.8916 81.9778C51.16 91.5498 72.9184 85.3106 82.4904 68.0423Z" stroke="#227F00" stroke-width="3" stroke-linecap="round" stroke-dasharray="90"/>
<path fill-rule="evenodd" clip-rule="evenodd" d="M80.5814 67.4673C89.7586 50.9111 83.7768 30.0499 67.2205 20.8726C50.6643 11.6953 29.8031 17.6772 20.6258 34.2334C11.4486 50.7897 17.4304 71.6508 33.9867 80.8281C50.5429 90.0054 71.4041 84.0236 80.5814 67.4673Z" fill="white"/>
<path fill-rule="evenodd" clip-rule="evenodd" d="M44.7904 86.8954C45.843 84.9965 45.1569 82.6038 43.258 81.5512C41.3591 80.4986 38.9664 81.1847 37.9138 83.0836C36.8612 84.9826 37.5473 87.3752 39.4462 88.4278C41.3452 89.4804 43.7378 88.7943 44.7904 86.8954Z" fill="#227F00"/>
</svg>
