<svg width="16" height="16" viewBox="0 0 16 16" fill="none" xmlns="http://www.w3.org/2000/svg">
<path fill-rule="evenodd" clip-rule="evenodd" d="M1.16663 5.33337H6.16662C6.81005 5.33337 7.33337 4.81006 7.33337 4.16662V1.16663C7.33337 0.523315 6.81005 0 6.16662 0H1.16663C0.523315 0 0 0.523315 0 1.16663V4.16662C0 4.81006 0.523315 5.33337 1.16663 5.33337ZM0.999999 1.16663C0.999999 1.07471 1.07471 0.999999 1.16663 0.999999H6.16662C6.25866 0.999999 6.33337 1.07471 6.33337 1.16663V4.16662C6.33337 4.25866 6.25866 4.33337 6.16662 4.33337H1.16663C1.07471 4.33337 0.999999 4.25866 0.999999 4.16662V1.16663ZM1.16663 15.9999H6.16662C6.81005 15.9999 7.33337 15.4766 7.33337 14.8333V7.83328C7.33337 7.18985 6.81005 6.66654 6.16662 6.66654H1.16663C0.523315 6.66654 0 7.18985 0 7.83328V14.8333C0 15.4766 0.523315 15.9999 1.16663 15.9999ZM0.999999 7.83328C0.999999 7.74124 1.07471 7.66654 1.16663 7.66654H6.16662C6.25866 7.66654 6.33337 7.74124 6.33337 7.83328V14.8333C6.33337 14.9252 6.25866 14.9999 6.16662 14.9999H1.16663C1.07471 14.9999 0.999999 14.9252 0.999999 14.8333V7.83328ZM14.8333 15.9999H9.83328C9.18985 15.9999 8.66654 15.4766 8.66654 14.8333V11.8333C8.66654 11.1899 9.18985 10.6665 9.83328 10.6665H14.8333C15.4766 10.6665 15.9999 11.1899 15.9999 11.8333V14.8333C15.9999 15.4766 15.4766 15.9999 14.8333 15.9999ZM9.83328 11.6665C9.74124 11.6665 9.66654 11.7412 9.66654 11.8333V14.8333C9.66654 14.9252 9.74124 14.9999 9.83328 14.9999H14.8333C14.9252 14.9999 14.9999 14.9252 14.9999 14.8333V11.8333C14.9999 11.7412 14.9252 11.6665 14.8333 11.6665H9.83328ZM9.83328 9.33337H14.8333C15.4766 9.33337 15.9999 8.81005 15.9999 8.16662V1.16663C15.9999 0.523315 15.4766 0 14.8333 0H9.83328C9.18985 0 8.66654 0.523315 8.66654 1.16663V8.16662C8.66654 8.81005 9.18985 9.33337 9.83328 9.33337ZM9.66654 1.16663C9.66654 1.07471 9.74124 0.999999 9.83328 0.999999H14.8333C14.9252 0.999999 14.9999 1.07471 14.9999 1.16663V8.16662C14.9999 8.25866 14.9252 8.33337 14.8333 8.33337H9.83328C9.74124 8.33337 9.66654 8.25866 9.66654 8.16662V1.16663Z" fill="#878E85"/>
</svg>
