<svg width="25" height="22" viewBox="0 0 25 22" fill="none" xmlns="http://www.w3.org/2000/svg">
<path fill-rule="evenodd" clip-rule="evenodd" d="M1.64062 3.33794H23.3594C24.2578 3.33794 25 2.61725 25 1.74484C25 0.872423 24.2578 0.151733 23.3594 0.151733H1.64062C0.742188 0.151733 0 0.872423 0 1.74484C0 2.61725 0.742188 3.33794 1.64062 3.33794Z" fill="black"/>
<path fill-rule="evenodd" clip-rule="evenodd" d="M1.64062 12.5931H17.1094C18.0078 12.5931 18.75 11.8724 18.75 11C18.75 10.1276 18.0078 9.40692 17.1094 9.40692H1.64062C0.742188 9.40692 0 10.1276 0 11C0 11.8724 0.742188 12.5931 1.64062 12.5931Z" fill="black"/>
<path fill-rule="evenodd" clip-rule="evenodd" d="M23.3594 18.6621H1.64062C0.742188 18.6621 0 19.3828 0 20.2552C0 21.1276 0.742188 21.8483 1.64062 21.8483H23.3594C24.2578 21.8483 25 21.1276 25 20.2552C25 19.3828 24.2578 18.6621 23.3594 18.6621Z" fill="black"/>
</svg>
