<svg width="55" height="52" viewBox="0 0 55 52" fill="none" xmlns="http://www.w3.org/2000/svg">
<rect width="55" height="51.9444" rx="2" fill="#194158"/>
<mask id="mask0" mask-type="alpha" maskUnits="userSpaceOnUse" x="0" y="0" width="55" height="52">
<rect width="55" height="51.9444" rx="2" fill="white"/>
</mask>
<g mask="url(#mask0)">
<path d="M35.7246 11H20.5879C19.4195 11 18.4688 11.9633 18.4688 13.1472V38.8528C18.4688 40.0368 19.4195 41 20.5879 41H32.7278C32.9972 41 33.2156 40.7787 33.2156 40.5058C33.2156 40.2328 32.9972 40.0115 32.7278 40.0115H20.5879C19.9574 40.0115 19.4443 39.4917 19.4443 38.8528V13.1472C19.4443 12.5083 19.9574 11.9885 20.5879 11.9885H35.7246C36.3551 11.9885 36.8682 12.5083 36.8682 13.1472V38.8527C36.8682 39.4916 36.3551 40.0115 35.7246 40.0115H34.5814C34.312 40.0115 34.0936 40.2328 34.0936 40.5057C34.0936 40.7787 34.312 40.9999 34.5814 40.9999H35.7246C36.893 40.9999 37.8438 40.0367 37.8438 38.8528V13.1472C37.8438 11.9633 36.8931 11 35.7246 11Z" fill="white"/>
<path d="M35.4652 15.375H20.8473C20.5692 15.375 20.3438 15.5969 20.3438 15.8705V17.851C20.3438 18.1247 20.5692 18.3465 20.8473 18.3465C21.1254 18.3465 21.3508 18.1246 21.3508 17.851V16.366H34.9617V35.0091H21.3508V19.6346C21.3508 19.3609 21.1254 19.1391 20.8473 19.1391C20.5692 19.1391 20.3438 19.361 20.3438 19.6346V35.5045C20.3438 35.7782 20.5693 36 20.8473 36H35.4652C35.7433 36 35.9688 35.7782 35.9688 35.5045V15.8705C35.9688 15.5969 35.7433 15.375 35.4652 15.375Z" fill="white"/>
<path d="M30.4953 12.875H25.1922C24.9307 12.875 24.7188 13.1549 24.7188 13.5C24.7188 13.8452 24.9308 14.125 25.1922 14.125H30.4953C30.7568 14.125 30.9688 13.8451 30.9688 13.5C30.9688 13.1549 30.7567 12.875 30.4953 12.875Z" fill="white"/>
<path d="M33.3499 25.672L30.9178 22.77C30.7393 22.5572 30.4246 22.5314 30.2148 22.7124C30.005 22.8934 29.9795 23.2128 30.158 23.4258L31.8911 25.4938H30.6535C30.378 25.4938 30.1548 25.7204 30.1548 25.9999V31.2377H26.1576V25.9999C26.1576 25.7204 25.9343 25.4939 25.6589 25.4939H24.4213L28.1562 21.0373L29.1998 22.2825C29.3782 22.4955 29.693 22.5212 29.9029 22.3402C30.1127 22.1591 30.1382 21.8398 29.9597 21.6268L28.5361 19.9282C28.4414 19.8152 28.3025 19.75 28.1562 19.75C28.01 19.75 27.8711 19.8152 27.7763 19.9282L22.9625 25.6721C22.8366 25.8225 22.8082 26.0332 22.8898 26.2123C22.9714 26.3914 23.1481 26.5061 23.3426 26.5061H25.1603V31.7439C25.1603 32.0234 25.3836 32.25 25.659 32.25H30.6536C30.9291 32.25 31.1524 32.0234 31.1523 31.7439V26.506H32.97C33.1645 26.506 33.3411 26.3914 33.4227 26.2123C33.5043 26.0332 33.4758 25.8223 33.3499 25.672Z" fill="white"/>
<path d="M27.8438 39.125C28.1889 39.125 28.4688 38.8452 28.4688 38.5C28.4688 38.1548 28.1889 37.875 27.8438 37.875C27.4986 37.875 27.2188 38.1548 27.2188 38.5C27.2188 38.8452 27.4986 39.125 27.8438 39.125Z" fill="white"/>
</g>
</svg>
