<svg width="23" height="25" viewBox="0 0 23 25" fill="none" xmlns="http://www.w3.org/2000/svg">
<path d="M22.1638 12.5605L16.4599 9.49128L13.2548 11.2568C12.5176 10.6968 11.6911 10.2652 10.8103 9.98018C11.8424 9.40828 12.6552 8.5097 13.1211 7.42563C13.587 6.34156 13.6795 5.13344 13.3841 3.99107C13.0888 2.84869 12.4223 1.83681 11.4893 1.11441C10.5564 0.391998 9.40989 0 8.22995 0C7.05001 0 5.90351 0.391998 4.97057 1.11441C4.03763 1.83681 3.37113 2.84869 3.07577 3.99107C2.78041 5.13344 2.87294 6.34156 3.33882 7.42563C3.8047 8.5097 4.61753 9.40828 5.6496 9.98018C4.00659 10.527 2.57708 11.5765 1.56323 12.9803C0.549389 14.3841 0.00253027 16.0711 0 17.8027V22.393H13.282C13.9336 23.0075 14.6873 23.5038 15.5092 23.8597L16.4056 24.24L17.4106 23.8054C18.8147 23.2257 20.0156 22.2429 20.8615 20.9812C21.7075 19.7195 22.1607 18.2353 22.1638 16.7162V12.5605ZM3.99275 5.3084C3.99276 4.47152 4.2406 3.65339 4.705 2.95718C5.1694 2.26098 5.82956 1.71789 6.60223 1.3964C7.3749 1.07492 8.22546 0.989433 9.04665 1.15074C9.86783 1.31204 10.6229 1.71291 11.2165 2.30278C11.8102 2.89264 12.2158 3.6451 12.3824 4.46524C12.5489 5.28538 12.4689 6.13647 12.1524 6.91117C11.8358 7.68588 11.2969 8.3495 10.6037 8.81834C9.9105 9.28718 9.09397 9.54024 8.25711 9.5456C7.69839 9.54918 7.14448 9.44223 6.62726 9.23089C6.11004 9.01956 5.63972 8.70802 5.24338 8.3142C4.84704 7.92038 4.5325 7.45206 4.31786 6.9362C4.10323 6.42035 3.99274 5.86713 3.99275 5.3084ZM1.0593 17.8027C1.05315 16.5066 1.39977 15.2331 2.06203 14.1189C2.72429 13.0047 3.67722 12.0917 4.81873 11.4777C5.96024 10.8637 7.2473 10.5718 8.54201 10.6334C9.83672 10.6949 11.0903 11.1076 12.1684 11.8272L10.8646 12.5605V16.7977C10.8681 18.4174 11.3812 19.9949 12.3313 21.3066H1.08646L1.0593 17.8027ZM21.0502 16.7162C21.0529 18.0239 20.6671 19.3029 19.9417 20.391C19.2163 21.4791 18.1841 22.3271 16.976 22.8276L16.4056 23.0721L15.9167 22.8548C14.7395 22.3385 13.7378 21.491 13.0337 20.4156C12.3296 19.3401 11.9535 18.0832 11.9511 16.7977V13.2124L16.4327 10.7407L21.0502 13.2124V16.7162Z" fill="#30656D"/>
</svg>
