<svg width="40" height="40" viewBox="0 0 40 40" fill="none" xmlns="http://www.w3.org/2000/svg">
<rect width="40" height="40" rx="10" fill="#F1F5F5"/>
<path d="M21 20.5858L23.2929 18.2928C23.6834 17.9023 24.3166 17.9023 24.7071 18.2928C25.0976 18.6834 25.0976 19.3166 24.7071 19.7072L20.7071 23.7072C20.3166 24.0977 19.6834 24.0977 19.2929 23.7072L15.2929 19.7072C14.9024 19.3166 14.9024 18.6834 15.2929 18.2928C15.6834 17.9023 16.3166 17.9023 16.7071 18.2928L19 20.5858V11C19 10.4477 19.4477 10 20 10C20.5523 10 21 10.4477 21 11V20.5858ZM12 31C11.4477 31 11 30.5523 11 30C11 29.4477 11.4477 29 12 29H28C28.5523 29 29 29.4477 29 30C29 30.5523 28.5523 31 28 31H12Z" fill="#00B00D"/>
</svg>
