<svg xmlns="http://www.w3.org/2000/svg" width="24" height="24" fill="none" viewBox="0 0 24 24"><path fill="#00373D" d="M22 0H2C0.896 0 0 0.896 0 2V22C0 23.104 0.896 24 2 24H22C23.104 24 24 23.104 24 22V2C24 0.896 23.104 0 22 0Z"/><path fill="#fff" d="M13.136 8.17601H15.416C15.576 8.17601 15.704 8.05601 15.704 7.91201V5.85601C15.704 5.71201 15.576 5.60001 15.416 5.60001H13.136C11.088 5.60001 9.424 7.09601 9.424 8.94401V10.232H8.288C8.128 10.232 8 10.344 8 10.488V12.544C8 12.688 8.128 12.8 8.288 12.8H9.424V18.72H12.28V12.8H15.416C15.576 12.8 15.704 12.688 15.704 12.544V10.488C15.704 10.344 15.576 10.232 15.416 10.232H12.28V8.94401C12.28 8.52001 12.664 8.17601 13.136 8.17601Z"/></svg>