<svg width="394" height="211" viewBox="0 0 394 211" fill="none" xmlns="http://www.w3.org/2000/svg">
<g filter="url(#filter0_d)">
<rect x="12" y="8" width="370" height="187" rx="10" fill="#29322D"/>
<rect x="12" y="8" width="370" height="187" rx="10" fill="#29322D"/>
<rect x="12" y="8" width="370" height="187" rx="10" fill="#29322D"/>
<rect x="12" y="8" width="370" height="187" rx="10" fill="#29322D"/>
</g>
<g filter="url(#filter1_d)">
<rect x="20" y="16" width="354" height="171" rx="10" fill="#29322D"/>
<rect x="20.5" y="16.5" width="353" height="170" rx="9.5" stroke="#717975" stroke-linecap="round" stroke-dasharray="2 5"/>
</g>
<path d="M43.888 42.4V55H41.548V49.6H35.032V55H32.692V42.4H35.032V47.602H41.548V42.4H43.888ZM56.0843 50.248C56.0843 50.404 56.0723 50.626 56.0483 50.914H48.5063C48.6383 51.622 48.9803 52.186 49.5323 52.606C50.0963 53.014 50.7923 53.218 51.6203 53.218C52.6763 53.218 53.5463 52.87 54.2303 52.174L55.4363 53.56C55.0043 54.076 54.4583 54.466 53.7983 54.73C53.1383 54.994 52.3943 55.126 51.5663 55.126C50.5103 55.126 49.5803 54.916 48.7763 54.496C47.9723 54.076 47.3483 53.494 46.9043 52.75C46.4723 51.994 46.2563 51.142 46.2563 50.194C46.2563 49.258 46.4663 48.418 46.8863 47.674C47.3183 46.918 47.9123 46.33 48.6683 45.91C49.4243 45.49 50.2763 45.28 51.2243 45.28C52.1603 45.28 52.9943 45.49 53.7263 45.91C54.4703 46.318 55.0463 46.9 55.4543 47.656C55.8743 48.4 56.0843 49.264 56.0843 50.248ZM51.2243 47.08C50.5043 47.08 49.8923 47.296 49.3883 47.728C48.8963 48.148 48.5963 48.712 48.4883 49.42H53.9423C53.8463 48.724 53.5523 48.16 53.0603 47.728C52.5683 47.296 51.9563 47.08 51.2243 47.08ZM58.2455 41.644H60.4955V55H58.2455V41.644ZM68.7767 45.28C69.7127 45.28 70.5467 45.484 71.2787 45.892C72.0227 46.3 72.6047 46.876 73.0247 47.62C73.4447 48.364 73.6547 49.222 73.6547 50.194C73.6547 51.166 73.4447 52.03 73.0247 52.786C72.6047 53.53 72.0227 54.106 71.2787 54.514C70.5467 54.922 69.7127 55.126 68.7767 55.126C67.4807 55.126 66.4547 54.694 65.6987 53.83V58.492H63.4487V45.388H65.5907V46.648C65.9627 46.192 66.4187 45.85 66.9587 45.622C67.5107 45.394 68.1167 45.28 68.7767 45.28ZM68.5247 53.2C69.3527 53.2 70.0307 52.924 70.5587 52.372C71.0987 51.82 71.3687 51.094 71.3687 50.194C71.3687 49.294 71.0987 48.568 70.5587 48.016C70.0307 47.464 69.3527 47.188 68.5247 47.188C67.9847 47.188 67.4987 47.314 67.0667 47.566C66.6347 47.806 66.2927 48.154 66.0407 48.61C65.7887 49.066 65.6627 49.594 65.6627 50.194C65.6627 50.794 65.7887 51.322 66.0407 51.778C66.2927 52.234 66.6347 52.588 67.0667 52.84C67.4987 53.08 67.9847 53.2 68.5247 53.2ZM86.8111 55.18C85.5391 55.18 84.3871 54.904 83.3551 54.352C82.3351 53.788 81.5311 53.014 80.9431 52.03C80.3671 51.046 80.0791 49.936 80.0791 48.7C80.0791 47.464 80.3731 46.354 80.9611 45.37C81.5491 44.386 82.3531 43.618 83.3731 43.066C84.4051 42.502 85.5571 42.22 86.8291 42.22C87.8611 42.22 88.8031 42.4 89.6551 42.76C90.5071 43.12 91.2271 43.642 91.8151 44.326L90.3031 45.748C89.3911 44.764 88.2691 44.272 86.9371 44.272C86.0731 44.272 85.2991 44.464 84.6151 44.848C83.9311 45.22 83.3971 45.742 83.0131 46.414C82.6291 47.086 82.4371 47.848 82.4371 48.7C82.4371 49.552 82.6291 50.314 83.0131 50.986C83.3971 51.658 83.9311 52.186 84.6151 52.57C85.2991 52.942 86.0731 53.128 86.9371 53.128C88.2691 53.128 89.3911 52.63 90.3031 51.634L91.8151 53.074C91.2271 53.758 90.5011 54.28 89.6371 54.64C88.7851 55 87.8431 55.18 86.8111 55.18ZM102.526 50.248C102.526 50.404 102.514 50.626 102.49 50.914H94.9477C95.0797 51.622 95.4217 52.186 95.9737 52.606C96.5377 53.014 97.2337 53.218 98.0617 53.218C99.1177 53.218 99.9877 52.87 100.672 52.174L101.878 53.56C101.446 54.076 100.9 54.466 100.24 54.73C99.5797 54.994 98.8357 55.126 98.0077 55.126C96.9517 55.126 96.0217 54.916 95.2177 54.496C94.4137 54.076 93.7897 53.494 93.3457 52.75C92.9137 51.994 92.6977 51.142 92.6977 50.194C92.6977 49.258 92.9077 48.418 93.3277 47.674C93.7597 46.918 94.3537 46.33 95.1097 45.91C95.8657 45.49 96.7177 45.28 97.6657 45.28C98.6017 45.28 99.4357 45.49 100.168 45.91C100.912 46.318 101.488 46.9 101.896 47.656C102.316 48.4 102.526 49.264 102.526 50.248ZM97.6657 47.08C96.9457 47.08 96.3337 47.296 95.8297 47.728C95.3377 48.148 95.0377 48.712 94.9297 49.42H100.384C100.288 48.724 99.9937 48.16 99.5017 47.728C99.0097 47.296 98.3977 47.08 97.6657 47.08ZM110.141 45.28C111.353 45.28 112.325 45.634 113.057 46.342C113.789 47.05 114.155 48.1 114.155 49.492V55H111.905V49.78C111.905 48.94 111.707 48.31 111.311 47.89C110.915 47.458 110.351 47.242 109.619 47.242C108.791 47.242 108.137 47.494 107.657 47.998C107.177 48.49 106.937 49.204 106.937 50.14V55H104.687V45.388H106.829V46.63C107.201 46.186 107.669 45.85 108.233 45.622C108.797 45.394 109.433 45.28 110.141 45.28ZM122.787 54.478C122.523 54.694 122.199 54.856 121.815 54.964C121.443 55.072 121.047 55.126 120.627 55.126C119.571 55.126 118.755 54.85 118.179 54.298C117.603 53.746 117.315 52.942 117.315 51.886V47.26H115.731V45.46H117.315V43.264H119.565V45.46H122.139V47.26H119.565V51.832C119.565 52.3 119.679 52.66 119.907 52.912C120.135 53.152 120.465 53.272 120.897 53.272C121.401 53.272 121.821 53.14 122.157 52.876L122.787 54.478ZM133.358 50.248C133.358 50.404 133.346 50.626 133.322 50.914H125.78C125.912 51.622 126.254 52.186 126.806 52.606C127.37 53.014 128.066 53.218 128.894 53.218C129.95 53.218 130.82 52.87 131.504 52.174L132.71 53.56C132.278 54.076 131.732 54.466 131.072 54.73C130.412 54.994 129.668 55.126 128.84 55.126C127.784 55.126 126.854 54.916 126.05 54.496C125.246 54.076 124.622 53.494 124.178 52.75C123.746 51.994 123.53 51.142 123.53 50.194C123.53 49.258 123.74 48.418 124.16 47.674C124.592 46.918 125.186 46.33 125.942 45.91C126.698 45.49 127.55 45.28 128.498 45.28C129.434 45.28 130.268 45.49 131 45.91C131.744 46.318 132.32 46.9 132.728 47.656C133.148 48.4 133.358 49.264 133.358 50.248ZM128.498 47.08C127.778 47.08 127.166 47.296 126.662 47.728C126.17 48.148 125.87 48.712 125.762 49.42H131.216C131.12 48.724 130.826 48.16 130.334 47.728C129.842 47.296 129.23 47.08 128.498 47.08ZM137.661 46.792C138.309 45.784 139.449 45.28 141.081 45.28V47.422C140.889 47.386 140.715 47.368 140.559 47.368C139.683 47.368 138.999 47.626 138.507 48.142C138.015 48.646 137.769 49.378 137.769 50.338V55H135.519V45.388H137.661V46.792Z" fill="white"/>
<path d="M32.824 76.8H34.008V88H32.824V76.8ZM40.1961 77.008C39.7055 77.008 39.3321 77.1413 39.0761 77.408C38.8308 77.6747 38.7081 78.0693 38.7081 78.592V79.584H41.3001V80.544H38.7401V88H37.6041V80.544H36.1001V79.584H37.6041V78.544C37.6041 77.776 37.8228 77.168 38.2601 76.72C38.7081 76.272 39.3375 76.048 40.1481 76.048C40.4681 76.048 40.7775 76.096 41.0761 76.192C41.3748 76.2773 41.6255 76.4053 41.8281 76.576L41.4441 77.424C41.1135 77.1467 40.6975 77.008 40.1961 77.008ZM54.0935 79.584L49.8855 89.008C49.5442 89.7973 49.1495 90.3573 48.7015 90.688C48.2535 91.0187 47.7148 91.184 47.0855 91.184C46.6802 91.184 46.3015 91.12 45.9495 90.992C45.5975 90.864 45.2935 90.672 45.0375 90.416L45.5655 89.568C45.9922 89.9947 46.5042 90.208 47.1015 90.208C47.4855 90.208 47.8108 90.1013 48.0775 89.888C48.3548 89.6747 48.6108 89.312 48.8455 88.8L49.2135 87.984L45.4535 79.584H46.6375L49.8055 86.736L52.9735 79.584H54.0935ZM58.899 88.08C58.0883 88.08 57.3577 87.8987 56.707 87.536C56.0563 87.1627 55.5443 86.6507 55.171 86C54.7977 85.3493 54.611 84.6133 54.611 83.792C54.611 82.9707 54.7977 82.2347 55.171 81.584C55.5443 80.9333 56.0563 80.4267 56.707 80.064C57.3577 79.7013 58.0883 79.52 58.899 79.52C59.7097 79.52 60.4403 79.7013 61.091 80.064C61.7417 80.4267 62.2483 80.9333 62.611 81.584C62.9843 82.2347 63.171 82.9707 63.171 83.792C63.171 84.6133 62.9843 85.3493 62.611 86C62.2483 86.6507 61.7417 87.1627 61.091 87.536C60.4403 87.8987 59.7097 88.08 58.899 88.08ZM58.899 87.072C59.4963 87.072 60.0297 86.9387 60.499 86.672C60.979 86.3947 61.3523 86.0053 61.619 85.504C61.8857 85.0027 62.019 84.432 62.019 83.792C62.019 83.152 61.8857 82.5813 61.619 82.08C61.3523 81.5787 60.979 81.1947 60.499 80.928C60.0297 80.6507 59.4963 80.512 58.899 80.512C58.3017 80.512 57.763 80.6507 57.283 80.928C56.8137 81.1947 56.4403 81.5787 56.163 82.08C55.8963 82.5813 55.763 83.152 55.763 83.792C55.763 84.432 55.8963 85.0027 56.163 85.504C56.4403 86.0053 56.8137 86.3947 57.283 86.672C57.763 86.9387 58.3017 87.072 58.899 87.072ZM73.0743 79.584V88H71.9862V86.464C71.6876 86.976 71.2769 87.376 70.7543 87.664C70.2316 87.9413 69.6343 88.08 68.9623 88.08C67.8636 88.08 66.9943 87.776 66.3543 87.168C65.7249 86.5493 65.4103 85.648 65.4103 84.464V79.584H66.5463V84.352C66.5463 85.2373 66.7649 85.9093 67.2023 86.368C67.6396 86.8267 68.2636 87.056 69.0743 87.056C69.9596 87.056 70.6583 86.7893 71.1703 86.256C71.6823 85.712 71.9383 84.96 71.9383 84V79.584H73.0743ZM84.7794 79.52C85.5687 79.52 86.2834 79.7013 86.9234 80.064C87.5634 80.416 88.0647 80.9173 88.4274 81.568C88.79 82.2187 88.9714 82.96 88.9714 83.792C88.9714 84.6347 88.79 85.3813 88.4274 86.032C88.0647 86.6827 87.5634 87.1893 86.9234 87.552C86.294 87.904 85.5794 88.08 84.7794 88.08C84.0967 88.08 83.478 87.9413 82.9234 87.664C82.3794 87.376 81.9314 86.96 81.5794 86.416V91.104H80.4434V79.584H81.5314V81.248C81.8727 80.6933 82.3207 80.2667 82.8754 79.968C83.4407 79.6693 84.0754 79.52 84.7794 79.52ZM84.6994 87.072C85.286 87.072 85.8194 86.9387 86.2994 86.672C86.7794 86.3947 87.1527 86.0053 87.4194 85.504C87.6967 85.0027 87.8354 84.432 87.8354 83.792C87.8354 83.152 87.6967 82.5867 87.4194 82.096C87.1527 81.5947 86.7794 81.2053 86.2994 80.928C85.8194 80.6507 85.286 80.512 84.6994 80.512C84.102 80.512 83.5634 80.6507 83.0834 80.928C82.614 81.2053 82.2407 81.5947 81.9634 82.096C81.6967 82.5867 81.5634 83.152 81.5634 83.792C81.5634 84.432 81.6967 85.0027 81.9634 85.504C82.2407 86.0053 82.614 86.3947 83.0834 86.672C83.5634 86.9387 84.102 87.072 84.6994 87.072ZM92.3751 81.232C92.6418 80.6667 93.0365 80.24 93.5591 79.952C94.0925 79.664 94.7485 79.52 95.5271 79.52V80.624L95.2551 80.608C94.3698 80.608 93.6765 80.88 93.1751 81.424C92.6738 81.968 92.4231 82.7307 92.4231 83.712V88H91.2871V79.584H92.3751V81.232ZM104.834 84.144H97.7939C97.8579 85.0187 98.1939 85.728 98.8019 86.272C99.4099 86.8053 100.178 87.072 101.106 87.072C101.629 87.072 102.109 86.9813 102.546 86.8C102.983 86.608 103.362 86.3307 103.682 85.968L104.322 86.704C103.949 87.152 103.479 87.4933 102.914 87.728C102.359 87.9627 101.746 88.08 101.074 88.08C100.21 88.08 99.4419 87.8987 98.7699 87.536C98.1085 87.1627 97.5912 86.6507 97.2179 86C96.8445 85.3493 96.6579 84.6133 96.6579 83.792C96.6579 82.9707 96.8339 82.2347 97.1859 81.584C97.5485 80.9333 98.0392 80.4267 98.6579 80.064C99.2872 79.7013 99.9912 79.52 100.77 79.52C101.549 79.52 102.247 79.7013 102.866 80.064C103.485 80.4267 103.97 80.9333 104.322 81.584C104.674 82.224 104.85 82.96 104.85 83.792L104.834 84.144ZM100.77 80.496C99.9592 80.496 99.2765 80.7573 98.7219 81.28C98.1779 81.792 97.8685 82.464 97.7939 83.296H103.762C103.687 82.464 103.373 81.792 102.818 81.28C102.274 80.7573 101.591 80.496 100.77 80.496ZM109.946 77.008C109.455 77.008 109.082 77.1413 108.826 77.408C108.581 77.6747 108.458 78.0693 108.458 78.592V79.584H111.05V80.544H108.49V88H107.354V80.544H105.85V79.584H107.354V78.544C107.354 77.776 107.573 77.168 108.01 76.72C108.458 76.272 109.087 76.048 109.898 76.048C110.218 76.048 110.527 76.096 110.826 76.192C111.125 76.2773 111.375 76.4053 111.578 76.576L111.194 77.424C110.863 77.1467 110.447 77.008 109.946 77.008ZM119.771 84.144H112.731C112.795 85.0187 113.131 85.728 113.739 86.272C114.347 86.8053 115.115 87.072 116.043 87.072C116.566 87.072 117.046 86.9813 117.483 86.8C117.921 86.608 118.299 86.3307 118.619 85.968L119.259 86.704C118.886 87.152 118.417 87.4933 117.851 87.728C117.297 87.9627 116.683 88.08 116.011 88.08C115.147 88.08 114.379 87.8987 113.707 87.536C113.046 87.1627 112.529 86.6507 112.155 86C111.782 85.3493 111.595 84.6133 111.595 83.792C111.595 82.9707 111.771 82.2347 112.123 81.584C112.486 80.9333 112.977 80.4267 113.595 80.064C114.225 79.7013 114.929 79.52 115.707 79.52C116.486 79.52 117.185 79.7013 117.803 80.064C118.422 80.4267 118.907 80.9333 119.259 81.584C119.611 82.224 119.787 82.96 119.787 83.792L119.771 84.144ZM115.707 80.496C114.897 80.496 114.214 80.7573 113.659 81.28C113.115 81.792 112.806 82.464 112.731 83.296H118.699C118.625 82.464 118.31 81.792 117.755 81.28C117.211 80.7573 116.529 80.496 115.707 80.496ZM123.188 81.232C123.454 80.6667 123.849 80.24 124.372 79.952C124.905 79.664 125.561 79.52 126.34 79.52V80.624L126.068 80.608C125.182 80.608 124.489 80.88 123.988 81.424C123.486 81.968 123.236 82.7307 123.236 83.712V88H122.1V79.584H123.188V81.232ZM135.493 77.008C135.002 77.008 134.629 77.1413 134.373 77.408C134.128 77.6747 134.005 78.0693 134.005 78.592V79.584H136.597V80.544H134.037V88H132.901V80.544H131.397V79.584H132.901V78.544C132.901 77.776 133.12 77.168 133.557 76.72C134.005 76.272 134.634 76.048 135.445 76.048C135.765 76.048 136.074 76.096 136.373 76.192C136.672 76.2773 136.922 76.4053 137.125 76.576L136.741 77.424C136.41 77.1467 135.994 77.008 135.493 77.008ZM139.413 79.584H140.549V88H139.413V79.584ZM139.989 77.744C139.754 77.744 139.557 77.664 139.397 77.504C139.237 77.344 139.157 77.152 139.157 76.928C139.157 76.7147 139.237 76.528 139.397 76.368C139.557 76.208 139.754 76.128 139.989 76.128C140.224 76.128 140.421 76.208 140.581 76.368C140.741 76.5173 140.821 76.6987 140.821 76.912C140.821 77.1467 140.741 77.344 140.581 77.504C140.421 77.664 140.224 77.744 139.989 77.744ZM148.013 79.52C149.069 79.52 149.906 79.8293 150.525 80.448C151.154 81.056 151.469 81.9467 151.469 83.12V88H150.333V83.232C150.333 82.3573 150.114 81.6907 149.677 81.232C149.239 80.7733 148.615 80.544 147.805 80.544C146.898 80.544 146.178 80.816 145.645 81.36C145.122 81.8933 144.861 82.6347 144.861 83.584V88H143.725V79.584H144.813V81.136C145.122 80.624 145.549 80.2293 146.093 79.952C146.647 79.664 147.287 79.52 148.013 79.52ZM162.264 76.128V88H161.176V86.336C160.835 86.9013 160.381 87.3333 159.816 87.632C159.261 87.9307 158.632 88.08 157.928 88.08C157.139 88.08 156.424 87.8987 155.784 87.536C155.144 87.1733 154.643 86.6667 154.28 86.016C153.917 85.3653 153.736 84.624 153.736 83.792C153.736 82.96 153.917 82.2187 154.28 81.568C154.643 80.9173 155.144 80.416 155.784 80.064C156.424 79.7013 157.139 79.52 157.928 79.52C158.611 79.52 159.224 79.664 159.768 79.952C160.323 80.2293 160.776 80.64 161.128 81.184V76.128H162.264ZM158.024 87.072C158.611 87.072 159.139 86.9387 159.608 86.672C160.088 86.3947 160.461 86.0053 160.728 85.504C161.005 85.0027 161.144 84.432 161.144 83.792C161.144 83.152 161.005 82.5813 160.728 82.08C160.461 81.5787 160.088 81.1947 159.608 80.928C159.139 80.6507 158.611 80.512 158.024 80.512C157.427 80.512 156.888 80.6507 156.408 80.928C155.939 81.1947 155.565 81.5787 155.288 82.08C155.021 82.5813 154.888 83.152 154.888 83.792C154.888 84.432 155.021 85.0027 155.288 85.504C155.565 86.0053 155.939 86.3947 156.408 86.672C156.888 86.9387 157.427 87.072 158.024 87.072ZM165.428 79.584H166.564V88H165.428V79.584ZM166.004 77.744C165.769 77.744 165.572 77.664 165.412 77.504C165.252 77.344 165.172 77.152 165.172 76.928C165.172 76.7147 165.252 76.528 165.412 76.368C165.572 76.208 165.769 76.128 166.004 76.128C166.238 76.128 166.436 76.208 166.596 76.368C166.756 76.5173 166.836 76.6987 166.836 76.912C166.836 77.1467 166.756 77.344 166.596 77.504C166.436 77.664 166.238 77.744 166.004 77.744ZM174.013 79.52C175.069 79.52 175.906 79.8293 176.525 80.448C177.154 81.056 177.469 81.9467 177.469 83.12V88H176.333V83.232C176.333 82.3573 176.114 81.6907 175.677 81.232C175.239 80.7733 174.615 80.544 173.805 80.544C172.898 80.544 172.178 80.816 171.645 81.36C171.122 81.8933 170.861 82.6347 170.861 83.584V88H169.725V79.584H170.813V81.136C171.122 80.624 171.549 80.2293 172.093 79.952C172.647 79.664 173.287 79.52 174.013 79.52ZM188.376 79.584V86.976C188.376 88.4053 188.024 89.4613 187.32 90.144C186.627 90.8373 185.576 91.184 184.168 91.184C183.389 91.184 182.648 91.0667 181.944 90.832C181.251 90.608 180.685 90.2933 180.248 89.888L180.824 89.024C181.229 89.3867 181.72 89.6693 182.296 89.872C182.883 90.0747 183.496 90.176 184.136 90.176C185.203 90.176 185.987 89.9253 186.488 89.424C186.989 88.9333 187.24 88.1653 187.24 87.12V86.048C186.888 86.5813 186.424 86.9867 185.848 87.264C185.283 87.5413 184.653 87.68 183.96 87.68C183.171 87.68 182.451 87.5093 181.8 87.168C181.16 86.816 180.653 86.3307 180.28 85.712C179.917 85.0827 179.736 84.3733 179.736 83.584C179.736 82.7947 179.917 82.0907 180.28 81.472C180.653 80.8533 181.16 80.3733 181.8 80.032C182.44 79.6907 183.16 79.52 183.96 79.52C184.675 79.52 185.32 79.664 185.896 79.952C186.472 80.24 186.936 80.656 187.288 81.2V79.584H188.376ZM184.072 86.672C184.68 86.672 185.229 86.544 185.72 86.288C186.211 86.0213 186.589 85.6533 186.856 85.184C187.133 84.7147 187.272 84.1813 187.272 83.584C187.272 82.9867 187.133 82.4587 186.856 82C186.589 81.5307 186.211 81.168 185.72 80.912C185.24 80.6453 184.691 80.512 184.072 80.512C183.464 80.512 182.915 80.64 182.424 80.896C181.944 81.152 181.565 81.5147 181.288 81.984C181.021 82.4533 180.888 82.9867 180.888 83.584C180.888 84.1813 181.021 84.7147 181.288 85.184C181.565 85.6533 181.944 86.0213 182.424 86.288C182.915 86.544 183.464 86.672 184.072 86.672ZM195.74 79.584H196.876V88H195.74V79.584ZM196.316 77.744C196.082 77.744 195.884 77.664 195.724 77.504C195.564 77.344 195.484 77.152 195.484 76.928C195.484 76.7147 195.564 76.528 195.724 76.368C195.884 76.208 196.082 76.128 196.316 76.128C196.551 76.128 196.748 76.208 196.908 76.368C197.068 76.5173 197.148 76.6987 197.148 76.912C197.148 77.1467 197.068 77.344 196.908 77.504C196.748 77.664 196.551 77.744 196.316 77.744ZM204.325 79.52C205.381 79.52 206.218 79.8293 206.837 80.448C207.466 81.056 207.781 81.9467 207.781 83.12V88H206.645V83.232C206.645 82.3573 206.426 81.6907 205.989 81.232C205.552 80.7733 204.928 80.544 204.117 80.544C203.21 80.544 202.49 80.816 201.957 81.36C201.434 81.8933 201.173 82.6347 201.173 83.584V88H200.037V79.584H201.125V81.136C201.434 80.624 201.861 80.2293 202.405 79.952C202.96 79.664 203.6 79.52 204.325 79.52ZM213.649 77.008C213.159 77.008 212.785 77.1413 212.529 77.408C212.284 77.6747 212.161 78.0693 212.161 78.592V79.584H214.753V80.544H212.193V88H211.057V80.544H209.553V79.584H211.057V78.544C211.057 77.776 211.276 77.168 211.713 76.72C212.161 76.272 212.791 76.048 213.601 76.048C213.921 76.048 214.231 76.096 214.529 76.192C214.828 76.2773 215.079 76.4053 215.281 76.576L214.897 77.424C214.567 77.1467 214.151 77.008 213.649 77.008ZM219.587 88.08C218.776 88.08 218.045 87.8987 217.395 87.536C216.744 87.1627 216.232 86.6507 215.859 86C215.485 85.3493 215.299 84.6133 215.299 83.792C215.299 82.9707 215.485 82.2347 215.859 81.584C216.232 80.9333 216.744 80.4267 217.395 80.064C218.045 79.7013 218.776 79.52 219.587 79.52C220.397 79.52 221.128 79.7013 221.779 80.064C222.429 80.4267 222.936 80.9333 223.299 81.584C223.672 82.2347 223.859 82.9707 223.859 83.792C223.859 84.6133 223.672 85.3493 223.299 86C222.936 86.6507 222.429 87.1627 221.779 87.536C221.128 87.8987 220.397 88.08 219.587 88.08ZM219.587 87.072C220.184 87.072 220.717 86.9387 221.187 86.672C221.667 86.3947 222.04 86.0053 222.307 85.504C222.573 85.0027 222.707 84.432 222.707 83.792C222.707 83.152 222.573 82.5813 222.307 82.08C222.04 81.5787 221.667 81.1947 221.187 80.928C220.717 80.6507 220.184 80.512 219.587 80.512C218.989 80.512 218.451 80.6507 217.971 80.928C217.501 81.1947 217.128 81.5787 216.851 82.08C216.584 82.5813 216.451 83.152 216.451 83.792C216.451 84.432 216.584 85.0027 216.851 85.504C217.128 86.0053 217.501 86.3947 217.971 86.672C218.451 86.9387 218.989 87.072 219.587 87.072ZM227.266 81.232C227.532 80.6667 227.927 80.24 228.45 79.952C228.983 79.664 229.639 79.52 230.418 79.52V80.624L230.146 80.608C229.26 80.608 228.567 80.88 228.066 81.424C227.564 81.968 227.314 82.7307 227.314 83.712V88H226.178V79.584H227.266V81.232ZM242.971 79.52C244.027 79.52 244.853 79.824 245.451 80.432C246.059 81.04 246.363 81.936 246.363 83.12V88H245.227V83.232C245.227 82.3573 245.013 81.6907 244.587 81.232C244.171 80.7733 243.579 80.544 242.811 80.544C241.936 80.544 241.248 80.816 240.747 81.36C240.245 81.8933 239.995 82.6347 239.995 83.584V88H238.859V83.232C238.859 82.3573 238.645 81.6907 238.219 81.232C237.803 80.7733 237.205 80.544 236.427 80.544C235.563 80.544 234.875 80.816 234.363 81.36C233.861 81.8933 233.611 82.6347 233.611 83.584V88H232.475V79.584H233.563V81.12C233.861 80.608 234.277 80.2133 234.811 79.936C235.344 79.6587 235.957 79.52 236.651 79.52C237.355 79.52 237.963 79.6693 238.475 79.968C238.997 80.2667 239.387 80.7093 239.643 81.296C239.952 80.7413 240.395 80.3093 240.971 80C241.557 79.68 242.224 79.52 242.971 79.52ZM252.387 79.52C253.486 79.52 254.329 79.7973 254.915 80.352C255.502 80.896 255.795 81.7067 255.795 82.784V88H254.707V86.688C254.451 87.1253 254.073 87.4667 253.571 87.712C253.081 87.9573 252.494 88.08 251.811 88.08C250.873 88.08 250.126 87.856 249.571 87.408C249.017 86.96 248.739 86.368 248.739 85.632C248.739 84.9173 248.995 84.3413 249.507 83.904C250.03 83.4667 250.857 83.248 251.987 83.248H254.659V82.736C254.659 82.0107 254.457 81.4613 254.051 81.088C253.646 80.704 253.054 80.512 252.275 80.512C251.742 80.512 251.23 80.6027 250.739 80.784C250.249 80.9547 249.827 81.1947 249.475 81.504L248.963 80.656C249.39 80.2933 249.902 80.016 250.499 79.824C251.097 79.6213 251.726 79.52 252.387 79.52ZM251.987 87.184C252.627 87.184 253.177 87.04 253.635 86.752C254.094 86.4533 254.435 86.0267 254.659 85.472V84.096H252.019C250.579 84.096 249.859 84.5973 249.859 85.6C249.859 86.0907 250.046 86.48 250.419 86.768C250.793 87.0453 251.315 87.184 251.987 87.184ZM263.313 87.488C263.1 87.68 262.833 87.8293 262.513 87.936C262.204 88.032 261.878 88.08 261.537 88.08C260.748 88.08 260.14 87.8667 259.713 87.44C259.286 87.0133 259.073 86.4107 259.073 85.632V80.544H257.569V79.584H259.073V77.744H260.209V79.584H262.769V80.544H260.209V85.568C260.209 86.0693 260.332 86.4533 260.577 86.72C260.833 86.976 261.196 87.104 261.665 87.104C261.9 87.104 262.124 87.0667 262.337 86.992C262.561 86.9173 262.753 86.8107 262.913 86.672L263.313 87.488ZM265.381 79.584H266.517V88H265.381V79.584ZM265.957 77.744C265.722 77.744 265.525 77.664 265.365 77.504C265.205 77.344 265.125 77.152 265.125 76.928C265.125 76.7147 265.205 76.528 265.365 76.368C265.525 76.208 265.722 76.128 265.957 76.128C266.192 76.128 266.389 76.208 266.549 76.368C266.709 76.5173 266.789 76.6987 266.789 76.912C266.789 77.1467 266.709 77.344 266.549 77.504C266.389 77.664 266.192 77.744 265.957 77.744ZM273.118 88.08C272.307 88.08 271.576 87.8987 270.926 87.536C270.275 87.1627 269.763 86.6507 269.39 86C269.016 85.3493 268.83 84.6133 268.83 83.792C268.83 82.9707 269.016 82.2347 269.39 81.584C269.763 80.9333 270.275 80.4267 270.926 80.064C271.576 79.7013 272.307 79.52 273.118 79.52C273.928 79.52 274.659 79.7013 275.31 80.064C275.96 80.4267 276.467 80.9333 276.83 81.584C277.203 82.2347 277.39 82.9707 277.39 83.792C277.39 84.6133 277.203 85.3493 276.83 86C276.467 86.6507 275.96 87.1627 275.31 87.536C274.659 87.8987 273.928 88.08 273.118 88.08ZM273.118 87.072C273.715 87.072 274.248 86.9387 274.718 86.672C275.198 86.3947 275.571 86.0053 275.838 85.504C276.104 85.0027 276.238 84.432 276.238 83.792C276.238 83.152 276.104 82.5813 275.838 82.08C275.571 81.5787 275.198 81.1947 274.718 80.928C274.248 80.6507 273.715 80.512 273.118 80.512C272.52 80.512 271.982 80.6507 271.502 80.928C271.032 81.1947 270.659 81.5787 270.382 82.08C270.115 82.5813 269.982 83.152 269.982 83.792C269.982 84.432 270.115 85.0027 270.382 85.504C270.659 86.0053 271.032 86.3947 271.502 86.672C271.982 86.9387 272.52 87.072 273.118 87.072ZM283.997 79.52C285.053 79.52 285.89 79.8293 286.509 80.448C287.138 81.056 287.453 81.9467 287.453 83.12V88H286.317V83.232C286.317 82.3573 286.098 81.6907 285.661 81.232C285.224 80.7733 284.6 80.544 283.789 80.544C282.882 80.544 282.162 80.816 281.629 81.36C281.106 81.8933 280.845 82.6347 280.845 83.584V88H279.709V79.584H280.797V81.136C281.106 80.624 281.533 80.2293 282.077 79.952C282.632 79.664 283.272 79.52 283.997 79.52ZM298.165 88.08C297.354 88.08 296.623 87.8987 295.973 87.536C295.322 87.1627 294.81 86.6507 294.437 86C294.063 85.3493 293.877 84.6133 293.877 83.792C293.877 82.9707 294.063 82.2347 294.437 81.584C294.81 80.9333 295.322 80.4267 295.973 80.064C296.623 79.7013 297.354 79.52 298.165 79.52C298.975 79.52 299.706 79.7013 300.357 80.064C301.007 80.4267 301.514 80.9333 301.877 81.584C302.25 82.2347 302.437 82.9707 302.437 83.792C302.437 84.6133 302.25 85.3493 301.877 86C301.514 86.6507 301.007 87.1627 300.357 87.536C299.706 87.8987 298.975 88.08 298.165 88.08ZM298.165 87.072C298.762 87.072 299.295 86.9387 299.765 86.672C300.245 86.3947 300.618 86.0053 300.885 85.504C301.151 85.0027 301.285 84.432 301.285 83.792C301.285 83.152 301.151 82.5813 300.885 82.08C300.618 81.5787 300.245 81.1947 299.765 80.928C299.295 80.6507 298.762 80.512 298.165 80.512C297.567 80.512 297.029 80.6507 296.549 80.928C296.079 81.1947 295.706 81.5787 295.429 82.08C295.162 82.5813 295.029 83.152 295.029 83.792C295.029 84.432 295.162 85.0027 295.429 85.504C295.706 86.0053 296.079 86.3947 296.549 86.672C297.029 86.9387 297.567 87.072 298.165 87.072ZM309.044 79.52C310.1 79.52 310.937 79.8293 311.556 80.448C312.185 81.056 312.5 81.9467 312.5 83.12V88H311.364V83.232C311.364 82.3573 311.145 81.6907 310.708 81.232C310.271 80.7733 309.647 80.544 308.836 80.544C307.929 80.544 307.209 80.816 306.676 81.36C306.153 81.8933 305.892 82.6347 305.892 83.584V88H304.756V79.584H305.844V81.136C306.153 80.624 306.58 80.2293 307.124 79.952C307.679 79.664 308.319 79.52 309.044 79.52ZM326.844 79.584L322.636 89.008C322.294 89.7973 321.9 90.3573 321.452 90.688C321.004 91.0187 320.465 91.184 319.836 91.184C319.43 91.184 319.052 91.12 318.7 90.992C318.348 90.864 318.043 90.672 317.787 90.416L318.316 89.568C318.742 89.9947 319.254 90.208 319.852 90.208C320.236 90.208 320.561 90.1013 320.828 89.888C321.105 89.6747 321.361 89.312 321.596 88.8L321.964 87.984L318.204 79.584H319.388L322.556 86.736L325.724 79.584H326.844ZM331.649 88.08C330.838 88.08 330.108 87.8987 329.457 87.536C328.806 87.1627 328.294 86.6507 327.921 86C327.548 85.3493 327.361 84.6133 327.361 83.792C327.361 82.9707 327.548 82.2347 327.921 81.584C328.294 80.9333 328.806 80.4267 329.457 80.064C330.108 79.7013 330.838 79.52 331.649 79.52C332.46 79.52 333.19 79.7013 333.841 80.064C334.492 80.4267 334.998 80.9333 335.361 81.584C335.734 82.2347 335.921 82.9707 335.921 83.792C335.921 84.6133 335.734 85.3493 335.361 86C334.998 86.6507 334.492 87.1627 333.841 87.536C333.19 87.8987 332.46 88.08 331.649 88.08ZM331.649 87.072C332.246 87.072 332.78 86.9387 333.249 86.672C333.729 86.3947 334.102 86.0053 334.369 85.504C334.636 85.0027 334.769 84.432 334.769 83.792C334.769 83.152 334.636 82.5813 334.369 82.08C334.102 81.5787 333.729 81.1947 333.249 80.928C332.78 80.6507 332.246 80.512 331.649 80.512C331.052 80.512 330.513 80.6507 330.033 80.928C329.564 81.1947 329.19 81.5787 328.913 82.08C328.646 82.5813 328.513 83.152 328.513 83.792C328.513 84.432 328.646 85.0027 328.913 85.504C329.19 86.0053 329.564 86.3947 330.033 86.672C330.513 86.9387 331.052 87.072 331.649 87.072ZM345.824 79.584V88H344.736V86.464C344.438 86.976 344.027 87.376 343.504 87.664C342.982 87.9413 342.384 88.08 341.712 88.08C340.614 88.08 339.744 87.776 339.104 87.168C338.475 86.5493 338.16 85.648 338.16 84.464V79.584H339.296V84.352C339.296 85.2373 339.515 85.9093 339.952 86.368C340.39 86.8267 341.014 87.056 341.824 87.056C342.71 87.056 343.408 86.7893 343.92 86.256C344.432 85.712 344.688 84.96 344.688 84V79.584H345.824ZM350.094 81.232C350.361 80.6667 350.755 80.24 351.278 79.952C351.811 79.664 352.467 79.52 353.246 79.52V80.624L352.974 80.608C352.089 80.608 351.395 80.88 350.894 81.424C350.393 81.968 350.142 82.7307 350.142 83.712V88H349.006V79.584H350.094V81.232ZM36.024 108.08C35.2133 108.08 34.4827 107.899 33.832 107.536C33.1813 107.163 32.6693 106.651 32.296 106C31.9227 105.349 31.736 104.613 31.736 103.792C31.736 102.971 31.9227 102.235 32.296 101.584C32.6693 100.933 33.1813 100.427 33.832 100.064C34.4827 99.7013 35.2133 99.52 36.024 99.52C36.8347 99.52 37.5653 99.7013 38.216 100.064C38.8667 100.427 39.3733 100.933 39.736 101.584C40.1093 102.235 40.296 102.971 40.296 103.792C40.296 104.613 40.1093 105.349 39.736 106C39.3733 106.651 38.8667 107.163 38.216 107.536C37.5653 107.899 36.8347 108.08 36.024 108.08ZM36.024 107.072C36.6213 107.072 37.1547 106.939 37.624 106.672C38.104 106.395 38.4773 106.005 38.744 105.504C39.0107 105.003 39.144 104.432 39.144 103.792C39.144 103.152 39.0107 102.581 38.744 102.08C38.4773 101.579 38.104 101.195 37.624 100.928C37.1547 100.651 36.6213 100.512 36.024 100.512C35.4267 100.512 34.888 100.651 34.408 100.928C33.9387 101.195 33.5653 101.579 33.288 102.08C33.0213 102.581 32.888 103.152 32.888 103.792C32.888 104.432 33.0213 105.003 33.288 105.504C33.5653 106.005 33.9387 106.395 34.408 106.672C34.888 106.939 35.4267 107.072 36.024 107.072ZM54.7329 99.584L51.5489 108H50.4769L47.8209 101.104L45.1649 108H44.0929L40.9249 99.584H42.0129L44.6529 106.736L47.3569 99.584H48.3329L51.0209 106.736L53.6929 99.584H54.7329ZM60.7314 99.52C61.7874 99.52 62.6247 99.8293 63.2434 100.448C63.8727 101.056 64.1874 101.947 64.1874 103.12V108H63.0514V103.232C63.0514 102.357 62.8327 101.691 62.3954 101.232C61.958 100.773 61.334 100.544 60.5234 100.544C59.6167 100.544 58.8967 100.816 58.3634 101.36C57.8407 101.893 57.5794 102.635 57.5794 103.584V108H56.4434V99.584H57.5314V101.136C57.8407 100.624 58.2674 100.229 58.8114 99.952C59.366 99.664 60.006 99.52 60.7314 99.52ZM67.3995 106.336C67.6448 106.336 67.8475 106.421 68.0075 106.592C68.1675 106.752 68.2475 106.955 68.2475 107.2C68.2475 107.328 68.2262 107.467 68.1835 107.616C68.1515 107.765 68.0982 107.936 68.0235 108.128L67.3515 110.336H66.5835L67.1275 108.016C66.9568 107.963 66.8182 107.867 66.7115 107.728C66.6048 107.579 66.5515 107.403 66.5515 107.2C66.5515 106.955 66.6315 106.752 66.7915 106.592C66.9515 106.421 67.1542 106.336 67.3995 106.336ZM79.1856 99.52C79.975 99.52 80.6896 99.7013 81.3296 100.064C81.9696 100.416 82.471 100.917 82.8336 101.568C83.1963 102.219 83.3776 102.96 83.3776 103.792C83.3776 104.635 83.1963 105.381 82.8336 106.032C82.471 106.683 81.9696 107.189 81.3296 107.552C80.7003 107.904 79.9856 108.08 79.1856 108.08C78.503 108.08 77.8843 107.941 77.3296 107.664C76.7856 107.376 76.3376 106.96 75.9856 106.416V111.104H74.8496V99.584H75.9376V101.248C76.279 100.693 76.727 100.267 77.2816 99.968C77.847 99.6693 78.4816 99.52 79.1856 99.52ZM79.1056 107.072C79.6923 107.072 80.2256 106.939 80.7056 106.672C81.1856 106.395 81.559 106.005 81.8256 105.504C82.103 105.003 82.2416 104.432 82.2416 103.792C82.2416 103.152 82.103 102.587 81.8256 102.096C81.559 101.595 81.1856 101.205 80.7056 100.928C80.2256 100.651 79.6923 100.512 79.1056 100.512C78.5083 100.512 77.9696 100.651 77.4896 100.928C77.0203 101.205 76.647 101.595 76.3696 102.096C76.103 102.587 75.9696 103.152 75.9696 103.792C75.9696 104.432 76.103 105.003 76.3696 105.504C76.647 106.005 77.0203 106.395 77.4896 106.672C77.9696 106.939 78.5083 107.072 79.1056 107.072ZM85.6934 96.128H86.8294V108H85.6934V96.128ZM97.3183 104.144H90.2783C90.3423 105.019 90.6783 105.728 91.2863 106.272C91.8943 106.805 92.6623 107.072 93.5903 107.072C94.1129 107.072 94.5929 106.981 95.0303 106.8C95.4676 106.608 95.8463 106.331 96.1663 105.968L96.8063 106.704C96.4329 107.152 95.9636 107.493 95.3983 107.728C94.8436 107.963 94.2303 108.08 93.5583 108.08C92.6943 108.08 91.9263 107.899 91.2543 107.536C90.5929 107.163 90.0756 106.651 89.7023 106C89.3289 105.349 89.1423 104.613 89.1423 103.792C89.1423 102.971 89.3183 102.235 89.6703 101.584C90.0329 100.933 90.5236 100.427 91.1423 100.064C91.7716 99.7013 92.4756 99.52 93.2543 99.52C94.0329 99.52 94.7316 99.7013 95.3503 100.064C95.9689 100.427 96.4543 100.933 96.8063 101.584C97.1583 102.224 97.3343 102.96 97.3343 103.792L97.3183 104.144ZM93.2543 100.496C92.4436 100.496 91.7609 100.757 91.2063 101.28C90.6623 101.792 90.3529 102.464 90.2783 103.296H96.2463C96.1716 102.464 95.8569 101.792 95.3023 101.28C94.7583 100.757 94.0756 100.496 93.2543 100.496ZM102.356 99.52C103.455 99.52 104.297 99.7973 104.884 100.352C105.471 100.896 105.764 101.707 105.764 102.784V108H104.676V106.688C104.42 107.125 104.041 107.467 103.54 107.712C103.049 107.957 102.463 108.08 101.78 108.08C100.841 108.08 100.095 107.856 99.5401 107.408C98.9855 106.96 98.7081 106.368 98.7081 105.632C98.7081 104.917 98.9641 104.341 99.4761 103.904C99.9988 103.467 100.825 103.248 101.956 103.248H104.628V102.736C104.628 102.011 104.425 101.461 104.02 101.088C103.615 100.704 103.023 100.512 102.244 100.512C101.711 100.512 101.199 100.603 100.708 100.784C100.217 100.955 99.7961 101.195 99.4441 101.504L98.9321 100.656C99.3588 100.293 99.8708 100.016 100.468 99.824C101.065 99.6213 101.695 99.52 102.356 99.52ZM101.956 107.184C102.596 107.184 103.145 107.04 103.604 106.752C104.063 106.453 104.404 106.027 104.628 105.472V104.096H101.988C100.548 104.096 99.8281 104.597 99.8281 105.6C99.8281 106.091 100.015 106.48 100.388 106.768C100.761 107.045 101.284 107.184 101.956 107.184ZM111.106 108.08C110.423 108.08 109.767 107.984 109.138 107.792C108.519 107.589 108.034 107.339 107.682 107.04L108.194 106.144C108.546 106.421 108.988 106.651 109.522 106.832C110.055 107.003 110.61 107.088 111.186 107.088C111.954 107.088 112.519 106.971 112.882 106.736C113.255 106.491 113.442 106.149 113.442 105.712C113.442 105.403 113.34 105.163 113.138 104.992C112.935 104.811 112.679 104.677 112.37 104.592C112.06 104.496 111.65 104.405 111.138 104.32C110.455 104.192 109.906 104.064 109.49 103.936C109.074 103.797 108.716 103.568 108.418 103.248C108.13 102.928 107.986 102.485 107.986 101.92C107.986 101.216 108.279 100.64 108.866 100.192C109.452 99.744 110.268 99.52 111.314 99.52C111.858 99.52 112.402 99.5947 112.946 99.744C113.49 99.8827 113.938 100.069 114.29 100.304L113.794 101.216C113.1 100.736 112.274 100.496 111.314 100.496C110.588 100.496 110.039 100.624 109.666 100.88C109.303 101.136 109.122 101.472 109.122 101.888C109.122 102.208 109.223 102.464 109.426 102.656C109.639 102.848 109.9 102.992 110.21 103.088C110.519 103.173 110.946 103.264 111.49 103.36C112.162 103.488 112.7 103.616 113.106 103.744C113.511 103.872 113.858 104.091 114.146 104.4C114.434 104.709 114.578 105.136 114.578 105.68C114.578 106.416 114.268 107.003 113.65 107.44C113.042 107.867 112.194 108.08 111.106 108.08ZM124.006 104.144H116.966C117.03 105.019 117.366 105.728 117.974 106.272C118.582 106.805 119.35 107.072 120.278 107.072C120.8 107.072 121.28 106.981 121.718 106.8C122.155 106.608 122.534 106.331 122.854 105.968L123.494 106.704C123.12 107.152 122.651 107.493 122.086 107.728C121.531 107.963 120.918 108.08 120.246 108.08C119.382 108.08 118.614 107.899 117.942 107.536C117.28 107.163 116.763 106.651 116.39 106C116.016 105.349 115.83 104.613 115.83 103.792C115.83 102.971 116.006 102.235 116.358 101.584C116.72 100.933 117.211 100.427 117.83 100.064C118.459 99.7013 119.163 99.52 119.942 99.52C120.72 99.52 121.419 99.7013 122.038 100.064C122.656 100.427 123.142 100.933 123.494 101.584C123.846 102.224 124.022 102.96 124.022 103.792L124.006 104.144ZM119.942 100.496C119.131 100.496 118.448 100.757 117.894 101.28C117.35 101.792 117.04 102.464 116.966 103.296H122.934C122.859 102.464 122.544 101.792 121.99 101.28C121.446 100.757 120.763 100.496 119.942 100.496ZM133.641 103.776L131.658 105.6V108H130.522V96.128H131.658V104.176L136.682 99.584H138.09L134.49 103.024L138.426 108H137.034L133.641 103.776ZM140.006 99.584H141.142V108H140.006V99.584ZM140.582 97.744C140.347 97.744 140.15 97.664 139.99 97.504C139.83 97.344 139.75 97.152 139.75 96.928C139.75 96.7147 139.83 96.528 139.99 96.368C140.15 96.208 140.347 96.128 140.582 96.128C140.817 96.128 141.014 96.208 141.174 96.368C141.334 96.5173 141.414 96.6987 141.414 96.912C141.414 97.1467 141.334 97.344 141.174 97.504C141.014 97.664 140.817 97.744 140.582 97.744ZM148.591 99.52C149.647 99.52 150.484 99.8293 151.103 100.448C151.732 101.056 152.047 101.947 152.047 103.12V108H150.911V103.232C150.911 102.357 150.692 101.691 150.255 101.232C149.817 100.773 149.193 100.544 148.383 100.544C147.476 100.544 146.756 100.816 146.223 101.36C145.7 101.893 145.439 102.635 145.439 103.584V108H144.303V99.584H145.391V101.136C145.7 100.624 146.127 100.229 146.671 99.952C147.225 99.664 147.865 99.52 148.591 99.52ZM162.842 96.128V108H161.754V106.336C161.413 106.901 160.959 107.333 160.394 107.632C159.839 107.931 159.21 108.08 158.506 108.08C157.717 108.08 157.002 107.899 156.362 107.536C155.722 107.173 155.221 106.667 154.858 106.016C154.495 105.365 154.314 104.624 154.314 103.792C154.314 102.96 154.495 102.219 154.858 101.568C155.221 100.917 155.722 100.416 156.362 100.064C157.002 99.7013 157.717 99.52 158.506 99.52C159.189 99.52 159.802 99.664 160.346 99.952C160.901 100.229 161.354 100.64 161.706 101.184V96.128H162.842ZM158.602 107.072C159.189 107.072 159.717 106.939 160.186 106.672C160.666 106.395 161.039 106.005 161.306 105.504C161.583 105.003 161.722 104.432 161.722 103.792C161.722 103.152 161.583 102.581 161.306 102.08C161.039 101.579 160.666 101.195 160.186 100.928C159.717 100.651 159.189 100.512 158.602 100.512C158.005 100.512 157.466 100.651 156.986 100.928C156.517 101.195 156.143 101.579 155.866 102.08C155.599 102.581 155.466 103.152 155.466 103.792C155.466 104.432 155.599 105.003 155.866 105.504C156.143 106.005 156.517 106.395 156.986 106.672C157.466 106.939 158.005 107.072 158.602 107.072ZM166.006 96.128H167.142V108H166.006V96.128ZM177.375 99.584L173.167 109.008C172.825 109.797 172.431 110.357 171.983 110.688C171.535 111.019 170.996 111.184 170.367 111.184C169.961 111.184 169.583 111.12 169.231 110.992C168.879 110.864 168.575 110.672 168.319 110.416L168.847 109.568C169.273 109.995 169.785 110.208 170.383 110.208C170.767 110.208 171.092 110.101 171.359 109.888C171.636 109.675 171.892 109.312 172.127 108.8L172.495 107.984L168.735 99.584H169.919L173.087 106.736L176.255 99.584H177.375ZM190.234 99.584L186.49 108H185.322L181.594 99.584H182.778L185.93 106.752L189.114 99.584H190.234ZM191.834 99.584H192.97V108H191.834V99.584ZM192.41 97.744C192.175 97.744 191.978 97.664 191.818 97.504C191.658 97.344 191.578 97.152 191.578 96.928C191.578 96.7147 191.658 96.528 191.818 96.368C191.978 96.208 192.175 96.128 192.41 96.128C192.645 96.128 192.842 96.208 193.002 96.368C193.162 96.5173 193.242 96.6987 193.242 96.912C193.242 97.1467 193.162 97.344 193.002 97.504C192.842 97.664 192.645 97.744 192.41 97.744ZM198.387 108.08C197.704 108.08 197.048 107.984 196.419 107.792C195.8 107.589 195.315 107.339 194.963 107.04L195.475 106.144C195.827 106.421 196.27 106.651 196.803 106.832C197.336 107.003 197.891 107.088 198.467 107.088C199.235 107.088 199.8 106.971 200.163 106.736C200.536 106.491 200.723 106.149 200.723 105.712C200.723 105.403 200.622 105.163 200.419 104.992C200.216 104.811 199.96 104.677 199.651 104.592C199.342 104.496 198.931 104.405 198.419 104.32C197.736 104.192 197.187 104.064 196.771 103.936C196.355 103.797 195.998 103.568 195.699 103.248C195.411 102.928 195.267 102.485 195.267 101.92C195.267 101.216 195.56 100.64 196.147 100.192C196.734 99.744 197.55 99.52 198.595 99.52C199.139 99.52 199.683 99.5947 200.227 99.744C200.771 99.8827 201.219 100.069 201.571 100.304L201.075 101.216C200.382 100.736 199.555 100.496 198.595 100.496C197.87 100.496 197.32 100.624 196.947 100.88C196.584 101.136 196.403 101.472 196.403 101.888C196.403 102.208 196.504 102.464 196.707 102.656C196.92 102.848 197.182 102.992 197.491 103.088C197.8 103.173 198.227 103.264 198.771 103.36C199.443 103.488 199.982 103.616 200.387 103.744C200.792 103.872 201.139 104.091 201.427 104.4C201.715 104.709 201.859 105.136 201.859 105.68C201.859 106.416 201.55 107.003 200.931 107.44C200.323 107.867 199.475 108.08 198.387 108.08ZM203.959 99.584H205.095V108H203.959V99.584ZM204.535 97.744C204.3 97.744 204.103 97.664 203.943 97.504C203.783 97.344 203.703 97.152 203.703 96.928C203.703 96.7147 203.783 96.528 203.943 96.368C204.103 96.208 204.3 96.128 204.535 96.128C204.77 96.128 204.967 96.208 205.127 96.368C205.287 96.5173 205.367 96.6987 205.367 96.912C205.367 97.1467 205.287 97.344 205.127 97.504C204.967 97.664 204.77 97.744 204.535 97.744ZM212.688 107.488C212.475 107.68 212.208 107.829 211.888 107.936C211.579 108.032 211.253 108.08 210.912 108.08C210.123 108.08 209.515 107.867 209.088 107.44C208.661 107.013 208.448 106.411 208.448 105.632V100.544H206.944V99.584H208.448V97.744H209.584V99.584H212.144V100.544H209.584V105.568C209.584 106.069 209.707 106.453 209.952 106.72C210.208 106.976 210.571 107.104 211.04 107.104C211.275 107.104 211.499 107.067 211.712 106.992C211.936 106.917 212.128 106.811 212.288 106.672L212.688 107.488ZM222.383 108.08C221.573 108.08 220.842 107.899 220.191 107.536C219.541 107.163 219.029 106.651 218.655 106C218.282 105.349 218.095 104.613 218.095 103.792C218.095 102.971 218.282 102.235 218.655 101.584C219.029 100.933 219.541 100.427 220.191 100.064C220.842 99.7013 221.573 99.52 222.383 99.52C223.194 99.52 223.925 99.7013 224.575 100.064C225.226 100.427 225.733 100.933 226.095 101.584C226.469 102.235 226.655 102.971 226.655 103.792C226.655 104.613 226.469 105.349 226.095 106C225.733 106.651 225.226 107.163 224.575 107.536C223.925 107.899 223.194 108.08 222.383 108.08ZM222.383 107.072C222.981 107.072 223.514 106.939 223.983 106.672C224.463 106.395 224.837 106.005 225.103 105.504C225.37 105.003 225.503 104.432 225.503 103.792C225.503 103.152 225.37 102.581 225.103 102.08C224.837 101.579 224.463 101.195 223.983 100.928C223.514 100.651 222.981 100.512 222.383 100.512C221.786 100.512 221.247 100.651 220.767 100.928C220.298 101.195 219.925 101.579 219.647 102.08C219.381 102.581 219.247 103.152 219.247 103.792C219.247 104.432 219.381 105.003 219.647 105.504C219.925 106.005 220.298 106.395 220.767 106.672C221.247 106.939 221.786 107.072 222.383 107.072ZM236.559 99.584V108H235.471V106.464C235.172 106.976 234.761 107.376 234.239 107.664C233.716 107.941 233.119 108.08 232.447 108.08C231.348 108.08 230.479 107.776 229.839 107.168C229.209 106.549 228.895 105.648 228.895 104.464V99.584H230.031V104.352C230.031 105.237 230.249 105.909 230.687 106.368C231.124 106.827 231.748 107.056 232.559 107.056C233.444 107.056 234.143 106.789 234.655 106.256C235.167 105.712 235.423 104.96 235.423 104V99.584H236.559ZM240.828 101.232C241.095 100.667 241.49 100.24 242.012 99.952C242.546 99.664 243.202 99.52 243.98 99.52V100.624L243.708 100.608C242.823 100.608 242.13 100.88 241.628 101.424C241.127 101.968 240.876 102.731 240.876 103.712V108H239.74V99.584H240.828V101.232ZM251.774 97.824V102.224H257.566V103.248H251.774V108H250.59V96.8H258.27V97.824H251.774ZM267.207 105.008H260.967L259.623 108H258.391L263.511 96.8H264.679L269.799 108H268.551L267.207 105.008ZM266.775 104.048L264.087 98.032L261.399 104.048H266.775ZM282.776 108.944C282.435 109.36 282.029 109.675 281.56 109.888C281.101 110.112 280.6 110.224 280.056 110.224C279.395 110.224 278.765 110.059 278.168 109.728C277.581 109.408 276.92 108.864 276.184 108.096C275.107 108.064 274.136 107.797 273.272 107.296C272.408 106.795 271.731 106.117 271.24 105.264C270.749 104.411 270.504 103.456 270.504 102.4C270.504 101.323 270.755 100.352 271.256 99.488C271.768 98.624 272.472 97.9467 273.368 97.456C274.275 96.9547 275.283 96.704 276.392 96.704C277.501 96.704 278.499 96.9493 279.384 97.44C280.28 97.9307 280.984 98.6133 281.496 99.488C282.008 100.352 282.264 101.323 282.264 102.4C282.264 103.339 282.067 104.203 281.672 104.992C281.288 105.771 280.744 106.421 280.04 106.944C279.347 107.467 278.547 107.813 277.64 107.984C278.461 108.848 279.272 109.28 280.072 109.28C280.904 109.28 281.613 108.939 282.2 108.256L282.776 108.944ZM271.672 102.4C271.672 103.275 271.875 104.064 272.28 104.768C272.696 105.472 273.261 106.027 273.976 106.432C274.701 106.837 275.507 107.04 276.392 107.04C277.277 107.04 278.077 106.837 278.792 106.432C279.507 106.027 280.067 105.472 280.472 104.768C280.877 104.064 281.08 103.275 281.08 102.4C281.08 101.525 280.877 100.736 280.472 100.032C280.067 99.328 279.507 98.7733 278.792 98.368C278.077 97.9627 277.277 97.76 276.392 97.76C275.507 97.76 274.701 97.9627 273.976 98.368C273.261 98.7733 272.696 99.328 272.28 100.032C271.875 100.736 271.672 101.525 271.672 102.4Z" fill="white"/>
<rect x="31" y="126" width="332" height="50" rx="5" fill="white"/>
<path d="M129.57 157H127.464V144.994H135.69V146.848H129.57V149.962H135.564V151.816H129.57V157ZM147.65 157H145.256L144.374 154.696H138.866L137.984 157H135.59L140.306 144.994H142.934L147.65 157ZM143.78 152.842L141.62 147.118L139.46 152.842H143.78ZM153.927 157.216C152.139 157.216 150.669 156.634 149.517 155.47C148.365 154.294 147.789 152.806 147.789 151.006C147.789 149.206 148.365 147.724 149.517 146.56C150.669 145.384 152.139 144.796 153.927 144.796C155.715 144.796 157.185 145.384 158.337 146.56C159.489 147.724 160.065 149.206 160.065 151.006C160.065 152.722 159.531 154.162 158.463 155.326L159.453 156.442L157.995 157.666L156.951 156.496C156.063 156.976 155.055 157.216 153.927 157.216ZM153.927 155.344C154.539 155.344 155.103 155.224 155.619 154.984L154.143 153.292L155.601 152.086L157.077 153.778C157.629 153.022 157.905 152.098 157.905 151.006C157.905 149.746 157.539 148.708 156.807 147.892C156.075 147.076 155.115 146.668 153.927 146.668C152.727 146.668 151.761 147.076 151.029 147.892C150.309 148.708 149.949 149.746 149.949 151.006C149.949 152.266 150.309 153.304 151.029 154.12C151.761 154.936 152.727 155.344 153.927 155.344Z" fill="#528568"/>
<defs>
<filter id="filter0_d" x="0" y="0" width="394" height="211" filterUnits="userSpaceOnUse" color-interpolation-filters="sRGB">
<feFlood flood-opacity="0" result="BackgroundImageFix"/>
<feColorMatrix in="SourceAlpha" type="matrix" values="0 0 0 0 0 0 0 0 0 0 0 0 0 0 0 0 0 0 127 0"/>
<feOffset dy="4"/>
<feGaussianBlur stdDeviation="6"/>
<feColorMatrix type="matrix" values="0 0 0 0 0 0 0 0 0 0 0 0 0 0 0 0 0 0 0.1 0"/>
<feBlend mode="normal" in2="BackgroundImageFix" result="effect1_dropShadow"/>
<feBlend mode="normal" in="SourceGraphic" in2="effect1_dropShadow" result="shape"/>
</filter>
<filter id="filter1_d" x="8" y="8" width="378" height="195" filterUnits="userSpaceOnUse" color-interpolation-filters="sRGB">
<feFlood flood-opacity="0" result="BackgroundImageFix"/>
<feColorMatrix in="SourceAlpha" type="matrix" values="0 0 0 0 0 0 0 0 0 0 0 0 0 0 0 0 0 0 127 0"/>
<feOffset dy="4"/>
<feGaussianBlur stdDeviation="6"/>
<feColorMatrix type="matrix" values="0 0 0 0 0 0 0 0 0 0 0 0 0 0 0 0 0 0 0.1 0"/>
<feBlend mode="normal" in2="BackgroundImageFix" result="effect1_dropShadow"/>
<feBlend mode="normal" in="SourceGraphic" in2="effect1_dropShadow" result="shape"/>
</filter>
</defs>
</svg>
