<svg width="50" height="50" viewBox="0 0 50 50" fill="none" xmlns="http://www.w3.org/2000/svg">
<path fill-rule="evenodd" clip-rule="evenodd" d="M35.8062 0H33.3346C25.508 0 19.1406 6.36738 19.1406 14.1939C19.1406 22.0205 25.508 28.3878 33.3345 28.3878H35.8061C37.0276 28.3878 38.2367 28.2326 39.4086 27.926L43.0597 31.575C43.2465 31.7616 43.4961 31.8608 43.7502 31.8608C43.8761 31.8608 44.003 31.8365 44.1238 31.7864C44.4887 31.6353 44.7266 31.2792 44.7266 30.8843V25.2343C46.2724 23.9824 47.5564 22.4011 48.4576 20.6345C49.4812 18.628 50 16.4611 50 14.1939C50 6.36738 43.6326 0 35.8062 0ZM43.1624 23.978C42.9176 24.1625 42.7734 24.4514 42.7734 24.7581V28.5276L40.3837 26.1392C40.1978 25.9534 39.9483 25.8533 39.6933 25.8533C39.5976 25.8533 39.5009 25.8675 39.4065 25.8965C38.2441 26.2537 37.0328 26.4348 35.8062 26.4348H33.3346C26.5849 26.4348 21.0938 20.9436 21.0938 14.1939C21.0938 7.44434 26.585 1.95312 33.3346 1.95312H35.8062C42.5558 1.95312 48.0469 7.44434 48.0469 14.1939C48.0469 18.0739 46.2666 21.6401 43.1624 23.978ZM32.8125 32.1289C32.8125 31.5896 33.2498 31.1523 33.7891 31.1523C34.3283 31.1523 34.7656 31.5896 34.7656 32.1289V38.8672C34.7656 42.6365 31.699 45.7031 27.9297 45.7031H18.3617L18.3594 49.0241C18.3591 49.4189 18.1211 49.7748 17.7562 49.9258C17.6355 49.9757 17.5087 50 17.383 50C17.1288 50 16.8791 49.9008 16.6923 49.714L12.6814 45.7031H6.83594C3.0666 45.7031 0 42.6365 0 38.8672V23.8281C0 20.0588 3.0666 16.9922 6.83594 16.9922H16.6992C17.2385 16.9922 17.6758 17.4294 17.6758 17.9688C17.6758 18.5081 17.2385 18.9453 16.6992 18.9453H6.83594C4.14355 18.9453 1.95312 21.1357 1.95312 23.8281V38.8672C1.95312 41.5596 4.14355 43.75 6.83594 43.75H13.1815C13.581 43.75 13.9263 43.9903 14.0771 44.3367L16.408 46.6675L16.4094 44.7259C16.4098 44.1868 16.8468 43.75 17.3859 43.75H27.9297C30.6221 43.75 32.8125 41.5596 32.8125 38.8672V32.1289ZM38.9681 10.6856C38.8271 8.64121 37.1791 6.99316 35.1346 6.85225C33.9756 6.77266 32.8695 7.16357 32.0229 7.95391C31.188 8.7333 30.7092 9.83506 30.7092 10.9768C30.7092 11.5161 31.1465 11.9533 31.6857 11.9533C32.225 11.9533 32.6623 11.5161 32.6623 10.9768C32.6623 10.3655 32.9086 9.79902 33.3557 9.38174C33.8023 8.96484 34.3861 8.7585 35.0004 8.80088C36.0773 8.8751 36.9454 9.74316 37.0196 10.82C37.0946 11.9076 36.3811 12.8687 35.323 13.1055C34.4658 13.2973 33.8672 14.0422 33.8672 14.9169V17.2631C33.8672 17.8024 34.3045 18.2396 34.8438 18.2396C35.3831 18.2396 35.8203 17.8024 35.8202 17.2631V14.9949C37.788 14.5195 39.1082 12.7189 38.9681 10.6856ZM34.8438 20.1494C35.1006 20.1494 35.3525 20.2539 35.5342 20.4355C35.7157 20.6172 35.8203 20.8691 35.8203 21.126C35.8203 21.3838 35.7158 21.6348 35.5342 21.8174C35.3525 21.999 35.1006 22.1025 34.8438 22.1025C34.5869 22.1025 34.335 21.999 34.1533 21.8174C33.9718 21.6357 33.8672 21.3838 33.8672 21.126C33.8672 20.8691 33.9717 20.6172 34.1533 20.4355C34.335 20.2539 34.5869 20.1494 34.8438 20.1494ZM26.8555 30.2734H6.25C5.71074 30.2734 5.27344 30.7106 5.27344 31.25C5.27344 31.7894 5.71074 32.2266 6.25 32.2266H26.8555C27.3948 32.2266 27.832 31.7894 27.832 31.25C27.832 30.7106 27.3947 30.2734 26.8555 30.2734ZM26.8555 35.7422C27.1123 35.7422 27.3643 35.8467 27.5458 36.0283C27.7274 36.21 27.832 36.4619 27.832 36.7188C27.832 36.9766 27.7275 37.2275 27.5458 37.4092C27.3643 37.5908 27.1123 37.6953 26.8555 37.6953C26.5986 37.6953 26.3467 37.5908 26.165 37.4092C25.9834 37.2275 25.8789 36.9756 25.8789 36.7188C25.8789 36.4619 25.9833 36.21 26.165 36.0283C26.3467 35.8467 26.5986 35.7422 26.8555 35.7422ZM23.0144 35.7422H6.25C5.71074 35.7422 5.27344 36.1794 5.27344 36.7188C5.27344 37.2581 5.71074 37.6953 6.25 37.6953H23.0144C23.5537 37.6953 23.9909 37.2581 23.9909 36.7188C23.9909 36.1794 23.5536 35.7422 23.0144 35.7422ZM6.25 24.8047H20.5078C21.0471 24.8047 21.4844 25.2419 21.4844 25.7812C21.4844 26.3206 21.0472 26.7578 20.5078 26.7578H6.25C5.71074 26.7578 5.27344 26.3206 5.27344 25.7812C5.27344 25.2419 5.71074 24.8047 6.25 24.8047Z" fill="#0B9D47"/>
</svg>
