<svg width="100" height="100" viewBox="0 0 100 100" fill="none" xmlns="http://www.w3.org/2000/svg">
<circle cx="50" cy="50" r="49.5" fill="white" stroke="#DBEBED"/>
<path d="M52.5217 34.3501L50.65 45.7496L58.6829 46.1005H58.9299C59.2524 46.1543 59.5582 46.2821 59.8232 46.4737C60.0881 46.6654 60.3051 46.9158 60.4572 47.2054C60.6051 47.4975 60.6821 47.8203 60.6821 48.1477C60.6821 48.4752 60.6051 48.798 60.4572 49.0901L50.3965 68.3925C50.2288 68.7236 49.9482 68.9836 49.6054 69.1256C49.2626 69.2676 48.8802 69.2822 48.5276 69.1668C48.1749 69.0513 47.8753 68.8134 47.6828 68.4962C47.4904 68.1789 47.4179 67.8033 47.4784 67.4372L49.3501 56.0182L41.3107 55.6477H41.0638C40.7423 55.593 40.4379 55.4648 40.1741 55.2732C39.9103 55.0816 39.6943 54.8317 39.543 54.5429C39.3956 54.2506 39.3188 53.9279 39.3188 53.6005C39.3188 53.2732 39.3956 52.9504 39.543 52.6581L49.5906 33.3882C49.7645 33.0637 50.0471 32.8107 50.3889 32.6738C50.7307 32.5369 51.1098 32.5248 51.4597 32.6396C51.8095 32.7544 52.1077 32.9888 52.3019 33.3016C52.4962 33.6144 52.574 33.9856 52.5217 34.3501ZM50.0001 20C49.1787 20 48.391 20.3263 47.8103 20.907C47.2295 21.4878 46.9032 22.2755 46.9032 23.0968C46.9032 23.9182 47.2295 24.7059 47.8103 25.2866C48.391 25.8674 49.1787 26.1937 50.0001 26.1937C56.3129 26.1988 62.3658 28.7084 66.8303 33.1717C71.2947 37.6349 73.806 43.6872 73.8129 50C73.8129 50.8213 74.1392 51.609 74.7199 52.1898C75.3007 52.7706 76.0884 53.0968 76.9097 53.0968C77.7311 53.0968 78.5187 52.7706 79.0995 52.1898C79.6803 51.609 80.0066 50.8213 80.0066 50C79.998 42.045 76.8336 34.4184 71.208 28.794C65.5823 23.1696 57.955 20.0069 50.0001 20ZM46.861 76.8999C46.8601 77.3062 46.9393 77.7086 47.094 78.0843C47.2487 78.4599 47.4758 78.8014 47.7625 79.0893C48.0491 79.3772 48.3897 79.6058 48.7647 79.762C49.1397 79.9183 49.5418 79.9991 49.9481 80C50.5596 80 51.1575 79.8187 51.6661 79.4791C52.1747 79.1394 52.5712 78.6567 52.8055 78.0918C53.0399 77.5269 53.1015 76.9052 52.9827 76.3053C52.8638 75.7054 52.5698 75.1541 52.1379 74.7212C51.7059 74.2883 51.1552 73.9932 50.5556 73.8731C49.9559 73.753 49.3341 73.8133 48.7687 74.0465C48.2033 74.2796 47.7197 74.6751 47.379 75.183C47.0383 75.6909 46.8558 76.2883 46.8545 76.8999H46.861ZM23.0936 53.0741C23.7063 53.0741 24.3052 52.8921 24.8144 52.5513C25.3235 52.2105 25.72 51.7262 25.9536 51.1598C26.1871 50.5934 26.2472 49.9704 26.1263 49.3698C26.0053 48.7691 25.7088 48.218 25.2742 47.7861C24.8396 47.3542 24.2865 47.0612 23.6851 46.944C23.0838 46.8268 22.4611 46.8909 21.8962 47.128C21.3313 47.3652 20.8495 47.7647 20.5119 48.276C20.1743 48.7873 19.9962 49.3873 20.0001 50C20.0052 50.8171 20.3334 51.5989 20.913 52.1749C21.4926 52.7509 22.2765 53.0741 23.0936 53.0741ZM34.9611 75.964C35.4904 76.2706 36.0987 76.4134 36.7091 76.3744C37.3196 76.3354 37.9047 76.1162 38.3906 75.7447C38.8766 75.3732 39.2415 74.8659 39.4392 74.2871C39.6369 73.7082 39.6586 73.0838 39.5015 72.4926C39.3444 71.9014 39.0156 71.3701 38.5566 70.9658C38.0976 70.5614 37.529 70.3022 36.9227 70.221C36.3165 70.1397 35.6997 70.2399 35.1504 70.5091C34.6012 70.7782 34.144 71.2042 33.8367 71.7331C33.4277 72.4439 33.3164 73.2877 33.527 74.0803C33.7377 74.8729 34.2531 75.55 34.9611 75.964ZM33.8757 28.2474C34.1845 28.7745 34.6425 29.1984 35.1919 29.4656C35.7413 29.7329 36.3575 29.8314 36.9628 29.7489C37.5681 29.6664 38.1355 29.4065 38.5933 29.002C39.0511 28.5975 39.379 28.0665 39.5354 27.4759C39.6919 26.8854 39.67 26.2617 39.4725 25.6836C39.275 25.1055 38.9107 24.5988 38.4256 24.2274C37.9406 23.856 37.3564 23.6365 36.7468 23.5967C36.1371 23.5568 35.5294 23.6984 35.0001 24.0035C34.6459 24.2066 34.3355 24.4781 34.0869 24.802C33.8383 25.126 33.6565 25.496 33.5519 25.8907C33.4474 26.2854 33.4221 26.697 33.4777 27.1015C33.5333 27.506 33.6686 27.8955 33.8757 28.2474ZM25.1409 60.7431C24.6093 61.0489 24.1803 61.5056 23.9083 62.0553C23.6363 62.605 23.5335 63.2231 23.6128 63.8312C23.6922 64.4394 23.9502 65.0104 24.3541 65.4719C24.758 65.9334 25.2898 66.2647 25.8821 66.424C26.4744 66.5832 27.1006 66.5631 27.6815 66.3664C28.2624 66.1696 28.7719 65.8049 29.1455 65.3185C29.5191 64.8321 29.74 64.2458 29.7803 63.6338C29.8206 63.0218 29.6784 62.4116 29.3718 61.8804C28.9601 61.1701 28.2834 60.6521 27.4902 60.4401C26.697 60.2281 25.8521 60.3394 25.1409 60.7496V60.7431ZM73.267 66.5923C74.0174 66.5956 74.7435 66.3261 75.3099 65.8339C75.8764 65.3416 76.2446 64.6603 76.346 63.9167C76.4474 63.1732 76.275 62.4181 75.8611 61.7922C75.4471 61.1663 74.8197 60.7121 74.0958 60.5144C73.3719 60.3167 72.6008 60.3889 71.9261 60.7175C71.2514 61.0461 70.7192 61.6088 70.4286 62.3006C70.138 62.9925 70.1087 63.7664 70.3463 64.4783C70.584 65.1901 71.0722 65.7913 71.7202 66.1698C72.1878 66.4493 72.7222 66.5975 73.267 66.5988V66.5923ZM28.254 33.8562C27.7242 33.5506 27.1157 33.4089 26.5055 33.449C25.8952 33.489 25.3105 33.7091 24.8253 34.0814C24.34 34.4536 23.976 34.9614 23.7792 35.5404C23.5824 36.1195 23.5616 36.7439 23.7196 37.3347C23.8775 37.9256 24.207 38.4563 24.6664 38.86C25.1259 39.2636 25.6947 39.522 26.301 39.6026C26.9072 39.6831 27.5237 39.5821 28.0726 39.3123C28.6215 39.0426 29.0781 38.6162 29.3848 38.0871C29.5888 37.7351 29.7213 37.3464 29.7749 36.9432C29.8284 36.5399 29.8019 36.1301 29.6969 35.7371C29.5919 35.3441 29.4104 34.9757 29.1628 34.6529C28.9152 34.3302 28.6063 34.0594 28.254 33.8562ZM60.7496 74.8722C61.0207 75.3444 61.4117 75.7367 61.883 76.0095C62.3543 76.2822 62.8892 76.4257 63.4338 76.4255C63.9673 76.4172 64.4894 76.2693 64.9481 75.9965C65.4783 75.6912 65.9062 75.2356 66.1774 74.6872C66.4487 74.1387 66.5513 73.5222 66.4722 72.9154C66.393 72.3087 66.1358 71.7391 65.7329 71.2786C65.33 70.8181 64.7996 70.4874 64.2088 70.3283C63.618 70.1692 62.9933 70.1889 62.4136 70.3849C61.834 70.5809 61.3255 70.9444 60.9525 71.4294C60.5794 71.9143 60.3586 72.4991 60.3178 73.1096C60.2771 73.7201 60.4183 74.3289 60.7236 74.8592L60.7496 74.8722Z" fill="#343434"/>
</svg>
