<svg width="43" height="35" viewBox="0 0 43 35" fill="none" xmlns="http://www.w3.org/2000/svg">
<path d="M7.8178 31.3678C7.8178 32.3311 8.20048 33.255 8.88166 33.9361C9.56284 34.6173 10.4867 35 11.45 35H36.5994C37.5418 35 38.4456 34.6256 39.112 33.9593C39.7783 33.2929 40.1527 32.3891 40.1527 31.4467V26.9064H42.2057C42.4151 26.9064 42.616 26.8232 42.7641 26.6751C42.9121 26.5271 42.9953 26.3262 42.9953 26.1168V19.6419C42.9953 19.4325 42.9121 19.2316 42.7641 19.0836C42.616 18.9355 42.4151 18.8523 42.2057 18.8523H40.1527V14.5094C40.1527 13.567 39.7783 12.6632 39.112 11.9968C38.4456 11.3305 37.5418 10.9561 36.5994 10.9561H36.0862V6.65267C36.0862 5.9197 35.795 5.21675 35.2767 4.69847C34.7584 4.18018 34.0555 3.88901 33.3225 3.88901H12.1212C10.9694 3.88901 9.86478 4.34656 9.05033 5.16101C8.23587 5.97547 7.77832 7.0801 7.77832 8.23191C7.77832 8.35036 7.77832 8.42932 7.77832 8.54776L7.8178 31.3678ZM41.3766 20.4315V25.3272H36.481C35.8318 25.3272 35.2092 25.0693 34.7501 24.6102C34.291 24.1512 34.0332 23.5285 34.0332 22.8793C34.0332 22.2301 34.291 21.6075 34.7501 21.1485C35.2092 20.6894 35.8318 20.4315 36.481 20.4315H41.3766ZM12.1212 5.46825H33.3225C33.6366 5.46825 33.9379 5.59303 34.16 5.81516C34.3821 6.03728 34.5069 6.33854 34.5069 6.65267V7.48177H12.1607C11.9513 7.48177 11.7504 7.56497 11.6024 7.71305C11.4543 7.86113 11.3711 8.06197 11.3711 8.27139C11.3711 8.48081 11.4543 8.68166 11.6024 8.82974C11.7504 8.97782 11.9513 9.06101 12.1607 9.06101H34.5069V10.9956H12.1212C11.7333 11.0422 11.3398 11.006 10.9668 10.8894C10.5939 10.7728 10.2499 10.5785 9.95757 10.3192C9.66524 10.0599 9.43122 9.7415 9.27096 9.38512C9.11069 9.02873 9.02783 8.64241 9.02783 8.25165C9.02783 7.86089 9.11069 7.47457 9.27096 7.11819C9.43122 6.7618 9.66524 6.44346 9.95757 6.18415C10.2499 5.92485 10.5939 5.73048 10.9668 5.61389C11.3398 5.49729 11.7333 5.4611 12.1212 5.50773V5.46825ZM9.39704 11.5483C10.1742 12.191 11.1523 12.5403 12.1607 12.5353H36.5994C36.8587 12.5353 37.1153 12.5864 37.3549 12.6856C37.5944 12.7848 37.812 12.9302 37.9953 13.1135C38.1786 13.2968 38.324 13.5144 38.4232 13.7539C38.5224 13.9935 38.5735 14.2501 38.5735 14.5094V18.8523H36.481C35.9521 18.8523 35.4285 18.9565 34.9399 19.1588C34.4513 19.3612 34.0074 19.6578 33.6334 20.0318C33.2595 20.4057 32.9628 20.8497 32.7605 21.3383C32.5581 21.8268 32.4539 22.3505 32.4539 22.8793C32.4539 23.4082 32.5581 23.9319 32.7605 24.4204C32.9628 24.909 33.2595 25.353 33.6334 25.7269C34.0074 26.1009 34.4513 26.3975 34.9399 26.5999C35.4285 26.8022 35.9521 26.9064 36.481 26.9064H38.5735V31.4467C38.5735 31.9703 38.3655 32.4724 37.9953 32.8426C37.6251 33.2128 37.123 33.4208 36.5994 33.4208H11.4106C11.141 33.4208 10.874 33.3677 10.6249 33.2645C10.3758 33.1613 10.1495 33.0101 9.95887 32.8194C9.76823 32.6288 9.61701 32.4025 9.51383 32.1534C9.41066 31.9043 9.35756 31.6374 9.35756 31.3678L9.39704 11.5483Z" fill="#0B9D47"/>
<circle cx="11.6667" cy="11.6667" r="11.1667" fill="white" stroke="#0B9D47"/>
<path d="M15.9661 10.6673L12.4306 10.6699V7H10.5741V10.6712L7 10.6737L7.00135 12.5358L10.5741 12.5332V16.2827H12.4306V12.5319L15.9675 12.5294L15.9661 10.6673Z" fill="#0B9D47"/>
</svg>
