<svg width="46" height="47" viewBox="0 0 46 47" fill="none" xmlns="http://www.w3.org/2000/svg">
<path d="M43.8697 27.4328H43.1688V23.6388V21.1197C43.1688 20.1203 42.6714 19.2353 41.9117 18.6976V17.838C41.9117 16.5912 40.8973 15.5768 39.6504 15.5768H39.1271L41.1294 12.6386C41.8006 11.6538 41.5453 10.3065 40.5605 9.63522L26.9737 0.37603C26.4966 0.0508368 25.9216 -0.0691784 25.3541 0.0384877C24.7869 0.145971 24.2954 0.467871 23.9703 0.945004L12.2431 18.1535H8.97973L9.76705 10.1833C9.77592 10.0935 9.83428 10.0157 9.9157 9.98502C10.9301 9.60256 11.8091 8.88832 12.3909 7.97394C12.4367 7.90195 12.5232 7.86079 12.6127 7.86984L17.7311 8.37551C18.0981 8.4111 18.4246 8.14381 18.4608 7.77699C18.497 7.41018 18.2291 7.08352 17.8623 7.0473L12.7438 6.54163C12.1497 6.48345 11.5831 6.75723 11.2648 7.25742C10.837 7.92976 10.1907 8.45482 9.44488 8.73602C8.88349 8.94769 8.49802 9.4519 8.43874 10.0521L7.63852 18.1535H6.78753L8.03269 5.54784C8.07751 5.09412 8.48247 4.76079 8.93673 4.80625L19.2802 5.82803C19.647 5.86343 19.9736 5.59632 20.0099 5.22951C20.0461 4.86269 19.7782 4.53604 19.4113 4.49981L9.06791 3.47804C7.88203 3.36104 6.82156 4.23051 6.70438 5.41657L5.70072 15.5767H3.99151C2.7447 15.5767 1.73025 16.5911 1.73025 17.838V18.4243C0.710211 18.8939 0 19.925 0 21.1196V23.6388V41.3498V43.8689C0 45.5045 1.33059 46.8351 2.96626 46.8351H40.2027C41.8382 46.8351 43.1688 45.5045 43.1688 43.8689V41.3498V37.5559H43.8697C44.697 37.5559 45.37 36.883 45.37 36.0557V28.933C45.3701 28.1057 44.697 27.4328 43.8697 27.4328ZM39.6504 16.9114C40.1614 16.9114 40.577 17.3271 40.577 17.838V18.1781C40.4542 18.1625 40.3295 18.1536 40.2027 18.1536H37.3711L38.2175 16.9115H39.6504V16.9114ZM25.0732 1.69656C25.1976 1.51407 25.3856 1.39094 25.6025 1.34978C25.6544 1.33999 25.7065 1.33505 25.7581 1.33505C25.9225 1.33505 26.0832 1.38427 26.222 1.47885L39.8089 10.7379C40.1856 10.9947 40.2833 11.5101 40.0266 11.8868L35.756 18.1534H34.7311L36.8249 15.081C37.1644 14.5827 37.1924 13.9486 36.8977 13.426C36.506 12.7317 36.3472 11.9142 36.4506 11.124C36.5274 10.5361 36.2687 9.96215 35.7755 9.62607L28.7321 4.82619C28.2388 4.49002 27.61 4.4592 27.0909 4.74579C26.3934 5.1309 25.5745 5.28211 24.785 5.1716C24.1996 5.08946 23.6058 5.35382 23.2713 5.84459L14.8832 18.1535H13.8583L25.0732 1.69656ZM25.3671 13.0295C22.4608 13.0295 20.0752 15.2956 19.8808 18.1535H16.4981L24.374 6.59624C24.3741 6.59624 24.3741 6.59624 24.3741 6.59624C24.4189 6.53047 24.493 6.49131 24.5692 6.49131C24.5794 6.49131 24.5896 6.49205 24.5997 6.49342C25.6734 6.64362 26.7871 6.43817 27.7359 5.91429C27.8106 5.87294 27.9064 5.87889 27.9803 5.9292L35.0238 10.7292C35.0975 10.7795 35.1381 10.8666 35.1271 10.9511C34.9865 12.0258 35.2026 13.1376 35.7352 14.0818C35.7779 14.1576 35.7727 14.2548 35.722 14.3293L33.1161 18.1534H30.8537C30.6591 15.2956 28.2735 13.0295 25.3671 13.0295ZM29.5153 18.1535H21.219C21.4102 16.0323 23.197 14.3643 25.3671 14.3643C27.5372 14.3642 29.3242 16.0323 29.5153 18.1535ZM3.06496 17.838C3.06496 17.327 3.48053 16.9113 3.99151 16.9113H5.5689L5.44623 18.1535H3.06496V17.838ZM1.33471 21.1196C1.33471 20.2201 2.0666 19.4882 2.96626 19.4882H40.2027C41.1023 19.4882 41.8341 20.2201 41.8341 21.1196V22.9714H1.33471V21.1196ZM41.8341 40.6825H9.20667C8.83803 40.6825 8.53936 40.9813 8.53936 41.3499C8.53936 41.7184 8.83812 42.0172 9.20667 42.0172H41.8341V43.869C41.8341 44.7686 41.1023 45.5004 40.2027 45.5004H2.96626C2.0666 45.5004 1.33471 44.7686 1.33471 43.869V42.0172H4.93352C5.30216 42.0172 5.60083 41.7184 5.60083 41.3499C5.60083 40.9813 5.30207 40.6825 4.93352 40.6825H1.33471V24.3062H41.8341V27.4328H35.4889H35.4888C33.4895 27.4328 31.7577 28.5982 30.9358 30.285C30.9331 30.2907 30.93 30.2962 30.9271 30.3019C30.9202 30.3162 30.9141 30.3312 30.9074 30.3456C30.8095 30.5535 30.7244 30.7688 30.6552 30.9909C30.655 30.9915 30.6548 30.9921 30.6546 30.9927C30.5069 31.4674 30.4272 31.9717 30.4272 32.4944C30.4272 35.2853 32.6978 37.5559 35.4887 37.5559H35.4888H41.834V40.6825H41.8341ZM44.0354 36.0557C44.0354 36.1469 43.9611 36.2212 43.8697 36.2212H42.5014H35.4889C34.076 36.2212 32.8442 35.431 32.2124 34.2693C32.1837 34.2165 32.1563 34.1629 32.13 34.1087C32.0776 34.0001 32.0303 33.8886 31.9885 33.7745C31.842 33.3751 31.762 32.9439 31.762 32.4944C31.762 32.0448 31.842 31.6136 31.9885 31.2142C32.0304 31.1002 32.0777 30.9887 32.13 30.88C32.1563 30.8258 32.1837 30.7722 32.2124 30.7194C32.8442 29.5577 34.076 28.7675 35.4889 28.7675H42.5014H43.8697C43.961 28.7675 44.0354 28.8418 44.0354 28.933V36.0557Z" fill="#343434"/>
<path fill-rule="evenodd" clip-rule="evenodd" d="M23.6983 32.9967H22.2446V31.6014H23.6983C23.9168 31.6014 24.0938 31.4247 24.0938 31.2065C24.0938 30.9883 23.9168 30.8115 23.6983 30.8115H22.2446V28.8754C22.2446 28.5928 22.1887 28.3854 22.0785 28.259C21.9737 28.1388 21.8359 28.0829 21.6452 28.0829C21.4632 28.0829 21.3306 28.1384 21.2279 28.2579C21.1189 28.3844 21.0636 28.5922 21.0636 28.8756V30.8118H18.3291L17.1664 29.0546C17.0669 28.8978 16.9733 28.7509 16.8825 28.6099C16.8007 28.4829 16.7209 28.3795 16.6455 28.3023C16.5788 28.234 16.5028 28.1811 16.4138 28.1404C16.3299 28.1022 16.2232 28.083 16.097 28.083C15.9361 28.083 15.79 28.127 15.65 28.2175C15.5116 28.307 15.4159 28.4177 15.3574 28.5558C15.3061 28.6871 15.279 28.8883 15.279 29.148V30.8117H13.8397C13.6213 30.8117 13.4443 30.9884 13.4443 31.2066C13.4443 31.4248 13.6213 31.6015 13.8397 31.6015H15.279V32.997H13.8397C13.6213 32.997 13.4443 33.1737 13.4443 33.392C13.4443 33.6101 13.6213 33.7867 13.8397 33.7867H15.279V35.9973C15.279 36.2715 15.3367 36.4769 15.451 36.6074C15.5597 36.7318 15.6975 36.7895 15.8846 36.7895C16.0652 36.7895 16.2019 36.7315 16.3153 36.6069C16.4314 36.4792 16.4902 36.274 16.4902 35.9973V33.7867H18.9646L20.3037 35.8374C20.3968 35.973 20.4929 36.1098 20.5888 36.2439C20.6753 36.3644 20.7697 36.4706 20.8693 36.5592C20.9589 36.6394 21.0551 36.6982 21.155 36.734C21.2579 36.771 21.3781 36.7898 21.5116 36.7898C21.8737 36.7898 22.2446 36.6791 22.2446 35.858V33.7867H23.6983C23.9167 33.7867 24.0938 33.6099 24.0938 33.3917C24.0938 33.1736 23.9168 32.9967 23.6983 32.9967ZM21.0682 31.6013V32.9966H19.7797L18.8565 31.6013H21.0682ZM17.0233 30.8119L16.4919 29.9984V30.8119H17.0233ZM16.4919 32.9966V31.6013H17.5392L18.4505 32.9966H16.4919ZM20.3015 33.7868L21.0672 34.9444V33.7868H20.3015Z" fill="#343434"/>
</svg>
