<svg width="50" height="50" viewBox="0 0 50 50" fill="none" xmlns="http://www.w3.org/2000/svg">
<path d="M25 50C38.8071 50 50 38.8071 50 25C50 11.1929 38.8071 0 25 0C11.1929 0 0 11.1929 0 25C0 38.8071 11.1929 50 25 50Z" fill="#00373D"/>
<path d="M15.0625 17.902C15.4858 17.902 15.9028 17.924 16.3135 17.9681L16.3144 20.1288C15.9928 20.0848 15.6531 20.0628 15.2953 20.0628C14.2289 20.0628 13.4116 20.4617 12.8435 21.2596C12.2753 22.0574 11.9912 23.1389 11.9912 24.5041C11.9912 27.3054 12.9003 28.706 14.7184 28.706C15.4702 28.706 16.1039 28.4711 16.6196 28.0013C17.1354 27.5314 17.3932 26.8976 17.3932 26.0998V21.1432L17.3944 18.1381C18.1362 18.2929 18.856 18.5236 19.554 18.8304V28.1393C19.554 29.5611 19.5378 30.4727 19.5055 30.8742C19.3598 32.731 18.8418 34.0942 17.9516 34.9641C17.0614 35.8339 15.334 36.35 13.4403 36.35V34.8373C14.4762 34.8373 15.6856 33.789 16.1064 33.145C16.5273 32.501 16.7377 31.5935 16.7377 30.4226V29.0425C15.9608 29.9793 14.8844 30.4477 13.5086 30.4477C12.667 30.4477 11.9265 30.2804 11.2871 29.9458C10.6478 29.6113 10.1501 29.1596 9.79398 28.5909C9.09799 27.4534 8.75 26.1152 8.75 24.5763C8.75 22.385 9.32459 20.7248 10.4738 19.5957C11.623 18.4666 13.1525 17.902 15.0625 17.902ZM25.8231 12.5V31.9472H23.1221V13.5806L25.8231 12.5ZM35.4132 16.8216C36.4444 16.8216 37.3166 17.0061 38.0298 17.375C38.7431 17.7439 39.3016 18.1696 39.7055 18.652C40.1094 19.1344 40.4531 19.8344 40.7367 20.752C41.0203 21.6696 41.162 22.7527 41.162 24.0013C41.162 26.6121 40.5863 28.5891 39.4348 29.9324C38.2833 31.2756 36.8096 31.9472 35.0136 31.9472C33.2176 31.9472 31.8126 31.3087 30.7986 30.0317C29.7846 28.7547 29.2776 26.8675 29.2776 24.3702C29.2776 22.9702 29.4667 21.7547 29.8448 20.7236C30.2229 19.6925 30.7299 18.9027 31.3658 18.354C32.586 17.3324 33.9351 16.8216 35.4132 16.8216ZM35.2818 20.0628C34.3319 20.0628 33.6339 20.4179 33.1879 21.1281C32.7418 21.8383 32.5188 22.8067 32.5188 24.0334C32.5188 26.3092 32.9483 27.7376 33.8074 28.3186C34.1873 28.5769 34.6582 28.706 35.2198 28.706C37.0205 28.706 37.9208 27.2857 37.9208 24.4449C37.9208 23.0084 37.7185 21.919 37.3137 21.1765C36.909 20.434 36.2317 20.0628 35.2818 20.0628Z" fill="white"/>
</svg>
