<svg width="100" height="100" viewBox="0 0 100 100" fill="none" xmlns="http://www.w3.org/2000/svg">
<circle cx="50" cy="50" r="49.5" fill="white" stroke="#DBEBED"/>
<path d="M52.0748 54.3954L53.9745 51.196L48.8039 46.0254L45.6045 47.9251C44.7645 47.4818 43.879 47.116 42.9626 46.8335L42.0423 43.2257H34.731L33.8116 46.8344C32.8952 47.117 32.0097 47.4828 31.1697 47.926L27.9703 46.0264L22.7997 51.197L24.6994 54.3964C24.2561 55.2364 23.8903 56.1218 23.6077 57.0383L20 57.9576V65.2689L23.6087 66.1883C23.8913 67.1047 24.2571 67.9902 24.7003 68.8302L22.8006 72.0296L27.9713 77.2002L31.1706 75.3005C32.0106 75.7438 32.8961 76.1096 33.8126 76.3922L34.7319 79.9999H42.0432L42.9626 76.3912C43.879 76.1086 44.7645 75.7428 45.6045 75.2996L48.8039 77.1993L53.9745 72.0286L52.0748 68.8293C52.5181 67.9893 52.8839 67.1038 53.1665 66.1873L56.7742 65.268V57.9567L53.1655 57.0373C52.8829 56.1209 52.5181 55.2354 52.0748 54.3954ZM54.8387 63.7641L51.6026 64.5896L51.4555 65.1354C51.1497 66.2744 50.7006 67.3612 50.121 68.3647L49.8384 68.8554L51.5416 71.7257L48.499 74.7683L45.6287 73.0651L45.1381 73.3476C44.1345 73.9273 43.0477 74.3754 41.9087 74.6822L41.3629 74.8293L40.5384 78.0644H36.2368L35.4113 74.8283L34.8655 74.6812C33.7265 74.3754 32.6397 73.9264 31.6361 73.3467L31.1455 73.0641L28.2752 74.7673L25.2326 71.7247L26.9358 68.8544L26.6532 68.3638C26.0735 67.3602 25.6255 66.2734 25.3187 65.1344L25.1716 64.5886L21.9355 63.7641V59.4625L25.1716 58.637L25.3187 58.0912C25.6245 56.9522 26.0735 55.8654 26.6532 54.8618L26.9358 54.3712L25.2326 51.5009L28.2752 48.4583L31.1455 50.1615L31.6361 49.8789C32.6397 49.2993 33.7265 48.8512 34.8655 48.5444L35.4113 48.3973L36.2358 45.1612H40.5374L41.3629 48.3973L41.9087 48.5444C43.0477 48.8502 44.1345 49.2993 45.1381 49.8789L45.6287 50.1615L48.499 48.4583L51.5416 51.5009L49.8384 54.3712L50.121 54.8618C50.7006 55.8654 51.1487 56.9522 51.4555 58.0912L51.6026 58.637L54.8387 59.4615V63.7641Z" fill="#343434"/>
<path d="M38.3868 50C31.9833 50 26.7739 55.2094 26.7739 61.6129C26.7739 68.0165 31.9833 73.2258 38.3868 73.2258C44.7904 73.2258 49.9997 68.0165 49.9997 61.6129C49.9997 55.2094 44.7904 50 38.3868 50ZM38.3868 71.2903C33.0507 71.2903 28.7094 66.949 28.7094 61.6129C28.7094 56.2768 33.0507 51.9355 38.3868 51.9355C43.723 51.9355 48.0642 56.2768 48.0642 61.6129C48.0642 66.949 43.723 71.2903 38.3868 71.2903Z" fill="#343434"/>
<path d="M38.387 55.8065C35.1848 55.8065 32.5806 58.4107 32.5806 61.613C32.5806 64.8152 35.1848 67.4194 38.387 67.4194C41.5893 67.4194 44.1935 64.8152 44.1935 61.613C44.1935 58.4107 41.5893 55.8065 38.387 55.8065ZM38.387 65.4839C36.2522 65.4839 34.5161 63.7478 34.5161 61.613C34.5161 59.4781 36.2522 57.742 38.387 57.742C40.5219 57.742 42.258 59.4781 42.258 61.613C42.258 63.7478 40.5219 65.4839 38.387 65.4839Z" fill="#343434"/>
<path d="M77.0963 27.7421H53.8705C52.2699 27.7421 50.9673 29.0446 50.9673 30.6453V44.1937C50.9673 45.7943 52.2699 47.0969 53.8705 47.0969H55.806V51.5659L64.7441 47.0969H77.0963C78.697 47.0969 79.9995 45.7943 79.9995 44.1937V30.6453C79.9995 29.0446 78.697 27.7421 77.0963 27.7421ZM78.0641 44.1937C78.0641 44.7279 77.6305 45.1614 77.0963 45.1614H64.2873L57.7415 48.4343V45.1614H53.8705C53.3363 45.1614 52.9028 44.7279 52.9028 44.1937V30.6453C52.9028 30.1111 53.3363 29.6775 53.8705 29.6775H77.0963C77.6305 29.6775 78.0641 30.1111 78.0641 30.6453V44.1937Z" fill="#343434"/>
<path d="M22.9032 37.4194H32.3126L38.3871 41.0648V37.4194H46.129C47.7297 37.4194 49.0323 36.1168 49.0323 34.5161V22.9032C49.0323 21.3026 47.7297 20 46.129 20H22.9032C21.3026 20 20 21.3026 20 22.9032V34.5161C20 36.1168 21.3026 37.4194 22.9032 37.4194ZM21.9355 22.9032C21.9355 22.369 22.369 21.9355 22.9032 21.9355H46.129C46.6632 21.9355 47.0968 22.369 47.0968 22.9032V34.5161C47.0968 35.0503 46.6632 35.4839 46.129 35.4839H36.4516V37.6448L32.8487 35.4839H22.9032C22.369 35.4839 21.9355 35.0503 21.9355 34.5161V22.9032Z" fill="#343434"/>
<path d="M74.1933 41.2905H72.2578V33.5485H70.3223V41.2905H68.3868V31.613H66.4513V41.2905H64.5159V35.484H62.5804V41.2905H60.6449V37.4195H58.7094V41.2905H56.7739V43.2259H76.1288V31.613H74.1933V41.2905Z" fill="#343434"/>
<path d="M26.7743 31.613C28.375 31.613 29.6775 30.3104 29.6775 28.7097C29.6775 27.1091 28.375 25.8065 26.7743 25.8065C25.1737 25.8065 23.8711 27.1091 23.8711 28.7097C23.8711 30.3104 25.1737 31.613 26.7743 31.613ZM26.7743 27.742C27.3085 27.742 27.7421 28.1756 27.7421 28.7097C27.7421 29.2439 27.3085 29.6775 26.7743 29.6775C26.2401 29.6775 25.8066 29.2439 25.8066 28.7097C25.8066 28.1756 26.2401 27.742 26.7743 27.742Z" fill="#343434"/>
<path d="M34.5165 31.613C36.1172 31.613 37.4197 30.3104 37.4197 28.7097C37.4197 27.1091 36.1172 25.8065 34.5165 25.8065C32.9159 25.8065 31.6133 27.1091 31.6133 28.7097C31.6133 30.3104 32.9159 31.613 34.5165 31.613ZM34.5165 27.742C35.0507 27.742 35.4842 28.1756 35.4842 28.7097C35.4842 29.2439 35.0507 29.6775 34.5165 29.6775C33.9823 29.6775 33.5488 29.2439 33.5488 28.7097C33.5488 28.1756 33.9823 27.742 34.5165 27.742Z" fill="#343434"/>
<path d="M42.2582 31.613C43.8589 31.613 45.1614 30.3104 45.1614 28.7097C45.1614 27.1091 43.8589 25.8065 42.2582 25.8065C40.6576 25.8065 39.355 27.1091 39.355 28.7097C39.355 30.3104 40.6576 31.613 42.2582 31.613ZM42.2582 27.742C42.7924 27.742 43.2259 28.1756 43.2259 28.7097C43.2259 29.2439 42.7924 29.6775 42.2582 29.6775C41.724 29.6775 41.2905 29.2439 41.2905 28.7097C41.2905 28.1756 41.724 27.742 42.2582 27.742Z" fill="#343434"/>
<path d="M69.3548 58.7098C67.4619 58.7098 65.6086 59.2169 63.9712 60.1808L58.1357 59.4879L60.0983 64.1137C59.1877 65.7163 58.7096 67.5173 58.7096 69.355C58.7096 75.2244 63.4854 80.0002 69.3548 80.0002C75.2241 80.0002 79.9999 75.2244 79.9999 69.355C79.9999 63.4856 75.2241 58.7098 69.3548 58.7098ZM63.8919 76.1292H74.8167C73.3215 77.3369 71.4219 78.0647 69.3538 78.0647C67.2857 78.0647 65.388 77.3369 63.8919 76.1292ZM68.0677 69.8185C67.6496 69.4421 67.4193 68.9331 67.4193 68.3873V66.6163C67.4193 65.5121 68.2409 64.5724 69.2493 64.5192C69.7796 64.4882 70.2983 64.6779 70.6874 65.0485C71.0754 65.4182 71.2903 65.9156 71.2903 66.4518V68.3873C71.2903 68.9331 71.0599 69.4421 70.6419 69.8185L70.3225 70.1069V71.8885L72.9974 73.226C73.428 73.4408 73.7628 73.7824 73.968 74.1937H64.7425C64.9477 73.7824 65.2835 73.4408 65.7132 73.226L68.387 71.8885V70.1069L68.0677 69.8185ZM76.1067 74.8469C75.9983 73.4127 75.1651 72.146 73.8625 71.4947L72.3983 70.7631C72.9296 70.0856 73.2257 69.2485 73.2257 68.3873V66.4518C73.2257 65.395 72.7864 64.3721 72.0199 63.6444C71.2419 62.9069 70.2354 62.5469 69.1477 62.5856C67.0932 62.6931 65.4838 64.464 65.4838 66.6163V68.3873C65.4838 69.2485 65.7799 70.0856 66.3103 70.7631L64.8461 71.4947C63.5435 72.146 62.7103 73.4127 62.6019 74.8469C61.3806 73.3469 60.6451 71.4356 60.6451 69.355C60.6451 67.7137 61.1125 66.1063 61.998 64.7069L62.269 64.2782L61.219 61.8027L64.4154 62.1831L64.7067 61.9992C66.1061 61.1127 67.7135 60.6453 69.3548 60.6453C74.1577 60.6453 78.0645 64.5521 78.0645 69.355C78.0645 71.4356 77.329 73.3469 76.1067 74.8469Z" fill="#343434"/>
</svg>
