<svg width="579" height="559" viewBox="0 0 579 559" fill="none" xmlns="http://www.w3.org/2000/svg">
<path fill-rule="evenodd" clip-rule="evenodd" d="M279.5 559C433.864 559 559 433.864 559 279.5C559 125.136 433.864 0 279.5 0C125.136 0 0 125.136 0 279.5C0 433.864 125.136 559 279.5 559Z" fill="#FAFAFC"/>
<path d="M437.33 360.797C437.33 360.797 386.459 384.332 411.894 403.809C437.33 423.285 499.209 439.634 510.687 467.461" stroke="#C5CFDE" stroke-width="2"/>
<rect x="235" y="416" width="142" height="8" rx="4" fill="white" stroke="#C5CFDE" stroke-width="2"/>
<path d="M242.318 416L255.758 368H356.242L369.682 416H242.318Z" fill="white" stroke="#C5CFDE" stroke-width="2"/>
<path fill-rule="evenodd" clip-rule="evenodd" d="M256.569 369H355.431L369 415H243L256.569 369Z" fill="white"/>
<mask id="mask0" mask-type="alpha" maskUnits="userSpaceOnUse" x="243" y="369" width="126" height="46">
<path fill-rule="evenodd" clip-rule="evenodd" d="M256.569 369H355.431L369 415H243L256.569 369Z" fill="white"/>
</mask>
<g mask="url(#mask0)">
<path fill-rule="evenodd" clip-rule="evenodd" d="M256 369H356L358 375L252 384L256 369Z" fill="#E0E4EC"/>
</g>
<path fill-rule="evenodd" clip-rule="evenodd" d="M487 498C502 498 527 498 527 498C527 498 551 498 551 483C551 468 527 460 507 460C487 460 466 471 466 482C466 493 472 498 487 498Z" fill="white" stroke="#C5CFDE" stroke-width="2"/>
<path fill-rule="evenodd" clip-rule="evenodd" d="M467 481C467 481 486.368 486.669 507 487C527.632 487.331 542.958 482.648 549 478C549 478 551.102 481.888 550 486C548.898 490.112 546.32 491.923 542 494C531.635 498.984 523.322 497 508 497C494.412 497 478 498 472 494C466 490 467 481 467 481Z" fill="#F5F6FA"/>
<rect x="68" y="473" width="22" height="12" rx="6" fill="white" stroke="#C5CFDE" stroke-width="2"/>
<rect x="97" y="473" width="22" height="12" rx="6" fill="white" stroke="#C5CFDE" stroke-width="2"/>
<rect x="126" y="473" width="22" height="12" rx="6" fill="white" stroke="#C5CFDE" stroke-width="2"/>
<rect x="268" y="473" width="22" height="12" rx="6" fill="white" stroke="#C5CFDE" stroke-width="2"/>
<rect x="297" y="473" width="22" height="12" rx="6" fill="white" stroke="#C5CFDE" stroke-width="2"/>
<rect x="394" y="473" width="22" height="12" rx="6" fill="white" stroke="#C5CFDE" stroke-width="2"/>
<rect x="365" y="473" width="22" height="12" rx="6" fill="white" stroke="#C5CFDE" stroke-width="2"/>
<rect x="336" y="473" width="22" height="12" rx="6" fill="white" stroke="#C5CFDE" stroke-width="2"/>
<rect x="155" y="473" width="106" height="12" rx="6" fill="white" stroke="#C5CFDE" stroke-width="2"/>
<rect x="53" y="480" width="378" height="18" rx="9" fill="white" stroke="#C5CFDE" stroke-width="2"/>
<rect x="54" y="490" width="376" height="2" fill="#C5CFDE"/>
<rect x="1" y="388" width="30" height="50" rx="15" fill="#F5F6FA" stroke="#C5CFDE" stroke-width="2"/>
<rect x="7" y="394" width="18" height="38" rx="9" fill="white" stroke="#C5CFDE" stroke-width="2"/>
<path d="M17 374C17 372.343 18.3431 371 20 371H84C85.6569 371 87 372.343 87 374V444C87 452.284 80.2843 459 72 459H32C23.7157 459 17 452.284 17 444V374Z" fill="#F5F6FA" stroke="#C5CFDE" stroke-width="2"/>
<path d="M53 312C53 312 66 314 66 326C66 338 41 333 41 348C41 363 54 362 54 362" stroke="#C5CFDE" stroke-width="4" stroke-linecap="round"/>
<path fill-rule="evenodd" clip-rule="evenodd" d="M24 372C24 372 30 405 31.1652 434.967C31.7588 450.233 34.3205 458 35 458C37 458 18 460 18 445C18 430 18 374 18 374C18 374 18 372 20 372C22 372 24 372 24 372Z" fill="#EAECF2"/>
<rect x="89" y="62" width="434" height="306" rx="17" fill="white" stroke="#C5CFDE" stroke-width="2"/>
<rect x="109" y="82" width="394" height="236" fill="white" stroke="#C5CFDE" stroke-width="2"/>
<rect x="110" y="83" width="392" height="234" fill="white"/>
<mask id="mask1" mask-type="alpha" maskUnits="userSpaceOnUse" x="110" y="83" width="392" height="234">
<rect x="110" y="83" width="392" height="234" fill="white"/>
</mask>
<g mask="url(#mask1)">
<rect x="110" y="83" width="196" height="234" fill="#C5CFDE"/>
<rect x="125" y="117" width="40" height="6" rx="3" fill="#E0E4EC"/>
<rect x="125" y="101" width="90" height="6" rx="3" fill="#7E8FA4"/>
<rect x="125" y="133" width="80" height="6" rx="3" fill="#F5F6FA"/>
<rect x="125" y="197" width="40" height="6" rx="3" fill="#F5F6FA"/>
<rect x="125" y="213" width="60" height="6" rx="3" fill="#7E8FA4"/>
<rect x="125" y="249" width="40" height="6" rx="3" fill="#7E8FA4"/>
<rect x="125" y="265" width="70" height="6" rx="3" fill="#E0E4EC"/>
<rect x="125" y="297" width="50" height="6" rx="3" fill="#F5F6FA"/>
<rect x="205" y="265" width="50" height="6" rx="3" fill="#E0E4EC"/>
<rect x="145" y="281" width="100" height="6" rx="3" fill="#7E8FA4"/>
<rect x="255" y="281" width="20" height="6" rx="3" fill="#7E8FA4"/>
<rect x="175" y="197" width="20" height="6" rx="3" fill="#F5F6FA"/>
<path fill-rule="evenodd" clip-rule="evenodd" d="M145 152C145 150.343 146.343 149 148 149H242C243.657 149 245 150.343 245 152C245 153.657 243.657 155 242 155H148C146.343 155 145 153.657 145 152Z" fill="#F5F6FA"/>
<path fill-rule="evenodd" clip-rule="evenodd" d="M145 184C145 182.343 146.343 181 148 181H262C263.657 181 265 182.343 265 184C265 185.657 263.657 187 262 187H148C146.343 187 145 185.657 145 184Z" fill="#7E8FA4"/>
<path fill-rule="evenodd" clip-rule="evenodd" d="M145 168C145 166.343 146.343 165 148 165H172C173.657 165 175 166.343 175 168C175 169.657 173.657 171 172 171H148C146.343 171 145 169.657 145 168Z" fill="#E0E4EC"/>
<path fill-rule="evenodd" clip-rule="evenodd" d="M185 168C185 166.343 186.343 165 188 165H282C283.657 165 285 166.343 285 168C285 169.657 283.657 171 282 171H188C186.343 171 185 169.657 185 168Z" fill="#E0E4EC"/>
<path fill-rule="evenodd" clip-rule="evenodd" d="M344 172C344 168.686 346.686 166 350 166H458C461.314 166 464 168.686 464 172C464 175.314 461.314 178 458 178H350C346.686 178 344 175.314 344 172Z" fill="#7E8FA4"/>
<path fill-rule="evenodd" clip-rule="evenodd" d="M344 186C344 184.343 345.343 183 347 183H461C462.657 183 464 184.343 464 186C464 187.657 462.657 189 461 189H347C345.343 189 344 187.657 344 186Z" fill="#7E8FA4"/>
<path fill-rule="evenodd" clip-rule="evenodd" d="M344 201.5C344 200.119 345.119 199 346.5 199H461.5C462.881 199 464 200.119 464 201.5C464 202.881 462.881 204 461.5 204H346.5C345.119 204 344 202.881 344 201.5Z" fill="#C5CFDE"/>
<path fill-rule="evenodd" clip-rule="evenodd" d="M344 211.5C344 210.119 345.119 209 346.5 209H421.5C422.881 209 424 210.119 424 211.5C424 212.881 422.881 214 421.5 214H346.5C345.119 214 344 212.881 344 211.5Z" fill="#C5CFDE"/>
<path fill-rule="evenodd" clip-rule="evenodd" d="M344 229C344 226.239 346.239 224 349 224H379C381.761 224 384 226.239 384 229C384 231.761 381.761 234 379 234H349C346.239 234 344 231.761 344 229Z" fill="#5694ED"/>
</g>
<path d="M315 343C315 347.971 310.971 352 306 352C301.029 352 297 347.971 297 343C297 338.029 301.029 334 306 334C310.971 334 315 338.029 315 343Z" fill="#F5F6FA" stroke="#C5CFDE" stroke-width="2"/>
<path fill-rule="evenodd" clip-rule="evenodd" d="M306 74C307.105 74 308 73.1046 308 72C308 70.8954 307.105 70 306 70C304.895 70 304 70.8954 304 72C304 73.1046 304.895 74 306 74Z" fill="#7E8FA4"/>
<g filter="url(#filter0_d)">
<rect x="441" y="220" width="118" height="166" rx="4" fill="#F5F6FA"/>
<rect x="442" y="221" width="116" height="164" rx="3" stroke="#C5CFDE" stroke-width="2"/>
</g>
<path fill-rule="evenodd" clip-rule="evenodd" d="M473 334H488V337H473V334ZM491 334H511V337H491V334ZM529 334H514V337H529V334Z" fill="#7E8FA4"/>
<rect x="473" y="327" width="55" height="3" fill="#C5CFDE"/>
<path fill-rule="evenodd" clip-rule="evenodd" d="M473 311H488V314H473V311ZM491 311H506V314H491V311ZM539 311H509V314H539V311Z" fill="#7E8FA4"/>
<rect x="473" y="304" width="25" height="3" fill="#C5CFDE"/>
<path fill-rule="evenodd" clip-rule="evenodd" d="M513 286H473V289H513V286ZM526 286H516V289H526V286Z" fill="#7E8FA4"/>
<rect x="473" y="279" width="45" height="3" fill="#C5CFDE"/>
<rect x="473" y="262" width="65" height="3" fill="#7E8FA4"/>
<rect x="473" y="255" width="45" height="3" fill="#C5CFDE"/>
<path fill-rule="evenodd" clip-rule="evenodd" d="M467.643 253.02L466.297 252.136C465.925 251.892 465.415 251.986 465.166 252.343L458.57 261.75L455.539 258.819C455.223 258.512 454.706 258.512 454.389 258.819L453.238 259.933C452.921 260.239 452.921 260.738 453.238 261.047L457.899 265.555C458.16 265.808 458.57 266 458.94 266C459.309 266 459.681 265.776 459.921 265.439L467.86 254.112C468.112 253.754 468.015 253.264 467.643 253.02Z" fill="#5694ED"/>
<path fill-rule="evenodd" clip-rule="evenodd" d="M467.643 277.02L466.297 276.136C465.925 275.892 465.415 275.986 465.166 276.343L458.57 285.75L455.539 282.819C455.223 282.512 454.706 282.512 454.389 282.819L453.238 283.933C452.921 284.239 452.921 284.738 453.238 285.047L457.899 289.555C458.16 289.808 458.57 290 458.94 290C459.309 290 459.681 289.776 459.921 289.439L467.86 278.112C468.112 277.754 468.015 277.264 467.643 277.02Z" fill="#5694ED"/>
<path fill-rule="evenodd" clip-rule="evenodd" d="M467.643 301.02L466.297 300.136C465.925 299.892 465.415 299.986 465.166 300.343L458.57 309.75L455.539 306.819C455.223 306.512 454.706 306.512 454.389 306.819L453.238 307.933C452.921 308.239 452.921 308.738 453.238 309.047L457.899 313.555C458.16 313.808 458.57 314 458.94 314C459.309 314 459.681 313.776 459.921 313.439L467.86 302.112C468.112 301.754 468.015 301.264 467.643 301.02Z" fill="#5694ED"/>
<path fill-rule="evenodd" clip-rule="evenodd" d="M467.643 325.02L466.297 324.136C465.925 323.892 465.415 323.986 465.166 324.343L458.57 333.75L455.539 330.819C455.223 330.512 454.706 330.512 454.389 330.819L453.238 331.933C452.921 332.239 452.921 332.738 453.238 333.047L457.899 337.555C458.16 337.808 458.57 338 458.94 338C459.309 338 459.681 337.776 459.921 337.439L467.86 326.112C468.112 325.754 468.015 325.264 467.643 325.02Z" fill="#5694ED"/>
<path fill-rule="evenodd" clip-rule="evenodd" d="M488 358H473V361H488V358ZM541 358H491V361H541V358Z" fill="#7E8FA4"/>
<rect x="473" y="351" width="25" height="3" fill="#C5CFDE"/>
<path fill-rule="evenodd" clip-rule="evenodd" d="M467.643 349.02L466.297 348.136C465.925 347.892 465.415 347.986 465.166 348.343L458.57 357.75L455.539 354.819C455.223 354.512 454.706 354.512 454.389 354.819L453.238 355.933C452.921 356.239 452.921 356.738 453.238 357.047L457.899 361.555C458.16 361.808 458.57 362 458.94 362C459.309 362 459.681 361.776 459.921 361.439L467.86 350.112C468.112 349.754 468.015 349.264 467.643 349.02Z" fill="#5694ED"/>
<path d="M443 224C443 222.895 443.895 222 445 222H555C556.105 222 557 222.895 557 224V242H443V224Z" fill="#E0E4EC"/>
<path fill-rule="evenodd" clip-rule="evenodd" d="M472 235C473.657 235 475 233.657 475 232C475 230.343 473.657 229 472 229C470.343 229 469 230.343 469 232C469 233.657 470.343 235 472 235Z" fill="#7E8FA4"/>
<path fill-rule="evenodd" clip-rule="evenodd" d="M464 235C465.657 235 467 233.657 467 232C467 230.343 465.657 229 464 229C462.343 229 461 230.343 461 232C461 233.657 462.343 235 464 235Z" fill="#7E8FA4"/>
<path fill-rule="evenodd" clip-rule="evenodd" d="M456 235C457.657 235 459 233.657 459 232C459 230.343 457.657 229 456 229C454.343 229 453 230.343 453 232C453 233.657 454.343 235 456 235Z" fill="#7E8FA4"/>
<defs>
<filter id="filter0_d" x="421" y="208" width="158" height="206" filterUnits="userSpaceOnUse" color-interpolation-filters="sRGB">
<feFlood flood-opacity="0" result="BackgroundImageFix"/>
<feColorMatrix in="SourceAlpha" type="matrix" values="0 0 0 0 0 0 0 0 0 0 0 0 0 0 0 0 0 0 127 0"/>
<feOffset dy="8"/>
<feGaussianBlur stdDeviation="10"/>
<feColorMatrix type="matrix" values="0 0 0 0 0.772549 0 0 0 0 0.811765 0 0 0 0 0.870588 0 0 0 0.5 0"/>
<feBlend mode="normal" in2="BackgroundImageFix" result="effect1_dropShadow"/>
<feBlend mode="normal" in="SourceGraphic" in2="effect1_dropShadow" result="shape"/>
</filter>
</defs>
</svg>
