<svg xmlns="http://www.w3.org/2000/svg" width="24" height="24" fill="none" viewBox="0 0 24 24"><path fill="#00373D" d="M22 0H2C0.896 0 0 0.896 0 2V22C0 23.104 0.896 24 2 24H22C23.104 24 24 23.104 24 22V2C24 0.896 23.104 0 22 0Z"/><path fill="#fff" fill-rule="evenodd" d="M10.256 5.656L13.6639 5.656L13.6642 5.65584H16.4161C17.4801 5.65584 18.3441 6.51984 18.3441 7.58384V8.91184L18.3442 8.91182L18.3441 8.91186V14.1839L18.3443 14.1839L18.344 14.184V16.416C18.344 16.936 18.136 17.408 17.8 17.752L17.8001 17.752C17.4481 18.12 16.9601 18.344 16.4161 18.344H12.3281L12.3289 18.3443L12.328 18.3441H7.584C6.52 18.3441 5.656 17.4801 5.656 16.4161V15.3521L5.65567 15.3517L5.656 15.3519V13.8001V13.7999V12.1681V10.856L5.65581 10.856L5.656 10.856V9.61613V9.61602V7.72813L5.65565 7.72816L5.656 7.728V7.584C5.656 6.52 6.52 5.656 7.584 5.656L10.2559 5.656L10.256 5.656ZM4 8.48L4.00025 8.47989L4 8.48012V10.44V10.4401V11.112L4.00018 11.112L4 11.112V11.904L4.00007 11.9041L4 11.9041V13.2559V13.2561V14.6159L4.00032 14.616L4 14.6161V16.4161C4 16.48 4 16.552 4.00799 16.6239L4.00781 16.6238C4.11181 18.5038 5.67981 19.9998 7.58381 19.9998H9.49562L9.496 20.0001H16.016L16.0154 19.9996L16.0161 20H16.4161C17.7041 20 18.8321 19.32 19.4641 18.296L19.464 18.2959C19.808 17.7519 20 17.1039 20 16.416V14.448L19.9997 14.4478L20.0001 14.4479V8.66386L20.0001 8.66384V7.58384C20.0001 5.78384 18.6641 4.28784 16.9361 4.03984L16.9357 4.03998C16.7598 4.01599 16.5918 4 16.4159 4H13.928H13.9279H10.408L10.4072 4.00032L10.4078 4H7.58384C5.79984 4 4.31184 5.312 4.03984 7.032L4.04056 7.03166L4.04 7.032C4.016 7.208 4 7.4 4 7.584V8.48ZM13.6321 16.4002C13.1201 16.5842 12.5761 16.6882 12.0001 16.6882C10.3761 16.6882 8.93609 15.8562 8.09609 14.5922L8.09696 14.5924L8.09613 14.5921C7.67213 13.9681 7.40812 13.2321 7.32812 12.4401L7.32904 12.44L7.32811 12.4398C7.32011 12.2958 7.31211 12.1438 7.31211 11.9998C7.31211 11.5039 7.39208 11.024 7.53603 10.5681L7.53594 10.5681C8.13594 8.68011 9.91194 7.31211 11.9999 7.31211C13.5838 7.31211 14.9838 8.09602 15.8318 9.3039L15.8321 9.30394C16.3681 10.0639 16.6881 10.9919 16.6881 11.9999C16.6881 12.6639 16.5521 13.2879 16.3041 13.8639L16.3041 13.8641C15.7921 15.0321 14.8321 15.9521 13.6321 16.4001L13.6313 16.3998L13.6321 16.4002ZM13.4643 9.66406C14.2402 10.1521 14.7601 11.016 14.7601 11.9999C14.7601 12.5679 14.5841 13.1039 14.2881 13.5439L14.2886 13.544L14.2881 13.5441C13.7921 14.2721 12.9521 14.7601 12.0001 14.7601C10.7441 14.7601 9.68012 13.9121 9.34412 12.7601L9.34092 12.7581L9.35211 12.7598C9.28011 12.5198 9.24011 12.2638 9.24011 11.9998C9.24011 11.32 9.49601 10.6881 9.90388 10.2081L9.90394 10.2081C10.4079 9.61611 11.1599 9.24011 11.9999 9.24011C12.5359 9.24011 13.0399 9.40011 13.4639 9.66411L13.4643 9.66406ZM16.4161 8.68808C17.0241 8.68808 17.5201 8.19208 17.5201 7.58408C17.5201 6.97608 17.0241 6.48008 16.4161 6.48008C15.8081 6.48008 15.3121 6.97608 15.3121 7.58408C15.3121 8.19208 15.8081 8.68808 16.4161 8.68808Z" clip-rule="evenodd"/></svg>