<svg xmlns="http://www.w3.org/2000/svg" width="85" height="28" fill="none" viewBox="0 0 85 28"><path fill="#00373D" d="M81.6667 0H2.91667C1.30584 0 0 1.30584 0 2.91667V25.0833C0 26.6942 1.30584 28 2.91667 28H81.6667C83.2775 28 84.5833 26.6942 84.5833 25.0833V2.91667C84.5833 1.30584 83.2775 0 81.6667 0Z"/><path fill="#fff" d="M33.3612 9.91671H31.9146V6.02588H33.3612C33.964 6.02588 34.454 6.20671 34.8312 6.56838C35.2084 6.93005 35.3971 7.39866 35.3971 7.97421C35.3971 8.54588 35.2084 9.01255 34.8312 9.37421C34.4579 9.73588 33.9679 9.91671 33.3612 9.91671ZM33.3612 9.31588C33.7696 9.31588 34.0943 9.18755 34.3354 8.93088C34.5765 8.67421 34.6971 8.35532 34.6971 7.97421C34.6971 7.58143 34.5784 7.25866 34.3412 7.00588C34.1079 6.7531 33.7812 6.62671 33.3612 6.62671H32.5971V9.31588H33.3612Z"/><path fill="#fff" d="M37.3102 9.98671C36.8746 9.98671 36.5246 9.84477 36.2602 9.56088C35.9957 9.2731 35.8635 8.92116 35.8635 8.50505C35.8635 8.08893 35.9957 7.73893 36.2602 7.45505C36.5246 7.17116 36.8746 7.02921 37.3102 7.02921C37.7496 7.02921 38.1015 7.17116 38.366 7.45505C38.6304 7.73893 38.7627 8.08893 38.7627 8.50505C38.7627 8.92505 38.6304 9.27699 38.366 9.56088C38.1015 9.84477 37.7496 9.98671 37.3102 9.98671ZM37.3102 9.44421C37.5629 9.44421 37.7613 9.35477 37.9052 9.17588C38.0529 8.9931 38.1268 8.76949 38.1268 8.50505C38.1268 8.24449 38.0529 8.02477 37.9052 7.84588C37.7613 7.6631 37.5629 7.57171 37.3102 7.57171C37.0613 7.57171 36.8629 7.6631 36.7152 7.84588C36.5713 8.02477 36.4993 8.24449 36.4993 8.50505C36.4993 8.76949 36.5713 8.9931 36.7152 9.17588C36.8629 9.35477 37.0613 9.44421 37.3102 9.44421Z"/><path fill="#fff" d="M42.4799 9.91671H41.8382L41.1849 7.85171L40.5316 9.91671H39.8899L39.0149 7.09921H39.6507L40.2457 9.14671L40.9166 7.09921H41.4532L42.1241 9.14671L42.7191 7.09921H43.3549L42.4799 9.91671Z"/><path fill="#fff" d="M46.2944 9.91671H45.6819V8.15505C45.6819 7.76616 45.4932 7.57171 45.116 7.57171C44.9682 7.57171 44.8302 7.60866 44.7019 7.68255C44.5735 7.75643 44.4705 7.84588 44.3927 7.95088V9.91671H43.7802V7.09921H44.3927V7.48421C44.4977 7.35977 44.6377 7.25282 44.8127 7.16338C44.9877 7.07393 45.1782 7.02921 45.3844 7.02921C45.6838 7.02921 45.9094 7.10699 46.061 7.26255C46.2166 7.4181 46.2944 7.64171 46.2944 7.93338V9.91671Z"/><path fill="#fff" d="M47.7024 9.91671H47.0899V6.02588H47.7024V9.91671Z"/><path fill="#fff" d="M49.7687 9.98671C49.3331 9.98671 48.9831 9.84477 48.7187 9.56088C48.4542 9.2731 48.322 8.92116 48.322 8.50505C48.322 8.08893 48.4542 7.73893 48.7187 7.45505C48.9831 7.17116 49.3331 7.02921 49.7687 7.02921C50.2081 7.02921 50.56 7.17116 50.8245 7.45505C51.0889 7.73893 51.2212 8.08893 51.2212 8.50505C51.2212 8.92505 51.0889 9.27699 50.8245 9.56088C50.56 9.84477 50.2081 9.98671 49.7687 9.98671ZM49.7687 9.44421C50.0214 9.44421 50.2198 9.35477 50.3637 9.17588C50.5114 8.9931 50.5853 8.76949 50.5853 8.50505C50.5853 8.24449 50.5114 8.02477 50.3637 7.84588C50.2198 7.6631 50.0214 7.57171 49.7687 7.57171C49.5198 7.57171 49.3214 7.6631 49.1737 7.84588C49.0298 8.02477 48.9578 8.24449 48.9578 8.50505C48.9578 8.76949 49.0298 8.9931 49.1737 9.17588C49.3214 9.35477 49.5198 9.44421 49.7687 9.44421Z"/><path fill="#fff" d="M54.1742 9.91671H53.5617V9.61338C53.344 9.86227 53.0406 9.98671 52.6517 9.98671C52.3951 9.98671 52.1676 9.90505 51.9692 9.74171C51.7709 9.57449 51.6717 9.34505 51.6717 9.05338C51.6717 8.75393 51.769 8.52643 51.9634 8.37088C52.1617 8.21532 52.3912 8.13755 52.6517 8.13755C53.0523 8.13755 53.3556 8.2581 53.5617 8.49921V8.07921C53.5617 7.91588 53.5015 7.78755 53.3809 7.69421C53.2603 7.60088 53.1009 7.55421 52.9026 7.55421C52.5876 7.55421 52.3095 7.67282 52.0684 7.91005L51.8176 7.48421C52.1365 7.18088 52.5312 7.02921 53.0017 7.02921C53.3478 7.02921 53.6298 7.11088 53.8476 7.27421C54.0653 7.43755 54.1742 7.69616 54.1742 8.05005V9.91671ZM52.8909 9.56671C53.1981 9.56671 53.4217 9.46949 53.5617 9.27505V8.84921C53.4217 8.65477 53.1981 8.55755 52.8909 8.55755C52.7159 8.55755 52.572 8.60421 52.4592 8.69755C52.3465 8.79088 52.2901 8.91338 52.2901 9.06505C52.2901 9.21671 52.3465 9.33921 52.4592 9.43255C52.572 9.52199 52.7159 9.56671 52.8909 9.56671Z"/><path fill="#fff" d="M57.5642 9.91671H56.9517V9.53171C56.7183 9.83505 56.417 9.98671 56.0475 9.98671C55.6781 9.98671 55.3767 9.85449 55.1433 9.59005C54.91 9.3256 54.7933 8.96588 54.7933 8.51088C54.7933 8.05977 54.91 7.70005 55.1433 7.43171C55.3767 7.16338 55.6781 7.02921 56.0475 7.02921C56.417 7.02921 56.7183 7.18282 56.9517 7.49005V6.02588H57.5642V9.91671ZM56.2225 9.44421C56.3664 9.44421 56.5064 9.40921 56.6425 9.33921C56.7786 9.26921 56.8817 9.17977 56.9517 9.07088V7.95088C56.8817 7.84199 56.7786 7.75255 56.6425 7.68255C56.5064 7.60866 56.3664 7.57171 56.2225 7.57171C55.9814 7.57171 55.7889 7.65921 55.645 7.83421C55.5011 8.00921 55.4292 8.23477 55.4292 8.51088C55.4292 8.78699 55.5011 9.01255 55.645 9.18755C55.7889 9.35866 55.9814 9.44421 56.2225 9.44421Z"/><path fill="#fff" d="M61.1277 9.98671C60.6921 9.98671 60.3421 9.84477 60.0777 9.56088C59.8133 9.2731 59.681 8.92116 59.681 8.50505C59.681 8.08893 59.8133 7.73893 60.0777 7.45505C60.3421 7.17116 60.6921 7.02921 61.1277 7.02921C61.5671 7.02921 61.9191 7.17116 62.1835 7.45505C62.448 7.73893 62.5802 8.08893 62.5802 8.50505C62.5802 8.92505 62.448 9.27699 62.1835 9.56088C61.9191 9.84477 61.5671 9.98671 61.1277 9.98671ZM61.1277 9.44421C61.3805 9.44421 61.5788 9.35477 61.7227 9.17588C61.8705 8.9931 61.9444 8.76949 61.9444 8.50505C61.9444 8.24449 61.8705 8.02477 61.7227 7.84588C61.5788 7.6631 61.3805 7.57171 61.1277 7.57171C60.8788 7.57171 60.6805 7.6631 60.5327 7.84588C60.3888 8.02477 60.3169 8.24449 60.3169 8.50505C60.3169 8.76949 60.3888 8.9931 60.5327 9.17588C60.6805 9.35477 60.8788 9.44421 61.1277 9.44421Z"/><path fill="#fff" d="M65.7141 9.91671H65.1016V8.15505C65.1016 7.76616 64.913 7.57171 64.5358 7.57171C64.388 7.57171 64.2499 7.60866 64.1216 7.68255C63.9933 7.75643 63.8902 7.84588 63.8124 7.95088V9.91671H63.1999V7.09921H63.8124V7.48421C63.9174 7.35977 64.0574 7.25282 64.2324 7.16338C64.4074 7.07393 64.598 7.02921 64.8041 7.02921C65.1036 7.02921 65.3291 7.10699 65.4808 7.26255C65.6363 7.4181 65.7141 7.64171 65.7141 7.93338V9.91671Z"/><path fill="#fff" d="M68.8537 9.98671C68.6165 9.98671 68.4357 9.92449 68.3112 9.80005C68.1907 9.6756 68.1304 9.49671 68.1304 9.26338V7.63588H67.6637V7.09921H68.1304V6.32921H68.7429V7.09921H69.3146V7.63588H68.7429V9.11171C68.7429 9.21282 68.7662 9.29449 68.8129 9.35671C68.8596 9.41505 68.9257 9.44421 69.0112 9.44421C69.1357 9.44421 69.2271 9.41116 69.2854 9.34505L69.4312 9.80588C69.3029 9.92643 69.1104 9.98671 68.8537 9.98671Z"/><path fill="#fff" d="M72.3907 9.91671H71.7782V8.14338C71.7782 7.93727 71.7276 7.79143 71.6265 7.70588C71.5293 7.61643 71.3893 7.57171 71.2065 7.57171C71.0626 7.57171 70.9265 7.60866 70.7982 7.68255C70.6698 7.75643 70.5648 7.84588 70.4832 7.95088V9.91671H69.8707V6.02588H70.4832V7.48421C70.5882 7.35977 70.7282 7.25282 70.9032 7.16338C71.0821 7.07393 71.2746 7.02921 71.4807 7.02921C72.0873 7.02921 72.3907 7.32671 72.3907 7.92171V9.91671Z"/><path fill="#fff" d="M74.4869 9.98671C74.0592 9.98671 73.7053 9.8506 73.4253 9.57838C73.1492 9.30227 73.0111 8.94449 73.0111 8.50505C73.0111 8.09282 73.1453 7.74477 73.4136 7.46088C73.6858 7.1731 74.0281 7.02921 74.4403 7.02921C74.8564 7.02921 75.1908 7.1731 75.4436 7.46088C75.7003 7.74866 75.8286 8.11616 75.8286 8.56338V8.70921H73.6528C73.6761 8.93088 73.7675 9.1156 73.9269 9.26338C74.0864 9.41116 74.2944 9.48505 74.5511 9.48505C74.695 9.48505 74.8389 9.45782 74.9828 9.40338C75.1306 9.34893 75.2531 9.2731 75.3503 9.17588L75.6303 9.57838C75.3464 9.8506 74.9653 9.98671 74.4869 9.98671ZM75.2336 8.27755C75.2258 8.0831 75.1539 7.91005 75.0178 7.75838C74.8856 7.60671 74.6931 7.53088 74.4403 7.53088C74.1992 7.53088 74.0106 7.60671 73.8744 7.75838C73.7383 7.90616 73.6625 8.07921 73.6469 8.27755H75.2336Z"/><path fill="#fff" d="M37.5578 20.4169H36.6711L36.1205 19.0356H33.0218L32.4711 20.4169H31.5845L34.0858 14.1916H35.0471L37.5578 20.4169ZM35.8871 18.3449L34.5711 14.9943L33.2458 18.3449H35.8871Z"/><path fill="#fff" d="M40.565 20.5289C39.9304 20.5289 39.4233 20.2645 39.0437 19.7356V22.1343H38.3437V15.9089H39.0437V16.5809C39.2117 16.3445 39.4295 16.1547 39.697 16.0116C39.9646 15.8685 40.2539 15.7969 40.565 15.7969C41.1624 15.7969 41.6446 16.0116 42.0117 16.4409C42.385 16.864 42.5717 17.4365 42.5717 18.1583C42.5717 18.88 42.385 19.4556 42.0117 19.8849C41.6446 20.3143 41.1624 20.5289 40.565 20.5289ZM40.3877 19.9036C40.8295 19.9036 41.181 19.7418 41.4424 19.4183C41.7037 19.0885 41.8344 18.6685 41.8344 18.1583C41.8344 17.648 41.7037 17.2312 41.4424 16.9076C41.181 16.584 40.8295 16.4223 40.3877 16.4223C40.1201 16.4223 39.8588 16.4938 39.6037 16.6369C39.3548 16.7738 39.1681 16.9418 39.0437 17.1409V19.1756C39.1681 19.3809 39.3548 19.5552 39.6037 19.6983C39.8588 19.8352 40.1201 19.9036 40.3877 19.9036Z"/><path fill="#fff" d="M45.9062 20.5289C45.2715 20.5289 44.7644 20.2645 44.3848 19.7356V22.1343H43.6848V15.9089H44.3848V16.5809C44.5528 16.3445 44.7706 16.1547 45.0382 16.0116C45.3057 15.8685 45.5951 15.7969 45.9062 15.7969C46.5035 15.7969 46.9857 16.0116 47.3528 16.4409C47.7262 16.864 47.9128 17.4365 47.9128 18.1583C47.9128 18.88 47.7262 19.4556 47.3528 19.8849C46.9857 20.3143 46.5035 20.5289 45.9062 20.5289ZM45.7288 19.9036C46.1706 19.9036 46.5222 19.7418 46.7835 19.4183C47.0448 19.0885 47.1755 18.6685 47.1755 18.1583C47.1755 17.648 47.0448 17.2312 46.7835 16.9076C46.5222 16.584 46.1706 16.4223 45.7288 16.4223C45.4613 16.4223 45.2 16.4938 44.9448 16.6369C44.696 16.7738 44.5093 16.9418 44.3848 17.1409V19.1756C44.5093 19.3809 44.696 19.5552 44.9448 19.6983C45.2 19.8352 45.4613 19.9036 45.7288 19.9036Z"/><path fill="#fff" d="M53.4762 20.5289C52.4682 20.5289 51.6718 20.1992 51.0869 19.5396L51.5442 18.9516C52.0731 19.5427 52.7265 19.8383 53.5042 19.8383C54.0082 19.8383 54.3785 19.7325 54.6149 19.5209C54.8514 19.3032 54.9696 19.0512 54.9696 18.7649C54.9696 18.5472 54.9011 18.3636 54.7642 18.2143C54.6274 18.0649 54.45 17.9498 54.2322 17.8689C54.0207 17.7818 53.7811 17.704 53.5136 17.6356C53.2522 17.5672 52.9909 17.4925 52.7296 17.4116C52.4682 17.3245 52.2287 17.2218 52.0109 17.1036C51.7994 16.9854 51.6251 16.8174 51.4882 16.5996C51.3514 16.3818 51.2829 16.1236 51.2829 15.8249C51.2829 15.3147 51.4851 14.9009 51.8896 14.5836C52.294 14.26 52.8042 14.0983 53.4202 14.0983C54.3474 14.0983 55.0847 14.3876 55.6322 14.9663L55.1656 15.5356C54.7114 15.0378 54.1109 14.7889 53.3642 14.7889C52.9909 14.7889 52.6829 14.8823 52.4402 15.0689C52.2038 15.2494 52.0856 15.4858 52.0856 15.7783C52.0856 15.996 52.1758 16.1765 52.3562 16.3196C52.5429 16.4627 52.77 16.5685 53.0376 16.6369C53.3114 16.7054 53.6069 16.7925 53.9242 16.8983C54.2478 16.9978 54.5434 17.1067 54.8109 17.2249C55.0847 17.3369 55.3118 17.5205 55.4922 17.7756C55.6789 18.0307 55.7722 18.3387 55.7722 18.6996C55.7722 19.2098 55.5825 19.6423 55.2029 19.9969C54.8296 20.3516 54.254 20.5289 53.4762 20.5289Z"/><path fill="#fff" d="M57.8847 20.5289C57.5549 20.5289 57.306 20.4387 57.138 20.2583C56.97 20.0778 56.886 19.8165 56.886 19.4743V16.5249H56.1394V15.9089H56.886V14.6769H57.586V15.9089H58.5007V16.5249H57.586V19.3249C57.586 19.4992 57.6234 19.6392 57.698 19.7449C57.7789 19.8507 57.894 19.9036 58.0434 19.9036C58.2487 19.9036 58.4074 19.8414 58.5194 19.7169L58.7247 20.2396C58.5194 20.4325 58.2394 20.5289 57.8847 20.5289Z"/><path fill="#fff" d="M63.0735 19.8476C62.6691 20.3018 62.1309 20.5289 61.4589 20.5289C60.7869 20.5289 60.2455 20.3018 59.8349 19.8476C59.4304 19.3934 59.2282 18.8303 59.2282 18.1583C59.2282 17.4863 59.4304 16.9263 59.8349 16.4783C60.2455 16.024 60.7869 15.7969 61.4589 15.7969C62.1309 15.7969 62.6691 16.024 63.0735 16.4783C63.4842 16.9263 63.6895 17.4863 63.6895 18.1583C63.6895 18.8303 63.4842 19.3934 63.0735 19.8476ZM60.3575 19.3996C60.6313 19.7356 60.9984 19.9036 61.4589 19.9036C61.9193 19.9036 62.2833 19.7356 62.5509 19.3996C62.8184 19.0574 62.9522 18.6436 62.9522 18.1583C62.9522 17.6729 62.8184 17.2623 62.5509 16.9263C62.2833 16.5903 61.9193 16.4223 61.4589 16.4223C60.9984 16.4223 60.6313 16.5934 60.3575 16.9356C60.09 17.2716 59.9562 17.6792 59.9562 18.1583C59.9562 18.6436 60.09 19.0574 60.3575 19.3996Z"/><path fill="#fff" d="M65.5307 20.4169H64.8307V15.9089H65.5307V16.6369C65.9476 16.0894 66.4485 15.8156 67.0333 15.8156V16.5343C66.9462 16.5156 66.8529 16.5063 66.7533 16.5063C66.5418 16.5063 66.3116 16.5809 66.0627 16.7303C65.8138 16.8796 65.6365 17.0445 65.5307 17.2249V20.4169Z"/><path fill="#fff" d="M69.9461 20.5289C69.2741 20.5289 68.7234 20.3112 68.2941 19.8756C67.8647 19.4338 67.6501 18.8614 67.6501 18.1583C67.6501 17.4987 67.8616 16.9418 68.2847 16.4876C68.7079 16.0272 69.2367 15.7969 69.8714 15.7969C70.5372 15.7969 71.063 16.0272 71.4487 16.4876C71.8407 16.9418 72.0367 17.5174 72.0367 18.2143V18.3916H68.3874C68.4185 18.8334 68.5803 19.2036 68.8727 19.5023C69.1652 19.8009 69.5447 19.9503 70.0114 19.9503C70.5714 19.9503 71.035 19.7605 71.4021 19.3809L71.7381 19.8383C71.2776 20.2987 70.6803 20.5289 69.9461 20.5289ZM71.3461 17.8783C71.3399 17.4925 71.2092 17.1472 70.9541 16.8423C70.699 16.5312 70.335 16.3756 69.8621 16.3756C69.4141 16.3756 69.0594 16.528 68.7981 16.8329C68.543 17.1378 68.4061 17.4863 68.3874 17.8783H71.3461Z"/><path fill="#fff" fill-rule="evenodd" d="M17.6653 10.3615C17.743 10.3615 17.8204 10.3652 17.8954 10.3727C18.4121 10.3949 19.6954 10.5796 20.5327 11.8049C20.5504 11.8308 20.5569 11.8628 20.5506 11.8935C20.5444 11.9243 20.5261 11.9512 20.4997 11.9681L20.4884 11.9752C20.2451 12.1257 19.032 12.9561 19.0476 14.5242C19.0644 16.4542 20.6606 17.1624 20.8426 17.2368C20.8441 17.2374 20.8496 17.2397 20.8511 17.2404C20.9051 17.2652 20.9316 17.3266 20.9128 17.3829L20.9088 17.3955C20.81 17.7122 20.5169 18.541 19.9328 19.3946C19.3731 20.2122 18.7386 21.1389 17.7052 21.1582C17.2222 21.1672 16.8953 21.0252 16.5779 20.8879C16.2559 20.7485 15.9229 20.6044 15.4011 20.6044C14.8527 20.6044 14.503 20.7534 14.1649 20.8975C13.8637 21.0257 13.5523 21.1584 13.1213 21.1756C13.1035 21.1763 13.0862 21.1766 13.0689 21.1766C12.1515 21.1766 11.4817 20.3178 10.8201 19.361C9.49478 17.4473 8.73287 14.2912 9.93137 12.2114C10.5617 11.1152 11.7049 10.423 12.9148 10.4052C12.9268 10.4049 12.939 10.4048 12.9515 10.4048C13.4718 10.4048 13.9633 10.5998 14.397 10.772C14.7213 10.9006 15.0014 11.0117 15.2172 11.0117C15.4092 11.0117 15.6877 10.902 16.0101 10.7748C16.4771 10.5907 17.0585 10.3615 17.6653 10.3615ZM17.8965 7.00009C17.9566 6.99772 18.01 7.0428 18.0167 7.10351C18.1017 7.87816 17.8208 8.74298 17.2653 9.41686C16.7375 10.055 15.9647 10.4514 15.2483 10.4514C15.198 10.4513 15.1475 10.4494 15.098 10.4455C15.0433 10.4413 14.9991 10.3993 14.9919 10.3449C14.877 9.47575 15.3131 8.61344 15.7595 8.09624C16.2849 7.48093 17.1638 7.02993 17.8965 7.00009Z" clip-rule="evenodd"/></svg>