<svg width="14" height="14" viewBox="0 0 14 14" fill="none" xmlns="http://www.w3.org/2000/svg">
<path d="M5.76699 4.16663L8.66699 7.06663L5.76699 9.96663L5.30033 9.49996L7.73366 7.06663L5.30033 4.63329L5.76699 4.16663Z" fill="#227F00"/>
<path d="M7 0C3.13333 0 0 3.13333 0 7C0 10.8667 3.13333 14 7 14C10.8667 14 14 10.8667 14 7C14 3.13333 10.8667 0 7 0ZM7 13.3333C3.5 13.3333 0.666667 10.5 0.666667 7C0.666667 3.5 3.5 0.666667 7 0.666667C10.5 0.666667 13.3333 3.5 13.3333 7C13.3333 10.5 10.5 13.3333 7 13.3333Z" fill="#227F00"/>
</svg>
