<svg xmlns="http://www.w3.org/2000/svg" width="24" height="24" fill="none" viewBox="0 0 24 24"><path fill="#00373D" d="M22 0H2C0.896 0 0 0.896 0 2V22C0 23.104 0.896 24 2 24H22C23.104 24 24 23.104 24 22V2C24 0.896 23.104 0 22 0Z"/><path fill="#fff" d="M8.4801 9.76007H5.9201C5.7441 9.76007 5.6001 9.90407 5.6001 10.0801V18.7201C5.6001 18.8961 5.7441 19.0401 5.9201 19.0401H8.4801C8.6561 19.0401 8.8001 18.8961 8.8001 18.7201V10.0801C8.8001 9.90407 8.6561 9.76007 8.4801 9.76007Z"/><path fill="#E5E5E5" d="M6.2401 18.7201V10.0801C6.2401 9.90407 6.3841 9.76007 6.5601 9.76007H5.9201C5.7441 9.76007 5.6001 9.90407 5.6001 10.0801V18.7201C5.6001 18.8961 5.7441 19.0401 5.9201 19.0401H6.5601C6.3841 19.0401 6.2401 18.8961 6.2401 18.7201Z"/><path fill="#fff" d="M18.0241 10.5841C17.4081 10.0641 16.6161 9.76007 15.8401 9.76007C14.5921 9.76007 13.7921 10.1681 13.2801 10.6721V10.0801C13.2801 9.90407 13.1361 9.76007 12.9601 9.76007H10.4001C10.2241 9.76007 10.0801 9.90407 10.0801 10.0801V18.7201C10.0801 18.8961 10.2241 19.0401 10.4001 19.0401H12.9601C13.1361 19.0401 13.2801 18.8961 13.2801 18.7201V14.5601C13.2801 13.7681 13.9441 13.2801 14.5601 13.2801C15.3041 13.2801 15.8401 13.8161 15.8401 14.5601V18.7201C15.8401 18.8961 15.9841 19.0401 16.1601 19.0401H18.7201C18.8961 19.0401 19.0401 18.8961 19.0401 18.7201V12.6401C19.0401 11.8801 18.6801 11.1441 18.0241 10.5841Z"/><path fill="#E5E5E5" d="M10.7201 18.7201V10.0801C10.7201 9.90407 10.8641 9.76007 11.0401 9.76007H10.4001C10.2241 9.76007 10.0801 9.90407 10.0801 10.0801V18.7201C10.0801 18.8961 10.2241 19.0401 10.4001 19.0401H11.0401C10.8641 19.0401 10.7201 18.8961 10.7201 18.7201Z"/><path fill="#E5E5E5" d="M16.48 18.72V14.56C16.48 13.816 15.944 13.28 15.2 13.28C15.096 13.28 15 13.296 14.896 13.32C15.456 13.456 15.84 13.936 15.84 14.56V18.72C15.84 18.896 15.984 19.04 16.16 19.04H16.8C16.624 19.04 16.48 18.896 16.48 18.72Z"/><path fill="#fff" d="M7.2001 5.60001C6.3201 5.60001 5.6001 6.32001 5.6001 7.20001C5.6001 8.08001 6.3201 8.80001 7.2001 8.80001C8.0801 8.80001 8.8001 8.08001 8.8001 7.20001C8.8001 6.32001 8.0801 5.60001 7.2001 5.60001Z"/><path fill="#E5E5E5" d="M7.5201 8.1599C6.6401 8.1599 5.9201 7.4399 5.9201 6.5599C5.9201 6.4319 5.9361 6.3039 5.9681 6.1839C5.7361 6.4639 5.6001 6.8159 5.6001 7.1999C5.6001 8.0799 6.3201 8.7999 7.2001 8.7999C7.9521 8.7999 8.5841 8.2799 8.7521 7.5759C8.4641 7.9359 8.0161 8.1599 7.5201 8.1599Z"/></svg>