<svg xmlns="http://www.w3.org/2000/svg" width="119" height="33" fill="none" viewBox="0 0 119 33"><path fill="#515151" fill-rule="evenodd" d="M22.7058 14.2848C22.9046 13.0145 23.4518 12.0121 24.3473 11.2788C25.2427 10.5458 26.3491 10.1793 27.6677 10.1793C28.9606 10.1793 30.0556 10.552 30.9508 11.2972C31.8462 12.043 32.3931 13.0384 32.5926 14.2848H22.7058ZM32.9656 7.10008C31.3736 6.26953 29.595 5.85376 27.6303 5.85376C25.6158 5.85376 23.7934 6.28792 22.1646 7.15526C20.5355 8.02292 19.2546 9.23246 18.322 10.7839C17.3891 12.3363 16.9229 14.0775 16.9229 16.0076C16.9229 17.963 17.3952 19.7098 18.3404 21.2494C19.2857 22.789 20.6287 23.9929 22.3698 24.8603C24.1106 25.7279 26.1131 26.1615 28.3767 26.1615C31.9031 26.1615 34.6085 25.1588 36.4933 23.1539C36.5879 23.0527 36.5859 22.8944 36.491 22.7933L33.7441 19.8668C33.6438 19.7597 33.4757 19.7561 33.3657 19.8536C32.7246 20.4218 32.0378 20.8445 31.3054 21.121C30.4969 21.4271 29.5706 21.5794 28.5258 21.5794C27.0086 21.5794 25.7401 21.2254 24.7203 20.5164C23.7002 19.8077 23.0537 18.8428 22.7803 17.6204H37.7719C37.8808 17.6204 37.9714 17.5367 37.9798 17.4303C38.0443 16.5987 38.0767 16.1492 38.0767 16.0808C38.0767 14.0283 37.6224 12.2263 36.715 10.6739C35.8068 9.12245 34.557 7.93097 32.9656 7.10008Z" clip-rule="evenodd"/><path fill="#227F00" fill-rule="evenodd" d="M51.9214 21.1583C51.8637 21.0085 51.6811 20.9401 51.5448 21.0264C50.952 21.3996 50.2566 21.5857 49.4582 21.5857C48.6647 21.5857 48.0509 21.3586 47.6171 20.9031C47.1829 20.4482 46.966 19.8025 46.966 18.9658V10.8848H51.5905C51.7891 10.8848 51.95 10.7248 51.95 10.5278V6.8136C51.95 6.61657 51.7891 6.45689 51.5905 6.45689H46.966V2.19292C46.966 1.8782 46.709 1.62299 46.3918 1.62299H41.7383C41.4211 1.62299 41.1638 1.8782 41.1638 2.19292V6.45689H38.4127C38.2274 6.45689 38.0771 6.60599 38.0771 6.79013V10.5516C38.0771 10.7357 38.2274 10.8848 38.4127 10.8848H41.1638V19.0395C41.1638 21.3771 41.8146 23.1484 43.1172 24.3534C44.4188 25.5588 46.2598 26.1614 48.6401 26.1614C49.5571 26.1614 50.4312 26.0563 51.2622 25.8477C52.013 25.6589 52.6575 25.3846 53.1959 25.0242C53.2963 24.9574 53.3332 24.8278 53.2902 24.7158L51.9214 21.1583Z" clip-rule="evenodd"/><path fill="#227F00" fill-rule="evenodd" d="M67.1464 19.9847C66.191 20.9745 64.969 21.4694 63.4799 21.4694C61.9909 21.4694 60.7626 20.9745 59.7948 19.9847C58.8269 18.9948 58.343 17.6697 58.343 16.0076C58.343 14.3458 58.8269 13.0197 59.7948 12.0302C60.7626 11.0404 61.9909 10.5455 63.4799 10.5455C64.969 10.5455 66.191 11.0404 67.1464 12.0302C68.1016 13.0197 68.5798 14.3458 68.5798 16.0076C68.5798 17.6697 68.1016 18.9948 67.1464 19.9847ZM69.1381 7.15493C67.4749 6.28759 65.589 5.85376 63.4799 5.85376C61.3705 5.85376 59.4783 6.28759 57.8031 7.15493C56.1283 8.02259 54.8189 9.22589 53.8761 10.7655C52.9327 12.3051 52.4614 14.0526 52.4614 16.0076C52.4614 17.963 52.9327 19.7098 53.8761 21.2494C54.8189 22.789 56.1283 23.9929 57.8031 24.86C59.4783 25.7276 61.3705 26.1615 63.4799 26.1615C65.589 26.1615 67.4749 25.7276 69.1381 24.86C70.8003 23.9929 72.1032 22.789 73.0464 21.2494C73.9895 19.7098 74.4614 17.963 74.4614 16.0076C74.4614 14.0526 73.9895 12.3051 73.0464 10.7655C72.1032 9.22589 70.8003 8.02259 69.1381 7.15493Z" clip-rule="evenodd"/><path fill="#227F00" fill-rule="evenodd" d="M91.0605 19.9594C90.134 20.9474 88.9487 21.4414 87.505 21.4414C86.0609 21.4414 84.8753 20.9474 83.9491 19.9594C83.0225 18.9713 82.5594 17.6485 82.5594 15.9894C82.5594 14.3306 83.0225 13.0069 83.9491 12.0191C84.8753 11.0311 86.0609 10.537 87.505 10.537C88.9487 10.537 90.134 11.0311 91.0605 12.0191C91.9864 13.0069 92.4502 14.3306 92.4502 15.9894C92.4502 17.6485 91.9864 18.9713 91.0605 19.9594ZM93.4069 7.11588C91.9269 6.27436 90.2843 5.85376 88.4797 5.85376C85.8084 5.85376 83.7744 6.70774 82.3786 8.41505V6.45597C82.3786 6.28485 82.2418 6.14618 82.0733 6.14618H77.3056C77.1368 6.14618 77 6.28485 77 6.45597V32.4776C77 32.7278 77.2005 32.9307 77.4473 32.9307H82.1846C82.4313 32.9307 82.6318 32.7278 82.6318 32.4776V23.7464C84.0513 25.3324 86.0005 26.1251 88.4797 26.1251C90.2843 26.1251 91.9269 25.7041 93.4069 24.8626C94.8868 24.0211 96.0475 22.838 96.8903 21.3133C97.7324 19.7889 98.1538 18.0144 98.1538 15.9894C98.1538 13.9648 97.7324 12.1899 96.8903 10.6652C96.0475 9.14118 94.8868 7.95773 93.4069 7.11588Z" clip-rule="evenodd"/><mask id="mask0" width="17" height="26" x="0" y="0" mask-type="alpha" maskUnits="userSpaceOnUse"><path fill="#fff" d="M0 0H16.8918V25.3133H0V0Z"/></mask><g mask="url(#mask0)"><path fill="#515151" fill-rule="evenodd" d="M11.2436 17.1769C12.9621 16.4538 14.288 15.4112 15.2221 14.0489C16.1558 12.6872 16.6226 11.0657 16.6226 9.18529C16.6226 7.30459 16.1615 5.67724 15.2405 4.30324C14.3188 2.92892 13.0053 1.86853 11.2995 1.12111C9.59373 0.374014 7.58309 -0.000183105 5.26723 -0.000183105H0.242629C0.108765 -0.000183105 0 0.10511 0 0.235026V4.46685C0 4.63629 0.141896 4.77334 0.316589 4.77334H4.9309C6.74844 4.77334 8.13059 5.15304 9.07701 5.91245C10.0234 6.67186 10.4966 7.76302 10.4966 9.18529C10.4966 10.5836 10.0234 11.6686 9.07701 12.4397C8.13059 13.2114 6.74844 13.5969 4.9309 13.5969H0.213848C0.12349 13.5969 0.0706135 13.6948 0.122151 13.7667L3.31348 18.2153C3.33423 18.2441 3.3687 18.2616 3.40518 18.2616H5.26723H5.56575L10.5381 25.2148C10.5823 25.2764 10.6549 25.3133 10.7326 25.3133H16.6551C16.8462 25.3133 16.9583 25.1053 16.8492 24.9534L11.2436 17.1769Z" clip-rule="evenodd"/></g><mask id="mask1" width="20" height="22" x="99" y="5" mask-type="alpha" maskUnits="userSpaceOnUse"><path fill="#fff" d="M99.8599 5.901H118.451V26.1264H99.8599V5.901Z"/></mask><g mask="url(#mask1)"><path fill="#227F00" fill-rule="evenodd" d="M112.776 19.6279C112.46 20.504 111.927 21.1674 111.175 21.6175C110.423 22.0683 109.562 22.293 108.592 22.293C107.597 22.293 106.815 22.08 106.245 21.654C105.675 21.2286 105.39 20.6502 105.39 19.9197C105.39 18.3867 106.554 17.62 108.883 17.62H112.776V19.6279ZM116.014 8.07303C114.388 6.62566 112.06 5.901 109.028 5.901C107.451 5.901 105.918 6.10814 104.426 6.52177C103.062 6.90022 101.875 7.42132 100.867 8.0841C100.705 8.18995 100.654 8.40393 100.742 8.57557L102.422 11.8563C102.525 12.0575 102.782 12.1279 102.967 11.9989C103.6 11.5573 104.341 11.1977 105.19 10.9209C106.196 10.5922 107.221 10.4278 108.264 10.4278C109.768 10.4278 110.896 10.7629 111.648 11.4319C112.399 12.1015 112.776 13.0564 112.776 14.2976H108.264C105.402 14.2976 103.286 14.8213 101.915 15.8678C100.545 16.9142 99.8599 18.3502 99.8599 20.1754C99.8599 21.3198 100.151 22.3419 100.733 23.2421C101.315 24.1429 102.158 24.8484 103.262 25.3597C104.365 25.8707 105.669 26.1264 107.173 26.1264C110.083 26.1264 112.072 25.2135 113.14 23.388V25.6095C113.14 25.7336 113.24 25.8342 113.363 25.8342H118.228C118.351 25.8342 118.451 25.7336 118.451 25.6095V14.6262C118.451 11.7058 117.638 9.5217 116.014 8.07303Z" clip-rule="evenodd"/></g></svg>