<svg width="45" height="45" viewBox="0 0 45 45" fill="none" xmlns="http://www.w3.org/2000/svg">
<path d="M20.3235 22.5H13.0654V37.0161H20.3235V22.5Z" fill="#F5FBF8"/>
<path d="M42.0996 10.8872H32.6641V19.5969H42.0996V10.8872Z" fill="#F5FBF8"/>
<path d="M42.0996 18.8708H32.6641V20.3224H42.0996V18.8708Z" fill="#343434"/>
<path d="M42.0981 15.9679H40.6465V17.4195H42.0981V15.9679Z" fill="#343434"/>
<path d="M39.1963 15.9679H32.6641V17.4195H39.1963V15.9679Z" fill="#343434"/>
<path d="M42.0996 13.0645H32.6641V14.5161H42.0996V13.0645Z" fill="#343434"/>
<path d="M42.0996 10.1616H32.6641V11.6132H42.0996V10.1616Z" fill="#343434"/>
<path d="M29.7581 7.25806V8.70968H43.5484V43.5484H4.35484C2.75371 43.5484 1.45161 42.2463 1.45161 40.6452C1.45161 39.044 2.75371 37.7419 4.35484 37.7419H10.1613V8.70968H12.3387V7.25806H10.1613V0H4.35484C1.95315 0 0 1.95315 0 4.35484V40.6452C0 43.0469 1.95315 45 4.35484 45H45V7.25806H29.7581ZM1.45161 4.35484C1.45161 2.75371 2.75371 1.45161 4.35484 1.45161H8.70968V36.2903H4.35484C3.24073 36.2903 2.22242 36.7113 1.45161 37.4023V4.35484Z" fill="#343434"/>
<path d="M20.3235 36.29H13.0654V37.7416H20.3235V36.29Z" fill="#343434"/>
<path d="M20.3222 33.3872H17.4189V34.8388H20.3222V33.3872Z" fill="#343434"/>
<path d="M15.9687 33.3872H13.0654V34.8388H15.9687V33.3872Z" fill="#343434"/>
<path d="M20.3235 30.4837H13.0654V31.9353H20.3235V30.4837Z" fill="#343434"/>
<path d="M20.3235 21.7741H13.0654V23.2258H20.3235V21.7741Z" fill="#343434"/>
<path d="M20.3235 27.5809H13.0654V29.0325H20.3235V27.5809Z" fill="#343434"/>
<path d="M21.7734 31.9355V37.742H24.6767V42.0968H39.1928V37.742H42.096V31.9355H39.1928V30.4839H32.6605V27.4472C33.5032 27.1467 34.1121 26.3483 34.1121 25.4033C34.1121 24.2028 33.1352 23.2259 31.9347 23.2259C30.7342 23.2259 29.7573 24.2028 29.7573 25.4033C29.7573 26.3483 30.3663 27.1467 31.2089 27.4472V30.4839H24.6767V31.9355H21.7734ZM31.9347 24.6775C32.3346 24.6775 32.6605 25.0034 32.6605 25.4033C32.6605 25.8032 32.3346 26.1291 31.9347 26.1291C31.5348 26.1291 31.2089 25.8032 31.2089 25.4033C31.2089 25.0034 31.5348 24.6775 31.9347 24.6775ZM23.2251 36.2904V33.3872H24.6767V36.2904H23.2251ZM34.838 40.6452H29.0315V37.742H34.838V40.6452ZM40.6444 33.3872V36.2904H39.1928V33.3872H40.6444ZM26.1283 31.9355H37.7412V40.6452H36.2896V36.2904H27.5799V40.6452H26.1283V31.9355Z" fill="#343434"/>
<path d="M29.0327 33.3872H27.5811V34.8388H29.0327V33.3872Z" fill="#343434"/>
<path d="M36.2876 33.3872H34.8359V34.8388H36.2876V33.3872Z" fill="#343434"/>
<path d="M14.517 24.677H13.0654V26.1286H14.517V24.677Z" fill="#343434"/>
<path d="M17.4204 24.677H15.9688V26.1286H17.4204V24.677Z" fill="#343434"/>
<path d="M20.3247 24.677H18.873V26.1286H20.3247V24.677Z" fill="#343434"/>
<path d="M21.4802 19.2593C16.1706 19.2593 11.8506 14.9393 11.8506 9.62964C11.8506 4.32 16.1706 0 21.4802 0C26.7899 0 31.1099 4.32 31.1099 9.62964C31.1099 14.9393 26.7899 19.2593 21.4802 19.2593Z" fill="#F5FBF8"/>
<path fill-rule="evenodd" clip-rule="evenodd" d="M25.9561 10.0988H24.6395V8.835H25.9561C26.1539 8.835 26.3143 8.675 26.3143 8.47737C26.3143 8.27973 26.1539 8.11963 25.9561 8.11963H24.6395V6.36607C24.6395 6.11009 24.5888 5.92221 24.489 5.80776C24.3941 5.69889 24.2693 5.64822 24.0965 5.64822C23.9317 5.64822 23.8116 5.69854 23.7186 5.80674C23.6199 5.9213 23.5698 6.10953 23.5698 6.36618V8.11984H21.0931L20.04 6.52836C19.9499 6.38633 19.8652 6.25329 19.7829 6.12558C19.7088 6.01057 19.6365 5.91693 19.5683 5.84701C19.5079 5.78511 19.439 5.7372 19.3584 5.70038C19.2825 5.66573 19.1858 5.64834 19.0715 5.64834C18.9257 5.64834 18.7934 5.68823 18.6667 5.77018C18.5413 5.85124 18.4546 5.95146 18.4016 6.07659C18.3552 6.1955 18.3306 6.37771 18.3306 6.61292V8.11972H17.027C16.8292 8.11974 16.6689 8.27985 16.6689 8.47747C16.6689 8.6751 16.8292 8.8351 17.027 8.8351H18.3306V10.099H17.027C16.8292 10.099 16.6689 10.2591 16.6689 10.4568C16.6689 10.6543 16.8292 10.8143 17.027 10.8143H18.3306V12.8164C18.3306 13.0648 18.3829 13.2508 18.4864 13.369C18.5848 13.4816 18.7097 13.5339 18.8792 13.5339C19.0427 13.5339 19.1665 13.4814 19.2692 13.3685C19.3744 13.2529 19.4276 13.067 19.4276 12.8164V10.8143H21.6687L22.8815 12.6716C22.9659 12.7944 23.0529 12.9183 23.1398 13.0398C23.2181 13.1489 23.3036 13.2451 23.3938 13.3254C23.475 13.398 23.5621 13.4512 23.6526 13.4837C23.7458 13.5172 23.8547 13.5342 23.9755 13.5342C24.3035 13.5342 24.6394 13.4339 24.6394 12.6902V10.8143H25.9561C26.1539 10.8143 26.3143 10.6541 26.3143 10.4565C26.3143 10.259 26.1539 10.0988 25.9561 10.0988ZM23.5718 8.83516V10.0989H22.4048L21.5686 8.83516H23.5718ZM19.9076 8.11986L19.4263 7.38309V8.11986H19.9076ZM19.4263 10.0989V8.83516H20.3748L21.2002 10.0989H19.4263ZM22.875 10.8148L23.5686 11.8633V10.8148H22.875Z" fill="black"/>
</svg>
