<svg width="174" height="126" viewBox="0 0 174 126" fill="none" xmlns="http://www.w3.org/2000/svg">
<path d="M47.5995 25.7822C46.8431 28.5537 46.9254 31.4872 47.8361 34.2119C48.7468 36.9366 50.445 39.3301 52.716 41.0897C54.9869 42.8493 57.7286 43.896 60.5944 44.0975C63.4602 44.2989 66.3214 43.6461 68.8162 42.2215C71.311 40.797 73.3273 38.6646 74.6103 36.0941C75.8932 33.5236 76.3852 30.6304 76.0239 27.7804C75.6626 24.9303 74.4644 22.2514 72.5806 20.0823C70.6969 17.9132 68.2123 16.3514 65.4409 15.5944C61.724 14.5801 57.7565 15.0836 54.4107 16.994C51.065 18.9045 48.615 22.0656 47.5995 25.7822ZM69.7051 31.8191C69.268 33.4195 68.3661 34.8543 67.1136 35.942C65.861 37.0298 64.3141 37.7218 62.6683 37.9303C61.0225 38.1389 59.3518 37.8547 57.8675 37.1138C56.3832 36.3729 55.152 35.2084 54.3295 33.7677C53.507 32.327 53.1302 30.6747 53.2468 29.0199C53.3634 27.365 53.968 25.7819 54.9843 24.4707C56.0007 23.1595 57.383 22.1791 58.9565 21.6536C60.53 21.128 62.224 21.0808 63.8243 21.5181C64.8875 21.8075 65.8832 22.3036 66.7546 22.978C67.626 23.6524 68.356 24.4919 68.9029 25.4485C69.4497 26.4052 69.8027 27.4602 69.9417 28.5532C70.0807 29.6463 70.0029 30.7561 69.7129 31.8191H69.7051Z" fill="#FF7700"/>
<path d="M47.9951 24.6428L53.6962 26.9584C54.3734 24.9264 55.8027 23.2307 57.6906 22.2192C59.5786 21.2077 61.7821 20.9571 63.8489 21.5189C64.5904 21.7215 65.3001 22.0264 65.9576 22.4248L68.1521 16.6183C66.3199 15.7013 64.3146 15.1822 62.2676 15.095C60.2206 15.0077 58.1784 15.3544 56.2749 16.1122C54.3713 16.87 52.6496 18.0218 51.2226 19.492C49.7957 20.9622 48.6958 22.7175 47.9951 24.6428Z" fill="#292E4A"/>
<path d="M68.0452 16.5657L65.9561 22.423C67.5158 23.3644 68.7263 24.7885 69.4042 26.4796C70.082 28.1707 70.1903 30.0366 69.7125 31.7947C69.6579 32.0017 69.5837 32.1852 69.5134 32.4L75.1208 34.9537C75.3207 34.4428 75.4928 33.9214 75.6362 33.3918C76.5163 30.142 76.2405 26.6874 74.856 23.6184C73.4714 20.5494 71.064 18.0565 68.0452 16.5657Z" fill="#A83E63"/>
<path d="M59.4145 37.6999L59.3286 37.6726L57.9541 43.6626C59.8585 44.1627 61.8449 44.2693 63.7919 43.9759C65.739 43.6825 67.6057 42.9953 69.2782 41.9562L65.8654 36.8447C64.9016 37.4106 63.8344 37.7778 62.7264 37.9247C61.6185 38.0716 60.4924 37.9951 59.4145 37.6999Z" fill="#FFD817"/>
<path d="M133.902 46.8413V40.5466L129.954 40.6638C129.693 39.7327 129.314 38.839 128.825 38.0045L131.695 35.2945L127.263 30.8469L124.553 33.7209C123.718 33.2409 122.824 32.8695 121.894 32.6158L122.011 28.6719H115.717L115.83 32.6158C114.9 32.8695 114.006 33.2409 113.171 33.7209L110.472 30.8469L106.013 35.3102L108.887 38.0202C108.407 38.8559 108.036 39.7496 107.782 40.6794L103.838 40.5622V46.8569L107.782 46.7397C108.036 47.6696 108.407 48.5632 108.887 49.399L106.013 52.1011L110.472 56.541L113.182 53.6709C114.019 54.1482 114.912 54.5181 115.841 54.7721L115.717 58.7394H122.007L121.89 54.7916C122.819 54.5377 123.713 54.1677 124.549 53.6904L127.259 56.5605L131.707 52.1011L128.825 49.3677C129.304 48.5319 129.674 47.6382 129.926 46.7085L133.902 46.8413ZM118.876 47.5988C118.103 47.5988 117.348 47.3698 116.706 46.9407C116.064 46.5117 115.563 45.9018 115.268 45.1883C114.972 44.4747 114.895 43.6896 115.046 42.9321C115.196 42.1747 115.568 41.4789 116.114 40.9328C116.661 40.3867 117.356 40.0148 118.114 39.8641C118.871 39.7134 119.656 39.7908 120.37 40.0863C121.083 40.3819 121.693 40.8823 122.122 41.5245C122.551 42.1667 122.78 42.9216 122.78 43.6939C122.78 44.2081 122.679 44.7171 122.482 45.1919C122.285 45.6667 121.995 46.0978 121.631 46.4606C121.267 46.8235 120.835 47.1108 120.359 47.3061C119.884 47.5014 119.374 47.6009 118.86 47.5988H118.876Z" fill="#FFD817"/>
<path d="M127.214 43.6941C127.214 45.1766 126.819 46.6323 126.07 47.9117C125.321 49.1912 124.246 50.2484 122.953 50.9746C121.661 51.7009 120.199 52.0701 118.716 52.0444C117.234 52.0187 115.785 51.5989 114.519 50.8282C113.253 50.0575 112.214 48.9636 111.51 47.6589C110.806 46.3542 110.463 44.8857 110.514 43.4041C110.565 41.9226 111.01 40.4813 111.802 39.2284C112.595 37.9755 113.706 36.9561 115.023 36.2748C115.359 36.1029 115.706 35.9529 116.062 35.8258C116.517 35.6623 116.986 35.5407 117.463 35.4626C117.925 35.3839 118.393 35.3447 118.861 35.3455C121.076 35.3455 123.2 36.2249 124.766 37.7905C126.332 39.3561 127.213 41.4796 127.214 43.6941V43.6941Z" stroke="white" stroke-width="0.99" stroke-miterlimit="10"/>
<path d="M106.605 33.3294V29.4948L104.203 29.569C104.048 29.0022 103.821 28.4576 103.528 27.9484L105.281 26.2967L102.571 23.5945L100.919 25.3439C100.41 25.0518 99.8655 24.8261 99.2989 24.6723L99.3692 22.2708H95.5385L95.6088 24.6723C95.0422 24.8261 94.4976 25.0518 93.9882 25.3439L92.3404 23.5945L89.6304 26.3045L91.3798 27.9563C91.0877 28.4656 90.862 29.0102 90.7081 29.5768L88.3027 29.5026V33.3372L90.7081 33.2669C90.8627 33.8333 91.0884 34.3778 91.3798 34.8874L89.6304 36.5353L92.3404 39.2453L93.9882 37.4959C94.4976 37.7879 95.0422 38.0137 95.6088 38.1675L95.5385 40.569H99.3692L99.2989 38.1675C99.8655 38.0137 100.41 37.7879 100.919 37.4959L102.571 39.2453L105.281 36.5353L103.528 34.8874C103.82 34.3779 104.047 33.8334 104.203 33.2669L106.605 33.3294ZM97.4558 33.7901C96.9853 33.7909 96.5251 33.6521 96.1335 33.3913C95.7419 33.1304 95.4365 32.7593 95.2559 32.3248C95.0753 31.8904 95.0277 31.4121 95.119 30.9505C95.2103 30.489 95.4365 30.0649 95.7689 29.7319C96.1014 29.3989 96.5251 29.1721 96.9865 29.08C97.4479 28.9879 97.9263 29.0348 98.361 29.2147C98.7958 29.3945 99.1674 29.6993 99.4289 30.0905C99.6904 30.4816 99.8299 30.9416 99.8299 31.4121C99.8299 32.0421 99.5799 32.6464 99.1348 33.0922C98.6897 33.5381 98.0858 33.7891 97.4558 33.7901Z" fill="#FFD817"/>
<path d="M102.537 31.4047C102.535 32.3338 102.278 33.2445 101.793 34.0374C101.309 34.8303 100.617 35.4751 99.7912 35.9016C98.9657 36.3281 98.0391 36.5198 97.1122 36.4559C96.1853 36.3921 95.2937 36.075 94.5345 35.5394C93.7754 35.0038 93.1778 34.27 92.8069 33.4182C92.4359 32.5663 92.3059 31.629 92.431 30.7084C92.556 29.7877 92.9313 28.9191 93.516 28.197C94.1007 27.475 94.8723 26.9272 95.7469 26.6135C96.2943 26.4175 96.8718 26.3184 97.4533 26.3206C98.1212 26.3196 98.7828 26.4504 99.4001 26.7055C100.017 26.9606 100.578 27.3351 101.051 27.8074C101.523 28.2797 101.897 28.8406 102.153 29.4579C102.408 30.0752 102.538 30.7368 102.537 31.4047V31.4047Z" stroke="white" stroke-width="0.99" stroke-miterlimit="10"/>
<path d="M44.779 18.0039H10.6387V101.873H44.779V18.0039Z" fill="#A6B1ED"/>
<path d="M16.9854 38.1088V100.157" stroke="white" stroke-width="0.99" stroke-miterlimit="10"/>
<path d="M16.9854 23.5286V35.0089" stroke="white" stroke-width="0.99" stroke-miterlimit="10"/>
<path d="M16.9854 18.9377V20.9644" stroke="white" stroke-width="0.99" stroke-miterlimit="10"/>
<path d="M25.5237 21.7585H20.6309V23.9609H25.5237V21.7585Z" fill="white"/>
<path d="M33.3264 21.7585H28.4336V23.9609H33.3264V21.7585Z" fill="white"/>
<path d="M41.135 21.7585H36.2422V23.9609H41.135V21.7585Z" fill="white"/>
<path d="M25.5237 27.4049H20.6309V29.6073H25.5237V27.4049Z" fill="white"/>
<path d="M33.3264 27.4049H28.4336V29.6073H33.3264V27.4049Z" fill="white"/>
<path d="M41.135 27.4049H36.2422V29.6073H41.135V27.4049Z" fill="white"/>
<path d="M25.5237 33.052H20.6309V35.2544H25.5237V33.052Z" fill="white"/>
<path d="M33.3264 33.052H28.4336V35.2544H33.3264V33.052Z" fill="white"/>
<path d="M41.135 33.052H36.2422V35.2544H41.135V33.052Z" fill="white"/>
<path d="M11.9531 101.389H152.439C152.439 101.389 152.439 84.9691 137.702 79.0845C128.693 75.492 125.148 73.1373 121.301 68.182C117.455 63.2267 117.26 60.7628 111.09 57.2757C104.92 53.7887 98.3213 57.3538 93.8541 44.6747C89.3869 31.9955 69.8117 30.2618 63.4272 43.1518C57.0428 56.0418 55.3441 74.9726 44.2933 77.0305C33.2425 79.0884 24.7182 80.1544 23.2304 87.808C21.7427 95.4615 12.3788 94.2042 11.9531 101.389Z" fill="#5E732F"/>
<path d="M118.541 105.469H154.907L168.742 44.4316C168.927 43.6159 168.927 42.769 168.74 41.9537C168.553 41.1384 168.185 40.3756 167.664 39.7218C167.142 39.0681 166.48 38.5402 165.726 38.1773C164.972 37.8143 164.147 37.6257 163.31 37.6254H138.37C137.106 37.6261 135.881 38.0562 134.894 38.8452C133.907 39.6342 133.217 40.7352 132.938 41.9676L118.541 105.469Z" fill="#292E4A"/>
<path d="M139.81 105.469H92.4941" stroke="#292E4A" stroke-width="1.02" stroke-miterlimit="10"/>
<path d="M62.9303 105.469H26.5641L12.7292 44.4316C12.5439 43.6159 12.5447 42.769 12.7314 41.9537C12.9181 41.1384 13.286 40.3756 13.8077 39.7218C14.3295 39.0681 14.9917 38.5402 15.7452 38.1773C16.4988 37.8143 17.3244 37.6257 18.1608 37.6254H43.1013C44.3649 37.6261 45.5907 38.0562 46.5776 38.8452C47.5646 39.6342 48.2541 40.7352 48.533 41.9676L62.9303 105.469Z" fill="#292E4A"/>
<path d="M69.1318 105.469H21.8164" stroke="#292E4A" stroke-width="1.02" stroke-miterlimit="10"/>
<path d="M114.23 25.654H167.142C167.142 25.654 159.215 24.135 156.302 19.7146C154.626 17.1726 152.572 14.9038 150.124 14.9038C147.676 14.9038 143.947 15.6106 142.666 13.2052C141.385 10.7998 137.886 6.84026 133.685 8.67946C129.483 10.5187 127.741 18.4417 124.243 19.4296C120.744 20.4175 116.562 20.562 114.23 25.654Z" fill="#A6B1ED"/>
<path d="M34.7334 10.7324H68.6473C68.6473 10.7324 66.4371 8.77999 64.2309 8.45979C62.0246 8.13959 61.3725 5.38275 59.8769 4.71111C58.3813 4.03947 56.2376 3.84422 55.2653 2.28618C54.2929 0.728132 49.9078 -1.25555 46.2333 1.05224C43.4374 2.80553 42.2698 6.44487 40.579 6.51906C38.8882 6.59326 35.1239 8.32702 34.7334 10.7324Z" fill="#A6B1ED"/>
<path d="M111.728 87.2054H81.625V124.72H111.728V87.2054Z" fill="#FFD817"/>
<path d="M86.0596 92.0564H94.9393" stroke="white" stroke-width="1.06" stroke-miterlimit="10"/>
<path d="M86.0596 97.6001H107.283" stroke="white" stroke-width="1.06" stroke-miterlimit="10"/>
<path d="M86.0596 103.145H107.283" stroke="white" stroke-width="1.06" stroke-miterlimit="10"/>
<path d="M86.0596 108.687H107.283" stroke="white" stroke-width="1.06" stroke-miterlimit="10"/>
<path d="M86.0596 114.231H107.283" stroke="white" stroke-width="1.06" stroke-miterlimit="10"/>
<path d="M86.0596 119.776H107.283" stroke="white" stroke-width="1.06" stroke-miterlimit="10"/>
<path d="M76.4434 124.716H114.461" stroke="#292E4A" stroke-width="1.18" stroke-miterlimit="10"/>
<path d="M83.5956 108.16C89.8433 108.16 94.9081 103.095 94.9081 96.8471C94.9081 90.5994 89.8433 85.5347 83.5956 85.5347C77.348 85.5347 72.2832 90.5994 72.2832 96.8471C72.2832 103.095 77.348 108.16 83.5956 108.16Z" fill="#292E4A"/>
<path d="M83.5985 105.702C88.4896 105.702 92.4547 101.737 92.4547 96.8456C92.4547 91.9545 88.4896 87.9894 83.5985 87.9894C78.7073 87.9894 74.7422 91.9545 74.7422 96.8456C74.7422 101.737 78.7073 105.702 83.5985 105.702Z" fill="white"/>
<path d="M88.3213 91.0405C88.5205 91.2019 88.7108 91.374 88.8914 91.556" stroke="#292E4A" stroke-width="1.56" stroke-miterlimit="10"/>
<path d="M85.5137 89.6112C86.2542 89.8083 86.96 90.1178 87.6067 90.5289" stroke="#292E4A" stroke-width="1.56" stroke-miterlimit="10"/>
<path d="M76.9844 93.3359C77.6827 92.0254 78.7541 90.9516 80.063 90.2502C81.3719 89.5489 82.8594 89.2516 84.3373 89.3959" stroke="#292E4A" stroke-width="1.56" stroke-miterlimit="10"/>
<path d="M77.5846 105.766L74.6826 102.864L70.0797 107.466L72.9817 110.368L77.5846 105.766Z" fill="#292E4A"/>
<path d="M60.5071 124.715L55.7197 119.932L70.7652 105.98L74.4592 109.67L60.5071 124.715Z" fill="#6470B5"/>
<path d="M5.76273 108.662H42.1367C42.1367 108.662 42.7419 102.586 40.11 100.965C37.4782 99.3448 34.8424 100.762 33.9325 94.0772C33.0227 87.392 35.5531 68.3557 25.0216 67.852C14.4901 67.3483 22.6787 81.2184 22.5889 86.8883C22.499 92.5582 20.2459 97.4314 17.6297 93.3704C15.0134 89.3093 13.057 72.9127 9.00378 72.7956C4.95051 72.6784 7.18411 82.6202 6.27036 85.6582C5.35662 88.6962 0.803532 86.9742 1.00659 93.6593C1.20964 100.344 5.04033 104.511 5.76273 108.662Z" fill="#8EAD46"/>
<path d="M24.0879 67.8378C27.9021 81.1362 30.1226 94.8408 30.7028 108.663" stroke="#525730" stroke-width="0.89" stroke-miterlimit="10"/>
<path d="M9.00098 72.7968C9.00098 72.7968 10.3833 94.2736 15.4128 108.647" stroke="#525730" stroke-width="0.89" stroke-miterlimit="10"/>
<path d="M12.5646 77.571L10.2646 84.8497" stroke="#525730" stroke-width="0.89" stroke-miterlimit="10"/>
<path d="M6.43262 84.8519C8.2423 86.9753 9.86865 89.2482 11.2942 91.6464" stroke="#525730" stroke-width="0.89" stroke-miterlimit="10"/>
<path d="M16.4392 90.7588C16.4392 90.7588 14.0221 98.1 12.9014 99.8103" stroke="#525730" stroke-width="0.89" stroke-miterlimit="10"/>
<path d="M1.00293 93.6755C1.00293 93.6755 7.91457 100.821 14.2795 105.125" stroke="#525730" stroke-width="0.89" stroke-miterlimit="10"/>
<path d="M20.2861 69.672C21.9413 71.511 23.8182 73.1374 25.874 74.514" stroke="#525730" stroke-width="0.89" stroke-miterlimit="10"/>
<path d="M30.7078 71.2112C30.7078 71.2112 29.2239 76.924 27.2324 80.5829" stroke="#525730" stroke-width="0.89" stroke-miterlimit="10"/>
<path d="M21.5811 81.2112C21.5811 81.2112 26.3138 88.4157 29.3127 92.8751" stroke="#525730" stroke-width="0.89" stroke-miterlimit="10"/>
<path d="M33.6532 88.5494C33.6532 88.5494 32.4622 98.8622 30.4395 103.595" stroke="#525730" stroke-width="0.89" stroke-miterlimit="10"/>
<path d="M54.6491 108.605H3.82324" stroke="#292E4A" stroke-width="1.02" stroke-miterlimit="10"/>
<path d="M136.382 108.694H170.995C170.995 108.694 173.338 103.645 170.995 102.961C168.652 102.278 166.25 102.864 167.433 99.8961C168.617 96.9284 168.523 93.2579 166.149 92.0864C163.775 90.9149 161.01 91.8872 163.384 84.7726C165.758 77.6579 167.652 72.5151 163.482 72.5151C154.379 72.5151 151.244 87.2639 147.964 89.517C145.699 91.0789 142.524 91.0985 140.845 94.7534C139.166 98.4084 136.382 108.694 136.382 108.694Z" fill="#8EAD46"/>
<path d="M163.468 72.5183C163.468 72.5183 153.393 93.3118 150.34 108.693" stroke="#525730" stroke-width="0.88" stroke-miterlimit="10"/>
<path d="M158.149 74.46L158.895 82.793" stroke="#525730" stroke-width="0.88" stroke-miterlimit="10"/>
<path d="M164.026 82.7925C164.026 82.7925 159.458 87.7009 155.869 90.3836" stroke="#525730" stroke-width="0.88" stroke-miterlimit="10"/>
<path d="M150.829 85.2531C150.829 85.2531 151.282 92.1178 153.106 98.3227" stroke="#525730" stroke-width="0.88" stroke-miterlimit="10"/>
<path d="M166.144 92.0903C166.144 92.0903 157.846 101.329 151.185 105.012" stroke="#525730" stroke-width="0.88" stroke-miterlimit="10"/>
<path d="M173.867 108.605H127.578" stroke="#292E4A" stroke-width="1.02" stroke-miterlimit="10"/>
<path d="M93.2995 78.8837L111.313 69.0591H127.342L131.438 53.0569H106.068L86.9267 49.5151L75.5986 64.1975L93.2995 78.8837Z" fill="#CC9B74"/>
<path d="M158.599 52.7333L139.684 78.5016" stroke="#DC5181" stroke-width="1.26" stroke-miterlimit="10"/>
<path d="M56.7343 53.0576H64.2121L73.8884 49.512H86.919L84.045 54.1978L103.69 60.5198C103.69 60.5198 116.432 66.7481 116.147 67.9C115.862 69.052 115.756 70.2937 113.175 70.1024C110.594 69.9111 101.39 64.8347 100.527 65.4165C99.6645 65.9984 109.438 70.7818 110.778 71.3559C112.117 71.9299 109.247 74.5188 105.986 73.3708C102.726 72.2227 97.0756 69.4425 96.3102 70.0165C95.5448 70.5905 103.69 74.0385 105.221 74.5188C106.752 74.9991 103.21 77.8731 99.8558 76.9164C96.5015 75.9597 92.9559 74.4251 92.2843 74.9015C91.6126 75.3779 97.7511 77.838 98.6102 78.0449C99.4693 78.2519 97.0756 81.7116 93.6276 80.2707C90.1795 78.8298 67.1798 71.3559 67.1798 71.3559H53.6689L56.7343 53.0576Z" fill="#F9CCA9"/>
<path d="M69.4092 71.6588C69.4092 71.6588 75.0752 66.192 76.1764 65.2275C77.2775 64.263 81.3035 66.8558 79.3003 68.8512C77.2971 70.8466 73.9857 73.5761 73.9857 73.5761L75.122 73.9666C75.122 73.9666 72.7791 75.6418 70.1394 74.7281C67.4997 73.8143 68.5267 72.5062 69.4092 71.6588Z" fill="#CC9B74"/>
<path d="M81.7378 75.7998C81.7378 75.7998 86.4939 71.1959 87.4311 70.4032C88.3682 69.6106 91.7264 71.77 90.0434 73.4452C88.3604 75.1203 85.5919 77.4203 85.5919 77.4203L86.5486 77.7366C86.5486 77.7366 84.5961 79.1424 82.3664 78.377C80.1368 77.6117 80.9997 76.5105 81.7378 75.7998Z" fill="#CC9B74"/>
<path d="M86.8524 77.8178C86.8524 77.8178 90.4878 74.3034 91.3469 73.5615C92.206 72.8196 95.3494 74.8345 93.7796 76.3926C92.7147 77.4293 91.595 78.4082 90.4254 79.3251L91.3118 79.618C91.3118 79.618 89.4804 80.9261 87.4069 80.2154C85.3334 79.5047 86.1651 78.4817 86.8524 77.8178Z" fill="#CC9B74"/>
<path d="M75.5733 73.6997C75.5733 73.6997 82.2976 67.1746 83.3831 66.2296C84.4687 65.2847 88.069 68.307 86.0384 70.3024C84.0079 72.2978 80.1342 75.6365 80.1342 75.6365L81.2706 76.027C81.2706 76.027 78.9276 77.7022 76.2879 76.808C73.6482 75.9137 74.6948 74.5509 75.5733 73.6997Z" fill="#CC9B74"/>
<path d="M106.057 53.0584L91.1365 48.025C90.1896 47.7071 89.1822 47.6122 88.1926 47.7477C87.203 47.8831 86.2581 48.2453 85.4315 48.806L75.556 55.5224C75.4241 55.612 75.3198 55.7365 75.2546 55.8821C75.1895 56.0276 75.1661 56.1885 75.1872 56.3465C75.2083 56.5046 75.273 56.6537 75.374 56.7771C75.475 56.9005 75.6083 56.9934 75.7591 57.0453L76.8212 57.4123C77.5154 57.6519 78.2643 57.6844 78.9767 57.506L87.5675 55.3506L106.057 53.0584Z" fill="#CC9B74"/>
<path d="M37.4941 51.7677H58.4516L62.7236 73.1235L46.7292 75.8647L37.4941 51.7677Z" fill="#292E4A"/>
<path d="M23.2021 50.5649H54.4451L59.4277 75.482L43.4841 78.2115L23.2021 50.5649Z" fill="#6470B5"/>
<path d="M41.7881 78.6026L22.4395 52.0338" stroke="#6470B5" stroke-width="1.26" stroke-miterlimit="10"/>
<path d="M27.1084 81.1069L59.4291 75.4839" stroke="#6470B5" stroke-width="1.26" stroke-miterlimit="10"/>
<path d="M56.312 59.938H41.1025" stroke="#292E4A" stroke-width="1.26" stroke-miterlimit="10"/>
<path d="M46.2399 58.3252C46.8329 58.3252 47.3137 57.8444 47.3137 57.2513C47.3137 56.6583 46.8329 56.1775 46.2399 56.1775C45.6468 56.1775 45.166 56.6583 45.166 57.2513C45.166 57.8444 45.6468 58.3252 46.2399 58.3252Z" fill="white"/>
<path d="M50.6246 58.3252C51.2177 58.3252 51.6985 57.8444 51.6985 57.2513C51.6985 56.6583 51.2177 56.1775 50.6246 56.1775C50.0316 56.1775 49.5508 56.6583 49.5508 57.2513C49.5508 57.8444 50.0316 58.3252 50.6246 58.3252Z" fill="white"/>
<path d="M143.828 51.7677H122.871L118.599 73.1235L134.589 75.8647L143.828 51.7677Z" fill="#A83E63"/>
<path d="M157.796 50.5649H126.553L121.57 75.482L137.51 78.2115L157.796 50.5649Z" fill="#DC5181"/>
<path d="M154.207 81.1069L121.887 75.4839" stroke="#DC5181" stroke-width="1.26" stroke-miterlimit="10"/>
<path d="M124.546 59.938H140.689" stroke="#A83E63" stroke-width="1.26" stroke-miterlimit="10"/>
<path d="M130.093 57.2508C130.094 57.4634 130.031 57.6714 129.914 57.8485C129.796 58.0256 129.629 58.1639 129.433 58.2457C129.237 58.3276 129.021 58.3494 128.812 58.3084C128.603 58.2674 128.412 58.1655 128.261 58.0155C128.111 57.8654 128.008 57.6741 127.966 57.4657C127.924 57.2573 127.946 57.0412 128.027 56.8447C128.108 56.6483 128.245 56.4803 128.422 56.3622C128.599 56.244 128.807 56.1809 129.019 56.1809C129.303 56.1809 129.576 56.2935 129.777 56.4941C129.978 56.6946 130.092 56.9667 130.093 57.2508Z" fill="white"/>
<path d="M133.393 58.3252C133.986 58.3252 134.467 57.8444 134.467 57.2513C134.467 56.6583 133.986 56.1775 133.393 56.1775C132.8 56.1775 132.319 56.6583 132.319 57.2513C132.319 57.8444 132.8 58.3252 133.393 58.3252Z" fill="white"/>
<path d="M126.547 50.5649H162.956" stroke="white" stroke-width="1.26" stroke-miterlimit="10"/>
<path d="M54.436 50.5649H19.4404" stroke="white" stroke-width="1.26" stroke-miterlimit="10"/>
<path d="M12.7989 125.36C15.7944 125.36 18.2228 124.823 18.2228 124.161C18.2228 123.499 15.7944 122.962 12.7989 122.962C9.80335 122.962 7.375 123.499 7.375 124.161C7.375 124.823 9.80335 125.36 12.7989 125.36Z" fill="#C3C4C9"/>
<path d="M30.2452 125.36C33.2407 125.36 35.669 124.823 35.669 124.161C35.669 123.499 33.2407 122.962 30.2452 122.962C27.2496 122.962 24.8213 123.499 24.8213 124.161C24.8213 124.823 27.2496 125.36 30.2452 125.36Z" fill="#C3C4C9"/>
<path d="M27.1084 120.436C27.3443 121.541 27.3708 122.68 27.1865 123.794C27.1779 123.842 27.18 123.891 27.1925 123.938C27.205 123.985 27.2278 124.029 27.2591 124.066C27.2903 124.104 27.3295 124.134 27.3736 124.154C27.4177 124.175 27.4658 124.185 27.5145 124.185H33.3953C32.3136 123.63 31.27 123.004 30.2714 122.31C29.667 121.849 29.2518 121.182 29.1038 120.436H27.1084Z" fill="#6470B5"/>
<path d="M10.7602 120.436C10.276 121.461 9.87767 122.524 9.56926 123.615C9.55127 123.681 9.54885 123.751 9.5622 123.819C9.57554 123.886 9.60428 123.95 9.6462 124.005C9.68811 124.06 9.74207 124.104 9.8039 124.134C9.86572 124.165 9.93375 124.181 10.0027 124.181H16.0514C15.1206 123.843 14.2373 123.386 13.4234 122.822C12.4237 122.041 12.7595 120.436 12.7595 120.436H10.7602Z" fill="#6470B5"/>
<path d="M17.6916 90.2115H25.6927L29.6835 120.951H26.9931C26.9931 120.951 23.549 109.771 23.6895 107.51L21.9011 97.748C21.9011 97.748 19.0388 111.845 13.119 120.951H9.99512C9.99512 120.951 11.8577 117.436 12.338 114.828C12.8183 112.219 15.9305 106.311 15.9305 106.311C15.9305 106.311 16.6139 91.9297 17.6916 90.2115Z" fill="#3F4152"/>
<path d="M32.5293 77.1316C33.0046 76.6666 33.4335 76.1566 33.8101 75.6087C34.0288 75.1596 34.2513 74.5622 34.8761 74.3396C35.5009 74.117 35.95 73.9881 36.071 74.1365C36.1921 74.2849 35.2237 74.527 35.29 74.6871C35.3564 74.8472 36.4615 74.8121 36.4615 74.8121C36.4615 74.8121 37.2425 74.2381 37.4846 74.4216C37.7267 74.6051 37.0121 75.7961 36.4615 75.9835C35.9109 76.171 34.4427 76.2335 34.1928 76.5849C33.9429 76.9363 33.2947 77.8071 33.2947 77.8071L32.5293 77.1316Z" fill="#CC9B74"/>
<path d="M20.3623 72.3162C20.3623 72.3162 22.0765 71.8398 23.0684 72.816C24.0602 73.7922 24.9701 77.9861 24.8646 79.2356C24.7592 80.4852 24.8646 90.6613 24.8646 90.6613H20.663L20.3623 72.3162Z" fill="#292E4A"/>
<path d="M23.0663 72.8162C23.6599 74.0463 23.9254 77.4396 24.1909 80.2004C24.4565 82.9611 23.8005 92.0087 24.1909 92.243C24.5814 92.4773 26.6198 92.4734 26.6549 91.9111C26.6901 91.3488 25.7373 84.5114 25.624 83.1603C25.5634 82.4304 25.5413 81.6979 25.5577 80.9657C25.5577 80.9657 27.2211 84.1209 28.4707 84.0232C29.7203 83.9256 34.1913 77.0374 34.1913 77.0374L33.0199 76.2057C33.0199 76.2057 28.5644 80.6299 28.334 80.4307C28.1036 80.2316 25.0071 73.8784 24.7415 73.5465C24.476 73.2145 22.8789 72.3164 22.8789 72.3164L23.0663 72.8162Z" fill="#FF7700"/>
<path d="M26.0151 86.4635C25.937 85.87 25.8667 85.2921 25.8042 84.8001C25.2536 84.968 24.4765 84.6204 24.2423 84.4955C24.2227 85.2765 24.1954 86.1043 24.172 86.9009C24.1711 86.9283 24.1763 86.9556 24.1871 86.9808C24.1979 87.006 24.2141 87.0285 24.2346 87.0468C24.2551 87.065 24.2793 87.0785 24.3056 87.0864C24.3319 87.0943 24.3596 87.0962 24.3867 87.0922C24.9595 86.9705 25.5091 86.7583 26.0151 86.4635Z" fill="#995417"/>
<path d="M29.3408 86.4444L26.5215 87.2176L28.5169 80.9308L31.3362 80.1576L29.3408 86.4444Z" fill="white"/>
<path d="M24.6367 86.1201C24.6367 86.1201 26.1362 86.2529 26.4681 86.3036C26.8 86.3544 28.7329 85.8858 28.9633 85.5734C29.1937 85.261 27.7489 85.7218 27.7489 85.7218C27.7489 85.7218 28.7993 85.2376 28.9907 85.1244C29.182 85.0111 29.5139 84.3434 29.2289 84.2926C28.9438 84.2419 27.4834 84.8549 27.335 84.7885C27.1866 84.7222 27.5146 84.0076 27.5146 84.0076L25.8433 85.179C25.5036 85.4211 24.789 85.2688 24.789 85.2688L24.6367 86.1201Z" fill="#CC9B74"/>
<path d="M21.8975 97.7284C21.8975 97.7284 22.0615 95.3855 22.862 95.0536C23.6625 94.7217 23.6859 107.51 23.6859 107.51L21.8975 97.7284Z" fill="#2D2F3B"/>
<path d="M25.5622 80.9657L26.1323 81.9067C26.3983 82.3229 26.6918 82.7208 27.0109 83.0977C26.2612 81.4889 27.2726 79.8332 28.3386 80.4307C28.1043 80.2315 25.0116 73.8783 24.7461 73.5464C25.695 75.3934 25.5622 80.9657 25.5622 80.9657Z" fill="#995417"/>
<path d="M28.3193 80.4321C28.4033 80.4801 28.4433 80.4601 28.4513 80.3961C28.3833 80.4321 28.3353 80.4481 28.3193 80.4321Z" fill="#495285"/>
<path d="M24.692 67.0439C24.692 67.0439 24.8092 68.4263 24.86 68.6059C24.9107 68.7855 24.6257 68.7543 24.5749 68.887C24.5241 69.0198 24.4929 70.6013 24.2274 70.6677C23.9618 70.734 23.4464 70.4529 23.3136 70.6013C23.1809 70.7497 23.0676 72.7958 23.0676 72.7958C23.0676 73.0965 20.1624 72.9364 20.3733 72.132C20.5997 71.2651 20.8184 70.1796 20.8184 70.1796C20.8184 70.1796 19.7875 67.4735 20.8692 66.7081C21.9508 65.9428 24.653 66.591 24.692 67.0439Z" fill="#CC9B74"/>
<path d="M26.0238 65.7674C26.672 65.7674 25.8012 67.3293 24.7274 67.3293C23.6536 67.3293 23.0561 66.8568 22.732 67.181C22.4693 67.4672 22.2352 67.7785 22.033 68.1103C22.033 68.1103 21.6425 67.4113 21.3575 67.6613C21.0724 67.9112 21.2599 68.5086 21.3575 68.9069C21.4551 69.3052 20.8108 70.2072 20.8108 70.2072C20.5988 69.5692 20.3309 68.9512 20.0103 68.3602C19.5105 67.6339 19.5612 66.1618 20.3344 65.7401C21.0334 64.1781 22.2869 64.0688 23.3529 64.717C24.4189 65.3652 25.399 65.7674 26.0238 65.7674Z" fill="white"/>
<path d="M20.3532 72.3164C20.3532 72.3164 22.2158 79.0445 22.3876 84.2927C22.3876 84.2927 25.1523 84.9916 25.285 85.2572C25.4178 85.5227 25.285 86.5536 25.285 86.5536H22.454L22.6063 92.243H16.4014L17.2332 86.1202C17.2332 86.1202 14.8043 85.7297 14.2069 84.9214C13.6094 84.113 14.4724 82.1879 14.9059 80.0988C15.3393 78.0097 16.4014 74.1127 17.1004 73.5465C17.7994 72.9802 20.3532 72.3164 20.3532 72.3164Z" fill="#FF7700"/>
<path d="M17.2372 86.1195C18.2017 86.2718 22.4581 86.553 22.4581 86.553C22.4581 86.553 22.4932 86.8185 22.3448 86.8341C22.1964 86.8497 20.8961 86.8029 20.6618 86.8341C20.4275 86.8653 17.6472 87.8064 17.0342 87.6151L17.2372 86.1195Z" fill="#995417"/>
<path d="M18.2981 73.5464C19.1728 74.0696 19.6453 75.8151 19.4969 76.8382C19.3485 77.8613 17.5757 82.3519 17.7006 82.7775C17.8256 83.2031 22.3865 84.2926 22.3865 84.2926C22.3865 84.2926 19.6531 83.0001 19.1376 82.6526C18.6222 82.305 19.5008 78.5876 19.7429 77.5137C19.985 76.4399 20.0475 74.0931 18.2981 73.5464Z" fill="#995417"/>
<path d="M149.008 125.25C152.003 125.25 154.432 124.714 154.432 124.051C154.432 123.389 152.003 122.853 149.008 122.853C146.012 122.853 143.584 123.389 143.584 124.051C143.584 124.714 146.012 125.25 149.008 125.25Z" fill="#C3C4C9"/>
<path d="M164.81 125.25C167.805 125.25 170.233 124.714 170.233 124.051C170.233 123.389 167.805 122.853 164.81 122.853C161.814 122.853 159.386 123.389 159.386 124.051C159.386 124.714 161.814 125.25 164.81 125.25Z" fill="#C3C4C9"/>
<path d="M165.208 118.847L167.137 121.189C167.137 121.189 163.532 123.923 162.911 124.013C162.309 124.063 161.703 124.063 161.1 124.013C161.73 123.621 162.302 123.143 162.798 122.591C163.315 121.618 163.709 120.585 163.97 119.514C163.993 119.214 165.208 118.847 165.208 118.847Z" fill="#2D2F3B"/>
<path d="M151.265 121.448L151.932 124.052H145.528C145.98 123.772 146.465 123.55 146.973 123.393C147.524 123.275 149.476 121.44 149.476 121.44L151.265 121.448Z" fill="#2D2F3B"/>
<path d="M154.043 92.7701L149.002 121.729H151.525L156.121 109.057L163.454 120.077L165.84 119.097L160.342 107.249L161.064 96.2611L160.56 92.7701H154.043Z" fill="#6470B5"/>
<path d="M161.019 95.937L160.562 92.7701H154.045L153.717 94.6679L161.019 95.937Z" fill="#495285"/>
<path d="M158.861 99.4008L156.128 109.058L158.861 113.177C158.337 111.672 158.087 110.085 158.123 108.491C158.112 105.551 158.861 99.4008 158.861 99.4008Z" fill="#495285"/>
<path d="M165.836 100.033H157.202L159.455 97.6235C159.549 97.5223 159.662 97.4415 159.789 97.3864C159.915 97.3313 160.052 97.303 160.189 97.3034H162.849C162.987 97.3027 163.124 97.3308 163.251 97.3859C163.378 97.4411 163.493 97.522 163.587 97.6235L165.836 100.033Z" stroke="#292E4A" stroke-width="0.71" stroke-miterlimit="10"/>
<path d="M167.612 99.6591H155.417V108.476H167.612V99.6591Z" fill="#FF7700"/>
<path d="M161.516 106.149L155.417 99.6591H167.616L161.516 106.149Z" fill="#995417"/>
<path d="M161.516 105.095L155.417 99.6591H167.616L161.516 105.095Z" fill="#FF7700"/>
<path d="M162.26 94.9767L162.35 97.7453L161.381 98.0303C161.317 98.0495 161.248 98.0544 161.181 98.0445C161.114 98.0346 161.05 98.0102 160.994 97.973C160.937 97.9358 160.89 97.8867 160.854 97.8292C160.819 97.7716 160.796 97.707 160.788 97.6398L160.745 97.1517L160.354 97.1986L160.878 95.8319C161.083 95.6013 161.192 95.3008 161.182 94.9923L162.26 94.9767Z" fill="#CC9B74"/>
<path d="M149.551 93.1367C149.551 93.1367 148.688 96.7487 148.38 96.7097C148.071 96.6706 148.551 95.2571 148.013 94.9213C147.474 94.5854 146.689 96.8268 146.298 96.7097C145.908 96.5926 147.177 94.0388 147.177 94.0388L148.551 92.1527L149.551 93.1367Z" fill="#CC9B74"/>
<path d="M153.143 65.283C155.345 65.283 155.529 68.0984 155.486 69.0785C155.443 70.0587 155.732 72.5383 156.345 73.577H153.131C153.131 73.577 152.76 72.3469 152.299 72.1634C151.839 71.9799 150.374 72.507 150.253 71.6167C150.132 70.7264 150.159 70.0548 149.917 69.43C149.675 68.8052 150.527 66.9972 150.527 66.9972C150.717 66.4656 151.075 66.0106 151.547 65.7012C152.019 65.3918 152.58 65.245 153.143 65.283Z" fill="#CC9B74"/>
<path d="M153.137 65.2838C152.575 65.2484 152.018 65.3965 151.548 65.7057C151.078 66.0149 150.722 66.4685 150.532 66.9981H151.45C151.45 66.9981 151.665 68.4975 152.371 69.2317C152.371 69.2317 152.371 68.0993 153.113 68.4507C153.855 68.8021 153.113 70.2274 153.113 70.2274C153.433 70.5982 153.829 70.8951 154.275 71.0974C154.721 71.2997 155.205 71.4025 155.694 71.3989C155.56 70.6383 155.492 69.8674 155.491 69.095C155.523 68.111 155.339 65.2838 153.137 65.2838Z" fill="white"/>
<path d="M156.89 73.5771L158.956 75.3851C158.956 75.3851 162.217 83.4174 162.767 86.5882C163.318 89.759 162.494 95.3586 162.494 95.3586H160.932L160.565 93.4764L152.802 93.6131C152.802 93.6131 153.399 90.8562 153.86 89.2513L149.545 93.7068L147.89 92.465L152.435 85.6823L152.345 73.5771H156.89Z" fill="#6470B5"/>
<path d="M152.352 75.0613L153.855 89.2516L151.372 91.8132C150.919 92.2818 150.825 91.2704 151.559 90.1224C152.293 88.9744 152.43 85.6708 152.43 85.6708L152.352 75.0613Z" fill="#495285"/>
<path d="M156.163 78.8719L159.791 86.3576L160.572 93.4762L159.01 93.5035C159.01 93.5035 159.467 87.8258 159.1 86.5411C158.733 85.2564 155.773 80.387 156.163 78.8719Z" fill="#495285"/>
<path d="M154.212 88.4861C154.212 88.4861 154.579 83.1599 154.731 81.8752C154.883 80.5905 154.122 80.9263 153.723 79.6377C153.325 78.3491 155.039 77.6501 154.977 76.9043C154.914 76.1584 153.118 74.7292 153.118 74.7292C153.118 74.7292 155.52 76.0686 155.422 76.9433C155.324 77.818 153.997 78.5482 154.274 79.5127C154.551 80.4772 155.336 80.8755 155.422 81.6174C155.508 82.3594 154.212 88.4861 154.212 88.4861Z" fill="#495285"/>
<path d="M153.896 93.5949L160.613 93.8761L160.531 93.1342L153.896 93.5949Z" fill="#292E4A"/>
<path d="M152.708 78.4834L153.852 89.2648L153.282 89.8505L152.708 78.4834Z" fill="#292E4A"/>
</svg>
