<svg width="51" height="48" viewBox="0 0 51 48" fill="none" xmlns="http://www.w3.org/2000/svg">
<path d="M47.1269 20.9458C46.8954 20.9458 46.6734 21.0377 46.5097 21.2014C46.3461 21.3651 46.2541 21.5871 46.2541 21.8185V43.6365C46.2541 44.3309 45.9783 44.9968 45.4873 45.4878C44.9963 45.9788 44.3304 46.2547 43.636 46.2547H6.98176C6.28738 46.2547 5.62144 45.9788 5.13044 45.4878C4.63944 44.9968 4.3636 44.3309 4.3636 43.6365V21.8185C4.3636 21.5871 4.27166 21.3651 4.10799 21.2014C3.94432 21.0377 3.72234 20.9458 3.49088 20.9458C3.25942 20.9458 3.03744 21.0377 2.87378 21.2014C2.71011 21.3651 2.61816 21.5871 2.61816 21.8185V43.6365C2.61816 44.7938 3.0779 45.9037 3.89623 46.722C4.71457 47.5404 5.82446 48.0001 6.98176 48.0001H43.636C44.7933 48.0001 45.9032 47.5404 46.7215 46.722C47.5398 45.9037 47.9996 44.7938 47.9996 43.6365V21.8185C47.9996 21.5871 47.9076 21.3651 47.744 21.2014C47.5803 21.0377 47.3583 20.9458 47.1269 20.9458Z" fill="#343434"/>
<path d="M47.0745 0.585159C47.0149 0.414857 46.9041 0.26719 46.7572 0.162478C46.6103 0.0577659 46.4345 0.00115549 46.2541 0.000436796H3.49088C3.29269 -0.00583405 3.09827 0.055572 2.93965 0.174544C2.78102 0.293516 2.66763 0.462961 2.61816 0.654976C2.20798 2.35678 0 10.9182 0 12.2185C0.000576935 13.7661 0.515337 15.2697 1.46339 16.4929C2.41144 17.7161 3.73904 18.5897 5.23758 18.9763C6.73611 19.3629 8.32063 19.2407 9.74213 18.6288C11.1636 18.0169 12.3416 16.9501 13.0908 15.5959C13.6946 16.6872 14.5796 17.5968 15.654 18.2302C16.7283 18.8636 17.9527 19.1977 19.1998 19.1977C20.447 19.1977 21.6714 18.8636 22.7457 18.2302C23.82 17.5968 24.7051 16.6872 25.3089 15.5959C25.9126 16.6872 26.7977 17.5968 27.872 18.2302C28.9464 18.8636 30.1707 19.1977 31.4179 19.1977C32.665 19.1977 33.8894 18.8636 34.9638 18.2302C36.0381 17.5968 36.9232 16.6872 37.5269 15.5959C38.2762 16.9501 39.4541 18.0169 40.8756 18.6288C42.2971 19.2407 43.8816 19.3629 45.3801 18.9763C46.8787 18.5897 48.2063 17.7161 49.1543 16.4929C50.1024 15.2697 50.6171 13.7661 50.6177 12.2185C50.6177 10.8396 47.9123 2.96768 47.0745 0.585159ZM45.6345 1.74588C45.8352 2.32187 46.0359 2.90659 46.2279 3.49131H3.72651L4.16287 1.74588H45.6345ZM43.636 17.4548C42.2472 17.4548 40.9153 16.9031 39.9333 15.9211C38.9513 14.9391 38.3997 13.6073 38.3997 12.2185C38.3997 11.987 38.3077 11.7651 38.144 11.6014C37.9804 11.4377 37.7584 11.3458 37.5269 11.3458C37.2955 11.3458 37.0735 11.4377 36.9098 11.6014C36.7462 11.7651 36.6542 11.987 36.6542 12.2185C36.6542 13.6073 36.1025 14.9391 35.1205 15.9211C34.1385 16.9031 32.8067 17.4548 31.4179 17.4548C30.0291 17.4548 28.6973 16.9031 27.7153 15.9211C26.7333 14.9391 26.1816 13.6073 26.1816 12.2185C26.1816 11.987 26.0896 11.7651 25.926 11.6014C25.7623 11.4377 25.5403 11.3458 25.3089 11.3458C25.0774 11.3458 24.8554 11.4377 24.6918 11.6014C24.5281 11.7651 24.4361 11.987 24.4361 12.2185C24.4361 13.6073 23.8845 14.9391 22.9025 15.9211C21.9205 16.9031 20.5886 17.4548 19.1998 17.4548C17.8111 17.4548 16.4792 16.9031 15.4972 15.9211C14.5152 14.9391 13.9635 13.6073 13.9635 12.2185C13.9635 11.987 13.8716 11.7651 13.7079 11.6014C13.5442 11.4377 13.3222 11.3458 13.0908 11.3458C12.8593 11.3458 12.6373 11.4377 12.4737 11.6014C12.31 11.7651 12.2181 11.987 12.2181 12.2185C12.2181 13.6073 11.6664 14.9391 10.6844 15.9211C9.70239 16.9031 8.37051 17.4548 6.98175 17.4548C5.593 17.4548 4.26112 16.9031 3.27912 15.9211C2.29712 14.9391 1.74544 13.6073 1.74544 12.2185C1.74544 11.6687 2.47852 8.50945 3.29015 5.23675H46.8127C47.6455 7.51832 48.3334 9.85021 48.8723 12.2185C48.8723 13.6073 48.3206 14.9391 47.3386 15.9211C46.3566 16.9031 45.0247 17.4548 43.636 17.4548Z" fill="#343434"/>
<path d="M9.60026 20.9458C9.3688 20.9458 9.14682 21.0377 8.98315 21.2014C8.81949 21.3651 8.72754 21.5871 8.72754 21.8185V33.1639C8.72754 34.3212 9.18727 35.4311 10.0056 36.2494C10.8239 37.0677 11.9338 37.5275 13.0911 37.5275H37.5273C38.6846 37.5275 39.7945 37.0677 40.6128 36.2494C41.4311 35.4311 41.8909 34.3212 41.8909 33.1639V21.8185C41.8909 21.5871 41.7989 21.3651 41.6353 21.2014C41.4716 21.0377 41.2496 20.9458 41.0182 20.9458C40.7867 20.9458 40.5647 21.0377 40.401 21.2014C40.2374 21.3651 40.1454 21.5871 40.1454 21.8185V33.1639C40.1454 33.8582 39.8696 34.5242 39.3786 35.0152C38.8876 35.5062 38.2217 35.782 37.5273 35.782H13.0911C12.3968 35.782 11.7308 35.5062 11.2398 35.0152C10.7488 34.5242 10.473 33.8582 10.473 33.1639V21.8185C10.473 21.5871 10.381 21.3651 10.2174 21.2014C10.0537 21.0377 9.83172 20.9458 9.60026 20.9458Z" fill="#343434"/>
<path d="M25.7387 44.0107C20.3689 44.0107 16 39.6417 16 34.272C16 28.9022 20.3689 24.5333 25.7387 24.5333C31.1084 24.5333 35.4773 28.9022 35.4773 34.272C35.4773 39.6417 31.1084 44.0107 25.7387 44.0107Z" fill="#F5FBF8"/>
<path fill-rule="evenodd" clip-rule="evenodd" d="M30.2654 34.7466H28.9338V33.4685H30.2654C30.4654 33.4685 30.6276 33.3067 30.6276 33.1068C30.6276 32.9069 30.4654 32.745 30.2654 32.745H28.9338V30.9716C28.9338 30.7127 28.8826 30.5227 28.7816 30.407C28.6856 30.2968 28.5595 30.2456 28.3847 30.2456C28.218 30.2456 28.0966 30.2965 28.0025 30.4059C27.9027 30.5218 27.852 30.7121 27.852 30.9717V32.7452H25.3473L24.2823 31.1357C24.1912 30.9921 24.1055 30.8575 24.0222 30.7284C23.9473 30.6121 23.8742 30.5174 23.8052 30.4466C23.7441 30.384 23.6745 30.3356 23.593 30.2984C23.5161 30.2633 23.4184 30.2457 23.3028 30.2457C23.1554 30.2457 23.0216 30.2861 22.8934 30.3689C22.7666 30.4509 22.6789 30.5523 22.6254 30.6788C22.5784 30.7991 22.5535 30.9834 22.5535 31.2212V32.7451H21.2352C21.0351 32.7451 20.873 32.907 20.873 33.1069C20.873 33.3067 21.0351 33.4686 21.2352 33.4686H22.5535V34.7468H21.2352C21.0351 34.7468 20.873 34.9087 20.873 35.1086C20.873 35.3084 21.0351 35.4702 21.2352 35.4702H22.5535V37.4949C22.5535 37.7462 22.6064 37.9342 22.7111 38.0538C22.8106 38.1677 22.9369 38.2206 23.1083 38.2206C23.2737 38.2206 23.3989 38.1675 23.5028 38.0533C23.6091 37.9363 23.6629 37.7484 23.6629 37.495V35.4702H25.9294L27.156 37.3485C27.2413 37.4727 27.3293 37.598 27.4171 37.7209C27.4964 37.8312 27.5828 37.9284 27.674 38.0097C27.7562 38.0831 27.8442 38.137 27.9358 38.1698C28.03 38.2037 28.1401 38.2209 28.2623 38.2209C28.594 38.2209 28.9338 38.1194 28.9338 37.3673V35.4702H30.2653C30.4654 35.4702 30.6276 35.3082 30.6276 35.1084C30.6276 34.9086 30.4654 34.7466 30.2654 34.7466ZM27.8542 33.4685V34.7466H26.674L25.8284 33.4685H27.8542ZM24.1486 32.7452L23.6619 32V32.7452H24.1486ZM23.6619 34.7466V33.4685H24.6211L25.4559 34.7466H23.6619ZM27.1496 35.4707L27.851 36.531V35.4707H27.1496Z" fill="black"/>
</svg>
