<svg width="87" height="34" viewBox="0 0 87 34" fill="none" xmlns="http://www.w3.org/2000/svg">
<path d="M43.2083 34C67.0716 34 86.4167 26.3888 86.4167 17C86.4167 7.61116 67.0716 0 43.2083 0C19.345 0 0 7.61116 0 17C0 26.3888 19.345 34 43.2083 34Z" fill="#00373D"/>
<path d="M45.2487 22.537L44.7777 24.65H40.2897L40.7585 22.537H45.2487ZM22.4057 8.5L26.123 17.68L33.331 8.5H37.1617L34.0337 24.3667H29.8857L31.5177 16.0027L26.2363 22.8027H24.2643L21.3857 16.0027L19.7083 24.3667H15.583L18.7563 8.5H22.4057ZM58.4683 8.5L63.727 17.1813L65.4497 8.5H69.847L66.6737 24.3667H62.979L57.743 15.6627L55.9977 24.3667H51.6003L54.7737 8.5H58.4683ZM52.8243 8.78333L52.099 12.342H47.2483L45.4263 21.5284H40.9163L42.7603 12.342H37.887L38.6123 8.78333H52.8243Z" fill="white"/>
</svg>
