<svg width="50" height="50" viewBox="0 0 50 50" fill="none" xmlns="http://www.w3.org/2000/svg">
<path fill-rule="evenodd" clip-rule="evenodd" d="M3.33328 50H46.6667C48.5069 49.9981 49.9981 48.5069 50 46.6667V3.33328C49.9981 1.49307 48.5069 0.00190734 46.6667 0H3.33328C1.49307 0.00190734 0.00190734 1.49307 0 3.33328V46.6667C0.00190734 48.5069 1.49307 49.9981 3.33328 50ZM1.66664 3.33328C1.66779 2.41318 2.41318 1.66779 3.33328 1.66664H46.6667C47.5868 1.66779 48.3322 2.41318 48.3334 3.33328V46.6667C48.3322 47.5868 47.5868 48.3322 46.6667 48.3334H3.33328C2.41318 48.3322 1.66779 47.5868 1.66664 46.6667V3.33328ZM5.00012 45.8332H45.0003C45.4603 45.8332 45.8334 45.4601 45.8334 45V4.99988C45.8334 4.53983 45.4603 4.16675 45.0003 4.16675H5.00012C4.54007 4.16675 4.16699 4.53983 4.16699 4.99988V45C4.16699 45.4601 4.54007 45.8332 5.00012 45.8332ZM5.83363 5.83339H44.1668V44.1665H5.83363V5.83339ZM25.0002 9.99988H38.3337C39.2534 10.001 39.9992 10.7468 40.0003 11.6665V38.3335C39.9992 39.2533 39.2534 39.999 38.3337 40.0002H11.6666C10.7469 39.999 10.0011 39.2533 10 38.3335V11.6665C10.0011 10.7468 10.7469 10.001 11.6666 9.99988H18.3336C19.2537 10.001 19.9991 10.7468 20.0002 11.6665V15.8333C20.0002 16.2937 19.6272 16.6668 19.1667 16.6668H16.6669V33.3332H33.333V16.6668H28.3331V21.2731C28.3416 21.2806 28.3493 21.289 28.3571 21.2973C28.3637 21.3045 28.3704 21.3117 28.3777 21.3185C28.5024 21.4329 28.6214 21.5538 28.734 21.6805C28.7996 21.7542 28.8596 21.8315 28.9197 21.9089C28.9277 21.9192 28.9358 21.9296 28.9438 21.9399L28.9517 21.9501C28.9945 22.005 29.037 22.0597 29.0769 22.1165C29.1532 22.2237 29.2242 22.3332 29.2909 22.4453C29.3106 22.4785 29.3293 22.5118 29.348 22.5453C29.3521 22.5526 29.3562 22.56 29.3604 22.5674C29.4313 22.6948 29.4996 22.8234 29.5591 22.9561L29.5667 22.9752C29.6919 23.2579 29.7903 23.5516 29.8601 23.8526C29.864 23.8688 29.8686 23.8849 29.8731 23.901C29.8791 23.9222 29.8851 23.9435 29.8898 23.9651C29.9061 24.0429 29.9176 24.1219 29.929 24.2007C29.9323 24.2235 29.9356 24.2464 29.939 24.2691C29.9543 24.371 29.9684 24.4725 29.9772 24.5751C29.9844 24.6613 29.9886 24.7475 29.9913 24.8345C29.9921 24.8581 29.9939 24.8816 29.9957 24.905C29.9981 24.937 30.0005 24.9689 30.0005 25.0012C30.0005 25.0485 29.9973 25.0977 29.9941 25.1468C29.9924 25.1738 29.9906 25.2008 29.9894 25.2274C29.9887 25.2438 29.9881 25.2603 29.9875 25.2767C29.9858 25.3219 29.9842 25.3672 29.9802 25.4128C29.9796 25.4213 29.9791 25.4298 29.9787 25.4383C29.9781 25.4495 29.9775 25.4608 29.9764 25.4723C29.9713 25.5266 29.9633 25.5799 29.9552 25.6334C29.9512 25.6596 29.9473 25.6858 29.9436 25.7122C29.9398 25.7402 29.9364 25.7678 29.9331 25.7955C29.9268 25.847 29.9205 25.8988 29.9108 25.9537C29.9078 25.9774 29.9043 26.001 29.8994 26.0224C29.8821 26.1045 29.8589 26.1827 29.8358 26.2607C29.8283 26.286 29.8208 26.3113 29.8135 26.3367C29.8078 26.3576 29.8023 26.3787 29.7969 26.3997C29.7873 26.4369 29.7777 26.474 29.7662 26.5103C29.763 26.5202 29.7604 26.5304 29.7578 26.5406C29.7553 26.5508 29.7527 26.561 29.7495 26.5709L29.7094 26.6857C29.7073 26.6917 29.7053 26.6976 29.7033 26.7034C29.697 26.7214 29.6908 26.7393 29.6842 26.7571L29.6407 26.8811C29.6289 26.9177 29.614 26.9532 29.5965 26.9871L29.5869 27.0077L29.5293 27.1256C29.4897 27.2061 29.45 27.2858 29.4107 27.3598C29.3981 27.383 29.3844 27.4054 29.3706 27.4279C29.3596 27.4457 29.3487 27.4635 29.3382 27.4819C29.2726 27.6074 29.1994 27.7287 29.1189 27.845C29.0998 27.8707 29.0825 27.8931 29.0652 27.9153C29.0527 27.9313 29.0403 27.9473 29.0273 27.9644C29.0073 27.9915 28.9869 28.0175 28.9662 28.0438L28.9575 28.0548C28.9473 28.0681 28.9368 28.082 28.9263 28.0961C28.9052 28.1241 28.8838 28.1525 28.8637 28.1769C28.7668 28.2929 28.6813 28.3924 28.5886 28.4848C28.5707 28.5069 28.5516 28.5282 28.5314 28.5481C28.4242 28.6557 28.3086 28.7537 28.1915 28.8514C28.1751 28.8653 28.1571 28.8777 28.139 28.8901C28.1235 28.9007 28.108 28.9114 28.0935 28.9231C28.0134 28.9868 27.931 29.0474 27.8467 29.1066C27.836 29.1139 27.8256 29.1213 27.8151 29.1287C27.799 29.1401 27.7829 29.1515 27.7662 29.1626C27.7593 29.1668 27.7531 29.1718 27.7469 29.1767C27.7407 29.1817 27.7345 29.1867 27.7277 29.1909C27.6491 29.242 27.5465 29.3064 27.4358 29.3713C27.4324 29.3732 27.4286 29.3749 27.4248 29.3765C27.4202 29.3786 27.4156 29.3806 27.4114 29.3831C27.36 29.4115 27.3067 29.4361 27.2534 29.4608C27.2272 29.4729 27.2009 29.485 27.1749 29.4976C27.1421 29.5134 27.11 29.5297 27.0779 29.546C27.0172 29.5768 26.9563 29.6077 26.89 29.6357C26.8833 29.6383 26.8568 29.6483 26.8336 29.657C26.8168 29.6633 26.8017 29.669 26.7969 29.6707C26.7835 29.6757 26.7702 29.6791 26.7568 29.6841C26.7187 29.6982 26.6799 29.7106 26.6411 29.7229C26.6202 29.7296 26.5992 29.7363 26.5783 29.7432C26.5711 29.7454 26.5641 29.7479 26.5571 29.7503C26.548 29.7535 26.5389 29.7567 26.5295 29.7592C26.4995 29.769 26.4693 29.7778 26.4389 29.7865C26.4291 29.7894 26.4192 29.7922 26.4093 29.7951C26.3094 29.8249 26.1976 29.8539 26.0778 29.8806C26.0633 29.8838 26.0492 29.8882 26.0352 29.8926C26.0195 29.8976 26.0038 29.9025 25.9874 29.9057C25.9426 29.9144 25.8977 29.9196 25.8529 29.9249C25.8249 29.9281 25.7968 29.9314 25.7688 29.9355C25.7591 29.937 25.7493 29.9385 25.7396 29.94C25.6475 29.9542 25.5552 29.9684 25.461 29.9771C25.4272 29.9802 25.3936 29.9815 25.36 29.9828C25.3404 29.9836 25.3208 29.9843 25.3011 29.9855C25.2763 29.987 25.2514 29.9887 25.2265 29.9904C25.1515 29.9956 25.0764 30.0007 25.0002 30.0007H24.9986C24.981 30.0007 24.9638 29.9995 24.9465 29.9984C24.9328 29.9974 24.919 29.9965 24.9052 29.9961C24.8818 29.9957 24.8586 29.9943 24.8354 29.993C24.8188 29.992 24.8021 29.9911 24.7854 29.9904C24.7609 29.9894 24.7365 29.9885 24.712 29.9876C24.6386 29.985 24.5652 29.9823 24.4928 29.9752C24.4827 29.9741 24.4727 29.9724 24.4628 29.9707C24.4551 29.9694 24.4474 29.9681 24.4398 29.9671C24.425 29.9655 24.4104 29.9632 24.3958 29.9608C24.3835 29.9588 24.3713 29.9569 24.3589 29.9553C24.3368 29.9526 24.3148 29.9492 24.2926 29.9458C24.2806 29.944 24.2687 29.9422 24.2567 29.9404C24.2295 29.9362 24.2023 29.9322 24.175 29.9282C24.1145 29.9194 24.0539 29.9106 23.9942 29.8985L23.9889 29.8973C23.9558 29.8904 23.9232 29.8818 23.8905 29.8732C23.8678 29.8672 23.8451 29.8612 23.8222 29.8558C23.7928 29.8485 23.7638 29.8413 23.7344 29.8336C23.5872 29.7951 23.4426 29.7501 23.2996 29.6986C23.2806 29.6916 23.2614 29.685 23.2423 29.6782C23.2364 29.6761 23.2306 29.674 23.2248 29.6719C23.0779 29.6158 22.9341 29.5529 22.793 29.4834C22.7831 29.4785 22.773 29.4739 22.763 29.4693C22.753 29.4648 22.743 29.4602 22.7331 29.4552C22.5767 29.3759 22.4245 29.2881 22.2776 29.1928L22.2681 29.1874C22.1136 29.0863 21.9648 28.9769 21.8225 28.8594L21.8202 28.8575C21.8164 28.8544 21.813 28.8511 21.8095 28.8477C21.8061 28.8444 21.8027 28.8411 21.7989 28.838C21.6863 28.7438 21.5761 28.6461 21.4712 28.5416C21.4647 28.5353 21.4588 28.5286 21.453 28.5221C21.4479 28.5163 21.4429 28.5107 21.4376 28.5054C21.4106 28.4778 21.3851 28.4489 21.3595 28.42C21.3447 28.4033 21.3299 28.3865 21.3148 28.3699C21.2358 28.2841 21.1584 28.1979 21.0867 28.1079C21.0609 28.0758 21.0367 28.0426 21.0126 28.0095C21 27.9921 20.9874 27.9748 20.9745 27.9576C20.9058 27.8649 20.8395 27.7703 20.7777 27.673C20.7464 27.6234 20.717 27.5734 20.6876 27.5235C20.627 27.4197 20.5698 27.3144 20.5167 27.2068C20.4927 27.1584 20.4694 27.1096 20.4469 27.06C20.3958 26.9474 20.3497 26.833 20.3073 26.7163C20.3038 26.7067 20.3002 26.6971 20.2967 26.6875C20.2823 26.6485 20.2679 26.6097 20.2551 26.5702C20.2154 26.4504 20.1822 26.3283 20.1517 26.2051C20.1475 26.1885 20.1432 26.172 20.1389 26.1555C20.1305 26.1235 20.1221 26.0915 20.1151 26.059C20.0876 25.9308 20.0674 25.8007 20.0498 25.6695C20.0473 25.6506 20.0442 25.6318 20.041 25.613C20.0368 25.5871 20.0325 25.5612 20.0296 25.5349L20.0258 25.507C20.009 25.3395 20.0002 25.1705 20.0002 25C20.0044 23.5783 20.6098 22.2248 21.6669 21.2742V13.3335C21.6688 11.4933 23.1599 10.0018 25.0002 9.99988ZM11.6666 38.3335H38.3337V11.6654L25.0002 11.6665C24.08 11.6677 23.3347 12.4134 23.3335 13.3335V21.6667C23.3339 21.9284 23.2111 22.1752 23.0016 22.3332C21.9564 23.1102 21.4643 24.429 21.7447 25.7012C21.747 25.7119 21.7505 25.7221 21.754 25.7323C21.7576 25.7425 21.7611 25.7527 21.7634 25.7634C21.7708 25.7949 21.7812 25.8252 21.7916 25.8556C21.7988 25.8767 21.806 25.8978 21.8122 25.9194C21.8523 26.0689 21.9026 26.2158 21.9629 26.3584C21.9894 26.4171 22.0214 26.4725 22.0534 26.528C22.0673 26.5522 22.0813 26.5765 22.0949 26.6011C22.1593 26.722 22.2311 26.8387 22.3096 26.9509C22.3623 27.0232 22.4209 27.0904 22.4795 27.1578L22.4947 27.1752C22.5832 27.2778 22.6781 27.3754 22.7785 27.4666C22.851 27.5322 22.9265 27.5944 23.0047 27.6535C23.1119 27.7333 23.2236 27.8065 23.34 27.8733C23.3468 27.8772 23.3536 27.8812 23.3604 27.8851C23.4425 27.9327 23.5246 27.9804 23.6112 28.0205C23.7257 28.0709 23.8428 28.1147 23.9626 28.1514C23.9767 28.156 23.9909 28.1608 24.0051 28.1655C24.0648 28.1855 24.1244 28.2054 24.1861 28.2212C24.1995 28.2244 24.2127 28.2287 24.2259 28.233C24.2404 28.2378 24.255 28.2426 24.27 28.246C24.4047 28.2727 24.5412 28.291 24.6782 28.3005C24.7104 28.3037 24.7422 28.3078 24.774 28.312C24.8347 28.32 24.8953 28.328 24.9578 28.3287C25.1386 28.3272 25.3194 28.312 25.4984 28.283C25.77 28.246 26.0358 28.1754 26.2899 28.0728L26.3059 28.0659C26.8934 27.8141 27.3969 27.3991 27.7567 26.8708L27.7719 26.8467C27.8612 26.7079 27.9398 26.5629 28.0077 26.4126L28.1026 26.1952C28.2415 25.8377 28.317 25.4589 28.3258 25.0756C28.3268 25.0306 28.3258 24.9862 28.3247 24.9416C28.3246 24.9352 28.3244 24.9287 28.3243 24.9222C28.3212 24.6907 28.2938 24.4599 28.2426 24.234L28.2404 24.226C28.182 23.9891 28.0981 23.7595 27.9901 23.5409C27.9832 23.5264 27.9775 23.5112 27.9703 23.4967C27.8623 23.2857 27.7322 23.0866 27.5823 22.9027C27.5685 22.8856 27.5539 22.869 27.5391 22.8523C27.5319 22.8441 27.5246 22.8359 27.5175 22.8276C27.363 22.6445 27.189 22.4785 26.9987 22.3328C26.7896 22.1752 26.6668 21.9284 26.6668 21.6667V15.8333C26.6668 15.3733 27.0399 15.0002 27.5003 15.0002H34.1669C34.6269 15.0002 35 15.3733 35 15.8333V34.1667C35 34.6268 34.6269 34.9999 34.1669 34.9999H15.8334C15.3734 34.9999 15.0003 34.6268 15.0003 34.1667V15.8333C15.0003 15.3733 15.3734 15.0002 15.8334 15.0002H18.3336V11.6665H11.6666V38.3335Z" fill="#343434"/>
</svg>
