<svg width="110" height="122" viewBox="0 0 110 122" fill="none" xmlns="http://www.w3.org/2000/svg">
<path opacity="0.6" d="M108.438 112.588C108.395 114.84 107.474 116.986 105.87 118.567C104.267 120.149 102.109 121.042 99.857 121.054H62.4462C60.1923 121.04 58.0328 120.148 56.4261 118.567C54.8195 116.986 53.8922 114.842 53.8411 112.588L52.4865 30.4282C52.4681 29.3227 52.67 28.2246 53.0804 27.198C53.4909 26.1713 54.1016 25.2367 54.8771 24.4486C55.6526 23.6606 56.5772 23.0348 57.5971 22.6078C58.617 22.1809 59.7117 21.9613 60.8173 21.9619H101.184C102.291 21.9618 103.387 22.1816 104.408 22.6084C105.429 23.0352 106.355 23.6606 107.132 24.4483C107.909 25.2359 108.522 26.1702 108.935 27.1967C109.349 28.2233 109.554 29.3217 109.539 30.4282L108.438 112.588Z" fill="#333349"/>
<path d="M103.995 102.526C103.963 104.327 103.227 106.043 101.946 107.309C100.664 108.575 98.9388 109.289 97.1378 109.299H67.2417C65.439 109.288 63.7118 108.574 62.4273 107.309C61.1428 106.045 60.4025 104.328 60.3637 102.526L59.297 33.8173C59.2812 32.9332 59.4418 32.0549 59.7694 31.2336C60.097 30.4123 60.5849 29.6645 61.2048 29.0339C61.8247 28.4033 62.564 27.9026 63.3795 27.561C64.1951 27.2194 65.0706 27.0437 65.9548 27.0443H98.1876C99.0726 27.0442 99.9489 27.2201 100.765 27.5616C101.582 27.9031 102.322 28.4035 102.944 29.0337C103.565 29.6639 104.055 30.4114 104.385 31.2326C104.715 32.0538 104.878 32.9324 104.866 33.8173L103.995 102.526Z" fill="#58575E"/>
<path d="M99.764 109.384C99.7261 111.389 98.9058 113.3 97.4783 114.709C96.0509 116.117 94.1294 116.912 92.1241 116.923H58.8144C56.8071 116.911 54.8835 116.117 53.4524 114.709C52.0214 113.302 51.1956 111.391 51.1507 109.384L49.9621 31.9892C49.8909 27.8408 53.2334 27.8171 57.3785 27.8171H93.306C97.3325 27.8171 100.922 22.2293 100.756 35.3554L99.764 109.384Z" fill="#424242"/>
<path d="M103.995 88.95C103.961 90.7505 103.226 92.4665 101.944 93.7319C100.663 94.9973 98.938 95.7118 97.1373 95.723H67.2412C65.4388 95.7111 63.712 94.997 62.4277 93.7323C61.1434 92.4676 60.4028 90.752 60.3632 88.95L59.4827 32.2836C59.3519 32.8245 59.2893 33.3797 59.2964 33.9362L60.3632 102.645C60.402 104.447 61.1423 106.163 62.4268 107.428C63.7113 108.693 65.4385 109.407 67.2412 109.418H97.1373C98.9383 109.408 100.664 108.693 101.945 107.428C103.227 106.162 103.962 104.446 103.995 102.645L104.875 33.9362C104.881 33.4296 104.828 32.924 104.72 32.4292L103.995 88.95Z" fill="#404040"/>
<path d="M79.4014 109.293L97.1399 106.767C98.7202 106.766 100.251 106.214 101.468 105.206L102.518 28.6367C101.31 27.6102 99.775 27.0482 98.1897 27.0518H81.6906C81.0641 47.486 79.8721 87.2571 79.4014 109.293Z" fill="#21211F"/>
<path d="M99.764 102.239C99.726 104.244 98.9057 106.154 97.4783 107.563C96.0508 108.971 94.1293 109.766 92.124 109.777H58.8143C56.8068 109.766 54.8827 108.972 53.4514 107.564C52.0202 106.157 51.1947 104.246 51.1507 102.239L49.962 25.7036C49.9454 24.7194 50.1249 23.7416 50.4902 22.8275C50.8555 21.9134 51.3992 21.0812 52.0896 20.3794C52.78 19.6777 53.6033 19.1205 54.5113 18.7403C55.4194 18.3602 56.394 18.1647 57.3784 18.1653H93.3059C94.2917 18.1652 95.2678 18.3608 96.1775 18.7407C97.0872 19.1206 97.9125 19.6773 98.6055 20.3785C99.2984 21.0796 99.8454 21.9114 100.215 22.8255C100.584 23.7396 100.768 24.7179 100.756 25.7036L99.764 102.239Z" fill="#58575E"/>
<path d="M93.3051 18.1482H57.3777C56.0968 18.1458 54.8374 18.4773 53.7236 19.11L54.5601 93.8468C54.5911 95.596 55.3054 97.2636 56.5504 98.4927C57.7953 99.7218 59.4719 100.415 61.2214 100.423H89.4276C91.1754 100.416 92.8503 99.7222 94.0922 98.4924C95.334 97.2625 96.0437 95.5944 96.0685 93.8468L96.7221 18.9813C95.6668 18.4325 94.4946 18.1467 93.3051 18.1482Z" fill="#383836"/>
<path d="M89.4259 30.9325C89.7564 30.9329 90.0836 30.9988 90.3885 31.1262C90.6935 31.2536 90.9703 31.44 91.2029 31.6749C91.4355 31.9097 91.6194 32.1882 91.7439 32.4944C91.8684 32.8005 91.9312 33.1283 91.9285 33.4588L91.3799 91.2428C91.3701 91.9133 91.0981 92.5533 90.622 93.0256C90.1459 93.4979 89.5038 93.7648 88.8332 93.7691H61.7716C61.1001 93.7648 60.4569 93.4982 59.9792 93.0262C59.5015 92.5542 59.2272 91.9142 59.2148 91.2428L58.5138 33.4588C58.5102 33.1286 58.5721 32.801 58.6959 32.4949C58.8197 32.1887 59.0029 31.9102 59.235 31.6753C59.4671 31.4404 59.7434 31.2538 60.048 31.1263C60.3526 30.9988 60.6795 30.9329 61.0097 30.9325H89.4259Z" fill="url(#paint0_linear)"/>
<path d="M99.7633 102.239C99.7253 104.244 98.905 106.154 97.4776 107.563C96.0501 108.971 94.1286 109.766 92.1233 109.777H58.8136C56.8061 109.766 54.882 108.972 53.4507 107.564C52.0195 106.156 51.194 104.246 51.15 102.239L50.0426 30.807C49.9846 31.1982 49.9574 31.5934 49.9613 31.9889L51.15 109.384C51.1949 111.391 52.0206 113.301 53.4517 114.709C54.8827 116.117 56.8063 116.911 58.8136 116.923H92.1233C94.1286 116.911 96.0501 116.117 97.4776 114.708C98.905 113.3 99.7253 111.389 99.7633 109.384L100.745 35.3551C100.746 34.9994 100.722 34.6442 100.674 34.2917L99.7633 102.239Z" fill="#404040"/>
<path opacity="0.1" d="M57.3777 18.1481C56.0968 18.1456 54.8374 18.4771 53.7236 19.1098L54.384 79.4676C64.4318 70.6626 83.0474 54.7461 96.5359 43.1642L96.7221 18.9676C95.6668 18.4188 94.4946 18.133 93.3051 18.1345L57.3777 18.1481Z" fill="#F1F2F2"/>
<path d="M72.0424 102.909C72.5032 102.911 72.9446 103.095 73.2701 103.421C73.5956 103.747 73.7788 104.189 73.7797 104.65V105.276C73.7788 105.737 73.5956 106.179 73.2701 106.505C72.9446 106.831 72.5032 107.015 72.0424 107.017H68.6254C68.1641 107.016 67.7218 106.833 67.3956 106.506C67.0693 106.18 66.8857 105.738 66.8848 105.276V104.65C66.8857 104.189 67.0693 103.746 67.3956 103.42C67.7218 103.094 68.1641 102.91 68.6254 102.909H72.0424ZM72.0424 102.29H68.6254C67.9967 102.29 67.3938 102.539 66.9492 102.984C66.5046 103.428 66.2549 104.031 66.2549 104.66V105.287C66.2549 105.915 66.5046 106.518 66.9492 106.963C67.3938 107.407 67.9967 107.657 68.6254 107.657H72.0424C72.6711 107.657 73.2741 107.407 73.7187 106.963C74.1632 106.518 74.413 105.915 74.413 105.287V104.66C74.413 104.031 74.1632 103.428 73.7187 102.984C73.2741 102.539 72.6711 102.29 72.0424 102.29Z" fill="#2B2C30"/>
<path d="M72.0414 102.909H68.6211C67.6616 102.909 66.8838 103.687 66.8838 104.646V105.279C66.8838 106.239 67.6616 107.017 68.6211 107.017H72.0414C73.0009 107.017 73.7787 106.239 73.7787 105.279V104.646C73.7787 103.687 73.0009 102.909 72.0414 102.909Z" fill="#B78013"/>
<path d="M92.9566 102.533C93.1692 102.531 93.38 102.572 93.5767 102.653C93.7734 102.734 93.9519 102.853 94.1017 103.004C94.2516 103.155 94.3698 103.334 94.4494 103.531C94.529 103.728 94.5684 103.939 94.5652 104.152V104.782C94.5578 105.252 94.3764 105.702 94.0562 106.046C93.7359 106.39 93.2995 106.603 92.8313 106.644L89.4075 106.892H89.2822C89.0698 106.893 88.8591 106.852 88.6627 106.771C88.4662 106.69 88.2879 106.571 88.1381 106.42C87.9884 106.269 87.8701 106.09 87.7904 105.893C87.7106 105.696 87.671 105.485 87.6737 105.273V104.646C87.681 104.176 87.8622 103.725 88.1824 103.381C88.5026 103.036 88.939 102.822 89.4075 102.78L92.8313 102.537H92.9566V102.533ZM92.9566 101.917H92.7873L89.3635 102.161C88.7393 102.216 88.1576 102.501 87.731 102.96C87.3045 103.419 87.0632 104.02 87.0539 104.646V105.273C87.0499 105.567 87.1046 105.859 87.215 106.132C87.3254 106.405 87.4891 106.654 87.6967 106.862C87.9042 107.071 88.1514 107.236 88.4237 107.348C88.6959 107.46 88.9878 107.517 89.2822 107.515H89.4516L92.8753 107.268C93.4999 107.214 94.0823 106.93 94.5097 106.472C94.937 106.013 95.1789 105.412 95.1883 104.785V104.155C95.1919 103.861 95.1367 103.569 95.0259 103.296C94.9152 103.023 94.751 102.775 94.5431 102.567C94.3353 102.358 94.0879 102.193 93.8154 102.082C93.543 101.97 93.251 101.914 92.9566 101.917Z" fill="#2B2C30"/>
<path d="M94.5655 104.782C94.5581 105.252 94.3767 105.702 94.0565 106.046C93.7362 106.39 93.2998 106.603 92.8316 106.644L89.4079 106.891C89.1854 106.91 88.9615 106.882 88.7505 106.81C88.5394 106.737 88.346 106.62 88.1827 106.468C88.0193 106.316 87.8897 106.131 87.8021 105.926C87.7144 105.721 87.6708 105.499 87.674 105.276V104.65C87.6813 104.179 87.8626 103.728 88.1828 103.384C88.5029 103.039 88.9394 102.825 89.4079 102.784L92.8316 102.54C93.0539 102.52 93.2778 102.548 93.4888 102.62C93.6998 102.693 93.8933 102.809 94.0567 102.961C94.2201 103.112 94.3498 103.297 94.4375 103.502C94.5251 103.707 94.5687 103.929 94.5655 104.152V104.782Z" fill="#97B735"/>
<path d="M62.0794 107.207C62.0298 107.21 61.98 107.21 61.9304 107.207L58.5066 106.963C57.9587 106.917 57.4474 106.669 57.072 106.267C56.6965 105.865 56.4837 105.338 56.4747 104.789V104.159C56.472 103.905 56.5199 103.654 56.6155 103.419C56.7112 103.184 56.8527 102.971 57.0319 102.791C57.211 102.612 57.4241 102.47 57.6587 102.374C57.8933 102.278 58.1447 102.23 58.3983 102.232H58.5676L61.9913 102.479C62.5392 102.525 63.0505 102.773 63.426 103.175C63.8014 103.577 64.0143 104.103 64.0232 104.653V105.28C64.0265 105.535 63.9783 105.789 63.8815 106.025C63.7848 106.261 63.6414 106.476 63.4601 106.656C63.2787 106.835 63.063 106.977 62.8258 107.071C62.5886 107.166 62.3347 107.212 62.0794 107.207Z" fill="#B51823"/>
<path d="M58.4028 102.533H58.5247L61.9518 102.777C62.4203 102.819 62.8568 103.033 63.177 103.377C63.4971 103.722 63.6784 104.173 63.6857 104.643V105.27C63.6884 105.482 63.6487 105.693 63.569 105.89C63.4892 106.087 63.371 106.266 63.2212 106.417C63.0715 106.567 62.8931 106.687 62.6967 106.768C62.5002 106.849 62.2896 106.89 62.0771 106.888H61.9518L58.5247 106.641C58.0568 106.599 57.6208 106.386 57.3007 106.042C56.9806 105.698 56.799 105.248 56.7908 104.779V104.149C56.7881 103.936 56.8279 103.725 56.9078 103.528C56.9878 103.33 57.1063 103.151 57.2565 103C57.4066 102.85 57.5853 102.73 57.7822 102.65C57.979 102.569 58.19 102.528 58.4028 102.53V102.533ZM58.4028 101.91C58.1084 101.908 57.8164 101.964 57.544 102.075C57.2715 102.187 57.0241 102.352 56.8162 102.56C56.6084 102.769 56.4442 103.017 56.3334 103.289C56.2226 103.562 56.1674 103.854 56.1711 104.149V104.779C56.1804 105.405 56.4218 106.005 56.8484 106.464C57.2751 106.923 57.8567 107.207 58.4807 107.261L61.9078 107.508H62.0771C62.3715 107.51 62.6634 107.454 62.9357 107.342C63.208 107.23 63.4551 107.065 63.6627 106.856C63.8703 106.647 64.034 106.399 64.1444 106.126C64.2548 105.853 64.3095 105.561 64.3055 105.266V104.64C64.2962 104.013 64.0549 103.412 63.6283 102.953C63.2018 102.494 62.6201 102.209 61.9959 102.154L58.5653 101.92H58.396L58.4028 101.91Z" fill="#2B2C30"/>
<path d="M72.0414 102.662H68.6211C67.6616 102.662 66.8838 103.44 66.8838 104.399V104.782C66.8838 105.741 67.6616 106.519 68.6211 106.519H72.0414C73.0009 106.519 73.7787 105.741 73.7787 104.782V104.399C73.7787 103.44 73.0009 102.662 72.0414 102.662Z" fill="#F4BB19"/>
<path d="M82.4209 102.909C82.8823 102.91 83.3245 103.094 83.6507 103.42C83.977 103.746 84.1606 104.189 84.1615 104.65V105.276C84.1606 105.738 83.977 106.18 83.6507 106.506C83.3245 106.833 82.8823 107.016 82.4209 107.017H79.0073C78.5459 107.016 78.1037 106.833 77.7774 106.506C77.4512 106.18 77.2675 105.738 77.2666 105.276V104.65C77.2675 104.189 77.4512 103.746 77.7774 103.42C78.1037 103.094 78.5459 102.91 79.0073 102.909H82.4209ZM82.4209 102.29H79.0073C78.3786 102.29 77.7756 102.539 77.331 102.984C76.8865 103.428 76.6367 104.031 76.6367 104.66V105.287C76.6367 105.915 76.8865 106.518 77.331 106.963C77.7756 107.407 78.3786 107.657 79.0073 107.657H82.4209C83.0496 107.657 83.6525 107.407 84.0971 106.963C84.5417 106.518 84.7914 105.915 84.7914 105.287V104.66C84.7914 104.031 84.5417 103.428 84.0971 102.984C83.6525 102.539 83.0496 102.29 82.4209 102.29Z" fill="#2B2C30"/>
<path d="M82.4218 102.909H79.0049C78.0454 102.909 77.2676 103.687 77.2676 104.646V105.279C77.2676 106.239 78.0454 107.017 79.0049 107.017H82.4218C83.3813 107.017 84.1591 106.239 84.1591 105.279V104.646C84.1591 103.687 83.3813 102.909 82.4218 102.909Z" fill="#357AA0"/>
<path d="M82.4218 102.662H79.0049C78.0454 102.662 77.2676 103.44 77.2676 104.399V104.782C77.2676 105.741 78.0454 106.519 79.0049 106.519H82.4218C83.3813 106.519 84.1591 105.741 84.1591 104.782V104.399C84.1591 103.44 83.3813 102.662 82.4218 102.662Z" fill="#54A6F7"/>
<path d="M94.5655 104.284C94.5581 104.754 94.3767 105.205 94.0565 105.549C93.7362 105.893 93.2998 106.106 92.8316 106.147L89.4079 106.394C89.1854 106.413 88.9615 106.385 88.7505 106.312C88.5394 106.239 88.346 106.123 88.1827 105.971C88.0193 105.819 87.8897 105.634 87.8021 105.429C87.7144 105.223 87.6708 105.002 87.674 104.779V104.399C87.6814 103.929 87.8628 103.479 88.183 103.135C88.5033 102.791 88.9397 102.578 89.4079 102.537L92.8316 102.29C93.0541 102.271 93.278 102.298 93.4891 102.371C93.7001 102.444 93.8935 102.561 94.0568 102.713C94.2202 102.865 94.3498 103.05 94.4375 103.255C94.5251 103.46 94.5687 103.682 94.5655 103.905V104.284Z" fill="#C6DD3C"/>
<path d="M63.6871 104.779C63.6902 105.002 63.6466 105.223 63.559 105.429C63.4714 105.634 63.3417 105.819 63.1784 105.971C63.015 106.123 62.8216 106.239 62.6106 106.312C62.3996 106.385 62.1756 106.413 61.9532 106.394L58.526 106.147C58.0581 106.105 57.6221 105.892 57.302 105.548C56.9819 105.204 56.8003 104.754 56.7922 104.284V103.905C56.789 103.682 56.8326 103.46 56.9202 103.255C57.0078 103.05 57.1375 102.865 57.3008 102.713C57.4642 102.561 57.6576 102.444 57.8686 102.371C58.0796 102.298 58.3036 102.271 58.526 102.29L61.9532 102.537C62.4214 102.578 62.8578 102.791 63.178 103.135C63.4983 103.479 63.6797 103.929 63.6871 104.399V104.779Z" fill="#FF363F"/>
<path d="M69.9486 90.3555C69.9486 90.6591 69.828 90.9502 69.6133 91.1649C69.3987 91.3795 69.1075 91.5001 68.804 91.5001H62.1427C61.8391 91.5001 61.548 91.3795 61.3333 91.1649C61.1187 90.9502 60.9981 90.6591 60.9981 90.3555V85.97C60.9976 85.8195 61.0269 85.6705 61.0843 85.5314C61.1416 85.3923 61.2259 85.266 61.3323 85.1596C61.4387 85.0532 61.5651 84.9689 61.7041 84.9115C61.8432 84.8542 61.9923 84.8249 62.1427 84.8253H68.804C69.1075 84.8253 69.3987 84.9459 69.6133 85.1606C69.828 85.3752 69.9486 85.6664 69.9486 85.97V90.3555Z" fill="#015876"/>
<path d="M79.9964 90.3555C79.9964 90.6591 79.8758 90.9502 79.6612 91.1649C79.4465 91.3795 79.1554 91.5001 78.8518 91.5001H72.1905C71.887 91.5001 71.5958 91.3795 71.3811 91.1649C71.1665 90.9502 71.0459 90.6591 71.0459 90.3555V85.97C71.0459 85.6664 71.1665 85.3752 71.3811 85.1606C71.5958 84.9459 71.887 84.8253 72.1905 84.8253H78.8518C79.1554 84.8253 79.4465 84.9459 79.6612 85.1606C79.8758 85.3752 79.9964 85.6664 79.9964 85.97V90.3555Z" fill="#0080A5"/>
<path d="M90.0632 90.3556C90.0632 90.6592 89.9426 90.9503 89.7279 91.165C89.5133 91.3796 89.2221 91.5002 88.9185 91.5002H82.2403C81.9368 91.5002 81.6456 91.3796 81.431 91.165C81.2163 90.9503 81.0957 90.6592 81.0957 90.3556V85.9701C81.0957 85.6665 81.2163 85.3754 81.431 85.1607C81.6456 84.946 81.9368 84.8254 82.2403 84.8254H88.9016C89.0533 84.8232 89.204 84.8511 89.3448 84.9077C89.4857 84.9642 89.6139 85.0481 89.722 85.1546C89.83 85.2612 89.9159 85.3881 89.9745 85.5281C90.033 85.6681 90.0632 85.8183 90.0632 85.9701V90.3556Z" fill="#015876"/>
<path d="M69.9486 82.3905C69.9486 82.6941 69.828 82.9852 69.6133 83.1999C69.3987 83.4146 69.1075 83.5352 68.804 83.5352H62.1427C61.8391 83.5352 61.548 83.4146 61.3333 83.1999C61.1187 82.9852 60.9981 82.6941 60.9981 82.3905V78.005C60.9976 77.8546 61.0269 77.7055 61.0843 77.5664C61.1416 77.4274 61.2259 77.301 61.3323 77.1946C61.4387 77.0882 61.5651 77.0039 61.7041 76.9466C61.8432 76.8892 61.9923 76.8599 62.1427 76.8604H68.804C69.1075 76.8604 69.3987 76.981 69.6133 77.1956C69.828 77.4103 69.9486 77.7014 69.9486 78.005V82.3905Z" fill="#0080A5"/>
<path d="M79.9964 82.3905C79.9955 82.6935 79.8745 82.9838 79.66 83.1977C79.4454 83.4116 79.1548 83.5318 78.8518 83.5318H72.1905C71.887 83.5318 71.5958 83.4112 71.3811 83.1965C71.1665 82.9819 71.0459 82.6907 71.0459 82.3871V78.005C71.0459 77.7014 71.1665 77.4103 71.3811 77.1956C71.5958 76.981 71.887 76.8604 72.1905 76.8604H78.8518C79.1554 76.8604 79.4465 76.981 79.6612 77.1956C79.8758 77.4103 79.9964 77.7014 79.9964 78.005V82.3905Z" fill="#0080A5"/>
<path d="M90.0632 82.3905C90.0632 82.6941 89.9426 82.9852 89.7279 83.1999C89.5133 83.4146 89.2221 83.5352 88.9185 83.5352H82.2403C81.9368 83.5352 81.6456 83.4146 81.431 83.1999C81.2163 82.9852 81.0957 82.6941 81.0957 82.3905V78.005C81.0957 77.7014 81.2163 77.4103 81.431 77.1956C81.6456 76.981 81.9368 76.8604 82.2403 76.8604H88.9016C89.2052 76.8604 89.4963 76.981 89.711 77.1956C89.9257 77.4103 90.0463 77.7014 90.0463 78.005L90.0632 82.3905Z" fill="#0080A5"/>
<path d="M69.9486 74.4287C69.9486 74.7323 69.828 75.0235 69.6133 75.2381C69.3987 75.4528 69.1075 75.5734 68.804 75.5734H62.1427C61.8391 75.5734 61.548 75.4528 61.3333 75.2381C61.1187 75.0235 60.9981 74.7323 60.9981 74.4287V70.0432C60.9976 69.8928 61.0269 69.7437 61.0843 69.6046C61.1416 69.4656 61.2259 69.3392 61.3323 69.2328C61.4387 69.1264 61.5651 69.0421 61.7041 68.9848C61.8432 68.9274 61.9923 68.8981 62.1427 68.8986H68.804C69.1075 68.8986 69.3987 69.0192 69.6133 69.2338C69.828 69.4485 69.9486 69.7396 69.9486 70.0432V74.4287Z" fill="#0080A5"/>
<path d="M79.9964 74.4287C79.9964 74.7323 79.8758 75.0234 79.6612 75.2381C79.4465 75.4528 79.1554 75.5734 78.8518 75.5734H72.1905C71.887 75.5734 71.5958 75.4528 71.3811 75.2381C71.1665 75.0234 71.0459 74.7323 71.0459 74.4287V70.0432C71.0459 69.7396 71.1665 69.4485 71.3811 69.2338C71.5958 69.0192 71.887 68.8986 72.1905 68.8986H78.8518C79.1554 68.8986 79.4465 69.0192 79.6612 69.2338C79.8758 69.4485 79.9964 69.7396 79.9964 70.0432V74.4287Z" fill="#0080A5"/>
<path d="M90.0632 74.4287C90.0632 74.7323 89.9426 75.0234 89.7279 75.2381C89.5133 75.4528 89.2221 75.5734 88.9185 75.5734H82.2403C81.9368 75.5734 81.6456 75.4528 81.431 75.2381C81.2163 75.0234 81.0957 74.7323 81.0957 74.4287V70.0432C81.0957 69.7396 81.2163 69.4485 81.431 69.2338C81.6456 69.0192 81.9368 68.8986 82.2403 68.8986H88.9016C89.2052 68.8986 89.4963 69.0192 89.711 69.2338C89.9257 69.4485 90.0463 69.7396 90.0463 70.0432L90.0632 74.4287Z" fill="#0080A5"/>
<path d="M69.9486 66.4668C69.9486 66.6169 69.919 66.7656 69.8614 66.9043C69.8038 67.043 69.7195 67.1689 69.6131 67.275C69.5068 67.381 69.3806 67.465 69.2417 67.5221C69.1029 67.5793 68.9541 67.6085 68.804 67.608H62.1427C61.9925 67.6085 61.8438 67.5793 61.7049 67.5221C61.5661 67.465 61.4398 67.381 61.3335 67.275C61.2272 67.1689 61.1428 67.043 61.0852 66.9043C61.0277 66.7656 60.998 66.6169 60.998 66.4668V62.0643C60.998 61.7607 61.1186 61.4696 61.3333 61.2549C61.548 61.0403 61.8391 60.9197 62.1427 60.9197H68.804C69.1075 60.9197 69.3987 61.0403 69.6133 61.2549C69.828 61.4696 69.9486 61.7607 69.9486 62.0643V66.4668Z" fill="#0080A5"/>
<path d="M79.9964 66.4671C79.9973 66.6178 79.9684 66.7672 79.9112 66.9067C79.854 67.0462 79.7698 67.1729 79.6634 67.2797C79.557 67.3864 79.4304 67.471 79.2911 67.5286C79.1518 67.5861 79.0025 67.6156 78.8518 67.6151H72.1905C72.0404 67.6156 71.8916 67.5864 71.7528 67.5292C71.6139 67.4721 71.4877 67.3881 71.3814 67.282C71.275 67.176 71.1907 67.0501 71.1331 66.9114C71.0755 66.7727 71.0459 66.624 71.0459 66.4739V62.0714C71.0459 61.7678 71.1665 61.4767 71.3811 61.262C71.5958 61.0474 71.887 60.9268 72.1905 60.9268H78.8518C79.1554 60.9268 79.4465 61.0474 79.6612 61.262C79.8758 61.4767 79.9964 61.7678 79.9964 62.0714V66.4671Z" fill="#0080A5"/>
<path d="M90.0632 66.4668C90.0632 66.6169 90.0335 66.7656 89.976 66.9043C89.9184 67.043 89.8341 67.1689 89.7277 67.275C89.6214 67.381 89.4952 67.465 89.3563 67.5221C89.2175 67.5793 89.0687 67.6085 88.9185 67.608H82.2403C82.0902 67.6085 81.9414 67.5793 81.8026 67.5221C81.6637 67.465 81.5375 67.381 81.4312 67.275C81.3248 67.1689 81.2405 67.043 81.1829 66.9043C81.1253 66.7656 81.0957 66.6169 81.0957 66.4668V62.0643C81.0957 61.7607 81.2163 61.4696 81.431 61.2549C81.6456 61.0403 81.9368 60.9197 82.2403 60.9197H88.9016C89.2052 60.9197 89.4963 61.0403 89.711 61.2549C89.9257 61.4696 90.0463 61.7607 90.0463 62.0643L90.0632 66.4668Z" fill="#0080A5"/>
<path d="M89.4259 30.9325H61.0097C60.6795 30.9329 60.3526 30.9988 60.048 31.1263C59.7434 31.2538 59.4671 31.4404 59.235 31.6753C59.0029 31.9102 58.8197 32.1887 58.6959 32.4949C58.5721 32.801 58.5102 33.1286 58.5138 33.4588L58.8186 59.4841H91.688L91.9285 33.4588C91.9312 33.1283 91.8684 32.8005 91.7439 32.4944C91.6194 32.1882 91.4355 31.9097 91.2029 31.6749C90.9703 31.44 90.6935 31.2536 90.3885 31.1262C90.0836 30.9988 89.7564 30.9329 89.4259 30.9325Z" fill="#E6E7E8"/>
<path d="M58.8375 57.6046H91.6731L91.7442 51.4885H58.7461L58.8375 57.6046Z" fill="#51A62F"/>
<path d="M89.4259 30.9325H61.0097C60.6795 30.9329 60.3526 30.9988 60.048 31.1263C59.7434 31.2538 59.4671 31.4404 59.235 31.6753C59.0029 31.9102 58.8197 32.1887 58.6959 32.4949C58.5721 32.801 58.5102 33.1286 58.5138 33.4588L58.5545 36.7573H91.898L91.9285 33.4588C91.9312 33.1283 91.8684 32.8005 91.7439 32.4944C91.6194 32.1882 91.4355 31.9097 91.2029 31.6749C90.9703 31.44 90.6935 31.2536 90.3885 31.1262C90.0836 30.9988 89.7564 30.9329 89.4259 30.9325Z" fill="#CECCBF"/>
<path d="M96.6442 25.5308L96.7221 18.9813C95.6668 18.4325 94.4946 18.1467 93.3051 18.1482H57.3777C56.0968 18.1458 54.8374 18.4773 53.7236 19.11L53.8252 25.5443L96.6442 25.5308Z" fill="#383836"/>
<g opacity="0.7">
<path opacity="0.7" d="M79.4768 46.3273V44.7763C79.2228 44.6814 78.994 44.5295 78.8079 44.3322C78.6219 44.135 78.4836 43.8976 78.4038 43.6385C78.324 43.3794 78.3047 43.1054 78.3475 42.8376C78.3903 42.5699 78.4939 42.3155 78.6505 42.0942C78.7508 41.9667 78.8756 41.8606 79.0175 41.7821C79.1594 41.7035 79.3156 41.6542 79.4768 41.637V41.2712H79.9035V41.637C80.1956 41.6748 80.4653 41.8138 80.6655 42.0298C80.8757 42.2839 81.0043 42.5955 81.0346 42.9239L80.2693 43.0458C80.2612 42.9251 80.2237 42.8083 80.1599 42.7055C80.0961 42.6028 80.0081 42.5173 79.9035 42.4565V43.9093C80.273 44 80.6068 44.1994 80.8619 44.4816C81.0708 44.7844 81.1754 45.147 81.1599 45.5145C81.1775 45.9221 81.0583 46.3238 80.8213 46.6558C80.5981 46.9508 80.269 47.1475 79.9035 47.2044V47.8817H79.4667V47.2044C78.7375 47.0983 78.313 46.5632 78.1934 45.5992L78.9858 45.4976C79.012 45.677 79.0729 45.8496 79.1653 46.0056C79.241 46.1369 79.348 46.2474 79.4768 46.3273ZM79.4768 42.443C79.3599 42.4928 79.2616 42.5781 79.1958 42.6868C79.1218 42.8019 79.083 42.936 79.084 43.0729C79.077 43.2081 79.1107 43.3423 79.1807 43.4582C79.2507 43.5741 79.3539 43.6664 79.4768 43.7231V42.443ZM79.9035 46.3781C80.0532 46.3447 80.1849 46.2565 80.2727 46.1309C80.3711 45.9876 80.422 45.817 80.4183 45.6432C80.4326 45.4818 80.3885 45.3205 80.2941 45.1888C80.1996 45.057 80.0611 44.9635 79.9035 44.9253V46.3781Z" fill="#333330"/>
<path opacity="0.7" d="M84.1943 47.1296H83.3408V43.2114C83.0415 43.5577 82.6643 43.8282 82.2402 44.0005V43.059C82.5154 42.9353 82.7648 42.7606 82.9751 42.5443C83.2214 42.3085 83.4033 42.0135 83.5034 41.6875H84.1807L84.1943 47.1296Z" fill="#333330"/>
<path opacity="0.7" d="M85.7832 45.7345L86.6366 45.6262C86.6453 45.8312 86.7215 46.0276 86.8533 46.1849C86.9022 46.2464 86.9639 46.2964 87.0341 46.3315C87.1043 46.3666 87.1813 46.3859 87.2597 46.3881C87.3505 46.3853 87.4392 46.3601 87.5178 46.3145C87.5964 46.269 87.6625 46.2047 87.7101 46.1274C87.8545 45.887 87.9208 45.6078 87.8998 45.3281C87.9208 45.0629 87.8555 44.798 87.7135 44.573C87.6595 44.4968 87.5878 44.4349 87.5047 44.3924C87.4215 44.35 87.3294 44.3283 87.236 44.3291C87.1021 44.3369 86.9721 44.377 86.8571 44.446C86.7421 44.515 86.6455 44.6108 86.5757 44.7253L85.8984 44.6034L86.3352 41.7825H88.5872V42.7544H86.9854L86.8466 43.6755C87.0223 43.5652 87.225 43.5054 87.4324 43.5028C87.6023 43.5011 87.7704 43.5372 87.9245 43.6087C88.0785 43.6802 88.2147 43.7852 88.3231 43.916C88.6465 44.3068 88.812 44.8045 88.787 45.3112C88.7801 45.7785 88.6352 46.2333 88.3705 46.6184C88.252 46.8088 88.0852 46.9645 87.8872 47.0697C87.6892 47.175 87.4669 47.2261 87.2428 47.2178C87.0602 47.2229 86.8785 47.191 86.7086 47.1241C86.5386 47.0572 86.384 46.9566 86.2539 46.8284C85.9733 46.5304 85.8066 46.1431 85.7832 45.7345Z" fill="#333330"/>
</g>
<path d="M75.2248 53.5916H60.998V55.3661H75.2248V53.5916Z" fill="white"/>
<path opacity="0.5" d="M69.9283 32.9575H60.998V34.732H69.9283V32.9575Z" fill="#58575E"/>
<path opacity="0.5" d="M90.0307 32.9575H85.6045V34.732H90.0307V32.9575Z" fill="#58575E"/>
<path d="M88.8331 53.5916H77.915V55.3661H88.8331V53.5916Z" fill="white"/>
<path d="M69.8662 98.0665V96.2581H70.3471C70.4607 96.2538 70.5743 96.2629 70.6858 96.2852C70.7786 96.316 70.857 96.3799 70.9059 96.4647C70.9632 96.5682 70.9924 96.685 70.9905 96.8033C70.9966 96.9209 70.9709 97.0379 70.916 97.142C70.8741 97.2214 70.8092 97.2863 70.7298 97.3282C70.6082 97.3713 70.4793 97.3897 70.3505 97.3824H70.1541V98.0597L69.8662 98.0665ZM70.1642 96.5629V97.0776H70.3302C70.4066 97.0822 70.4832 97.0742 70.5571 97.0539C70.5979 97.0368 70.6323 97.0071 70.6553 96.9693C70.6811 96.9239 70.694 96.8724 70.6925 96.8203C70.6946 96.7665 70.6804 96.7134 70.6519 96.6679C70.6295 96.6303 70.5948 96.6015 70.5537 96.5866C70.474 96.567 70.3918 96.559 70.3098 96.5629H70.1642Z" fill="#C2B59B"/>
<path d="M72.8395 98.0665H72.5009L72.3722 97.6567H71.7796L71.6543 98.0665H71.3359L71.915 96.2581H72.23L72.8395 98.0665ZM72.2875 97.3519L72.0844 96.6746L71.8845 97.3519H72.2875Z" fill="#C2B59B"/>
<path d="M73.5956 98.0665V97.3045L73.0537 96.2581H73.3924L73.731 96.9726L74.0697 96.2581H74.4083L73.8631 97.3079V98.0665H73.5956Z" fill="#C2B59B"/>
<path d="M74.9902 98.0665V96.2581H75.4373L75.7048 97.4941L75.9723 96.2581H76.4227V98.0665H76.145V96.6407L75.847 98.0665H75.5592L75.2679 96.6407V98.0665H74.9902Z" fill="#C2B59B"/>
<path d="M77.124 98.0665V96.2581H78.2077V96.5629H77.4085V96.9658H78.1535V97.2706H77.4085V97.7549H78.2348V98.0597L77.124 98.0665Z" fill="#C2B59B"/>
<path d="M78.9131 98.0665V96.2581H79.2009L79.8105 97.467V96.2581H80.0882V98.0665H79.7868L79.1908 96.888V98.0665H78.9131Z" fill="#C2B59B"/>
<path d="M81.1414 98.0665V96.5629H80.7012V96.2581H81.8797V96.5629H81.4394V98.0665H81.1414Z" fill="#C2B59B"/>
<path d="M90.8978 111.799H59.8672V112.903H90.8978V111.799Z" fill="#21211F"/>
<path d="M90.8978 112.903H59.8672V114.01H90.8978V112.903Z" fill="#58575E"/>
<path opacity="0.6" d="M71.4846 30.9288L40.8232 20.0039C39.0403 19.3685 37.0781 19.4671 35.3679 20.2781C33.6577 21.089 32.3396 22.5459 31.7033 24.3285L5.55947 97.687C4.92516 99.4703 5.0247 101.433 5.8362 103.143C6.64771 104.853 8.10482 106.171 9.88743 106.807L40.5489 117.735C42.3318 118.369 44.2935 118.27 46.0029 117.458C47.7124 116.647 49.0297 115.19 49.6654 113.407L75.8126 40.0487C76.4469 38.2653 76.3474 36.3031 75.5359 34.5931C74.7243 32.8831 73.2672 31.5651 71.4846 30.9288Z" fill="#333349"/>
<path opacity="0.25" d="M61.4568 6.46875C66.7423 6.46808 71.9092 8.03478 76.3042 10.9707C80.6992 13.9067 84.1249 18.08 86.148 22.9629C88.1711 27.8458 88.7008 33.219 87.6701 38.403C86.6394 43.587 84.0945 48.3488 80.3574 52.0864C76.6203 55.8241 71.8587 58.3695 66.6749 59.4009C61.491 60.4323 56.1178 59.9033 51.2346 57.8808C46.3514 55.8583 42.1777 52.4331 39.2412 48.0385C36.3047 43.6439 34.7373 38.4771 34.7373 33.1917C34.7373 26.1049 37.5523 19.3083 42.5631 14.2969C47.5739 9.28549 54.3701 6.46965 61.4568 6.46875V6.46875Z" stroke="#FFF9F0" stroke-width="4.32" stroke-miterlimit="10"/>
<path opacity="0.5" d="M61.4545 12.9434C65.4583 12.9434 69.3723 14.1306 72.7014 16.3549C76.0305 18.5793 78.6253 21.7409 80.1577 25.4399C81.6901 29.1389 82.0912 33.2092 81.3103 37.1362C80.5294 41.0631 78.6017 44.6704 75.7707 47.5018C72.9398 50.3331 69.3329 52.2615 65.4061 53.043C61.4793 53.8246 57.4089 53.4241 53.7096 51.8924C50.0103 50.3606 46.8483 47.7664 44.6234 44.4376C42.3985 41.1089 41.2106 37.1951 41.21 33.1913C41.21 27.8218 43.3428 22.6722 47.1392 18.875C50.9357 15.0779 56.085 12.9443 61.4545 12.9434V12.9434Z" stroke="#FFF9F0" stroke-width="6.48" stroke-miterlimit="10"/>
<path opacity="0.75" d="M61.458 19.4214C64.1814 19.4214 66.8436 20.229 69.108 21.742C71.3723 23.255 73.1372 25.4055 74.1794 27.9215C75.2216 30.4376 75.4943 33.2062 74.963 35.8772C74.4317 38.5483 73.1203 41.0018 71.1946 42.9275C69.2688 44.8532 66.8153 46.1646 64.1443 46.6959C61.4733 47.2272 58.7047 46.9545 56.1886 45.9123C53.6726 44.8701 51.5221 43.1053 50.0091 40.8409C48.496 38.5765 47.6885 35.9143 47.6885 33.1909C47.688 31.3826 48.0439 29.5918 48.7357 27.921C49.4275 26.2502 50.4418 24.7321 51.7205 23.4534C52.9992 22.1747 54.5173 21.1604 56.1881 20.4686C57.8589 19.7768 59.6496 19.4209 61.458 19.4214Z" stroke="#FFF9F0" stroke-width="8.64" stroke-miterlimit="10"/>
<path d="M68.7453 33.1875C68.746 34.6305 68.3187 36.0413 67.5174 37.2414C66.7161 38.4415 65.5769 39.377 64.2438 39.9295C62.9108 40.4821 61.4438 40.6268 60.0285 40.3454C58.6132 40.0641 57.3131 39.3693 56.2928 38.3489C55.2724 37.3286 54.5776 36.0285 54.2963 34.6132C54.0149 33.1978 54.1596 31.7309 54.7122 30.3978C55.2647 29.0648 56.2002 27.9256 57.4003 27.1243C58.6004 26.323 60.0112 25.8957 61.4542 25.8964C62.4117 25.8964 63.3598 26.085 64.2444 26.4514C65.129 26.8178 65.9327 27.3548 66.6098 28.0319C67.2868 28.7089 67.8239 29.5127 68.1903 30.3973C68.5567 31.2819 68.7453 32.23 68.7453 33.1875V33.1875Z" stroke="#FFF9F0" stroke-width="10.8" stroke-miterlimit="10"/>
<path d="M65.6916 25.5347L68.3636 30.8108L66.8769 31.9453L63.7715 29.5612L65.6916 25.5347Z" fill="#C4C3BF"/>
<path d="M0.283203 89.959L2.56571 94.7678L6.08768 93.4471L0.283203 89.959Z" fill="#C4C3BF"/>
<path d="M64.3244 26.8181L35.4747 16.54C33.7983 15.9424 31.9532 16.0348 30.3447 16.7967C28.7363 17.5587 27.4961 18.928 26.8967 20.6039L2.29712 89.6276C1.69951 91.3041 1.79183 93.1492 2.55382 94.7577C3.31581 96.3661 4.68512 97.6062 6.36093 98.2057L35.2106 108.487C36.8866 109.085 38.7312 108.992 40.3391 108.23C41.947 107.468 43.1865 106.099 43.7852 104.423L68.3882 35.3961C68.9849 33.7196 68.8921 31.8749 68.1302 30.2667C67.3684 28.6585 65.9996 27.4183 64.3244 26.8181Z" fill="#C4C3BF"/>
<path d="M62.4173 23.0041L33.5676 12.7261C31.8912 12.1285 30.0461 12.2208 28.4376 12.9828C26.8292 13.7448 25.589 15.1141 24.9896 16.7899L0.390031 85.8069C-0.207698 87.4838 -0.115465 89.3294 0.646479 90.9384C1.40842 92.5474 2.77778 93.7882 4.45384 94.3883L33.3001 104.67C34.9766 105.267 36.8217 105.175 38.4301 104.413C40.0385 103.651 41.2787 102.282 41.8781 100.606L66.4777 31.5889C67.0767 29.912 66.9854 28.0659 66.2241 26.4562C65.4627 24.8466 64.0935 23.6049 62.4173 23.0041Z" fill="#F3F4F5"/>
<g style="mix-blend-mode:multiply" opacity="0.6">
<path d="M40.8151 20.8062L51.6892 24.6804C51.8365 24.733 51.9569 24.8419 52.0239 24.9832C52.0909 25.1245 52.099 25.2866 52.0465 25.4339C51.9939 25.5812 51.885 25.7016 51.7437 25.7686C51.6024 25.8356 51.4403 25.8437 51.293 25.7912L40.4189 21.917C40.2716 21.8645 40.1512 21.7556 40.0842 21.6143C40.0172 21.473 40.0091 21.3108 40.0616 21.1635C40.1142 21.0162 40.2231 20.8958 40.3644 20.8288C40.5057 20.7618 40.6678 20.7537 40.8151 20.8062Z" fill="#231F20"/>
</g>
<path d="M25.5806 23.8847L6.60449 77.1464L42.5568 89.9555L61.5329 36.6938L25.5806 23.8847Z" fill="url(#paint1_linear)"/>
<path d="M52.6169 46.9841L25.8059 37.5595C25.4945 37.4498 25.1645 37.403 24.8348 37.4219C24.5052 37.4409 24.1827 37.5251 23.8859 37.6697C23.5891 37.8143 23.324 38.0164 23.1059 38.2644C22.8879 38.5123 22.7213 38.8011 22.6158 39.1139L14.2715 63.7677L45.2817 74.6688L54.1374 50.1946C54.2497 49.884 54.2993 49.5543 54.2835 49.2245C54.2678 48.8947 54.1869 48.5712 54.0455 48.2728C53.9042 47.9744 53.7052 47.7069 53.46 47.4857C53.2148 47.2645 52.9283 47.0941 52.6169 46.9841Z" fill="#E6E7E8"/>
<path d="M52.6187 46.9841L25.8077 37.5595C25.4963 37.4498 25.1662 37.403 24.8366 37.4219C24.507 37.4409 24.1844 37.5251 23.8876 37.6697C23.5908 37.8143 23.3257 38.0164 23.1077 38.2644C22.8897 38.5123 22.7231 38.8011 22.6176 39.1139L21.5576 42.2397L53.0149 53.3L54.1392 50.1946C54.2514 49.884 54.3011 49.5543 54.2853 49.2245C54.2695 48.8947 54.1886 48.5712 54.0473 48.2728C53.906 47.9744 53.707 47.7069 53.4618 47.4857C53.2166 47.2645 52.93 47.0941 52.6187 46.9841Z" fill="#CECCBF"/>
<g opacity="0.7">
<path opacity="0.7" d="M38.106 58.1733L38.6174 56.7103C38.4094 56.5364 38.2441 56.3171 38.1342 56.0693C38.0243 55.8214 37.9727 55.5517 37.9835 55.2808C37.9943 55.0099 38.0672 54.7451 38.1964 54.5068C38.3257 54.2685 38.508 54.063 38.7292 53.9063C38.8658 53.8186 39.0186 53.7593 39.1786 53.7319C39.3386 53.7046 39.5025 53.7098 39.6604 53.7471L39.7824 53.4084L40.1921 53.5541L40.0736 53.8927C40.3372 54.0236 40.5451 54.2447 40.6595 54.5158C40.7752 54.8246 40.7941 55.1612 40.7137 55.481L39.9483 55.3421C39.9801 55.2258 39.9835 55.1036 39.9582 54.9857C39.9328 54.8678 39.8795 54.7578 39.8027 54.6648L39.3218 56.0194C39.6395 56.2295 39.8881 56.5288 40.0364 56.8796C40.1332 57.2346 40.1118 57.6114 39.9754 57.9531C39.8567 58.3444 39.6097 58.6844 39.2744 58.9183C38.9671 59.124 38.5913 59.2006 38.228 59.1316L37.9977 59.7819L37.5879 59.6396L37.8114 59.003C37.1578 58.6643 36.9343 58.0175 37.1341 57.0659L37.9164 57.2318C37.8804 57.4095 37.8804 57.5926 37.9164 57.7703C37.9431 57.9189 38.0085 58.0579 38.106 58.1733ZM38.4989 58.3663C38.6516 58.3832 38.8051 58.3421 38.929 58.2512C39.0703 58.1507 39.1749 58.0068 39.227 57.8414C39.2906 57.6948 39.3003 57.5304 39.2545 57.3774C39.2086 57.2243 39.1101 57.0924 38.9764 57.0049L38.4989 58.3663ZM39.3929 54.5091C39.2688 54.5184 39.1506 54.5657 39.0543 54.6445C38.9446 54.7318 38.8632 54.8496 38.8206 54.9832C38.7689 55.1087 38.7562 55.2468 38.7839 55.3796C38.8117 55.5125 38.8788 55.6339 38.9764 55.7282L39.3929 54.5091Z" fill="#333330"/>
<path opacity="0.7" d="M42.2894 60.5031L41.4868 60.222L42.7838 56.5273C42.3856 56.7523 41.9403 56.881 41.4834 56.9032L41.7983 56.0126C42.0963 55.9848 42.3861 55.8997 42.6517 55.762C42.962 55.6222 43.2313 55.4053 43.434 55.1321L44.0842 55.359L42.2894 60.5031Z" fill="#333330"/>
<path opacity="0.7" d="M44.2471 59.704L45.0869 59.8835C45.0279 60.0801 45.0351 60.2907 45.1072 60.4829C45.134 60.5637 45.1802 60.6367 45.2418 60.6954C45.3035 60.7541 45.3786 60.7968 45.4606 60.8195C45.5426 60.8423 45.629 60.8445 45.7121 60.8259C45.7952 60.8074 45.8724 60.7687 45.9369 60.7132C46.1504 60.5379 46.3052 60.3016 46.3806 60.0359C46.4867 59.7929 46.5117 59.5221 46.4517 59.2638C46.427 59.174 46.3808 59.0916 46.3171 59.0237C46.2533 58.9559 46.174 58.9046 46.0859 58.8743C45.9569 58.8366 45.8206 58.8311 45.689 58.8583C45.5573 58.8854 45.4343 58.9444 45.3308 59.0301L44.7178 58.6914L46.0724 56.1719L48.1991 56.9203L47.8605 57.838L46.3738 57.286L45.9369 58.109C46.2058 58.0479 46.4878 58.0872 46.7297 58.2194C46.9717 58.3516 47.157 58.5676 47.2509 58.8269C47.4267 59.3026 47.4182 59.8268 47.2272 60.2966C47.0724 60.7375 46.7908 61.1227 46.4178 61.404C46.2432 61.5437 46.0348 61.6351 45.8137 61.669C45.5927 61.7029 45.3665 61.6781 45.158 61.5971C44.9853 61.5437 44.825 61.4562 44.6866 61.3399C44.5481 61.2236 44.4344 61.0807 44.3521 60.9198C44.1736 60.5399 44.1364 60.1088 44.2471 59.704Z" fill="#333330"/>
</g>
<path d="M18.2819 58.9342L17.6934 60.6083L31.1148 65.3268L31.7033 63.6527L18.2819 58.9342Z" fill="#51A62F"/>
<path d="M21.1089 50.8768L19.8125 54.5695L33.1888 59.2654L34.4852 55.5727L21.1089 50.8768Z" fill="white"/>
<path opacity="0.5" d="M48.3405 47.6228L47.752 49.2969L51.9308 50.766L52.5193 49.0919L48.3405 47.6228Z" fill="#58575E"/>
<path d="M34.2409 64.5373L33.6523 66.2114L43.9524 69.8326L44.541 68.1585L34.2409 64.5373Z" fill="white"/>
<path d="M42.5578 89.9592L31.9072 86.1663L36.54 27.7897L61.5392 36.6996L42.5578 89.9592Z" fill="white" fill-opacity="0.4"/>
<path d="M22.7591 88.6689C22.2544 88.486 21.7067 88.4572 21.1855 88.5861C20.6644 88.7151 20.1933 88.9959 19.832 89.393C19.4708 89.7902 19.2357 90.2857 19.1566 90.8167C19.0774 91.3477 19.1578 91.8902 19.3876 92.3754C19.6173 92.8606 19.986 93.2666 20.4469 93.5419C20.9078 93.8172 21.4401 93.9494 21.9762 93.9216C22.5124 93.8939 23.0282 93.7075 23.4582 93.386C23.8882 93.0646 24.213 92.6227 24.3914 92.1164C24.6288 91.4426 24.5905 90.7023 24.2848 90.0567C23.9791 89.411 23.4307 88.9123 22.7591 88.6689Z" fill="#9393AA"/>
<path d="M22.4904 89.4105C22.1354 89.283 21.7505 89.2637 21.3844 89.3551C21.0184 89.4464 20.6877 89.6443 20.4341 89.9237C20.1806 90.2031 20.0157 90.5514 19.9602 90.9245C19.9047 91.2977 19.9612 91.6789 20.1224 92.02C20.2837 92.3611 20.5426 92.6466 20.8662 92.8405C21.1898 93.0344 21.5637 93.1279 21.9405 93.1092C22.3173 93.0905 22.6801 92.9605 22.983 92.7355C23.2858 92.5105 23.5151 92.2008 23.6419 91.8454C23.8106 91.3698 23.7841 90.8467 23.5684 90.3905C23.3527 89.9342 22.9651 89.5819 22.4904 89.4105Z" fill="#F3F4F5"/>
<defs>
<linearGradient id="paint0_linear" x1="95.5487" y1="-12.2726" x2="58.3851" y2="122.287" gradientUnits="userSpaceOnUse">
<stop stop-color="#3C588F"/>
<stop offset="0.11" stop-color="#4A6EA2"/>
<stop offset="0.36" stop-color="#699ECA"/>
<stop offset="0.59" stop-color="#7FC0E7"/>
<stop offset="0.77" stop-color="#8CD5F9"/>
<stop offset="0.9" stop-color="#91DDFF"/>
</linearGradient>
<linearGradient id="paint1_linear" x1="59.8065" y1="20.2283" x2="-3.71265" y2="110.776" gradientUnits="userSpaceOnUse">
<stop stop-color="#3C588F"/>
<stop offset="1" stop-color="#5EB8E2"/>
</linearGradient>
</defs>
</svg>
