<svg width="11" height="12" viewBox="0 0 11 12" fill="none" xmlns="http://www.w3.org/2000/svg">
<path fill-rule="evenodd" clip-rule="evenodd" d="M0.530889 10.862C0.437621 10.862 0.345241 10.8328 0.267517 10.7755C0.135905 10.6786 0.0681007 10.5173 0.0910477 10.3555L0.397205 8.19126C0.40742 8.11842 0.435696 8.04928 0.479222 7.99021L6.0962 0.359678C6.23521 0.17092 6.45817 0.0582581 6.69252 0.0582581C6.85123 0.0582581 7.00282 0.108001 7.13088 0.202158L8.32339 1.07992C8.65205 1.32182 8.72266 1.78609 8.48076 2.11475L7.34051 3.66389L7.33992 3.66478L7.33976 3.66492L7.33933 3.66537L2.86408 9.74529C2.82041 9.8045 2.76296 9.85203 2.69649 9.88341L0.720979 10.8192C0.660429 10.8478 0.595585 10.862 0.530889 10.862ZM7.67732 1.70733L6.72346 1.00515L5.93364 2.07818L6.8875 2.78036L7.67732 1.70733ZM1.26105 8.4265L5.4072 2.79354L6.36105 3.49571L2.2149 9.12853L1.08606 9.66327L1.26105 8.4265ZM0.444135 11.1117H9.77097C10.0163 11.1117 10.2151 11.3106 10.2151 11.5559C10.2151 11.8012 10.0163 12 9.77097 12H0.444135C0.198824 12 0 11.8012 0 11.5559C0 11.3106 0.198824 11.1117 0.444135 11.1117Z" fill="#676767"/>
</svg>
