<svg width="158" height="48" viewBox="0 0 158 48" fill="none" xmlns="http://www.w3.org/2000/svg">
<path d="M152.552 0H5.44828C2.43928 0 0 2.23858 0 5V43C0 45.7614 2.43928 48 5.44828 48H152.552C155.561 48 158 45.7614 158 43V5C158 2.23858 155.561 0 152.552 0Z" fill="#00383E"/>
<path d="M66.91 17.13C65.9233 17.13 65.0933 16.81 64.42 16.17C63.7467 15.53 63.41 14.6967 63.41 13.67C63.41 12.6433 63.7467 11.8133 64.42 11.18C65.0933 10.54 65.9233 10.22 66.91 10.22C68.0567 10.22 68.9533 10.6833 69.6 11.61L68.64 12.15C68.4533 11.89 68.2067 11.6767 67.9 11.51C67.6 11.3433 67.27 11.26 66.91 11.26C66.25 11.26 65.7 11.4867 65.26 11.94C64.8267 12.3933 64.61 12.97 64.61 13.67C64.61 14.37 64.8267 14.95 65.26 15.41C65.7 15.8633 66.25 16.09 66.91 16.09C67.2233 16.09 67.52 16.03 67.8 15.91C68.0867 15.79 68.3167 15.65 68.49 15.49V14.45H66.5V13.42H69.66V15.92C68.9333 16.7267 68.0167 17.13 66.91 17.13ZM73.078 17.12C72.3446 17.12 71.738 16.8867 71.258 16.42C70.7846 15.9467 70.548 15.3333 70.548 14.58C70.548 13.8733 70.778 13.2767 71.238 12.79C71.7046 12.2967 72.2913 12.05 72.998 12.05C73.7113 12.05 74.2846 12.2967 74.718 12.79C75.158 13.2833 75.378 13.9133 75.378 14.68V14.93H71.648C71.688 15.31 71.8446 15.6267 72.118 15.88C72.3913 16.1333 72.748 16.26 73.188 16.26C73.4346 16.26 73.6813 16.2133 73.928 16.12C74.1813 16.0267 74.3913 15.8967 74.558 15.73L75.038 16.42C74.5513 16.8867 73.898 17.12 73.078 17.12ZM74.358 14.19C74.3446 13.8567 74.2213 13.56 73.988 13.3C73.7613 13.04 73.4313 12.91 72.998 12.91C72.5846 12.91 72.2613 13.04 72.028 13.3C71.7946 13.5533 71.6646 13.85 71.638 14.19H74.358ZM77.8644 17.12C77.4577 17.12 77.1477 17.0133 76.9344 16.8C76.7277 16.5867 76.6244 16.28 76.6244 15.88V13.09H75.8244V12.17H76.6244V10.85H77.6744V12.17H78.6544V13.09H77.6744V15.62C77.6744 15.7933 77.7144 15.9333 77.7944 16.04C77.8744 16.14 77.9877 16.19 78.1344 16.19C78.3477 16.19 78.5044 16.1333 78.6044 16.02L78.8544 16.81C78.6344 17.0167 78.3044 17.12 77.8644 17.12ZM82.6961 11.58C82.5228 11.58 82.3694 11.5167 82.2361 11.39C82.1094 11.2633 82.0461 11.11 82.0461 10.93C82.0461 10.75 82.1094 10.5967 82.2361 10.47C82.3694 10.3433 82.5228 10.28 82.6961 10.28C82.8761 10.28 83.0294 10.3433 83.1561 10.47C83.2828 10.5967 83.3461 10.75 83.3461 10.93C83.3461 11.11 83.2828 11.2633 83.1561 11.39C83.0294 11.5167 82.8761 11.58 82.6961 11.58ZM83.2261 17H82.1761V12.17H83.2261V17ZM86.0382 17.12C85.6315 17.12 85.3215 17.0133 85.1082 16.8C84.9015 16.5867 84.7982 16.28 84.7982 15.88V13.09H83.9982V12.17H84.7982V10.85H85.8482V12.17H86.8282V13.09H85.8482V15.62C85.8482 15.7933 85.8882 15.9333 85.9682 16.04C86.0482 16.14 86.1615 16.19 86.3082 16.19C86.5215 16.19 86.6782 16.1333 86.7782 16.02L87.0282 16.81C86.8082 17.0167 86.4782 17.12 86.0382 17.12ZM92.5299 17.12C91.7833 17.12 91.1833 16.8767 90.7299 16.39C90.2766 15.8967 90.0499 15.2933 90.0499 14.58C90.0499 13.8667 90.2766 13.2667 90.7299 12.78C91.1833 12.2933 91.7833 12.05 92.5299 12.05C93.2833 12.05 93.8866 12.2933 94.3399 12.78C94.7933 13.2667 95.0199 13.8667 95.0199 14.58C95.0199 15.3 94.7933 15.9033 94.3399 16.39C93.8866 16.8767 93.2833 17.12 92.5299 17.12ZM92.5299 16.19C92.9633 16.19 93.3033 16.0367 93.5499 15.73C93.8033 15.4167 93.9299 15.0333 93.9299 14.58C93.9299 14.1333 93.8033 13.7567 93.5499 13.45C93.3033 13.1367 92.9633 12.98 92.5299 12.98C92.1033 12.98 91.7633 13.1367 91.5099 13.45C91.2633 13.7567 91.1399 14.1333 91.1399 14.58C91.1399 15.0333 91.2633 15.4167 91.5099 15.73C91.7633 16.0367 92.1033 16.19 92.5299 16.19ZM100.392 17H99.3423V13.98C99.3423 13.3133 99.019 12.98 98.3723 12.98C98.119 12.98 97.8823 13.0433 97.6623 13.17C97.4423 13.2967 97.2657 13.45 97.1323 13.63V17H96.0823V12.17H97.1323V12.83C97.3123 12.6167 97.5523 12.4333 97.8523 12.28C98.1523 12.1267 98.479 12.05 98.8323 12.05C99.3457 12.05 99.7323 12.1833 99.9923 12.45C100.259 12.7167 100.392 13.1 100.392 13.6V17Z" fill="white"/>
<path d="M65.576 34H64.248V23.328H68.536C69.5707 23.328 70.3867 23.6373 70.984 24.256C71.5813 24.8747 71.88 25.6373 71.88 26.544C71.88 27.4507 71.576 28.2133 70.968 28.832C70.3707 29.4507 69.56 29.76 68.536 29.76H65.576V34ZM68.376 28.576C69.0053 28.576 69.5173 28.3893 69.912 28.016C70.3067 27.632 70.504 27.1413 70.504 26.544C70.504 25.9467 70.3067 25.4613 69.912 25.088C69.5173 24.704 69.0053 24.512 68.376 24.512H65.576V28.576H68.376ZM74.7906 34H73.5906V23.328H74.7906V34ZM83.2164 34H82.0164V33.12C81.3657 33.8347 80.5124 34.192 79.4564 34.192C78.7417 34.192 78.1124 33.9627 77.5684 33.504C77.0244 33.0453 76.7524 32.4213 76.7524 31.632C76.7524 30.8213 77.019 30.1973 77.5524 29.76C78.0964 29.312 78.731 29.088 79.4564 29.088C80.555 29.088 81.4084 29.44 82.0164 30.144V28.752C82.0164 28.24 81.835 27.84 81.4724 27.552C81.1097 27.264 80.6404 27.12 80.0644 27.12C79.1577 27.12 78.3684 27.4773 77.6964 28.192L77.1364 27.36C77.9577 26.5067 78.987 26.08 80.2244 26.08C81.1097 26.08 81.8297 26.2933 82.3844 26.72C82.939 27.1467 83.2164 27.8027 83.2164 28.688V34ZM79.8884 33.328C80.8484 33.328 81.5577 33.008 82.0164 32.368V30.912C81.5577 30.272 80.8484 29.952 79.8884 29.952C79.3337 29.952 78.875 30.112 78.5124 30.432C78.1604 30.7413 77.9844 31.1467 77.9844 31.648C77.9844 32.1387 78.1604 32.544 78.5124 32.864C78.875 33.1733 79.3337 33.328 79.8884 33.328ZM85.1899 37.024L85.3819 35.936C85.5739 36.0213 85.7925 36.064 86.0379 36.064C86.3152 36.064 86.5445 36.0053 86.7259 35.888C86.9072 35.7707 87.0619 35.5573 87.1899 35.248L87.7019 34.08L84.4699 26.272H85.7659L88.3419 32.608L90.9019 26.272H92.2139L88.3419 35.568C87.9152 36.592 87.1579 37.1147 86.0699 37.136C85.7499 37.136 85.4565 37.0987 85.1899 37.024ZM101.095 34.192C99.3666 34.192 98.0013 33.6267 96.9986 32.496L97.7826 31.488C98.6893 32.5013 99.8093 33.008 101.143 33.008C102.007 33.008 102.641 32.8267 103.047 32.464C103.452 32.0907 103.655 31.6587 103.655 31.168C103.655 30.7947 103.537 30.48 103.303 30.224C103.068 29.968 102.764 29.7707 102.391 29.632C102.028 29.4827 101.617 29.3493 101.159 29.232C100.711 29.1147 100.263 28.9867 99.8146 28.848C99.3666 28.6987 98.956 28.5227 98.5826 28.32C98.22 28.1173 97.9213 27.8293 97.6866 27.456C97.452 27.0827 97.3346 26.64 97.3346 26.128C97.3346 25.2533 97.6813 24.544 98.3746 24C99.068 23.4453 99.9426 23.168 100.999 23.168C102.588 23.168 103.852 23.664 104.791 24.656L103.991 25.632C103.212 24.7787 102.183 24.352 100.903 24.352C100.263 24.352 99.7346 24.512 99.3186 24.832C98.9133 25.1413 98.7106 25.5467 98.7106 26.048C98.7106 26.4213 98.8653 26.7307 99.1746 26.976C99.4946 27.2213 99.884 27.4027 100.343 27.52C100.812 27.6373 101.319 27.7867 101.863 27.968C102.417 28.1387 102.924 28.3253 103.383 28.528C103.852 28.72 104.241 29.0347 104.551 29.472C104.871 29.9093 105.031 30.4373 105.031 31.056C105.031 31.9307 104.705 32.672 104.055 33.28C103.415 33.888 102.428 34.192 101.095 34.192ZM108.652 34.192C108.087 34.192 107.66 34.0373 107.372 33.728C107.084 33.4187 106.94 32.9707 106.94 32.384V27.328H105.66V26.272H106.94V24.16H108.14V26.272H109.708V27.328H108.14V32.128C108.14 32.4267 108.204 32.6667 108.332 32.848C108.471 33.0293 108.668 33.12 108.924 33.12C109.276 33.12 109.548 33.0133 109.74 32.8L110.092 33.696C109.74 34.0267 109.26 34.192 108.652 34.192ZM117.547 33.024C116.854 33.8027 115.931 34.192 114.779 34.192C113.627 34.192 112.699 33.8027 111.995 33.024C111.302 32.2453 110.955 31.28 110.955 30.128C110.955 28.976 111.302 28.016 111.995 27.248C112.699 26.4693 113.627 26.08 114.779 26.08C115.931 26.08 116.854 26.4693 117.547 27.248C118.251 28.016 118.603 28.976 118.603 30.128C118.603 31.28 118.251 32.2453 117.547 33.024ZM112.891 32.256C113.36 32.832 113.99 33.12 114.779 33.12C115.568 33.12 116.192 32.832 116.651 32.256C117.11 31.6693 117.339 30.96 117.339 30.128C117.339 29.296 117.11 28.592 116.651 28.016C116.192 27.44 115.568 27.152 114.779 27.152C113.99 27.152 113.36 27.4453 112.891 28.032C112.432 28.608 112.203 29.3067 112.203 30.128C112.203 30.96 112.432 31.6693 112.891 32.256ZM121.759 34H120.559V26.272H121.759V27.52C122.474 26.5813 123.333 26.112 124.335 26.112V27.344C124.186 27.312 124.026 27.296 123.855 27.296C123.493 27.296 123.098 27.424 122.671 27.68C122.245 27.936 121.941 28.2187 121.759 28.528V34ZM129.329 34.192C128.177 34.192 127.233 33.8187 126.497 33.072C125.761 32.3147 125.393 31.3333 125.393 30.128C125.393 28.9973 125.755 28.0427 126.481 27.264C127.206 26.4747 128.113 26.08 129.201 26.08C130.342 26.08 131.243 26.4747 131.905 27.264C132.577 28.0427 132.913 29.0293 132.913 30.224V30.528H126.657C126.71 31.2853 126.987 31.92 127.489 32.432C127.99 32.944 128.641 33.2 129.441 33.2C130.401 33.2 131.195 32.8747 131.825 32.224L132.401 33.008C131.611 33.7973 130.587 34.192 129.329 34.192ZM131.729 29.648C131.718 28.9867 131.494 28.3947 131.057 27.872C130.619 27.3387 129.995 27.072 129.185 27.072C128.417 27.072 127.809 27.3333 127.361 27.856C126.923 28.3787 126.689 28.976 126.657 29.648H131.729Z" fill="white"/>
<path fill-rule="evenodd" clip-rule="evenodd" d="M35.369 23.7403L38.626 26.9985L25.598 33.5115L35.369 23.7403ZM24.63 13L34.308 22.6803L24.0347 32.9543C24.0117 32.8695 24 32.7817 24 32.6932V13.9293C24 13.5077 24.2609 13.1471 24.63 13ZM39.199 19.9105L44.2111 22.4168C44.7051 22.6638 44.9053 23.2645 44.6584 23.7585C44.5616 23.952 44.4047 24.1089 44.2111 24.2057L40.04 26.2905L36.429 22.6803L39.199 19.9105ZM28.122 14.3715L37.784 19.2035L35.369 21.6193L28.122 14.3715Z" fill="white"/>
</svg>
