<svg width="145" height="48" viewBox="0 0 145 48" fill="none" xmlns="http://www.w3.org/2000/svg">
<rect width="145" height="48" rx="5" fill="white"/>
<path d="M57.91 16.13C56.9233 16.13 56.0933 15.81 55.42 15.17C54.7467 14.53 54.41 13.6967 54.41 12.67C54.41 11.6433 54.7467 10.8133 55.42 10.18C56.0933 9.54 56.9233 9.22 57.91 9.22C59.0567 9.22 59.9533 9.68333 60.6 10.61L59.64 11.15C59.4533 10.89 59.2067 10.6767 58.9 10.51C58.6 10.3433 58.27 10.26 57.91 10.26C57.25 10.26 56.7 10.4867 56.26 10.94C55.8267 11.3933 55.61 11.97 55.61 12.67C55.61 13.37 55.8267 13.95 56.26 14.41C56.7 14.8633 57.25 15.09 57.91 15.09C58.2233 15.09 58.52 15.03 58.8 14.91C59.0867 14.79 59.3167 14.65 59.49 14.49V13.45H57.5V12.42H60.66V14.92C59.9333 15.7267 59.0167 16.13 57.91 16.13ZM64.078 16.12C63.3446 16.12 62.738 15.8867 62.258 15.42C61.7846 14.9467 61.548 14.3333 61.548 13.58C61.548 12.8733 61.778 12.2767 62.238 11.79C62.7046 11.2967 63.2913 11.05 63.998 11.05C64.7113 11.05 65.2846 11.2967 65.718 11.79C66.158 12.2833 66.378 12.9133 66.378 13.68V13.93H62.648C62.688 14.31 62.8446 14.6267 63.118 14.88C63.3913 15.1333 63.748 15.26 64.188 15.26C64.4346 15.26 64.6813 15.2133 64.928 15.12C65.1813 15.0267 65.3913 14.8967 65.558 14.73L66.038 15.42C65.5513 15.8867 64.898 16.12 64.078 16.12ZM65.358 13.19C65.3446 12.8567 65.2213 12.56 64.988 12.3C64.7613 12.04 64.4313 11.91 63.998 11.91C63.5846 11.91 63.2613 12.04 63.028 12.3C62.7946 12.5533 62.6646 12.85 62.638 13.19H65.358ZM68.8644 16.12C68.4577 16.12 68.1477 16.0133 67.9344 15.8C67.7277 15.5867 67.6244 15.28 67.6244 14.88V12.09H66.8244V11.17H67.6244V9.85H68.6744V11.17H69.6544V12.09H68.6744V14.62C68.6744 14.7933 68.7144 14.9333 68.7944 15.04C68.8744 15.14 68.9877 15.19 69.1344 15.19C69.3477 15.19 69.5044 15.1333 69.6044 15.02L69.8544 15.81C69.6344 16.0167 69.3044 16.12 68.8644 16.12ZM73.6961 10.58C73.5228 10.58 73.3694 10.5167 73.2361 10.39C73.1094 10.2633 73.0461 10.11 73.0461 9.93C73.0461 9.75 73.1094 9.59667 73.2361 9.47C73.3694 9.34333 73.5228 9.28 73.6961 9.28C73.8761 9.28 74.0294 9.34333 74.1561 9.47C74.2828 9.59667 74.3461 9.75 74.3461 9.93C74.3461 10.11 74.2828 10.2633 74.1561 10.39C74.0294 10.5167 73.8761 10.58 73.6961 10.58ZM74.2261 16H73.1761V11.17H74.2261V16ZM77.0382 16.12C76.6315 16.12 76.3215 16.0133 76.1082 15.8C75.9015 15.5867 75.7982 15.28 75.7982 14.88V12.09H74.9982V11.17H75.7982V9.85H76.8482V11.17H77.8282V12.09H76.8482V14.62C76.8482 14.7933 76.8882 14.9333 76.9682 15.04C77.0482 15.14 77.1615 15.19 77.3082 15.19C77.5215 15.19 77.6782 15.1333 77.7782 15.02L78.0282 15.81C77.8082 16.0167 77.4782 16.12 77.0382 16.12ZM83.5299 16.12C82.7833 16.12 82.1833 15.8767 81.7299 15.39C81.2766 14.8967 81.0499 14.2933 81.0499 13.58C81.0499 12.8667 81.2766 12.2667 81.7299 11.78C82.1833 11.2933 82.7833 11.05 83.5299 11.05C84.2833 11.05 84.8866 11.2933 85.3399 11.78C85.7933 12.2667 86.0199 12.8667 86.0199 13.58C86.0199 14.3 85.7933 14.9033 85.3399 15.39C84.8866 15.8767 84.2833 16.12 83.5299 16.12ZM83.5299 15.19C83.9633 15.19 84.3033 15.0367 84.5499 14.73C84.8033 14.4167 84.9299 14.0333 84.9299 13.58C84.9299 13.1333 84.8033 12.7567 84.5499 12.45C84.3033 12.1367 83.9633 11.98 83.5299 11.98C83.1033 11.98 82.7633 12.1367 82.5099 12.45C82.2633 12.7567 82.1399 13.1333 82.1399 13.58C82.1399 14.0333 82.2633 14.4167 82.5099 14.73C82.7633 15.0367 83.1033 15.19 83.5299 15.19ZM91.3923 16H90.3423V12.98C90.3423 12.3133 90.019 11.98 89.3723 11.98C89.119 11.98 88.8823 12.0433 88.6623 12.17C88.4423 12.2967 88.2657 12.45 88.1323 12.63V16H87.0823V11.17H88.1323V11.83C88.3123 11.6167 88.5523 11.4333 88.8523 11.28C89.1523 11.1267 89.479 11.05 89.8323 11.05C90.3457 11.05 90.7323 11.1833 90.9923 11.45C91.259 11.7167 91.3923 12.1 91.3923 12.6V16Z" fill="#022A69"/>
<path d="M57.328 34H55.056V23.328H60.048C61.168 23.328 62.0427 23.6587 62.672 24.32C63.312 24.9707 63.632 25.7867 63.632 26.768C63.632 27.7387 63.312 28.5547 62.672 29.216C62.032 29.8773 61.1573 30.208 60.048 30.208H57.328V34ZM59.744 28.208C60.2027 28.208 60.576 28.08 60.864 27.824C61.1627 27.5573 61.312 27.2053 61.312 26.768C61.312 26.3307 61.1627 25.984 60.864 25.728C60.576 25.4613 60.2027 25.328 59.744 25.328H57.328V28.208H59.744ZM67.0244 34H64.9924V23.328H67.0244V34ZM75.7113 34H73.6793V33.2C73.1246 33.8613 72.3086 34.192 71.2313 34.192C70.5379 34.192 69.9139 33.968 69.3593 33.52C68.8153 33.0613 68.5433 32.432 68.5433 31.632C68.5433 30.8 68.8099 30.176 69.3433 29.76C69.8873 29.344 70.5166 29.136 71.2313 29.136C72.3299 29.136 73.1459 29.4507 73.6793 30.08V29.04C73.6793 28.6453 73.5246 28.3307 73.2153 28.096C72.9059 27.8613 72.4953 27.744 71.9833 27.744C71.1406 27.744 70.3886 28.048 69.7273 28.656L68.9593 27.296C69.8766 26.4853 71.0019 26.08 72.3353 26.08C73.3273 26.08 74.1379 26.3093 74.7673 26.768C75.3966 27.2267 75.7113 27.9733 75.7113 29.008V34ZM72.0473 32.816C72.8046 32.816 73.3486 32.592 73.6793 32.144V31.184C73.3486 30.736 72.8046 30.512 72.0473 30.512C71.6313 30.512 71.2846 30.6187 71.0073 30.832C70.7299 31.0347 70.5913 31.3173 70.5913 31.68C70.5913 32.032 70.7299 32.3093 71.0073 32.512C71.2846 32.7147 71.6313 32.816 72.0473 32.816ZM77.4548 37.024L77.7588 35.2C77.9508 35.2853 78.1641 35.328 78.3988 35.328C78.9428 35.328 79.3001 35.1413 79.4708 34.768L79.7588 34.112L76.6227 26.272H78.7988L80.8148 31.648L82.8308 26.272H85.0228L81.3908 35.264C81.1241 35.9467 80.7508 36.4213 80.2708 36.688C79.7908 36.9653 79.1881 37.1147 78.4628 37.136C78.0894 37.136 77.7534 37.0987 77.4548 37.024ZM93.8636 34.192C91.965 34.192 90.461 33.6267 89.3516 32.496L90.5836 30.768C91.501 31.728 92.6316 32.208 93.9756 32.208C94.5623 32.208 95.0156 32.096 95.3356 31.872C95.6663 31.6373 95.8316 31.3547 95.8316 31.024C95.8316 30.736 95.677 30.496 95.3676 30.304C95.069 30.112 94.6903 29.9733 94.2316 29.888C93.7836 29.8027 93.293 29.68 92.7596 29.52C92.2263 29.36 91.7303 29.1787 91.2716 28.976C90.8236 28.7733 90.445 28.4533 90.1356 28.016C89.837 27.5787 89.6876 27.0453 89.6876 26.416C89.6876 25.4987 90.0556 24.7307 90.7916 24.112C91.5276 23.4827 92.509 23.168 93.7356 23.168C95.4316 23.168 96.8183 23.664 97.8956 24.656L96.6316 26.32C95.789 25.5413 94.7543 25.152 93.5276 25.152C93.0476 25.152 92.6743 25.248 92.4076 25.44C92.141 25.632 92.0076 25.8933 92.0076 26.224C92.0076 26.48 92.157 26.6987 92.4556 26.88C92.765 27.0507 93.1436 27.1787 93.5916 27.264C94.0503 27.3493 94.541 27.4773 95.0636 27.648C95.597 27.808 96.0876 27.9947 96.5356 28.208C96.9943 28.4107 97.373 28.736 97.6716 29.184C97.981 29.6213 98.1356 30.1493 98.1356 30.768C98.1356 31.792 97.7676 32.6187 97.0316 33.248C96.3063 33.8773 95.2503 34.192 93.8636 34.192ZM101.991 34.192C101.276 34.192 100.732 34.0107 100.359 33.648C99.9853 33.2853 99.7986 32.7627 99.7986 32.08V28.048H98.5186V26.272H99.7986V24.16H101.847V26.272H103.415V28.048H101.847V31.536C101.847 31.7813 101.911 31.984 102.039 32.144C102.167 32.304 102.337 32.384 102.551 32.384C102.871 32.384 103.105 32.3093 103.255 32.16L103.687 33.696C103.313 34.0267 102.748 34.192 101.991 34.192ZM111.365 33.024C110.618 33.8027 109.626 34.192 108.389 34.192C107.152 34.192 106.16 33.8027 105.413 33.024C104.677 32.2347 104.309 31.2693 104.309 30.128C104.309 28.9867 104.677 28.0267 105.413 27.248C106.16 26.4693 107.152 26.08 108.389 26.08C109.626 26.08 110.618 26.4693 111.365 27.248C112.112 28.0267 112.485 28.9867 112.485 30.128C112.485 31.2693 112.112 32.2347 111.365 33.024ZM106.949 31.744C107.301 32.1707 107.781 32.384 108.389 32.384C108.997 32.384 109.477 32.1707 109.829 31.744C110.192 31.3067 110.373 30.768 110.373 30.128C110.373 29.4987 110.192 28.9707 109.829 28.544C109.477 28.1067 108.997 27.888 108.389 27.888C107.781 27.888 107.301 28.1067 106.949 28.544C106.597 28.9707 106.421 29.4987 106.421 30.128C106.421 30.768 106.597 31.3067 106.949 31.744ZM116.024 34H113.992V26.272H116.024V27.328C116.312 26.9653 116.68 26.6667 117.128 26.432C117.576 26.1973 118.03 26.08 118.488 26.08V28.064C118.35 28.032 118.163 28.016 117.928 28.016C117.587 28.016 117.224 28.1013 116.84 28.272C116.456 28.4427 116.184 28.6507 116.024 28.896V34ZM123.39 34.192C122.195 34.192 121.209 33.8187 120.43 33.072C119.651 32.3253 119.262 31.344 119.262 30.128C119.262 28.9867 119.635 28.0267 120.382 27.248C121.139 26.4693 122.099 26.08 123.262 26.08C124.414 26.08 125.347 26.4747 126.062 27.264C126.777 28.0427 127.134 29.0667 127.134 30.336V30.784H121.39C121.454 31.296 121.683 31.7227 122.078 32.064C122.473 32.4053 122.985 32.576 123.614 32.576C123.955 32.576 124.323 32.5067 124.718 32.368C125.123 32.2293 125.443 32.0427 125.678 31.808L126.574 33.12C125.795 33.8347 124.734 34.192 123.39 34.192ZM125.166 29.408C125.134 28.9707 124.958 28.576 124.638 28.224C124.329 27.872 123.87 27.696 123.262 27.696C122.686 27.696 122.238 27.872 121.918 28.224C121.598 28.5653 121.411 28.96 121.358 29.408H125.166Z" fill="#022A69"/>
<path fill-rule="evenodd" clip-rule="evenodd" d="M21.1213 15.3714L28.3692 22.6192L30.7851 20.2033L21.1213 15.3714ZM17.6286 14L27.3085 23.6799L17.0339 33.9545C17.0119 33.8718 17 33.7842 17 33.6927V14.9288C17 14.4916 17.2705 14.1443 17.6286 14ZM18.598 34.5117L31.6262 27.9976L28.3692 24.7405L18.598 34.5117ZM33.0404 27.2905L37.2111 25.2051C37.9482 24.8366 37.9482 23.7848 37.2111 23.4163L32.1993 20.9104L29.4298 23.6799L33.0404 27.2905Z" fill="#022A69"/>
</svg>
