<svg width="103" height="103" viewBox="0 0 103 103" fill="none" xmlns="http://www.w3.org/2000/svg">
<path fill-rule="evenodd" clip-rule="evenodd" d="M51.5 102C79.3904 102 102 79.3904 102 51.5C102 23.6096 79.3904 1 51.5 1C23.6096 1 1 23.6096 1 51.5C1 79.3904 23.6096 102 51.5 102Z" fill="#FCFDFD" stroke="#00AA63"/>
<path fill-rule="evenodd" clip-rule="evenodd" d="M79.716 64.38C77.7284 69.7666 74.7226 74.4502 70.7809 78.2994C66.2941 82.6806 60.419 86.1621 53.3185 88.6455C53.0855 88.7267 52.8424 88.7933 52.5981 88.8424C52.2754 88.9061 51.9471 88.9405 51.6216 88.945H51.5578C51.2108 88.945 50.8622 88.9101 50.5164 88.8424C50.2721 88.7933 50.0323 88.7267 49.8005 88.6472C42.6915 86.1677 36.8091 82.688 32.3178 78.3067C28.3744 74.4575 25.3691 69.7767 23.3844 64.3901C19.7755 54.5964 19.9809 43.8075 20.1461 35.1375L20.149 35.0044C20.1823 34.2885 20.2037 33.5364 20.2155 32.706C20.2759 28.6288 23.5175 25.2558 27.5953 25.0284C36.0971 24.5539 42.674 21.7811 48.2936 16.3037L48.3427 16.2586C49.2758 15.4028 50.4515 14.983 51.6216 15.0005C52.7499 15.0152 53.8737 15.4344 54.7735 16.2586L54.8214 16.3037C60.4421 21.7811 67.0191 24.5539 75.5209 25.0284C79.5986 25.2558 82.8403 28.6288 82.9006 32.706C82.9125 33.5421 82.9339 34.293 82.9672 35.0044L82.9689 35.0608C83.1336 43.7471 83.3378 54.5575 79.716 64.38Z" fill="#00DD80"/>
<path fill-rule="evenodd" clip-rule="evenodd" d="M79.7155 64.38C77.728 69.7665 74.7222 74.4501 70.7804 78.2994C66.2937 82.6806 60.4185 86.162 53.3181 88.6454C53.0851 88.7267 52.8419 88.7933 52.5976 88.8423C52.275 88.9061 51.9466 88.9405 51.6211 88.945V15.0005C52.7494 15.0152 53.8732 15.4343 54.773 16.2586L54.821 16.3037C60.4417 21.7811 67.0186 24.5539 75.5204 25.0284C79.5982 25.2557 82.8398 28.6288 82.9002 32.706C82.912 33.542 82.9335 34.2929 82.9667 35.0043L82.9684 35.0608C83.1332 43.7471 83.3374 54.5574 79.7155 64.38Z" fill="#00AA63"/>
<path fill-rule="evenodd" clip-rule="evenodd" d="M69.985 51.9724C69.985 62.112 61.7522 70.3656 51.6211 70.4017H51.5562C41.3952 70.4017 33.127 62.134 33.127 51.9724C33.127 41.8114 41.3952 33.5437 51.5562 33.5437H51.6211C61.7522 33.5798 69.985 41.8334 69.985 51.9724Z" fill="white"/>
<path fill-rule="evenodd" clip-rule="evenodd" d="M69.9849 51.9724C69.9849 62.112 61.7522 70.3656 51.6211 70.4017V33.5437C61.7522 33.5798 69.9849 41.8334 69.9849 51.9724Z" fill="#E1EBF0"/>
<path fill-rule="evenodd" clip-rule="evenodd" d="M59.921 49.3188L51.6212 57.6198L49.8277 59.4133C49.404 59.8369 48.8483 60.0485 48.2932 60.0485C47.7375 60.0485 47.1824 59.8369 46.7581 59.4133L42.9021 55.5556C42.0548 54.7082 42.0548 53.3356 42.9021 52.4877C43.7484 51.6403 45.1226 51.6403 45.97 52.4877L48.2932 54.8109L56.8531 46.2509C57.7005 45.403 59.0748 45.403 59.921 46.2509C60.7684 47.0983 60.7684 48.4726 59.921 49.3188Z" fill="#B4D2D7"/>
<path fill-rule="evenodd" clip-rule="evenodd" d="M59.921 49.3188L51.6211 57.6198V51.4824L56.8531 46.2509C57.7004 45.403 59.0747 45.403 59.921 46.2509C60.7683 47.0983 60.7683 48.4726 59.921 49.3188Z" fill="#6FA5AA"/>
</svg>
