<svg width="100" height="100" viewBox="0 0 100 100" fill="none" xmlns="http://www.w3.org/2000/svg">
<circle cx="50" cy="50" r="49.5" fill="white" stroke="#DBEBED"/>
<path fill-rule="evenodd" clip-rule="evenodd" d="M75.2321 36.1675C74.9933 35.7589 74.6019 35.4619 74.1441 35.3419C73.6864 35.2219 73.1997 35.2886 72.7911 35.5275C72.3825 35.7663 72.0856 36.1576 71.9656 36.6154C71.8455 37.0732 71.9123 37.5599 72.1511 37.9684C75.3039 43.3668 76.4132 49.7178 75.2772 55.8653C74.1411 62.0128 70.8352 67.5479 65.9613 71.4629C61.0875 75.3779 54.9697 77.4125 48.7219 77.1963C42.4741 76.98 36.5117 74.5273 31.9201 70.2846C27.3286 66.042 24.4134 60.2915 23.7051 54.0802C22.9968 47.8689 24.5427 41.6098 28.0612 36.4423C31.5797 31.2749 36.8368 27.5428 42.8756 25.9255C48.9143 24.3083 55.3331 24.9133 60.9632 27.6306L59.1564 28.1845C58.9317 28.2526 58.7226 28.3644 58.5411 28.5135C58.3597 28.6626 58.2094 28.8461 58.099 29.0533C57.9886 29.2606 57.9202 29.4876 57.8977 29.7214C57.8752 29.9551 57.8991 30.191 57.9679 30.4156C58.0368 30.6401 58.1493 30.8488 58.299 31.0298C58.4487 31.2107 58.6326 31.3603 58.8402 31.4701C59.0479 31.5798 59.2751 31.6474 59.509 31.6692C59.7428 31.6909 59.9786 31.6662 60.2029 31.5966L66.4062 29.6945C66.6302 29.6258 66.8385 29.5136 67.0192 29.3644C67.1999 29.2152 67.3495 29.0318 67.4593 28.8248C67.5691 28.6178 67.6371 28.3912 67.6593 28.1579C67.6816 27.9246 67.6576 27.6893 67.5889 27.4652L65.6869 21.262C65.6183 21.0378 65.5061 20.8294 65.3569 20.6486C65.2077 20.4679 65.0244 20.3182 64.8173 20.2083C64.6103 20.0984 64.3837 20.0304 64.1503 20.0081C63.917 19.9858 63.6815 20.0097 63.4574 20.0784C63.2333 20.1472 63.025 20.2594 62.8442 20.4086C62.6635 20.5579 62.514 20.7413 62.4042 20.9484C62.2943 21.1555 62.2264 21.3822 62.2042 21.6155C62.182 21.8489 62.206 22.0843 62.2748 22.3084L62.994 24.6542C56.6334 21.4434 49.329 20.6314 42.4185 22.3669C35.5081 24.1025 29.4541 28.2695 25.3655 34.1047C21.2768 39.9399 19.4271 47.0528 20.1552 54.1406C20.8832 61.2283 24.1403 67.8166 29.3298 72.6988C34.5194 77.5809 41.294 80.4302 48.413 80.7247C55.532 81.0191 62.5188 78.7392 68.0938 74.3023C73.6688 69.8654 77.4589 63.5686 78.7698 56.5652C80.0808 49.5617 78.8249 42.3204 75.2321 36.1675ZM49.6208 31.4867C45.7385 31.4867 41.9435 32.6379 38.7155 34.7947C35.4875 36.9516 32.9717 40.0172 31.486 43.6039C30.0003 47.1906 29.6116 51.1373 30.3689 54.9449C31.1263 58.7526 32.9958 62.2501 35.7409 64.9953C38.4861 67.7404 41.9836 69.6099 45.7912 70.3673C49.5989 71.1247 53.5456 70.736 57.1323 69.2503C60.719 67.7647 63.7846 65.2488 65.9415 62.0208C68.0983 58.7929 69.2496 54.9978 69.2496 51.1156C69.2437 45.9115 67.1738 40.9222 63.4939 37.2424C59.8141 33.5625 54.8249 31.4926 49.6208 31.4867ZM63.8962 52.9001H65.5755C65.2393 55.9114 64.0535 58.765 62.1566 61.1278L60.9766 59.948C60.6418 59.6134 60.1879 59.4254 59.7146 59.4255C59.2413 59.4256 58.7874 59.6137 58.4528 59.9484C58.1182 60.2832 57.9302 60.7371 57.9303 61.2104C57.9304 61.6837 58.1185 62.1376 58.4532 62.4722L59.6328 63.6516C57.27 65.5485 54.4165 66.7342 51.4052 67.0703V65.3911C51.4044 64.9183 51.216 64.4652 50.8815 64.1312C50.5469 63.7972 50.0935 63.6096 49.6207 63.6096C49.148 63.6096 48.6945 63.7972 48.36 64.1312C48.0254 64.4652 47.8371 64.9183 47.8363 65.3911V67.0703C44.825 66.7342 41.9714 65.5485 39.6087 63.6516L40.7883 62.4722C41.123 62.1376 41.3111 61.6838 41.3112 61.2105C41.3113 60.7372 41.1233 60.2832 40.7887 59.9485C40.4541 59.6138 40.0003 59.4257 39.527 59.4256C39.0537 59.4255 38.5997 59.6134 38.265 59.948L37.0849 61.1278C35.188 58.765 34.0022 55.9114 33.666 52.9001H35.3452C35.5802 52.9011 35.8131 52.8557 36.0305 52.7664C36.2479 52.6772 36.4455 52.5459 36.612 52.3801C36.7785 52.2143 36.9107 52.0173 37.0008 51.8003C37.091 51.5833 37.1374 51.3506 37.1374 51.1156C37.1374 50.8806 37.091 50.6479 37.0008 50.4309C36.9107 50.2139 36.7785 50.0169 36.612 49.8511C36.4455 49.6853 36.2479 49.554 36.0305 49.4648C35.8131 49.3755 35.5802 49.3301 35.3452 49.3311H33.666C34.0022 46.3197 35.188 43.466 37.085 41.1032L38.265 42.2831C38.5997 42.6171 39.0534 42.8046 39.5263 42.8044C39.9992 42.8041 40.4526 42.6162 40.787 42.2818C41.1214 41.9474 41.3093 41.494 41.3096 41.0211C41.3098 40.5482 41.1223 40.0945 40.7883 39.7598L39.6082 38.5798C41.9711 36.6828 44.8248 35.497 47.8363 35.1608V36.84C47.8359 37.0746 47.8818 37.3069 47.9713 37.5238C48.0608 37.7406 48.1922 37.9377 48.3579 38.1037C48.5236 38.2697 48.7205 38.4014 48.9372 38.4912C49.1539 38.5811 49.3861 38.6273 49.6207 38.6273C49.8553 38.6273 50.0876 38.5811 50.3043 38.4912C50.5209 38.4014 50.7178 38.2697 50.8835 38.1037C51.0493 37.9377 51.1806 37.7406 51.2701 37.5238C51.3596 37.3069 51.4055 37.0746 51.4051 36.84V35.1609C54.4166 35.497 57.2703 36.6828 59.6332 38.5798L58.4532 39.7598C58.2875 39.9255 58.1561 40.1222 58.0664 40.3387C57.9767 40.5552 57.9306 40.7872 57.9306 41.0215C57.9306 41.2558 57.9768 41.4878 58.0664 41.7043C58.1561 41.9208 58.2875 42.1175 58.4532 42.2831C58.6189 42.4488 58.8156 42.5803 59.0321 42.6699C59.2486 42.7596 59.4806 42.8057 59.7149 42.8057C59.9492 42.8057 60.1812 42.7596 60.3977 42.6699C60.6142 42.5802 60.8109 42.4488 60.9766 42.2831L62.1565 41.1032C64.0535 43.466 65.2393 46.3197 65.5755 49.3311H63.8962C63.4243 49.3332 62.9724 49.5221 62.6394 49.8565C62.3064 50.1909 62.1194 50.6437 62.1194 51.1156C62.1194 51.5876 62.3064 52.0403 62.6394 52.3747C62.9724 52.7091 63.4243 52.898 63.8962 52.9001ZM51.4055 42.1936V50.3765L55.79 54.7614C55.9557 54.9271 56.0872 55.1238 56.1768 55.3403C56.2665 55.5568 56.3126 55.7888 56.3126 56.0231C56.3126 56.2574 56.2665 56.4894 56.1768 56.7059C56.0871 56.9224 55.9557 57.1191 55.79 57.2847C55.6243 57.4504 55.4276 57.5818 55.2111 57.6715C54.9947 57.7612 54.7626 57.8073 54.5283 57.8073C54.294 57.8073 54.062 57.7612 53.8455 57.6715C53.629 57.5818 53.4323 57.4504 53.2667 57.2847L47.8367 51.8551V42.1936C47.8375 41.7208 48.0258 41.2677 48.3604 40.9337C48.6949 40.5997 49.1484 40.412 49.6211 40.412C50.0939 40.412 50.5473 40.5997 50.8819 40.9337C51.2164 41.2677 51.4048 41.7208 51.4055 42.1936Z" fill="#343434"/>
</svg>
