<svg width="45" height="45" viewBox="0 0 45 45" fill="none" xmlns="http://www.w3.org/2000/svg">
<path d="M22.5 45C34.9264 45 45 34.9264 45 22.5C45 10.0736 34.9264 0 22.5 0C10.0736 0 0 10.0736 0 22.5C0 34.9264 10.0736 45 22.5 45Z" fill="#F3F5F7"/>
<path fill-rule="evenodd" clip-rule="evenodd" d="M26.9942 15.0775C28.6421 15.9823 29.954 17.3949 30.7345 19.1052L32.5847 18.0616L31.4205 21.3989H26.9589L29.1391 20.005C29.1391 20.005 28.2205 14.9443 22.7928 14.9443C17.3651 14.9443 14.9214 18.568 14.1627 21.4139C14.4461 19.5554 15.3219 17.838 16.6598 16.5172C17.9977 15.1965 19.7262 14.3429 21.5882 14.0835C23.4502 13.8241 25.3462 14.1727 26.9942 15.0775ZM16.4462 25.4383C16.4579 25.5014 17.4006 30.4961 22.7928 30.4961C28.2181 30.4961 30.6621 26.8721 31.4202 24.0265C31.1368 25.8847 30.2611 27.6018 28.9236 28.9224C27.586 30.243 25.8578 31.0966 23.9962 31.3563C22.1346 31.6159 20.2388 31.2678 18.5909 30.3636C16.943 29.4595 15.6309 28.0475 14.8498 26.3379L13 27.3811L14.1627 24.0471V24.0427H18.6263L16.4462 25.4366V25.4383Z" fill="#A2A2A2"/>
</svg>
