<svg width="24" height="24" viewBox="0 0 24 24" fill="none" xmlns="http://www.w3.org/2000/svg">
<path fill-rule="evenodd" clip-rule="evenodd" d="M0.221092 7.15781L0.8 7.44726V11.2C0.79997 11.2525 0.810296 11.3046 0.830387 11.3531C0.850478 11.4017 0.879941 11.4458 0.91709 11.4829C0.95424 11.5201 0.998348 11.5495 1.04689 11.5696C1.09544 11.5897 1.14746 11.6 1.2 11.6H5.2C5.25254 11.6 5.30457 11.5897 5.35311 11.5696C5.40165 11.5495 5.44576 11.5201 5.48291 11.4829C5.52006 11.4458 5.54952 11.4017 5.56961 11.3531C5.5897 11.3046 5.60003 11.2525 5.6 11.2V7.44726L6.17891 7.15781C6.24534 7.12457 6.30121 7.07349 6.34026 7.0103C6.37931 6.9471 6.39999 6.87429 6.4 6.8V4.4C6.39941 4.01436 6.25983 3.64185 6.00686 3.35077C5.75388 3.0597 5.40446 2.86956 5.02266 2.81524C5.13933 2.55928 5.19981 2.28129 5.2 2C5.2 1.46957 4.98929 0.960859 4.61421 0.585786C4.23914 0.210714 3.73043 0 3.2 0C2.66957 0 2.16086 0.210714 1.78579 0.585786C1.41071 0.960859 1.2 1.46957 1.2 2C1.20019 2.28129 1.26067 2.55928 1.37734 2.81524C0.995545 2.86956 0.646123 3.0597 0.393146 3.35077C0.140168 3.64185 0.000588724 4.01436 0 4.4V6.8C8.62495e-06 6.87429 0.0206951 6.9471 0.0597431 7.0103C0.0987912 7.07349 0.154659 7.12457 0.221092 7.15781ZM0.8 4.4C0.800275 4.18791 0.884649 3.98459 1.03462 3.83462C1.18459 3.68465 1.38791 3.60028 1.6 3.6H2.15195C2.23337 3.60004 2.31286 3.57523 2.3798 3.52888C2.44674 3.48254 2.49794 3.41686 2.52656 3.34064C2.55518 3.26442 2.55985 3.18128 2.53996 3.10233C2.52007 3.02339 2.47656 2.95239 2.41524 2.89883C2.28515 2.78794 2.18065 2.65016 2.10897 2.49499C2.03728 2.33981 2.0001 2.17093 2 2C2 1.68174 2.12643 1.37652 2.35147 1.15147C2.57652 0.926428 2.88174 0.8 3.2 0.8C3.51826 0.8 3.82348 0.926428 4.04853 1.15147C4.27357 1.37652 4.4 1.68174 4.4 2C4.3999 2.17093 4.36272 2.33981 4.29103 2.49499C4.21935 2.65016 4.11485 2.78794 3.98476 2.89883C3.92344 2.95239 3.87993 3.02339 3.86004 3.10233C3.84015 3.18128 3.84482 3.26442 3.87344 3.34064C3.90206 3.41686 3.95326 3.48254 4.0202 3.52888C4.08714 3.57523 4.16663 3.60004 4.24805 3.6H4.8C5.01209 3.60028 5.21541 3.68465 5.36538 3.83462C5.51535 3.98459 5.59973 4.18791 5.6 4.4V6.55274L5.02109 6.84219C4.95466 6.87543 4.89879 6.92651 4.85974 6.9897C4.8207 7.0529 4.80001 7.12571 4.8 7.2V10.8H1.6V7.2C1.59999 7.12571 1.57931 7.0529 1.54026 6.9897C1.50121 6.92651 1.44534 6.87543 1.37891 6.84219L0.8 6.55274V4.4ZM2.80006 6.40001H3.60006V4.80001H4.00006V4.00001H2.40006V4.80001H2.80006V6.40001ZM3.88281 14.5172L3.31721 15.0828L2.00001 13.7657L0.682811 15.0828L0.117188 14.5172L1.71719 12.9172C1.75432 12.8801 1.79841 12.8506 1.84693 12.8305C1.89546 12.8104 1.94747 12.8 2 12.8C2.05253 12.8 2.10454 12.8104 2.15306 12.8305C2.20159 12.8506 2.24568 12.8801 2.28281 12.9172L3.88281 14.5172ZM16.3999 16H5.19995C5.14741 16 5.09538 16.0103 5.04684 16.0304C4.9983 16.0505 4.95419 16.08 4.91704 16.1171C4.87989 16.1543 4.85043 16.1984 4.83034 16.2469C4.81024 16.2955 4.79992 16.3475 4.79995 16.4V23.6C4.79992 23.6525 4.81024 23.7046 4.83034 23.7531C4.85043 23.8017 4.87989 23.8458 4.91704 23.8829C4.95419 23.9201 4.9983 23.9495 5.04684 23.9696C5.09538 23.9897 5.14741 24 5.19995 24H16.3999C16.4525 24 16.5045 23.9897 16.5531 23.9696C16.6016 23.9495 16.6457 23.9201 16.6829 23.8829C16.72 23.8458 16.7495 23.8017 16.7696 23.7531C16.7897 23.7046 16.8 23.6525 16.7999 23.6V16.4C16.8 16.3475 16.7897 16.2955 16.7696 16.2469C16.7495 16.1984 16.72 16.1543 16.6829 16.1171C16.6457 16.08 16.6016 16.0505 16.5531 16.0304C16.5045 16.0103 16.4525 16 16.3999 16ZM15.9999 18.3596C15.616 18.2805 15.2637 18.0906 14.9866 17.8134C14.7094 17.5362 14.5195 17.1839 14.4404 16.8H15.9999V18.3596ZM13.6319 23.2H7.96799C7.88085 22.603 7.60332 22.05 7.17666 21.6233C6.75 21.1966 6.19701 20.9191 5.59995 20.832V19.1681C6.19701 19.0809 6.75 18.8034 7.17666 18.3767C7.60332 17.9501 7.88085 17.3971 7.96799 16.8H13.6319C13.719 17.3971 13.9966 17.9501 14.4232 18.3767C14.8499 18.8034 15.4029 19.0809 15.9999 19.1681V20.832C15.4029 20.9191 14.8499 21.1966 14.4232 21.6233C13.9966 22.05 13.719 22.603 13.6319 23.2ZM7.15951 16.8C7.08037 17.1839 6.89049 17.5362 6.61332 17.8134C6.33615 18.0906 5.98385 18.2804 5.59995 18.3596V16.8H7.15951ZM5.59995 21.6404C5.98385 21.7196 6.33616 21.9095 6.61333 22.1866C6.8905 22.4638 7.08038 22.8161 7.15952 23.2H5.59995V21.6404ZM14.4404 23.2C14.5195 22.8161 14.7094 22.4638 14.9866 22.1866C15.2637 21.9095 15.616 21.7196 15.9999 21.6404V23.2H14.4404ZM11.2 19.6H10.4C10.2939 19.6 10.1922 19.5578 10.1172 19.4828C10.0421 19.4078 9.99999 19.3061 9.99999 19.2C9.99999 19.0939 10.0421 18.9922 10.1172 18.9171C10.1922 18.8421 10.2939 18.8 10.4 18.8H12V18H11.2V17.6H10.4V18C10.0817 18 9.77651 18.1264 9.55147 18.3515C9.32642 18.5765 9.19999 18.8817 9.19999 19.2C9.19999 19.5183 9.32642 19.8235 9.55147 20.0485C9.77651 20.2736 10.0817 20.4 10.4 20.4H11.2C11.3061 20.4 11.4078 20.4421 11.4828 20.5171C11.5579 20.5922 11.6 20.6939 11.6 20.8C11.6 20.9061 11.5579 21.0078 11.4828 21.0828C11.4078 21.1578 11.3061 21.2 11.2 21.2H9.59999V22H10.4V22.4H11.2V22C11.5183 22 11.8235 21.8736 12.0485 21.6485C12.2736 21.4235 12.4 21.1183 12.4 20.8C12.4 20.4817 12.2736 20.1765 12.0485 19.9515C11.8235 19.7264 11.5183 19.6 11.2 19.6ZM3.59994 9.60003H4.39994V10.4H3.59994V9.60003ZM21.2 17.2V18.8H20.4V17.2H20V16.4H21.6V17.2H21.2ZM22 22H21.2V22.8H22V22ZM22.8 14.4C22.7998 14.6813 22.7393 14.9593 22.6227 15.2152C23.0045 15.2696 23.3539 15.4597 23.6069 15.7508C23.8598 16.0419 23.9994 16.4144 24 16.8V19.2C24 19.2743 23.9793 19.3471 23.9403 19.4103C23.9012 19.4735 23.8454 19.5246 23.7789 19.5578L23.2 19.8473V23.6C23.2 23.6525 23.1897 23.7046 23.1696 23.7531C23.1495 23.8017 23.1201 23.8458 23.0829 23.8829C23.0458 23.9201 23.0017 23.9495 22.9531 23.9696C22.9046 23.9897 22.8525 24 22.8 24H18.8C18.7475 24 18.6954 23.9897 18.6469 23.9696C18.5984 23.9495 18.5543 23.9201 18.5171 23.8829C18.48 23.8458 18.4505 23.8017 18.4304 23.7531C18.4103 23.7046 18.4 23.6525 18.4 23.6V19.8473L17.8211 19.5578C17.7547 19.5246 17.6988 19.4735 17.6598 19.4103C17.6207 19.3471 17.6 19.2743 17.6 19.2V16.8C17.6006 16.4144 17.7402 16.0419 17.9932 15.7508C18.2461 15.4597 18.5956 15.2696 18.9774 15.2152C18.8607 14.9593 18.8002 14.6813 18.8 14.4C18.8 13.8696 19.0107 13.3609 19.3858 12.9858C19.7609 12.6107 20.2696 12.4 20.8 12.4C21.3304 12.4 21.8392 12.6107 22.2142 12.9858C22.5893 13.3609 22.8 13.8696 22.8 14.4ZM22.6211 19.2422L23.2 18.9527V16.8C23.1997 16.5879 23.1154 16.3846 22.9654 16.2346C22.8154 16.0847 22.6121 16.0003 22.4 16H21.8481C21.7666 16 21.6872 15.9752 21.6202 15.9289C21.5533 15.8825 21.5021 15.8169 21.4735 15.7407C21.4448 15.6644 21.4402 15.5813 21.4601 15.5023C21.4799 15.4234 21.5235 15.3524 21.5848 15.2988C21.7149 15.188 21.8194 15.0502 21.891 14.895C21.9627 14.7398 21.9999 14.5709 22 14.4C22 14.0817 21.8736 13.7765 21.6485 13.5515C21.4235 13.3264 21.1183 13.2 20.8 13.2C20.4818 13.2 20.1765 13.3264 19.9515 13.5515C19.7264 13.7765 19.6 14.0817 19.6 14.4C19.6001 14.5709 19.6373 14.7398 19.709 14.895C19.7807 15.0502 19.8852 15.188 20.0152 15.2988C20.0766 15.3524 20.1201 15.4234 20.14 15.5023C20.1599 15.5813 20.1552 15.6644 20.1266 15.7407C20.0979 15.8169 20.0467 15.8825 19.9798 15.9289C19.9129 15.9752 19.8334 16 19.752 16H19.2C18.9879 16.0003 18.7846 16.0847 18.6346 16.2346C18.4847 16.3846 18.4003 16.5879 18.4 16.8V18.9527L18.9789 19.2422C19.0454 19.2754 19.1012 19.3265 19.1403 19.3897C19.1793 19.4529 19.2 19.5257 19.2 19.6V23.2H22.4V19.6C22.4 19.5257 22.4207 19.4529 22.4598 19.3897C22.4988 19.3265 22.5547 19.2754 22.6211 19.2422ZM12.4664 3.19999C11.9917 3.19999 11.5277 3.34075 11.133 3.60447C10.7384 3.86818 10.4307 4.24301 10.2491 4.68155C10.0674 5.1201 10.0199 5.60266 10.1125 6.06821C10.2051 6.53377 10.4337 6.96141 10.7694 7.29705C11.105 7.6327 11.5326 7.86128 11.9982 7.95388C12.4637 8.04648 12.9463 7.99896 13.3848 7.81731C13.8234 7.63566 14.1982 7.32804 14.4619 6.93336C14.7257 6.53869 14.8664 6.07467 14.8664 5.59999C14.8657 4.96369 14.6126 4.35364 14.1627 3.90371C13.7128 3.45377 13.1027 3.20069 12.4664 3.19999ZM12.4664 7.19999C12.15 7.19999 11.8406 7.10616 11.5775 6.93035C11.3144 6.75454 11.1093 6.50465 10.9882 6.21229C10.8671 5.91993 10.8354 5.59822 10.8972 5.28785C10.9589 4.97748 11.1113 4.69239 11.335 4.46862C11.5588 4.24486 11.8439 4.09247 12.1543 4.03074C12.4646 3.969 12.7863 4.00069 13.0787 4.12179C13.3711 4.24289 13.6209 4.44796 13.7968 4.71108C13.9726 4.9742 14.0664 5.28354 14.0664 5.59999C14.066 6.02421 13.8973 6.43093 13.5973 6.7309C13.2973 7.03086 12.8906 7.19957 12.4664 7.19999ZM16.2265 4.23632L16.934 4.48788C17.0118 4.51559 17.0791 4.5667 17.1267 4.63418C17.1743 4.70167 17.1999 4.78224 17.2 4.86484V6.33515C17.1999 6.41774 17.1743 6.49831 17.1267 6.56579C17.0791 6.63328 17.0118 6.68437 16.9339 6.71208L16.2265 6.96364C16.1859 7.07549 16.1402 7.18552 16.0894 7.29372L16.4125 7.9738C16.443 8.03813 16.4559 8.10945 16.4496 8.1804C16.4434 8.25134 16.4183 8.31933 16.3769 8.37732C16.0651 8.81591 15.6819 9.19909 15.2433 9.51092C15.1854 9.55233 15.1174 9.57747 15.0464 9.58372C14.9754 9.58997 14.9041 9.57711 14.8398 9.54646L14.1597 9.22342C14.0531 9.27342 13.9445 9.31834 13.8347 9.35857L13.5808 10.1258C13.5544 10.2056 13.5035 10.2751 13.4353 10.3243C13.3672 10.3735 13.2852 10.4 13.2011 10.4H11.7312C11.6471 10.4 11.5652 10.3735 11.497 10.3243C11.4289 10.2751 11.378 10.2056 11.3515 10.1258L11.0976 9.35859C10.9875 9.31849 10.8793 9.27344 10.773 9.22344L10.0925 9.54648C10.0282 9.57694 9.95689 9.58969 9.88597 9.58345C9.81505 9.5772 9.74707 9.55217 9.68903 9.51094C9.25012 9.19905 8.86677 8.81558 8.55503 8.37656C8.51382 8.31858 8.48884 8.25065 8.48266 8.17978C8.47648 8.10891 8.48932 8.03768 8.51987 7.97344L8.84292 7.29336C8.79292 7.18672 8.74761 7.07812 8.70776 6.96875L7.94056 6.71484C7.86074 6.68842 7.79128 6.63751 7.74205 6.56935C7.69282 6.50118 7.66633 6.41924 7.66635 6.33516V4.86484C7.66633 4.78076 7.69282 4.69882 7.74205 4.63065C7.79128 4.56249 7.86074 4.51158 7.94056 4.48516L8.70776 4.23125C8.74761 4.12188 8.79292 4.01328 8.84292 3.90664L8.51987 3.22617C8.48929 3.16185 8.47646 3.09052 8.48271 3.01957C8.48896 2.94863 8.51406 2.88064 8.55542 2.82266C8.86735 2.38416 9.25052 2.00099 9.68902 1.68906C9.74706 1.64783 9.81504 1.62281 9.88595 1.61656C9.95687 1.61031 10.0282 1.62306 10.0925 1.65351L10.773 1.97656C10.8808 1.92577 10.991 1.88007 11.1027 1.83944L11.3542 1.13241C11.382 1.0546 11.4331 0.987265 11.5006 0.939642C11.568 0.892019 11.6486 0.86644 11.7312 0.866412H13.2011C13.2837 0.86644 13.3643 0.892019 13.4318 0.939643C13.4993 0.987266 13.5504 1.0546 13.5781 1.13241L13.8296 1.83944C13.9415 1.88007 14.0515 1.92577 14.1597 1.97656L14.8398 1.65351C14.9041 1.62296 14.9755 1.61015 15.0464 1.6164C15.1173 1.62265 15.1853 1.64773 15.2433 1.68906C15.6822 2.00094 16.0656 2.38441 16.3773 2.82343C16.4185 2.88141 16.4435 2.94935 16.4497 3.02021C16.4559 3.09108 16.443 3.16231 16.4125 3.22656L16.0894 3.90624C16.1402 4.01456 16.1859 4.12459 16.2265 4.23632ZM15.7753 6.27499L16.4 6.05273V5.14726L15.7753 4.92499C15.7165 4.90402 15.6634 4.86957 15.6203 4.82439C15.5771 4.77922 15.5451 4.72458 15.5269 4.66484C15.4668 4.4692 15.3881 4.27979 15.2917 4.09921C15.2623 4.04409 15.2462 3.98283 15.2447 3.92035C15.2432 3.85787 15.2564 3.79591 15.2832 3.73944L15.5859 3.10233C15.402 2.87278 15.1934 2.66411 14.964 2.48006L14.3269 2.7828C14.2705 2.80956 14.2086 2.82275 14.1462 2.82133C14.0838 2.8199 14.0226 2.8039 13.9675 2.77459C13.7867 2.67818 13.597 2.59944 13.4011 2.53944C13.3414 2.52126 13.2867 2.48932 13.2415 2.44617C13.1963 2.40302 13.1619 2.34987 13.141 2.291L12.9187 1.66639H12.0136L11.7914 2.29101C11.7705 2.34988 11.736 2.40303 11.6908 2.44617C11.6457 2.48932 11.591 2.52127 11.5312 2.53944C11.3355 2.5993 11.1461 2.67806 10.9656 2.7746C10.9103 2.80371 10.8491 2.8196 10.7867 2.82103C10.7242 2.82245 10.6623 2.80937 10.6058 2.7828L9.96831 2.48007C9.73888 2.66412 9.53035 2.87279 9.34644 3.10234L9.64917 3.73944C9.67593 3.79584 9.68912 3.8577 9.6877 3.92011C9.68627 3.98251 9.67027 4.04371 9.64097 4.09882C9.54465 4.27934 9.46602 4.46877 9.40621 4.66444C9.38758 4.72571 9.35451 4.7816 9.30978 4.82742C9.26505 4.87324 9.20997 4.90764 9.14917 4.92773L8.46637 5.1539V6.0461L9.14917 6.27227C9.20997 6.29236 9.26505 6.32676 9.30978 6.37258C9.35451 6.4184 9.38758 6.47429 9.40621 6.53555C9.46602 6.73123 9.54465 6.92065 9.64097 7.10118C9.67027 7.15629 9.68627 7.21749 9.6877 7.27989C9.68912 7.34229 9.67593 7.40416 9.64917 7.46055L9.34644 8.09766C9.53034 8.32721 9.73888 8.53588 9.96831 8.71992L10.6058 8.41719C10.6622 8.39035 10.7242 8.3771 10.7867 8.37853C10.8492 8.37995 10.9104 8.39601 10.9656 8.4254C11.1461 8.52194 11.3355 8.60069 11.5312 8.66055C11.5924 8.67917 11.6482 8.71219 11.6939 8.75685C11.7397 8.80151 11.774 8.8565 11.7941 8.91719L12.0203 9.59999H12.9121L13.1382 8.91719C13.1583 8.8565 13.1927 8.80151 13.2384 8.75685C13.2842 8.71219 13.34 8.67917 13.4011 8.66055C13.5971 8.60055 13.7867 8.5218 13.9675 8.4254C14.0226 8.396 14.0838 8.37994 14.1462 8.37852C14.2087 8.37709 14.2705 8.39034 14.3269 8.41719L14.964 8.71991C15.1934 8.536 15.402 8.32746 15.5859 8.09804L15.2832 7.46054C15.2564 7.40408 15.2432 7.34212 15.2447 7.27963C15.2462 7.21715 15.2623 7.15589 15.2917 7.10077C15.3881 6.92019 15.4668 6.73078 15.5269 6.53515C15.5451 6.47541 15.5771 6.42076 15.6203 6.37559C15.6634 6.33042 15.7165 6.29596 15.7753 6.27499ZM21.2001 10.3516H20.4001V11.5516H21.2001V10.3516ZM22.4687 12.1172L23.3172 11.2688L23.8828 11.8344L23.0343 12.6828L22.4687 12.1172ZM18.2344 11.2687L17.6687 11.8344L18.5172 12.6828L19.0828 12.1172L18.2344 11.2687ZM1.60004 14.8H2.40004V15.6H1.60004V14.8ZM2.40004 16.4H1.60004V17.2H2.40004V16.4ZM1.60004 18H2.40004V18.8H1.60004V18ZM2.40004 19.6H1.60004V20.4H2.40004V19.6ZM3.19995 19.6H3.99995V20.4H3.19995V19.6ZM23.2 0H22.4V0.8H23.2V0ZM22.4 1.59998H23.2V2.39998H22.4V1.59998ZM24 0.80002H23.2V1.60002H24V0.80002ZM21.5999 0.80002H22.3999V1.60002H21.5999V0.80002Z" fill="#30656D"/>
</svg>
