<svg width="32" height="32" viewBox="0 0 32 32" fill="none" xmlns="http://www.w3.org/2000/svg">
<path opacity="0.1" fill-rule="evenodd" clip-rule="evenodd" d="M16 32C24.8366 32 32 24.8366 32 16C32 7.16344 24.8366 0 16 0C7.16344 0 0 7.16344 0 16C0 24.8366 7.16344 32 16 32Z" fill="black"/>
<g opacity="0.6">
<path fill-rule="evenodd" clip-rule="evenodd" d="M13.4021 7.86596C13.4404 7.58907 13.749 7.23929 14.1052 7.23685H17.8947C18.2386 7.23819 18.5584 7.5243 18.5979 7.86596L18.7755 9.47204C19.3864 9.72342 19.9481 10.0511 20.463 10.449L21.9432 9.7977C22.2607 9.65766 22.6733 9.79296 22.8462 10.0938L24.7409 13.3799C24.9128 13.6786 24.8252 14.0998 24.5485 14.3051L23.2459 15.2599C23.2534 15.3173 23.2613 15.3748 23.2691 15.4323V15.4323V15.4323C23.3056 15.6983 23.3421 15.9648 23.3421 16.2368C23.3421 16.5048 23.3064 16.764 23.2705 17.0247L23.2704 17.0248C23.2621 17.0852 23.2538 17.1457 23.2459 17.2064L24.5485 18.1612C24.8289 18.367 24.917 18.7938 24.7409 19.0938L22.8462 22.38C22.671 22.6781 22.259 22.8099 21.9432 22.6686L20.463 22.0173C19.9472 22.4162 19.3877 22.7499 18.7755 23.0017L18.5979 24.6003C18.5618 24.9446 18.2408 25.2345 17.8947 25.2369H14.1052C13.7591 25.2351 13.4382 24.9446 13.4021 24.6003L13.2245 23.0017C12.6122 22.7499 12.0527 22.4162 11.537 22.0173L10.0567 22.6686C9.74098 22.8099 9.32899 22.6782 9.15378 22.38L7.25904 19.0938C7.08295 18.7938 7.17105 18.367 7.45145 18.1612L8.75408 17.2064C8.74616 17.1455 8.7378 17.0849 8.72945 17.0243C8.69356 16.7637 8.65788 16.5046 8.65788 16.2368C8.65788 15.9646 8.69442 15.6979 8.73089 15.4318C8.73875 15.3745 8.7466 15.3172 8.75408 15.2599L7.45145 14.3051C7.17472 14.0998 7.08714 13.6786 7.25904 13.3799L9.15378 10.0938C9.32665 9.79297 9.7393 9.65766 10.0567 9.7977L11.537 10.449C12.0519 10.0511 12.6135 9.72342 13.2245 9.47204L13.4021 7.86596ZM17.2656 8.6579H14.7343L14.5863 10.0271C14.5592 10.2947 14.3666 10.5384 14.1126 10.6266C13.3606 10.8802 12.668 11.2817 12.0847 11.796C11.8815 11.9716 11.5748 12.0168 11.3297 11.9071L10.0641 11.352L8.8059 13.5354L9.9161 14.3495C10.1314 14.5089 10.2425 14.7974 10.19 15.06C10.1153 15.4335 10.0789 15.8331 10.0789 16.2368C10.0789 16.6406 10.1153 17.0328 10.19 17.4062C10.2425 17.6689 10.1314 17.9574 9.9161 18.1168L8.8059 18.9309L10.0641 21.1143L11.3297 20.5592C11.5762 20.4515 11.8831 20.4996 12.0847 20.6776C12.668 21.192 13.3607 21.5935 14.1126 21.8471C14.3646 21.9343 14.5565 22.1742 14.5863 22.4392L14.7418 23.8158H17.2582L17.4136 22.4392C17.4434 22.1742 17.6354 21.9343 17.8873 21.8471C18.6393 21.5935 19.3319 21.192 19.9153 20.6776C20.1169 20.4996 20.4238 20.4515 20.6702 20.5592L21.9358 21.1143L23.1941 18.9309L22.0839 18.1168C21.8686 17.9574 21.7574 17.6689 21.81 17.4062C21.8847 17.0328 21.921 16.6406 21.921 16.2368C21.921 15.8331 21.8847 15.4335 21.81 15.06C21.7574 14.7974 21.8686 14.5089 22.0839 14.3495L23.1941 13.5354L21.9358 11.352L20.6702 11.9071C20.4251 12.0168 20.1184 11.9716 19.9153 11.796C19.3319 11.2817 18.6393 10.8803 17.8873 10.6266C17.6333 10.5384 17.4408 10.2947 17.4136 10.0271L17.2656 8.6579ZM16 11.5C13.3923 11.5 11.2631 13.6292 11.2631 16.2368C11.2631 18.8445 13.3923 20.9737 16 20.9737C18.6076 20.9737 20.7368 18.8445 20.7368 16.2368C20.7368 13.6292 18.6076 11.5 16 11.5ZM19.3158 16.2368C19.3158 14.3971 17.8397 12.921 16 12.921C14.1603 12.921 12.6842 14.3971 12.6842 16.2368C12.6842 18.0765 14.1603 19.5526 16 19.5526C17.8397 19.5526 19.3158 18.0765 19.3158 16.2368Z" fill="black"/>
</g>
</svg>
