<svg width="41" height="44" viewBox="0 0 41 44" fill="none" xmlns="http://www.w3.org/2000/svg">
<path d="M25.5413 0.171841L40.3241 10.8432C40.6332 11.0666 40.7018 11.4962 40.4786 11.7969C40.3413 11.9859 40.1353 12.0805 39.9206 12.0805H26.2109H25.0949H0.688726C0.311001 12.0805 0.00195312 11.7711 0.00195312 11.3931V6.04023C0.00195312 5.66218 0.311001 5.35286 0.688726 5.35286H24.4082V0.687366C24.4082 0.309315 24.7172 0 25.0949 0C25.2666 0 25.4211 0.0601445 25.5413 0.163249V0.171841ZM37.8002 10.7057L25.7731 2.02773V6.04023C25.7731 6.41828 25.4641 6.72759 25.0863 6.72759H1.36691V10.7057H25.0863H26.2023H37.7916H37.8002Z" fill="#0B9D47"/>
<path d="M15.0684 43.8281L0.285572 33.1568C-0.0234759 32.9334 -0.0921532 32.5038 0.131048 32.2031C0.268403 32.0141 0.474434 31.9195 0.689051 31.9195H14.3988H15.5148H39.921C40.2987 31.9195 40.6077 32.2289 40.6077 32.6069V37.9598C40.6077 38.3378 40.2987 38.6471 39.921 38.6471H16.2015V43.3126C16.2015 43.6907 15.8925 44 15.5148 44C15.3431 44 15.1885 43.9398 15.0684 43.8367V43.8281ZM2.80946 33.2943L14.8366 41.9723V37.9598C14.8366 37.5817 15.1456 37.2724 15.5233 37.2724H39.2428V33.2943H15.5233H14.4073H2.81805H2.80946Z" fill="#0B9D47"/>
<path d="M20.3046 26.2917H27.1723L27.3698 26.1027C27.5071 24.3327 28.8721 24.0406 29.5159 24.0062L29.722 23.8V22.0043V20.2085L29.5159 20.0023C28.8721 19.968 27.5071 19.6758 27.3698 17.9059L27.1723 17.7168H20.3046H13.4369L13.2394 17.9059C13.1021 19.6758 11.7371 19.968 11.0933 20.0023L10.8872 20.2085V22.0043V23.8L11.0933 24.0062C11.7371 24.0406 13.1021 24.3327 13.2394 26.1027L13.4369 26.2917H20.3046ZM27.4556 27.6665H20.3046H13.1536C12.9819 27.6665 12.8102 27.5977 12.6728 27.4688L12.1148 26.919C11.9689 26.7901 11.8745 26.601 11.8745 26.3948C11.8745 25.2693 10.87 25.3724 10.87 25.3724C10.6812 25.3896 10.4837 25.3294 10.3378 25.1834L9.75404 24.6163C9.6081 24.4874 9.51367 24.2984 9.51367 24.0922V22.0129V19.9336C9.51367 19.7532 9.58235 19.5727 9.7197 19.4439L10.3035 18.8768C10.4408 18.7221 10.6554 18.6276 10.8786 18.6448C10.8786 18.6448 11.883 18.7479 11.883 17.6223C11.883 17.4419 11.9517 17.2615 12.0891 17.1326L12.6471 16.5913C12.7758 16.4452 12.9561 16.3593 13.1622 16.3593H20.3132H27.4642C27.6359 16.3593 27.8076 16.428 27.9449 16.5569L28.5029 17.1068C28.6489 17.2357 28.7433 17.4247 28.7433 17.6309C28.7433 18.7565 29.7477 18.6534 29.7477 18.6534C29.9366 18.6362 30.134 18.6963 30.28 18.8424L30.8637 19.4095C31.0097 19.5384 31.1041 19.7274 31.1041 19.9336V22.0129V24.0922C31.1041 24.2726 31.0354 24.453 30.8981 24.5819L30.3143 25.149C30.177 25.3036 29.9623 25.3982 29.7391 25.381C29.7391 25.381 28.7347 25.2779 28.7347 26.4034C28.7347 26.5839 28.6661 26.7643 28.5287 26.8932L27.9707 27.4345C27.8419 27.5805 27.6617 27.6665 27.4556 27.6665Z" fill="#0B9D47"/>
<path d="M20.3055 18.2925C21.327 18.2925 22.2542 18.705 22.9238 19.3751C23.5934 20.0453 24.0054 20.9733 24.0054 21.9957C24.0054 23.0182 23.5934 23.9461 22.9238 24.6163C22.2542 25.2865 21.327 25.6989 20.3055 25.6989C19.2839 25.6989 18.3567 25.2865 17.6871 24.6163C17.0175 23.9461 16.6055 23.0182 16.6055 21.9957C16.6055 20.9733 17.0175 20.0453 17.6871 19.3751C18.3567 18.705 19.2839 18.2925 20.3055 18.2925ZM21.9537 20.346C21.5331 19.925 20.9493 19.6673 20.3055 19.6673C19.6616 19.6673 19.0779 19.925 18.6572 20.346C18.2366 20.767 17.979 21.3513 17.979 21.9957C17.979 22.6401 18.2366 23.2244 18.6572 23.6454C19.0779 24.0664 19.6616 24.3242 20.3055 24.3242C20.9493 24.3242 21.5331 24.0664 21.9537 23.6454C22.3744 23.2244 22.6319 22.6401 22.6319 21.9957C22.6319 21.3513 22.3744 20.767 21.9537 20.346Z" fill="#0B9D47"/>
<path d="M7.92603 14.0566H32.6842C33.0619 14.0566 33.371 14.3659 33.371 14.744V29.2474C33.371 29.6255 33.0619 29.9348 32.6842 29.9348H7.92603C7.54831 29.9348 7.23926 29.6255 7.23926 29.2474V14.744C7.23926 14.3659 7.54831 14.0566 7.92603 14.0566ZM31.9974 15.4314H8.6128V28.56H31.9974V15.4314Z" fill="#0B9D47"/>
</svg>
