<svg width="49" height="51" viewBox="0 0 49 51" fill="none" xmlns="http://www.w3.org/2000/svg">
<path d="M0.668668 0.00959478C0.566072 0.0256254 0.467638 0.0617069 0.378986 0.115779C0.290334 0.169851 0.213201 0.240855 0.15199 0.324737C0.0283688 0.494144 -0.0228927 0.70572 0.00948264 0.912922C0.041858 1.12012 0.155218 1.30598 0.324625 1.4296C0.494032 1.55322 0.705608 1.60448 0.91281 1.57211C0.961533 1.57666 1.01057 1.57666 1.0593 1.57211C3.18733 1.64416 4.81909 3.23033 4.81909 5.18542V12.9003V17.3437V40.6349C4.81909 43.0653 6.69563 45.0444 9.06717 45.2736C9.12992 45.2982 9.19556 45.3146 9.26249 45.3225C9.27908 45.3233 9.29468 45.3218 9.31132 45.3225C9.36004 45.327 9.40908 45.327 9.4578 45.3225C9.47457 45.3226 9.48982 45.3225 9.50663 45.3225H20.4442V49.2287C20.4442 49.4359 20.5266 49.6346 20.6731 49.7811C20.8196 49.9277 21.0183 50.01 21.2255 50.01H30.6006C30.8078 50.01 31.0065 49.9277 31.153 49.7811C31.2995 49.6346 31.3818 49.4359 31.3818 49.2287V39.0724H37.583H46.128C47.4748 39.0724 48.5695 37.9289 48.5695 36.5822V22.666V17.9785V17.1972V16.5136C48.5695 15.1669 47.4748 14.0722 46.128 14.0722H37.583H31.3818V12.998C31.3818 10.3689 29.3149 8.2843 26.6943 7.91981V5.18542C26.6943 2.29383 24.2174 0.00959478 21.2255 0.00959478H1.10812C1.0419 0.00733903 0.979566 0.00959478 0.91281 0.00959478C0.831932 -0.00319826 0.749546 -0.00319826 0.668668 0.00959478ZM4.81909 1.57211H21.2255C23.4274 1.57211 25.1318 3.18415 25.1318 5.18542V7.82216H17.6122C17.5796 7.82012 17.547 7.82012 17.5145 7.82216C17.4471 7.82014 17.3882 7.82216 17.3192 7.82216C14.7358 7.82216 12.6317 9.92624 12.6317 12.5097V14.0722H11.9481C10.6013 14.0722 9.50663 15.1669 9.50663 16.5136V17.1972V17.9785V22.666V23.4473V36.5822C9.50663 37.9289 10.6012 39.0724 11.9481 39.0724H12.6317V40.6349C12.6235 40.6998 12.6235 40.7654 12.6317 40.8302C12.5316 42.48 11.1847 43.7599 9.50663 43.7599C7.76185 43.7599 6.38161 42.3796 6.38161 40.6349V17.3437V12.9003V5.18542C6.38161 3.76361 5.78355 2.50088 4.81909 1.57211ZM17.3192 9.38467C18.6954 9.38467 19.3705 9.78061 19.8095 10.3612C20.2484 10.9419 20.4242 11.7792 20.4442 12.5097V12.9003C20.4422 12.9328 20.4422 12.9655 20.4442 12.998V14.0722H14.1942V12.5097C14.1942 10.765 15.5744 9.38467 17.3192 9.38467ZM20.9813 9.38467H25.62C25.7169 9.40292 25.8162 9.40292 25.913 9.38467C28.1149 9.38467 29.8193 10.9967 29.8193 12.998V48.4475H22.0067V40.7814C22.0072 40.7651 22.0072 40.7488 22.0067 40.7326V12.998C22.0113 12.9493 22.0113 12.9002 22.0067 12.8515V12.5097C22.0072 12.4934 22.0072 12.4771 22.0067 12.4609C21.981 11.5204 21.7517 10.3882 21.0302 9.4335C21.0163 9.41514 20.9956 9.4028 20.9813 9.38467ZM23.5692 14.8535V16.416H26.6943V14.8535H23.5692ZM11.9481 15.6347H20.4442V17.1972H11.0691V16.5136C11.0691 16.0053 11.4398 15.6347 11.9481 15.6347ZM31.3818 15.6347H37.583H46.128C46.6363 15.6347 47.0069 16.0053 47.0069 16.5136V17.1972H38.4131H31.3818V15.6347ZM23.5692 17.9785V19.541H28.2568V17.9785H23.5692ZM11.0691 18.7597H20.4442V21.8848H11.0691V18.7597ZM31.3818 18.7597H38.4131H47.0069V21.8848H38.4131H31.3818V18.7597ZM23.5692 21.1035V22.666H26.6943V21.1035H23.5692ZM11.0691 23.4473H20.4442V26.5723H13.4129H12.6317V27.3536V30.4786V31.2598H13.4129H20.4442V34.3849H18.8817V35.9474H20.4442V37.5099H11.9481C11.4399 37.5099 11.0691 37.0903 11.0691 36.5822V23.4473ZM31.3818 23.4473H38.4131H47.0069V36.5822C47.0069 37.0903 46.6362 37.5099 46.128 37.5099H37.583H31.3818V35.9474H36.0694V34.3849H31.3818V23.4473ZM23.5692 24.2285V25.791H25.1318V24.2285H23.5692ZM36.5576 25.0098C34.5589 25.1664 32.9382 26.9112 32.9443 28.9161C32.9443 31.0262 34.7405 32.8224 36.8506 32.8224C37.7137 32.8224 38.5685 32.5215 39.2432 31.9923C39.9006 32.494 40.673 32.8224 41.5381 32.8224C43.6483 32.8224 45.4444 31.0262 45.4444 28.9161C45.4444 26.8059 43.6483 25.0098 41.5381 25.0098C40.6755 25.0098 39.8996 25.3408 39.2432 25.8399C38.5798 25.317 37.7498 25.0238 36.8994 25.0098C36.8849 25.0092 36.8651 25.0103 36.8506 25.0098H36.5576ZM36.6553 26.5723H36.8018H36.8506C37.3196 26.5723 37.7387 26.8194 38.1201 27.1094C37.8957 27.5155 37.7468 27.9577 37.6807 28.4278C37.636 28.5884 37.6328 28.7454 37.6319 28.9161C37.6328 29.0868 37.636 29.2438 37.6807 29.4044C37.7424 29.872 37.9014 30.3172 38.1201 30.7227C37.7387 31.0122 37.3196 31.2578 36.8506 31.2598C35.6882 31.2598 34.5068 30.0784 34.5068 28.9161C34.5034 27.805 35.5476 26.6592 36.6553 26.5723ZM41.5381 26.5723C42.7005 26.5723 43.8819 27.7537 43.8819 28.9161C43.8819 30.0784 42.7005 31.2598 41.5381 31.2598C40.6664 31.2598 39.7764 30.6176 39.3897 29.795C39.355 29.7132 39.3172 29.6359 39.292 29.5508C39.2712 29.4896 39.2582 29.4177 39.2432 29.3555C39.2143 29.214 39.1951 29.0608 39.1944 28.9161C39.1944 27.7537 40.3758 26.5723 41.5381 26.5723ZM23.5692 27.3536V28.9161H28.2568V27.3536H23.5692ZM14.1942 28.1348H20.4442V29.6973H14.1942V28.1348ZM23.5692 30.4786V32.0411H26.6943V30.4786H23.5692ZM12.6317 34.3849V35.9474H17.3192V34.3849H12.6317ZM14.1942 39.0724H20.4442V40.7326C20.4422 40.7651 20.4422 40.7977 20.4442 40.8302V43.7599H12.9735C13.6627 42.9959 14.0783 42.0182 14.1453 40.9279C14.1639 40.8965 14.1802 40.8639 14.1942 40.8302C14.1948 40.8144 14.1937 40.7973 14.1942 40.7814C14.1947 40.7651 14.1947 40.7488 14.1942 40.7326C14.1948 40.7008 14.1942 40.6669 14.1942 40.6349V39.0724Z" fill="#343434"/>
</svg>
