<svg width="50" height="41" viewBox="0 0 50 41" fill="none" xmlns="http://www.w3.org/2000/svg">
<path d="M37.6026 2.02343C43.2233 2.02343 47.8322 6.46374 47.8322 11.9158C47.8322 17.3678 43.2795 21.8081 37.6026 21.8081C36.2537 21.8081 35.0171 21.5833 33.8368 21.1336C32.6564 22.2577 30.633 23.8315 28.722 23.8315C29.7337 22.6512 30.0147 20.3467 30.0709 18.6043C28.3848 16.8619 27.373 14.5013 27.373 11.9158C27.4292 6.46374 31.982 2.02343 37.6026 2.02343ZM37.6026 0C30.8578 0 25.3496 5.33961 25.3496 11.9158C25.3496 14.6137 26.3051 17.2554 27.9913 19.335C27.8227 21.0774 27.4855 22.0891 27.1482 22.4826C26.6424 23.1008 26.5299 23.9439 26.8672 24.6746C27.2044 25.4053 27.9351 25.855 28.722 25.855C30.8578 25.855 32.8251 24.6746 34.3426 23.3819C35.4106 23.6629 36.4785 23.8315 37.6026 23.8315C44.3474 23.8315 49.8556 18.4919 49.8556 11.9158C49.8556 5.33961 44.4036 0 37.6026 0Z" fill="#0B9D47"/>
<path d="M29.7332 40.3H1.01172C0.449651 40.3 0 39.8504 0 39.2883V32.2625C0 29.8456 2.69791 28.8901 4.15928 28.328L4.3841 28.2718C8.82441 26.6418 10.1734 25.5177 10.1734 23.4381C10.1734 23.0446 10.1172 22.9884 9.77992 22.595C9.33027 22.0891 8.59958 21.3022 8.26234 19.2788C7.36304 18.8292 6.74477 18.1547 6.63236 16.1312C6.63236 15.1757 6.91339 14.6137 7.19442 14.2202C7.08201 13.602 6.91339 12.4778 6.80098 11.5223C6.68856 10.342 7.08201 8.31855 8.48717 6.74477C9.49889 5.62064 11.4099 4.3279 14.8385 4.3279C18.2671 4.3279 20.1781 5.62064 21.1898 6.74477C22.6512 8.31855 23.0446 10.2858 22.9322 11.5223C22.8198 12.4778 22.6512 13.5457 22.5388 14.164C22.8198 14.5575 23.1008 15.1195 23.1008 16.0188C22.9322 18.0985 22.3702 18.7729 21.4709 19.2226C21.0774 21.246 20.3467 22.0329 19.8971 22.5388C19.616 22.876 19.5036 22.9884 19.5036 23.3819C19.5036 25.4615 20.2343 26.6418 24.5622 28.2156C28.8339 29.7894 30.7449 31.5318 30.7449 33.9487V39.1759C30.7449 39.4569 30.6325 39.6817 30.4639 39.9066C30.2391 40.1876 30.0142 40.3 29.7332 40.3ZM2.02343 38.2204H28.7215V34.0049C28.7215 33.0494 28.1594 31.7566 23.8877 30.1828C19.7285 28.6653 17.4802 27.1477 17.4802 23.4381C17.4802 22.2577 17.9861 21.6957 18.3795 21.246C18.7729 20.7964 19.1664 20.3467 19.4474 18.9416C19.616 17.9298 20.2905 17.5926 20.6278 17.424C20.7964 17.3678 21.0212 17.2554 21.0774 16.0188C21.0774 15.6254 20.9088 15.4568 20.9088 15.4568C20.4591 15.2319 20.3467 14.8385 20.4029 14.3888C20.4029 14.3888 20.7402 12.6464 20.8526 11.3537C20.9088 10.7354 20.7402 9.33027 19.6722 8.14993C18.6043 6.9696 16.9743 6.40753 14.8385 6.40753C12.7027 6.40753 11.0727 6.9696 10.0047 8.14993C8.93682 9.33027 8.7682 10.7354 8.82441 11.3537C8.93682 12.6464 9.27406 14.3888 9.27406 14.3888C9.33027 14.8385 9.10544 15.2881 8.712 15.513C8.7682 15.4568 8.65579 15.6816 8.65579 16.075C8.7682 17.1992 8.93682 17.3116 9.10544 17.424C9.44268 17.5926 10.0609 17.8736 10.2858 18.9416C10.5668 20.4029 10.9603 20.8526 11.3537 21.246C11.7471 21.6957 12.253 22.2577 12.253 23.4381C12.253 27.2601 9.04923 28.7777 5.11478 30.1828L4.88996 30.2953C3.82204 30.6887 2.07964 31.307 2.07964 32.2625V38.2204H2.02343Z" fill="#0B9D47"/>
<path d="M34.0049 6.85719C34.2297 6.68857 34.4545 6.46374 34.6794 6.29512C34.9042 6.1265 35.1852 5.95788 35.5225 5.84547C35.8035 5.73306 36.1407 5.62065 36.478 5.50823C36.8152 5.39582 37.2086 5.39582 37.6021 5.39582C38.108 5.39582 38.6138 5.45203 39.0635 5.62065C39.5131 5.78927 39.9066 6.01409 40.2438 6.29512C40.581 6.57616 40.8059 6.91339 41.0307 7.30684C41.1993 7.70028 41.3117 8.14994 41.3117 8.65579C41.3117 9.16165 41.2555 9.6113 41.0869 9.94854C40.9183 10.342 40.7497 10.623 40.5248 10.904C40.3 11.1851 40.019 11.4099 39.7941 11.6347C39.5131 11.8596 39.2883 12.0282 39.0073 12.1968C38.7824 12.3654 38.5576 12.534 38.389 12.7589C38.2204 12.9275 38.0517 12.9275 37.9955 13.1523L37.8831 13.7144H36.6466L36.5342 12.6465C36.5342 12.3654 36.5904 12.3654 36.7028 12.1406C36.8152 11.9158 37.04 11.8596 37.2649 11.6347C37.4897 11.4099 37.7145 11.2975 37.9955 11.1289C38.2766 10.9603 38.5014 10.7354 38.7824 10.5106C39.0073 10.2858 39.2321 10.0047 39.4007 9.72372C39.5693 9.44268 39.6255 9.10544 39.6255 8.65579C39.6255 8.37476 39.5693 8.09373 39.4569 7.8689C39.3445 7.64408 39.1759 7.41925 39.0073 7.25063C38.8386 7.08201 38.5576 6.9696 38.3328 6.85719C38.0517 6.74477 37.7707 6.74477 37.4897 6.74477C37.0962 6.74477 36.759 6.80098 36.4218 6.91339C36.1407 7.02581 35.8597 7.13822 35.6911 7.25063C35.4662 7.36304 35.3538 7.47546 35.1852 7.58787C35.0728 7.70028 34.9604 7.75649 34.9042 7.75649C34.7356 7.75649 34.6232 7.70028 34.5107 7.53166L34.0049 6.85719ZM36.1407 17.5364C36.1407 17.3678 36.1407 17.2554 36.1969 17.0868C36.2531 16.9743 36.3093 16.8619 36.4218 16.7495C36.5342 16.6371 36.6466 16.5809 36.759 16.5247C36.8714 16.4685 37.04 16.4123 37.2087 16.4123C37.3773 16.4123 37.4897 16.4685 37.6583 16.5247C37.7707 16.5809 37.8831 16.6371 37.9955 16.7495C38.108 16.8619 38.1642 16.9743 38.2204 17.0868C38.2766 17.1992 38.3328 17.3678 38.3328 17.5364C38.3328 17.705 38.2766 17.8174 38.2204 17.9861C38.1642 18.0985 38.108 18.2109 37.9955 18.3233C37.8831 18.4357 37.7707 18.4919 37.6583 18.5481C37.5459 18.6043 37.3773 18.6043 37.2087 18.6043C37.04 18.6043 36.9276 18.6043 36.759 18.5481C36.6466 18.4919 36.5342 18.4357 36.4218 18.3233C36.3093 18.2109 36.2531 18.0985 36.1969 17.9861C36.1407 17.8174 36.1407 17.705 36.1407 17.5364Z" fill="#0B9D47"/>
</svg>
