<svg xmlns="http://www.w3.org/2000/svg" width="24" height="24" fill="none" viewBox="0 0 24 24"><path fill="#00373D" d="M22 0H2C0.896 0 0 0.896 0 2V22C0 23.104 0.896 24 2 24H22C23.104 24 24 23.104 24 22V2C24 0.896 23.104 0 22 0Z"/><path fill="#fff" fill-rule="evenodd" d="M17.7921 5.94547C17.1624 5.19579 16.2978 4.79999 15.288 4.79999C13.32 4.79999 11.72 6.39999 11.72 8.36799C11.72 8.43999 11.72 8.51199 11.728 8.58399C11.448 8.62399 11.168 8.63999 10.888 8.63999C8.63199 8.63999 6.51999 7.52799 5.23999 5.66399C5.11999 5.49599 4.85599 5.51199 4.75999 5.69599C4.21599 6.81599 4.21599 8.04799 4.76799 9.25599C4.86399 9.47999 4.97599 9.68799 5.08799 9.87199L4.47999 9.59199C4.27999 9.50399 4.06399 9.67999 4.09599 9.88799C4.36799 11.488 5.28799 12.408 6.01599 12.888L6.01602 12.888C6.08801 12.936 6.16 12.984 6.23199 13.024H5.81599C5.59199 13.024 5.46399 13.296 5.59999 13.472C6.27999 14.344 7.15199 15.048 8.12799 15.544C6.95999 16.272 5.63199 16.712 4.24799 16.832C4.13599 16.84 4.03999 16.92 4.00799 17.032C3.97599 17.136 4.02399 17.264 4.11199 17.328C5.31199 18.184 7.12799 18.648 9.15999 18.648C9.67999 18.648 10.216 18.616 10.76 18.552C12.568 18.352 14.48 17.48 15.888 16.24C16.792 15.448 17.504 14.496 17.992 13.424C18.56 12.192 18.848 10.784 18.848 9.25599C18.848 9.0442 18.8381 8.8357 18.8188 8.63155C19.42 8.11411 19.8397 7.40219 19.992 6.60007C20.016 6.48807 19.968 6.36807 19.864 6.31207C19.76 6.25607 19.64 6.26407 19.544 6.34407C19.421 6.44898 19.2903 6.54325 19.1533 6.62634C19.3428 6.23418 19.4586 5.80871 19.496 5.37611C19.504 5.25611 19.44 5.15211 19.336 5.10411C19.232 5.05611 19.104 5.08011 19.024 5.16011C18.6806 5.52012 18.2567 5.7881 17.7921 5.94547ZM15.2881 6.44823C14.8321 6.44823 14.4641 6.81623 14.4641 7.27223C14.4641 7.72023 14.8321 8.08823 15.2881 8.08823C15.7361 8.08823 16.1041 7.72023 16.1041 7.27223C16.1041 6.81623 15.7361 6.44823 15.2881 6.44823Z" clip-rule="evenodd"/></svg>