<svg width="40" height="40" viewBox="0 0 40 40" fill="none" xmlns="http://www.w3.org/2000/svg">
<rect width="40" height="40" rx="10" fill="#F1F5F5"/>
<path fill-rule="evenodd" clip-rule="evenodd" d="M19 12.4142L16.7071 14.7072C16.3166 15.0977 15.6834 15.0977 15.2929 14.7072C14.9024 14.3167 14.9024 13.6834 15.2929 13.2929L19.2929 9.29289C19.6834 8.90237 20.3166 8.90237 20.7071 9.29289L24.7071 13.2929C25.0976 13.6834 25.0976 14.3167 24.7071 14.7072C24.3166 15.0977 23.6834 15.0977 23.2929 14.7072L21 12.4142V22C21 22.5523 20.5523 23 20 23C19.4477 23 19 22.5523 19 22V12.4142ZM12 30C11.4477 30 11 29.5523 11 29C11 28.4478 11.4477 28 12 28H28C28.5523 28 29 28.4478 29 29C29 29.5523 28.5523 30 28 30H12Z" fill="#FE3B30"/>
</svg>
