<svg width="248" height="64" viewBox="0 0 248 64" fill="none" xmlns="http://www.w3.org/2000/svg">
<g filter="url(#filter0_d)">
<rect x="12.5" y="6.5" width="223" height="39" rx="9.5" fill="#F5F8F2" stroke="#227F00"/>
<path d="M91.872 20.8L88.16 32H85.952L83.184 23.712L80.368 32H78.144L74.432 20.8H76.592L79.376 29.312L82.272 20.8H84.192L87.024 29.36L89.888 20.8H91.872ZM95.9979 23.36C97.2565 23.36 98.2165 23.664 98.8779 24.272C99.5499 24.8693 99.8859 25.776 99.8859 26.992V32H97.9979V30.96C97.7525 31.3333 97.4005 31.6213 96.9419 31.824C96.4939 32.016 95.9499 32.112 95.3099 32.112C94.6699 32.112 94.1099 32.0053 93.6299 31.792C93.1499 31.568 92.7765 31.264 92.5099 30.88C92.2539 30.4853 92.1259 30.0427 92.1259 29.552C92.1259 28.784 92.4085 28.1707 92.9739 27.712C93.5499 27.2427 94.4512 27.008 95.6779 27.008H97.8859V26.88C97.8859 26.2827 97.7045 25.824 97.3419 25.504C96.9899 25.184 96.4619 25.024 95.7579 25.024C95.2779 25.024 94.8032 25.0987 94.3339 25.248C93.8752 25.3973 93.4859 25.6053 93.1659 25.872L92.3819 24.416C92.8299 24.0747 93.3685 23.8133 93.9979 23.632C94.6272 23.4507 95.2939 23.36 95.9979 23.36ZM95.7259 30.656C96.2272 30.656 96.6699 30.544 97.0539 30.32C97.4485 30.0853 97.7259 29.7547 97.8859 29.328V28.336H95.8219C94.6699 28.336 94.0939 28.7147 94.0939 29.472C94.0939 29.8347 94.2379 30.1227 94.5259 30.336C94.8139 30.5493 95.2139 30.656 95.7259 30.656ZM107.589 31.536C107.354 31.728 107.066 31.872 106.725 31.968C106.394 32.064 106.042 32.112 105.669 32.112C104.73 32.112 104.005 31.8667 103.493 31.376C102.981 30.8853 102.725 30.1707 102.725 29.232V25.12H101.317V23.52H102.725V21.568H104.725V23.52H107.013V25.12H104.725V29.184C104.725 29.6 104.826 29.92 105.029 30.144C105.231 30.3573 105.525 30.464 105.909 30.464C106.357 30.464 106.73 30.3467 107.029 30.112L107.589 31.536ZM112.873 32.112C111.987 32.112 111.193 31.9253 110.489 31.552C109.785 31.1787 109.235 30.6613 108.841 30C108.446 29.328 108.249 28.5707 108.249 27.728C108.249 26.8853 108.446 26.1333 108.841 25.472C109.235 24.8107 109.779 24.2933 110.473 23.92C111.177 23.5467 111.977 23.36 112.873 23.36C113.715 23.36 114.451 23.5307 115.081 23.872C115.721 24.2133 116.201 24.704 116.521 25.344L114.985 26.24C114.739 25.8453 114.43 25.552 114.057 25.36C113.694 25.1573 113.294 25.056 112.857 25.056C112.11 25.056 111.491 25.3013 111.001 25.792C110.51 26.272 110.265 26.9173 110.265 27.728C110.265 28.5387 110.505 29.1893 110.985 29.68C111.475 30.16 112.099 30.4 112.857 30.4C113.294 30.4 113.694 30.304 114.057 30.112C114.43 29.9093 114.739 29.6107 114.985 29.216L116.521 30.112C116.19 30.752 115.705 31.248 115.065 31.6C114.435 31.9413 113.705 32.112 112.873 32.112ZM123.019 23.36C124.097 23.36 124.961 23.6747 125.611 24.304C126.262 24.9333 126.587 25.8667 126.587 27.104V32H124.587V27.36C124.587 26.6133 124.411 26.0533 124.059 25.68C123.707 25.296 123.206 25.104 122.555 25.104C121.819 25.104 121.238 25.328 120.811 25.776C120.385 26.2133 120.171 26.848 120.171 27.68V32H118.171V20.128H120.171V24.448C120.502 24.096 120.907 23.8293 121.387 23.648C121.878 23.456 122.422 23.36 123.019 23.36ZM138.682 31.536C138.448 31.728 138.16 31.872 137.818 31.968C137.488 32.064 137.136 32.112 136.762 32.112C135.824 32.112 135.098 31.8667 134.586 31.376C134.074 30.8853 133.818 30.1707 133.818 29.232V25.12H132.41V23.52H133.818V21.568H135.818V23.52H138.106V25.12H135.818V29.184C135.818 29.6 135.92 29.92 136.122 30.144C136.325 30.3573 136.618 30.464 137.002 30.464C137.45 30.464 137.824 30.3467 138.122 30.112L138.682 31.536ZM145.176 23.36C146.253 23.36 147.117 23.6747 147.768 24.304C148.418 24.9333 148.744 25.8667 148.744 27.104V32H146.744V27.36C146.744 26.6133 146.568 26.0533 146.216 25.68C145.864 25.296 145.362 25.104 144.712 25.104C143.976 25.104 143.394 25.328 142.968 25.776C142.541 26.2133 142.328 26.848 142.328 27.68V32H140.328V20.128H142.328V24.448C142.658 24.096 143.064 23.8293 143.544 23.648C144.034 23.456 144.578 23.36 145.176 23.36ZM159.391 27.776C159.391 27.9147 159.38 28.112 159.359 28.368H152.655C152.772 28.9973 153.076 29.4987 153.567 29.872C154.068 30.2347 154.687 30.416 155.423 30.416C156.362 30.416 157.135 30.1067 157.743 29.488L158.815 30.72C158.431 31.1787 157.946 31.5253 157.359 31.76C156.772 31.9947 156.111 32.112 155.375 32.112C154.436 32.112 153.61 31.9253 152.895 31.552C152.18 31.1787 151.626 30.6613 151.231 30C150.847 29.328 150.655 28.5707 150.655 27.728C150.655 26.896 150.842 26.1493 151.215 25.488C151.599 24.816 152.127 24.2933 152.799 23.92C153.471 23.5467 154.228 23.36 155.071 23.36C155.903 23.36 156.644 23.5467 157.295 23.92C157.956 24.2827 158.468 24.8 158.831 25.472C159.204 26.1333 159.391 26.9013 159.391 27.776ZM155.071 24.96C154.431 24.96 153.887 25.152 153.439 25.536C153.002 25.9093 152.735 26.4107 152.639 27.04H157.487C157.402 26.4213 157.14 25.92 156.703 25.536C156.266 25.152 155.722 24.96 155.071 24.96ZM173.734 23.456L170.07 32H168.006L164.342 23.456H166.422L169.078 29.792L171.814 23.456H173.734ZM174.984 23.456H176.984V32H174.984V23.456ZM175.992 22.048C175.629 22.048 175.325 21.936 175.08 21.712C174.835 21.4773 174.712 21.1893 174.712 20.848C174.712 20.5067 174.835 20.224 175.08 20C175.325 19.7653 175.629 19.648 175.992 19.648C176.355 19.648 176.659 19.76 176.904 19.984C177.149 20.1973 177.272 20.4693 177.272 20.8C177.272 21.152 177.149 21.4507 176.904 21.696C176.669 21.9307 176.365 22.048 175.992 22.048ZM187.977 20.128V32H186.057V30.896C185.726 31.3013 185.316 31.6053 184.825 31.808C184.345 32.0107 183.812 32.112 183.225 32.112C182.404 32.112 181.662 31.9307 181.001 31.568C180.35 31.2053 179.838 30.6933 179.465 30.032C179.092 29.36 178.905 28.592 178.905 27.728C178.905 26.864 179.092 26.1013 179.465 25.44C179.838 24.7787 180.35 24.2667 181.001 23.904C181.662 23.5413 182.404 23.36 183.225 23.36C183.79 23.36 184.308 23.456 184.777 23.648C185.246 23.84 185.646 24.128 185.977 24.512V20.128H187.977ZM183.465 30.4C183.945 30.4 184.377 30.2933 184.761 30.08C185.145 29.856 185.449 29.5413 185.673 29.136C185.897 28.7307 186.009 28.2613 186.009 27.728C186.009 27.1947 185.897 26.7253 185.673 26.32C185.449 25.9147 185.145 25.6053 184.761 25.392C184.377 25.168 183.945 25.056 183.465 25.056C182.985 25.056 182.553 25.168 182.169 25.392C181.785 25.6053 181.481 25.9147 181.257 26.32C181.033 26.7253 180.921 27.1947 180.921 27.728C180.921 28.2613 181.033 28.7307 181.257 29.136C181.481 29.5413 181.785 29.856 182.169 30.08C182.553 30.2933 182.985 30.4 183.465 30.4ZM198.625 27.776C198.625 27.9147 198.615 28.112 198.593 28.368H191.889C192.007 28.9973 192.311 29.4987 192.801 29.872C193.303 30.2347 193.921 30.416 194.657 30.416C195.596 30.416 196.369 30.1067 196.977 29.488L198.049 30.72C197.665 31.1787 197.18 31.5253 196.593 31.76C196.007 31.9947 195.345 32.112 194.609 32.112C193.671 32.112 192.844 31.9253 192.129 31.552C191.415 31.1787 190.86 30.6613 190.465 30C190.081 29.328 189.889 28.5707 189.889 27.728C189.889 26.896 190.076 26.1493 190.449 25.488C190.833 24.816 191.361 24.2933 192.033 23.92C192.705 23.5467 193.463 23.36 194.305 23.36C195.137 23.36 195.879 23.5467 196.529 23.92C197.191 24.2827 197.703 24.8 198.065 25.472C198.439 26.1333 198.625 26.9013 198.625 27.776ZM194.305 24.96C193.665 24.96 193.121 25.152 192.673 25.536C192.236 25.9093 191.969 26.4107 191.873 27.04H196.721C196.636 26.4213 196.375 25.92 195.937 25.536C195.5 25.152 194.956 24.96 194.305 24.96ZM204.386 32.112C203.522 32.112 202.744 31.9253 202.05 31.552C201.357 31.1787 200.813 30.6613 200.418 30C200.034 29.328 199.842 28.5707 199.842 27.728C199.842 26.8853 200.034 26.1333 200.418 25.472C200.813 24.8107 201.357 24.2933 202.05 23.92C202.744 23.5467 203.522 23.36 204.386 23.36C205.261 23.36 206.045 23.5467 206.738 23.92C207.432 24.2933 207.97 24.8107 208.354 25.472C208.749 26.1333 208.946 26.8853 208.946 27.728C208.946 28.5707 208.749 29.328 208.354 30C207.97 30.6613 207.432 31.1787 206.738 31.552C206.045 31.9253 205.261 32.112 204.386 32.112ZM204.386 30.4C205.122 30.4 205.73 30.1547 206.21 29.664C206.69 29.1733 206.93 28.528 206.93 27.728C206.93 26.928 206.69 26.2827 206.21 25.792C205.73 25.3013 205.122 25.056 204.386 25.056C203.65 25.056 203.042 25.3013 202.562 25.792C202.093 26.2827 201.858 26.928 201.858 27.728C201.858 28.528 202.093 29.1733 202.562 29.664C203.042 30.1547 203.65 30.4 204.386 30.4Z" fill="#03363C"/>
<rect x="18.5" y="12.5" width="35" height="27" rx="4.5" fill="#F4F8F0" stroke="#227F00"/>
<path d="M41.048 24.9321L30.9183 19.0883C30.7144 18.9706 30.4986 18.9706 30.2944 19.0883C30.0901 19.2061 30 19.4236 30 19.6592V31.3467C30 31.5821 30.0901 31.7997 30.2942 31.9174C30.3963 31.9763 30.4922 32.0057 30.6062 32.0057C30.72 32.0057 30.825 31.9763 30.9271 31.9174L41.0525 26.0737C41.2566 25.9561 41.38 25.7384 41.38 25.503C41.38 25.2675 41.252 25.05 41.048 24.9321Z" fill="#227F00"/>
</g>
<defs>
<filter id="filter0_d" x="0" y="0" width="248" height="64" filterUnits="userSpaceOnUse" color-interpolation-filters="sRGB">
<feFlood flood-opacity="0" result="BackgroundImageFix"/>
<feColorMatrix in="SourceAlpha" type="matrix" values="0 0 0 0 0 0 0 0 0 0 0 0 0 0 0 0 0 0 127 0"/>
<feOffset dy="6"/>
<feGaussianBlur stdDeviation="6"/>
<feColorMatrix type="matrix" values="0 0 0 0 0.133333 0 0 0 0 0.498039 0 0 0 0 0 0 0 0 0.06 0"/>
<feBlend mode="normal" in2="BackgroundImageFix" result="effect1_dropShadow"/>
<feBlend mode="normal" in="SourceGraphic" in2="effect1_dropShadow" result="shape"/>
</filter>
</defs>
</svg>
