<svg width="24" height="24" viewBox="0 0 24 24" fill="none" xmlns="http://www.w3.org/2000/svg">
<path d="M19.2866 6.74788L19.4031 7.51356C19.6675 7.4733 19.928 7.42763 20.1835 7.37653L20.0314 6.61743C19.7879 6.66582 19.539 6.70956 19.2866 6.74788Z" fill="#30656D"/>
<path d="M20.7666 6.4503L20.9586 7.2005C21.2218 7.13314 21.4777 7.05921 21.7254 6.97908L21.487 6.24243C21.2547 6.31753 21.014 6.38721 20.7666 6.4503Z" fill="#30656D"/>
<path d="M17.7788 6.91432L17.8342 7.68658C18.0982 7.66761 18.3598 7.644 18.6196 7.61574L18.5356 6.84619C18.2851 6.87329 18.0327 6.89613 17.7788 6.91432Z" fill="#30656D"/>
<path d="M19.2866 12.9415L19.4031 13.7072C19.6675 13.6669 19.928 13.6212 20.1835 13.5701L20.0314 12.811C19.7879 12.8594 19.539 12.9032 19.2866 12.9415Z" fill="#30656D"/>
<path d="M20.7666 12.6437L20.9586 13.3939C21.2218 13.3265 21.4777 13.2526 21.7254 13.1724L21.487 12.4358C21.2547 12.5109 21.014 12.5806 20.7666 12.6437Z" fill="#30656D"/>
<path d="M17.7788 13.1079L17.8342 13.8802C18.0982 13.8612 18.3598 13.8376 18.6196 13.8093L18.5356 13.0398C18.2851 13.0669 18.0327 13.0897 17.7788 13.1079Z" fill="#30656D"/>
<path d="M16.2581 0C12.5052 0 8.51613 1.08542 8.51613 3.09677V7.64284C6.67664 8.61832 5.41935 10.5511 5.41935 12.7742C5.41935 13.9386 5.76735 15.0217 6.35961 15.9317L5.6129 16.6784L5.03226 16.0978L0.594581 20.5355C0.210968 20.9191 0 21.4285 0 21.9705C0 23.0895 0.910452 24 2.02955 24C2.57148 24 3.08129 23.789 3.46452 23.4054L7.90219 18.9677L7.32155 18.3871L8.06826 17.6404C8.97832 18.2326 10.0614 18.5806 11.2258 18.5806C13.4493 18.5806 15.3825 17.323 16.3575 15.4831C20.0814 15.4641 24 14.3806 24 12.3871V3.09677C24 1.08542 20.011 0 16.2581 0ZM16.2581 0.774194C20.3644 0.774194 23.2258 1.99819 23.2258 3.09677C23.2258 4.19535 20.3644 5.41935 16.2581 5.41935C12.1517 5.41935 9.29032 4.19535 9.29032 3.09677C9.29032 1.99819 12.1517 0.774194 16.2581 0.774194ZM2.91716 22.8581C2.67987 23.0954 2.36477 23.2258 2.02955 23.2258C1.33742 23.2258 0.774194 22.6626 0.774194 21.9705C0.774194 21.6352 0.904645 21.3201 1.14194 21.0828L5.03226 17.1925L6.80748 18.9677L2.91716 22.8581ZM6.77419 17.8397L6.16026 17.2258L6.82955 16.5565C7.01884 16.776 7.224 16.9812 7.44348 17.1705L6.77419 17.8397ZM11.2258 17.8065C8.4511 17.8065 6.19355 15.5489 6.19355 12.7742C6.19355 9.99948 8.4511 7.74194 11.2258 7.74194C14.0005 7.74194 16.2581 9.99948 16.2581 12.7742C16.2581 15.5489 14.0005 17.8065 11.2258 17.8065ZM16.6966 14.7015C16.9099 14.0973 17.0323 13.4505 17.0323 12.7742C17.0323 12.6375 17.021 12.5036 17.0117 12.3693C20.088 12.2628 22.1826 11.5603 23.2258 10.6742V12.3871C23.2258 13.4458 20.5645 14.6175 16.6966 14.7015ZM16.9123 11.5986C16.735 10.7392 16.3622 9.95264 15.8501 9.27716C15.9867 9.27987 16.1214 9.29032 16.2581 9.29032C19.0095 9.29032 21.8853 8.70619 23.2258 7.60258V9.29032C23.2258 10.3065 20.6477 11.4743 16.9123 11.5986ZM16.2581 8.51613C15.8764 8.51613 15.4955 8.50142 15.12 8.47974C14.0884 7.54374 12.725 6.96774 11.2258 6.96774C10.5465 6.96774 9.8969 7.09123 9.29032 7.30645V4.50581C10.6308 5.60942 13.5066 6.19355 16.2581 6.19355C19.0095 6.19355 21.8853 5.60942 23.2258 4.50581V6.19355C23.2258 7.29213 20.3644 8.51613 16.2581 8.51613Z" fill="#30656D"/>
<path d="M16.2582 4.64511C16.8129 4.64511 21.6776 4.60176 21.6776 3.09673C21.6776 1.59169 16.8129 1.54834 16.2582 1.54834C15.7035 1.54834 10.8389 1.59169 10.8389 3.09673C10.8389 4.60176 15.7035 4.64511 16.2582 4.64511ZM16.2582 2.32253C18.9404 2.32253 20.6045 2.79982 20.8821 3.09673C20.6045 3.39363 18.9404 3.87092 16.2582 3.87092C13.576 3.87092 11.9119 3.39363 11.6344 3.09673C11.9119 2.79982 13.576 2.32253 16.2582 2.32253Z" fill="#30656D"/>
<path d="M3.09677 6.19355H7.74194V3.09677C7.74194 1.38929 6.35264 0 4.64516 0H3.09677C1.38929 0 0 1.38929 0 3.09677C0 4.80426 1.38929 6.19355 3.09677 6.19355ZM3.09677 0.774194H4.64516C5.92606 0.774194 6.96774 1.81587 6.96774 3.09677V5.41935H3.09677C1.81587 5.41935 0.774194 4.37768 0.774194 3.09677C0.774194 1.81587 1.81587 0.774194 3.09677 0.774194Z" fill="#30656D"/>
<path d="M21.2906 16.2581H16.2583V18.9677C16.2583 20.4619 17.4738 21.6774 18.968 21.6774H21.2906C22.7848 21.6774 24.0002 20.4619 24.0002 18.9677C24.0002 17.4735 22.7848 16.2581 21.2906 16.2581ZM21.2906 20.9032H18.968C17.9008 20.9032 17.0325 20.035 17.0325 18.9677V17.0323H21.2906C22.3578 17.0323 23.226 17.9005 23.226 18.9677C23.226 20.035 22.3578 20.9032 21.2906 20.9032Z" fill="#30656D"/>
<path d="M6.1935 3.87092H5.41931V1.54834H4.64511V3.87092H3.87092V2.32253H3.09673V3.87092H2.32253V1.54834H1.54834V4.64511H6.1935V3.87092Z" fill="#30656D"/>
<path d="M11.2258 8.51611C8.8781 8.51611 6.96777 10.4264 6.96777 12.7742C6.96777 15.1219 8.8781 17.0322 11.2258 17.0322C13.5736 17.0322 15.4839 15.1219 15.4839 12.7742C15.4839 10.4264 13.5736 8.51611 11.2258 8.51611ZM14.4763 11.5308C11.772 11.2804 10.0142 10.5135 9.47268 9.76876C9.98829 9.46644 10.5864 9.29031 11.2258 9.29031C12.7084 9.29031 13.9742 10.2228 14.4763 11.5308ZM7.74197 12.7742C7.74197 11.9473 8.03306 11.1875 8.51616 10.5894V12.3871C8.51616 13.7648 10.4923 14.8796 13.6111 15.3066C12.9871 15.8946 12.1491 16.258 11.2258 16.258C9.30506 16.258 7.74197 14.695 7.74197 12.7742ZM14.1894 14.5962C11.0083 14.2471 9.29035 13.2104 9.29035 12.3871V10.6881C10.3034 11.5304 12.2435 12.1324 14.6772 12.3232C14.6965 12.4711 14.7097 12.6209 14.7097 12.7742C14.7097 13.4427 14.5173 14.0651 14.1894 14.5962Z" fill="#30656D"/>
<path d="M18.5808 17.8064H17.8066V18.5806H18.5808V17.8064Z" fill="#30656D"/>
<path d="M20.1292 17.8064H19.355V18.5806H20.1292V17.8064Z" fill="#30656D"/>
<path d="M22.4518 19.3547H17.8066V20.1289H22.4518V19.3547Z" fill="#30656D"/>
<path d="M21.6775 17.8064H20.9033V18.5806H21.6775V17.8064Z" fill="#30656D"/>
</svg>
